<?xml version="1.0" encoding="UTF-8" standalone="no" ?>
<COLLADA xmlns="http://www.collada.org/2005/11/COLLADASchema" version="1.4.1">
    <asset>
        <contributor>
            <authoring_tool>SketchUp 17.2.2555</authoring_tool>
        </contributor>
        <created>2026-07-05T17:07:18Z</created>
        <modified>2026-07-05T17:07:18Z</modified>
        <unit meter="0.0254" name="inch" />
        <up_axis>Z_UP</up_axis>
    </asset>
    <library_cameras>
        <camera id="ID1" name="skp_camera_Last_Saved_SketchUp_View">
            <optics>
                <technique_common>
                    <perspective>
                        <yfov>35</yfov>
                        <aspect_ratio>0</aspect_ratio>
                        <znear>0.1</znear>
                        <zfar>2</zfar>
                    </perspective>
                </technique_common>
            </optics>
        </camera>
    </library_cameras>
    <library_visual_scenes>
        <visual_scene id="ID2">
            <node name="SketchUp">
                <node name="skp_camera_Last_Saved_SketchUp_View">
                    <matrix>0.8789979 0.143735 -0.454646 -11.13945 -0.4768257 0.2649663 -0.838111 -22.80116 -2.775558e-17 0.9534847 0.3014414 5.503057 0 0 0 1</matrix>
                    <instance_camera url="#ID1" />
                </node>
                <node id="ID3" name="instance_0">
                    <matrix>1 0 0 -0.1181102 0 1 0 0 0 0 1 -0.1181102 0 0 0 1</matrix>
                    <instance_node url="#ID4" />
                </node>
                <node id="ID63" name="instance_1">
                    <matrix>1 0 0 5.397638 0 1 0 1.259843 0 0 1 -10.62992 0 0 0 1</matrix>
                    <instance_node url="#ID64" />
                </node>
                <node id="ID118" name="instance_2">
                    <matrix>0.8 0 0 1.948819 0 4.551914e-16 -0.8 2.579301 0 0.8 4.551914e-16 -0.1574803 0 0 0 1</matrix>
                    <instance_node url="#ID119" />
                </node>
            </node>
        </visual_scene>
    </library_visual_scenes>
    <library_nodes>
        <node id="ID4" name="panel">
            <instance_geometry url="#ID5">
                <bind_material>
                    <technique_common>
                        <instance_material symbol="Material2" target="#ID6">
                            <bind_vertex_input semantic="UVSET0" input_semantic="TEXCOORD" input_set="0" />
                        </instance_material>
                    </technique_common>
                </bind_material>
            </instance_geometry>
            <instance_geometry url="#ID18">
                <bind_material>
                    <technique_common>
                        <instance_material symbol="Material2" target="#ID19">
                            <bind_vertex_input semantic="UVSET0" input_semantic="TEXCOORD" input_set="0" />
                        </instance_material>
                    </technique_common>
                </bind_material>
            </instance_geometry>
            <instance_geometry url="#ID31">
                <bind_material>
                    <technique_common>
                        <instance_material symbol="Material2" target="#ID6">
                            <bind_vertex_input semantic="UVSET0" input_semantic="TEXCOORD" input_set="0" />
                        </instance_material>
                    </technique_common>
                </bind_material>
            </instance_geometry>
            <instance_geometry url="#ID39">
                <bind_material>
                    <technique_common>
                        <instance_material symbol="Material2" target="#ID19">
                            <bind_vertex_input semantic="UVSET0" input_semantic="TEXCOORD" input_set="0" />
                        </instance_material>
                    </technique_common>
                </bind_material>
            </instance_geometry>
            <instance_geometry url="#ID47">
                <bind_material>
                    <technique_common>
                        <instance_material symbol="Material2" target="#ID6">
                            <bind_vertex_input semantic="UVSET0" input_semantic="TEXCOORD" input_set="0" />
                        </instance_material>
                    </technique_common>
                </bind_material>
            </instance_geometry>
            <instance_geometry url="#ID55">
                <bind_material>
                    <technique_common>
                        <instance_material symbol="Material2" target="#ID6">
                            <bind_vertex_input semantic="UVSET0" input_semantic="TEXCOORD" input_set="0" />
                        </instance_material>
                    </technique_common>
                </bind_material>
            </instance_geometry>
        </node>
        <node id="ID64" name="mount">
            <instance_geometry url="#ID65">
                <bind_material>
                    <technique_common>
                        <instance_material symbol="Material2" target="#ID66">
                            <bind_vertex_input semantic="UVSET0" input_semantic="TEXCOORD" input_set="0" />
                        </instance_material>
                    </technique_common>
                </bind_material>
            </instance_geometry>
            <instance_geometry url="#ID78">
                <bind_material>
                    <technique_common>
                        <instance_material symbol="Material2" target="#ID6">
                            <bind_vertex_input semantic="UVSET0" input_semantic="TEXCOORD" input_set="0" />
                        </instance_material>
                    </technique_common>
                </bind_material>
            </instance_geometry>
            <instance_geometry url="#ID86">
                <bind_material>
                    <technique_common>
                        <instance_material symbol="Material2" target="#ID6">
                            <bind_vertex_input semantic="UVSET0" input_semantic="TEXCOORD" input_set="0" />
                        </instance_material>
                    </technique_common>
                </bind_material>
            </instance_geometry>
            <instance_geometry url="#ID94">
                <bind_material>
                    <technique_common>
                        <instance_material symbol="Material2" target="#ID66">
                            <bind_vertex_input semantic="UVSET0" input_semantic="TEXCOORD" input_set="0" />
                        </instance_material>
                    </technique_common>
                </bind_material>
            </instance_geometry>
            <instance_geometry url="#ID102">
                <bind_material>
                    <technique_common>
                        <instance_material symbol="Material2" target="#ID6">
                            <bind_vertex_input semantic="UVSET0" input_semantic="TEXCOORD" input_set="0" />
                        </instance_material>
                    </technique_common>
                </bind_material>
            </instance_geometry>
            <instance_geometry url="#ID110">
                <bind_material>
                    <technique_common>
                        <instance_material symbol="Material2" target="#ID6">
                            <bind_vertex_input semantic="UVSET0" input_semantic="TEXCOORD" input_set="0" />
                        </instance_material>
                    </technique_common>
                </bind_material>
            </instance_geometry>
        </node>
        <node id="ID119" name="pipe">
            <instance_geometry url="#ID120">
                <bind_material>
                    <technique_common>
                        <instance_material symbol="Material2" target="#ID19">
                            <bind_vertex_input semantic="UVSET0" input_semantic="TEXCOORD" input_set="0" />
                        </instance_material>
                    </technique_common>
                </bind_material>
            </instance_geometry>
            <instance_geometry url="#ID128">
                <bind_material>
                    <technique_common>
                        <instance_material symbol="Material2" target="#ID129">
                            <bind_vertex_input semantic="UVSET0" input_semantic="TEXCOORD" input_set="0" />
                        </instance_material>
                    </technique_common>
                </bind_material>
            </instance_geometry>
        </node>
    </library_nodes>
    <library_geometries>
        <geometry id="ID5">
            <mesh>
                <source id="ID11">
                    <float_array id="ID15" count="30">0.4423649 0 3.135782 0.2662965 0 3.078574 0.3636247 0 3.078574 0.1875564 0 3.135782 0.4724409 0 3.228346 0.1574803 0 3.228346 0.4423649 0 3.320911 0.1875564 0 3.320911 0.3636247 0 3.378119 0.2662965 0 3.378119</float_array>
                    <technique_common>
                        <accessor count="10" source="#ID15" stride="3">
                            <param name="X" type="float" />
                            <param name="Y" type="float" />
                            <param name="Z" type="float" />
                        </accessor>
                    </technique_common>
                </source>
                <source id="ID12">
                    <float_array id="ID16" count="30">0 -1 0 0 -1 0 0 -1 0 0 -1 0 0 -1 0 0 -1 0 0 -1 0 0 -1 0 0 -1 0 0 -1 0</float_array>
                    <technique_common>
                        <accessor count="10" source="#ID16" stride="3">
                            <param name="X" type="float" />
                            <param name="Y" type="float" />
                            <param name="Z" type="float" />
                        </accessor>
                    </technique_common>
                </source>
                <source id="ID14">
                    <float_array id="ID17" count="20">0.785765 0.2927911 0.3889748 0.1638662 0.608315 0.1638662 0.2115249 0.2927911 0.8535449 0.501396 0.1437451 0.501396 0.7857651 0.7100009 0.211525 0.7100009 0.6083152 0.8389258 0.388975 0.8389258</float_array>
                    <technique_common>
                        <accessor count="10" source="#ID17" stride="2">
                            <param name="S" type="float" />
                            <param name="T" type="float" />
                        </accessor>
                    </technique_common>
                </source>
                <vertices id="ID13">
                    <input semantic="POSITION" source="#ID11" />
                    <input semantic="NORMAL" source="#ID12" />
                </vertices>
                <triangles count="8" material="Material2">
                    <input offset="0" semantic="VERTEX" source="#ID13" />
                    <input offset="1" semantic="TEXCOORD" source="#ID14" />
                    <p>0 0 1 1 2 2 1 1 0 0 3 3 3 3 0 0 4 4 3 3 4 4 5 5 5 5 4 4 6 6 5 5 6 6 7 7 7 7 6 6 8 8 7 7 8 8 9 9</p>
                </triangles>
            </mesh>
        </geometry>
        <geometry id="ID18">
            <mesh>
                <source id="ID24">
                    <float_array id="ID28" count="72">0.1574803 0.7874016 3.425197 5.07874 3.267717 3.425197 0.1574803 3.267717 3.425197 5.07874 0.7874016 3.425197 5.11811 3.267717 3.385827 5.11811 0.7874016 3.385827 0.1181102 3.267717 0.1574803 5.07874 3.267717 0.1181102 0.1574803 3.267717 0.1181102 5.11811 3.267717 0.1574803 0.1181102 3.267717 3.385827 5.11811 3.267717 3.385827 0.1574803 3.267717 3.425197 5.07874 3.267717 3.425197 0.1181102 3.267717 3.385827 0.1181102 0.7874016 3.385827 5.11811 3.267717 0.1574803 5.11811 0.7874016 0.1574803 5.07874 3.267717 0.1181102 0.1574803 0.7874016 0.1181102 0.1574803 3.267717 0.1181102 5.07874 0.7874016 0.1181102 0.1181102 3.267717 0.1574803 0.1181102 0.7874016 0.1574803</float_array>
                    <technique_common>
                        <accessor count="24" source="#ID28" stride="3">
                            <param name="X" type="float" />
                            <param name="Y" type="float" />
                            <param name="Z" type="float" />
                        </accessor>
                    </technique_common>
                </source>
                <source id="ID25">
                    <float_array id="ID29" count="72">-0.3826834 -2.158173e-18 0.9238795 0.3826834 0 0.9238795 -0.3826834 -2.158173e-18 0.9238795 0.3826834 0 0.9238795 0.9238795 0 0.3826834 0.9238795 0 0.3826834 0 1 0 0 1 0 0 1 0 0 1 0 0 1 0 0 1 0 0 1 0 0 1 0 -0.9238795 -2.158173e-18 0.3826834 -0.9238795 -2.158173e-18 0.3826834 0.9238795 0 -0.3826834 0.9238795 0 -0.3826834 0.3826834 0 -0.9238795 -0.3826834 -2.805625e-18 -0.9238795 -0.3826834 -2.805625e-18 -0.9238795 0.3826834 0 -0.9238795 -0.9238795 -2.805625e-18 -0.3826834 -0.9238795 -2.805625e-18 -0.3826834</float_array>
                    <technique_common>
                        <accessor count="24" source="#ID29" stride="3">
                            <param name="X" type="float" />
                            <param name="Y" type="float" />
                            <param name="Z" type="float" />
                        </accessor>
                    </technique_common>
                </source>
                <source id="ID27">
                    <float_array id="ID30" count="80">0.762 -1.734723e-18 0.552 0.4166667 0.552 -1.734723e-17 0.762 0.4166667 1.132013 -0.1267157 1.342013 -0.1314298 1.342013 -0.1267157 1.132013 -0.1314298 0.7633333 0.003333333 0.3433333 1.734723e-18 0.76 1.734723e-18 0.34 0.003333333 0.7633333 0.2766667 0.34 0.2766667 0.76 0.28 0.3433333 0.28 1.299652 -0.1553261 1.509652 -0.150612 1.299652 -0.150612 1.509652 -0.1553261 0.2833333 0.4933333 0.4933333 0.22 0.4933333 0.4933333 0.2833333 0.22 1.36876 1.121502 1.15876 0.7048354 1.36876 0.7048354 1.15876 1.121502 0 4.336809e-19 0.21 -0.004714045 0.21 4.336809e-19 0 -0.004714045 2.337359 -0.04285954 2.127359 0.2304738 2.127359 -0.04285954 2.337359 0.2304738 0.8442078 -1.381055 1.054208 -1.385769 1.054208 -1.381055 0.8442078 -1.385769</float_array>
                    <technique_common>
                        <accessor count="40" source="#ID30" stride="2">
                            <param name="S" type="float" />
                            <param name="T" type="float" />
                        </accessor>
                    </technique_common>
                </source>
                <vertices id="ID26">
                    <input semantic="POSITION" source="#ID24" />
                    <input semantic="NORMAL" source="#ID25" />
                </vertices>
                <triangles count="22" material="Material2">
                    <input offset="0" semantic="VERTEX" source="#ID26" />
                    <input offset="1" semantic="TEXCOORD" source="#ID27" />
                    <p>0 0 1 1 2 2 1 1 0 0 3 3 4 4 3 5 5 6 3 5 4 4 1 7 6 8 7 9 8 10 7 9 6 8 9 11 9 11 6 8 10 12 9 11 10 12 11 13 11 13 10 12 12 14 11 13 12 14 13 15 0 16 14 17 15 18 14 17 0 16 2 19 16 20 5 21 17 22 5 21 16 20 4 23 18 24 19 25 20 26 19 25 18 24 21 27 22 28 19 29 23 30 19 29 22 28 20 31 14 32 23 33 15 34 23 33 14 32 22 35 18 36 17 37 21 38 17 37 18 36 16 39</p>
                </triangles>
            </mesh>
        </geometry>
        <geometry id="ID31">
            <mesh>
                <source id="ID32">
                    <float_array id="ID36" count="30">5.048664 0 3.135782 4.872596 0 3.078574 4.969924 0 3.078574 4.793856 0 3.135782 5.07874 0 3.228346 4.76378 0 3.228346 5.048664 0 3.320911 4.793856 0 3.320911 4.969924 0 3.378119 4.872596 0 3.378119</float_array>
                    <technique_common>
                        <accessor count="10" source="#ID36" stride="3">
                            <param name="X" type="float" />
                            <param name="Y" type="float" />
                            <param name="Z" type="float" />
                        </accessor>
                    </technique_common>
                </source>
                <source id="ID33">
                    <float_array id="ID37" count="30">0 -1 0 0 -1 0 0 -1 0 0 -1 0 0 -1 0 0 -1 0 0 -1 0 0 -1 0 0 -1 0 0 -1 0</float_array>
                    <technique_common>
                        <accessor count="10" source="#ID37" stride="3">
                            <param name="X" type="float" />
                            <param name="Y" type="float" />
                            <param name="Z" type="float" />
                        </accessor>
                    </technique_common>
                </source>
                <source id="ID35">
                    <float_array id="ID38" count="20">20.78724 0.2924516 20.39045 0.1635271 20.60979 0.1635271 20.213 0.2924516 20.85502 0.5010559 20.14522 0.5010559 20.78724 0.7096602 20.213 0.7096602 20.60979 0.8385847 20.39045 0.8385847</float_array>
                    <technique_common>
                        <accessor count="10" source="#ID38" stride="2">
                            <param name="S" type="float" />
                            <param name="T" type="float" />
                        </accessor>
                    </technique_common>
                </source>
                <vertices id="ID34">
                    <input semantic="POSITION" source="#ID32" />
                    <input semantic="NORMAL" source="#ID33" />
                </vertices>
                <triangles count="8" material="Material2">
                    <input offset="0" semantic="VERTEX" source="#ID34" />
                    <input offset="1" semantic="TEXCOORD" source="#ID35" />
                    <p>0 0 1 1 2 2 1 1 0 0 3 3 3 3 0 0 4 4 3 3 4 4 5 5 5 5 4 4 6 6 5 5 6 6 7 7 7 7 6 6 8 8 7 7 8 8 9 9</p>
                </triangles>
            </mesh>
        </geometry>
        <geometry id="ID39">
            <mesh>
                <source id="ID40">
                    <float_array id="ID44" count="228">0.03937008 0.7874016 0.03937008 5.19685 0.7480315 0 0.03937008 0.7480315 0 5.19685 0.7874016 0.03937008 0.03937008 0.03937008 0 5.19685 0.03937008 0 0 0.7480315 0.03937008 0.1574803 0.7874016 0.1181102 0.1181102 0.7874016 0.1574803 0.03937008 0.7874016 3.503937 0.1181102 0.7874016 3.385827 0.1574803 0.7874016 3.425197 5.07874 0.7874016 3.425197 5.11811 0.7874016 0.1574803 5.19685 0.7874016 3.503937 5.07874 0.7874016 0.1181102 5.11811 0.7874016 3.385827 5.23622 0.7480315 0.03937008 5.19685 0 0.03937008 0.03937008 0 0.03937008 0 0.03937008 0.03937008 5.23622 0.03937008 0.03937008 -4.163336e-17 0.7480315 3.503937 5.23622 0.7480315 3.503937 5.19685 0.7480315 3.543307 0.03937008 0.7480315 3.543307 5.19685 0 0.03937008 4.969924 0 0.165188 0.03937008 0 0.03937008 5.048664 0 0.222396 5.07874 0 0.3149606 5.19685 0 3.503937 5.048664 0 0.4075252 4.969924 0 0.4647333 4.872596 0 0.4647333 5.048664 0 3.135782 4.969924 0 3.078574 0.3636247 0 0.4647333 0.2662965 0 0.4647333 5.07874 0 3.228346 5.048664 0 3.320911 4.969924 0 3.378119 4.872596 0 3.378119 0.3636247 0 3.378119 0.2662965 0 3.378119 0.1574803 0 0.3149606 0.03937008 0 3.503937 0.1875564 0 0.222396 0.2662965 0 0.165188 4.872596 0 0.165188 0.3636247 0 0.165188 0.1875564 0 0.4075252 0.1875564 0 3.135782 0.2662965 0 3.078574 4.872596 0 3.078574 0.3636247 0 3.078574 0.1574803 0 3.228346 0.1875564 0 3.320911 4.793856 0 3.135782 0.4423649 0 3.135782 4.76378 0 3.228346 0.4724409 0 3.228346 4.793856 0 3.320911 0.4423649 0 3.320911 4.793856 0 0.222396 0.4423649 0 0.222396 4.76378 0 0.3149606 0.4724409 0 0.3149606 4.793856 0 0.4075252 0.4423649 0 0.4075252 -4.163336e-17 0.03937008 3.503937 5.23622 0.03937008 3.503937 5.19685 0.03937008 3.543307 0.03937008 0.03937008 3.543307 5.19685 0 3.503937 0.03937008 0 3.503937</float_array>
                    <technique_common>
                        <accessor count="76" source="#ID44" stride="3">
                            <param name="X" type="float" />
                            <param name="Y" type="float" />
                            <param name="Z" type="float" />
                        </accessor>
                    </technique_common>
                </source>
                <source id="ID41">
                    <float_array id="ID45" count="228">-0.341586 0.8755787 -0.341586 0.341586 0.341586 -0.8755787 -0.341586 0.341586 -0.8755787 0.341586 0.8755787 -0.341586 -0.341586 -0.341586 -0.8755787 0.341586 -0.341586 -0.8755787 -0.8755787 0.341586 -0.341586 0 1 0 0 1 0 -0.341586 0.8755787 0.341586 0 1 0 0 1 0 0 1 0 0 1 0 0.341586 0.8755787 0.341586 0 1 0 0 1 0 0.8755787 0.341586 -0.341586 0.4605629 -0.7587909 -0.4605629 -0.4605629 -0.7587909 -0.4605629 -0.8755787 -0.341586 -0.341586 0.8755787 -0.341586 -0.341586 -0.8755787 0.341586 0.341586 0.8755787 0.341586 0.341586 0.341586 0.341586 0.8755787 -0.341586 0.341586 0.8755787 0 -1 0 0 -1 0 0 -1 0 0 -1 0 0 -1 0 0 -1 0 0 -1 0 0 -1 0 0 -1 0 0 -1 0 0 -1 0 0 -1 0 0 -1 0 0 -1 0 0 -1 0 0 -1 0 0 -1 0 0 -1 0 0 -1 0 0 -1 0 0 -1 0 0 -1 0 0 -1 0 0 -1 0 0 -1 0 0 -1 0 0 -1 0 0 -1 0 0 -1 0 0 -1 0 0 -1 0 0 -1 0 0 -1 0 0 -1 0 0 -1 0 0 -1 0 0 -1 0 0 -1 0 0 -1 0 0 -1 0 0 -1 0 0 -1 0 0 -1 0 0 -1 0 -0.8755787 -0.341586 0.341586 0.8755787 -0.341586 0.341586 0.341586 -0.341586 0.8755787 -0.341586 -0.341586 0.8755787 0.4605629 -0.7587909 0.4605629 -0.4605629 -0.7587909 0.4605629</float_array>
                    <technique_common>
                        <accessor count="76" source="#ID45" stride="3">
                            <param name="X" type="float" />
                            <param name="Y" type="float" />
                            <param name="Z" type="float" />
                        </accessor>
                    </technique_common>
                </source>
                <source id="ID43">
                    <float_array id="ID46" count="266">-0.2469179 -2.566156 -0.2516319 -2.12949 -0.2516319 -2.566156 -0.2469179 -2.12949 -1.893471 -0.1760591 -1.953471 -0.6127258 -1.893471 -0.6127258 -1.953471 -0.1760591 -0.3612507 -0.5699563 -0.3659648 -0.5699563 -0.3636077 -0.5740388 2.473718 0.7751428 2.463718 0.7818095 2.037051 0.7751428 2.467051 0.7851428 2.473718 1.068476 2.467051 1.058476 2.463718 1.06181 2.047051 1.06181 2.043718 0.7851428 2.037051 1.068476 2.047051 0.7818095 2.043718 1.058476 -0.9266193 2.325917e-14 -0.9289763 0.004082483 -0.9313333 2.342571e-14 -1.708923 -2.42715 -1.272256 -2.423817 -1.708923 -2.423817 -1.272256 -2.42715 -1.006403 -1.562666 -0.9464031 -1.56738 -0.9464031 -1.562666 -1.006403 -1.56738 0.2923377 -0.7698718 0.3523377 -0.7745859 0.3523377 -0.7698718 0.2923377 -0.7745859 2.352645 -0.04285954 2.357359 0.2504738 2.352645 0.2504738 2.357359 -0.04285954 -1.439333 3.239596e-16 -1.434619 -0.2933333 -1.434619 3.239596e-16 -1.439333 -0.2933333 -1.424929 0.6397854 -1.429643 0.2031187 -1.424929 0.2031187 -1.429643 0.6397854 -2.055589 -2.42715 -2.052256 -2.42715 -2.052256 -2.423817 -1.68971 -2.437803 -1.696376 -2.442646 -1.698923 -2.450484 -1.708923 -2.720484 -1.696376 -2.458321 -1.68971 -2.463164 -1.681469 -2.463164 -1.696376 -2.689313 -1.68971 -2.684469 -1.29971 -2.463164 -1.291469 -2.463164 -1.698923 -2.69715 -1.696376 -2.704987 -1.68971 -2.709831 -1.681469 -2.709831 -1.29971 -2.709831 -1.291469 -2.709831 -1.282256 -2.450484 -1.272256 -2.720484 -1.284803 -2.442646 -1.291469 -2.437803 -1.681469 -2.437803 -1.29971 -2.437803 -1.284803 -2.458321 -1.284803 -2.689313 -1.291469 -2.684469 -1.681469 -2.684469 -1.29971 -2.684469 -1.282256 -2.69715 -1.284803 -2.704987 -1.674803 -2.689313 -1.306376 -2.689313 -1.672256 -2.69715 -1.308923 -2.69715 -1.674803 -2.704987 -1.306376 -2.704987 -1.674803 -2.442646 -1.306376 -2.442646 -1.672256 -2.450484 -1.308923 -2.450484 -1.674803 -2.458321 -1.306376 -2.458321 -1.268923 -2.42715 -0.4683681 1.492823 -0.5283681 1.786156 -0.5283681 1.492823 -0.4683681 1.786156 -1.27 0.5133333 -1.21 0.22 -1.21 0.5133333 -1.27 0.22 0.3218179 -0.6928846 0.3194609 -0.6888022 0.3171039 -0.6928846 1.513463 -0.2150669 1.508749 -0.2150669 1.511106 -0.2191494 0.06 -0.07133333 4.163336e-17 -0.508 0.06 -0.508 -2.775558e-17 -0.07133333 -2.052256 -2.720484 -2.055589 -2.720484 -1.708923 -2.940484 -1.272256 -2.943817 -1.272256 -2.940484 -1.708923 -2.943817 -1.268923 -2.720484 0.2813673 0.2563038 0.3413673 0.2610178 0.2813673 0.2610178 0.3413673 0.2563038 0.1438194 -0.01666221 0.08381936 -0.01194816 0.08381936 -0.01666221 0.1438194 -0.01194816 -2.052256 -2.943817 -2.052256 -2.940484 -2.055589 -2.940484 -1.268923 -2.940484</float_array>
                    <technique_common>
                        <accessor count="133" source="#ID46" stride="2">
                            <param name="S" type="float" />
                            <param name="T" type="float" />
                        </accessor>
                    </technique_common>
                </source>
                <vertices id="ID42">
                    <input semantic="POSITION" source="#ID40" />
                    <input semantic="NORMAL" source="#ID41" />
                </vertices>
                <triangles count="102" material="Material2">
                    <input offset="0" semantic="VERTEX" source="#ID42" />
                    <input offset="1" semantic="TEXCOORD" source="#ID43" />
                    <p>0 0 1 1 2 2 1 1 0 0 3 3 1 4 4 5 2 6 4 5 1 4 5 7 0 8 2 9 6 10 0 11 7 12 3 13 7 12 0 11 8 14 8 14 0 11 9 15 8 14 9 15 10 16 10 16 9 15 11 17 11 17 9 15 12 18 3 13 13 19 14 20 13 19 3 13 15 21 15 21 3 13 7 12 14 20 13 19 16 22 14 20 16 22 12 18 14 20 12 18 9 15 3 23 17 24 1 25 18 26 4 27 5 28 4 27 18 26 19 29 6 30 4 31 20 32 4 31 6 30 2 33 1 34 21 35 5 36 21 35 1 34 17 37 22 38 0 39 6 40 0 39 22 38 9 41 3 42 23 43 17 44 23 43 3 42 14 45 24 46 9 47 25 48 9 47 24 46 14 49 21 50 18 51 5 52 26 26 27 53 28 29 27 53 26 26 29 54 29 54 26 26 30 55 30 55 26 26 31 56 30 55 31 56 32 57 32 57 31 56 33 58 33 58 31 56 34 59 34 59 31 56 35 60 34 59 35 60 36 61 34 59 36 61 37 62 37 62 36 61 38 63 35 60 31 56 39 64 39 64 31 56 40 65 40 65 31 56 41 66 41 66 31 56 42 67 42 67 31 56 43 68 43 68 31 56 44 69 28 29 45 70 46 71 45 70 28 29 47 72 47 72 28 29 48 73 48 73 28 29 27 53 48 73 27 53 49 74 48 73 49 74 50 75 46 71 45 70 51 76 46 71 51 76 38 63 46 71 38 63 52 77 52 77 38 63 53 78 53 78 38 63 36 61 53 78 36 61 54 79 53 78 54 79 55 80 46 71 52 77 56 81 46 71 56 81 57 82 46 71 57 82 44 69 46 71 44 69 31 56 58 83 55 80 54 79 55 80 58 83 59 84 59 84 58 83 60 85 59 84 60 85 61 86 61 86 60 85 62 87 61 86 62 87 63 88 63 88 62 87 42 67 63 88 42 67 43 68 64 89 50 75 49 74 50 75 64 89 65 90 65 90 64 89 66 91 65 90 66 91 67 92 67 92 66 91 68 93 67 92 68 93 69 94 69 94 68 93 34 59 69 94 34 59 37 62 20 95 4 27 19 29 22 96 20 97 70 98 20 97 22 96 6 99 17 100 71 101 21 102 71 101 17 100 23 103 9 104 22 105 25 106 14 107 24 108 23 109 72 110 25 111 73 112 25 111 72 110 24 113 21 50 74 114 18 51 74 114 21 50 71 115 74 116 73 117 75 118 73 117 74 116 72 119 75 71 20 95 19 29 20 95 75 71 70 120 73 121 22 122 70 123 22 122 73 121 25 124 23 125 72 126 71 127 72 126 23 125 24 128 72 129 74 130 71 131 73 117 70 132 75 118</p>
                </triangles>
            </mesh>
        </geometry>
        <geometry id="ID47">
            <mesh>
                <source id="ID48">
                    <float_array id="ID52" count="30">5.048664 0 0.222396 4.872596 0 0.165188 4.969924 0 0.165188 4.793856 0 0.222396 5.07874 0 0.3149606 4.76378 0 0.3149606 5.048664 0 0.4075252 4.793856 0 0.4075252 4.969924 0 0.4647333 4.872596 0 0.4647333</float_array>
                    <technique_common>
                        <accessor count="10" source="#ID52" stride="3">
                            <param name="X" type="float" />
                            <param name="Y" type="float" />
                            <param name="Z" type="float" />
                        </accessor>
                    </technique_common>
                </source>
                <source id="ID49">
                    <float_array id="ID53" count="30">0 -1 0 0 -1 0 0 -1 0 0 -1 0 0 -1 0 0 -1 0 0 -1 0 0 -1 0 0 -1 0 0 -1 0</float_array>
                    <technique_common>
                        <accessor count="10" source="#ID53" stride="3">
                            <param name="X" type="float" />
                            <param name="Y" type="float" />
                            <param name="Z" type="float" />
                        </accessor>
                    </technique_common>
                </source>
                <source id="ID51">
                    <float_array id="ID54" count="20">20.78749 -11.70854 20.3907 -11.83746 20.61004 -11.83746 20.21325 -11.70854 20.85527 -11.49993 20.14547 -11.49993 20.78749 -11.29133 20.21325 -11.29133 20.61004 -11.1624 20.3907 -11.1624</float_array>
                    <technique_common>
                        <accessor count="10" source="#ID54" stride="2">
                            <param name="S" type="float" />
                            <param name="T" type="float" />
                        </accessor>
                    </technique_common>
                </source>
                <vertices id="ID50">
                    <input semantic="POSITION" source="#ID48" />
                    <input semantic="NORMAL" source="#ID49" />
                </vertices>
                <triangles count="8" material="Material2">
                    <input offset="0" semantic="VERTEX" source="#ID50" />
                    <input offset="1" semantic="TEXCOORD" source="#ID51" />
                    <p>0 0 1 1 2 2 1 1 0 0 3 3 3 3 0 0 4 4 3 3 4 4 5 5 5 5 4 4 6 6 5 5 6 6 7 7 7 7 6 6 8 8 7 7 8 8 9 9</p>
                </triangles>
            </mesh>
        </geometry>
        <geometry id="ID55">
            <mesh>
                <source id="ID56">
                    <float_array id="ID60" count="30">0.4423649 0 0.222396 0.2662965 0 0.165188 0.3636247 0 0.165188 0.1875564 0 0.222396 0.4724409 0 0.3149606 0.1574803 0 0.3149606 0.4423649 0 0.4075252 0.1875564 0 0.4075252 0.3636247 0 0.4647333 0.2662965 0 0.4647333</float_array>
                    <technique_common>
                        <accessor count="10" source="#ID60" stride="3">
                            <param name="X" type="float" />
                            <param name="Y" type="float" />
                            <param name="Z" type="float" />
                        </accessor>
                    </technique_common>
                </source>
                <source id="ID57">
                    <float_array id="ID61" count="30">0 -1 0 0 -1 0 0 -1 0 0 -1 0 0 -1 0 0 -1 0 0 -1 0 0 -1 0 0 -1 0 0 -1 0</float_array>
                    <technique_common>
                        <accessor count="10" source="#ID61" stride="3">
                            <param name="X" type="float" />
                            <param name="Y" type="float" />
                            <param name="Z" type="float" />
                        </accessor>
                    </technique_common>
                </source>
                <source id="ID59">
                    <float_array id="ID62" count="20">0.7888145 -11.70892 0.3920243 -11.83784 0.6113645 -11.83784 0.2145743 -11.70892 0.8565944 -11.50031 0.1467946 -11.50031 0.7888146 -11.29171 0.2145745 -11.29171 0.6113647 -11.16278 0.3920245 -11.16278</float_array>
                    <technique_common>
                        <accessor count="10" source="#ID62" stride="2">
                            <param name="S" type="float" />
                            <param name="T" type="float" />
                        </accessor>
                    </technique_common>
                </source>
                <vertices id="ID58">
                    <input semantic="POSITION" source="#ID56" />
                    <input semantic="NORMAL" source="#ID57" />
                </vertices>
                <triangles count="8" material="Material2">
                    <input offset="0" semantic="VERTEX" source="#ID58" />
                    <input offset="1" semantic="TEXCOORD" source="#ID59" />
                    <p>0 0 1 1 2 2 1 1 0 0 3 3 3 3 0 0 4 4 3 3 4 4 5 5 5 5 4 4 6 6 5 5 6 6 7 7 7 7 6 6 8 8 7 7 8 8 9 9</p>
                </triangles>
            </mesh>
        </geometry>
        <geometry id="ID65">
            <mesh>
                <source id="ID71">
                    <float_array id="ID75" count="492">-0.7322835 0.7874016 5.329071e-15 -0.7322835 0.7874016 9.84252 -0.7322835 7.593925e-14 0 -0.7322835 -4.440892e-16 10.62992 -0.7322835 2.007874 10.62992 -0.7322835 2.795276 9.84252 -0.7322835 2.007874 13.54331 -0.7322835 2.795276 13.54331 -0.7322835 2.007874 13.54331 -1.716535 2.007874 10.62992 -0.7322835 2.007874 10.62992 -1.716535 2.007874 13.54331 -0.7322835 -4.440892e-16 10.62992 -1.716535 2.007874 10.62992 -1.716535 -4.440892e-16 10.62992 -0.7322835 2.007874 10.62992 -0.7322835 -4.440892e-16 10.62992 -1.716535 7.593925e-14 0 -0.7322835 7.593925e-14 0 -1.716535 -4.440892e-16 10.62992 -1.716535 0.7874016 5.329071e-15 -1.598425 0.6692913 5.329071e-15 -1.716535 7.593925e-14 0 -1.480315 0.7874016 5.329071e-15 -1.480315 0.6692913 5.329071e-15 -0.7322835 0.7874016 5.329071e-15 -0.9685039 0.6692913 5.329071e-15 -0.9685039 0.7874016 5.329071e-15 -0.8503937 0.6692913 5.329071e-15 -0.8503937 0.1181102 5.329071e-15 -1.598425 0.1181102 5.329071e-15 -0.7322835 7.593925e-14 0 -0.9685039 0.7874016 9.84252 -0.7322835 0.7874016 5.329071e-15 -0.9685039 0.7874016 5.329071e-15 -0.7322835 0.7874016 9.84252 -0.7322835 2.795276 9.84252 -0.9685039 0.7874016 9.84252 -0.9685039 2.795276 9.84252 -0.7322835 0.7874016 9.84252 -0.9685039 2.795276 13.54331 -0.7322835 2.795276 9.84252 -0.9685039 2.795276 9.84252 -0.7322835 2.795276 13.54331 -1.716535 2.007874 13.54331 -1.598425 2.125984 13.54331 -1.716535 2.795276 13.54331 -0.7322835 2.007874 13.54331 -0.8503937 2.125984 13.54331 -0.8503937 2.677165 13.54331 -0.9685039 2.795276 13.54331 -0.9685039 2.677165 13.54331 -0.7322835 2.795276 13.54331 -1.598425 2.677165 13.54331 -1.480315 2.795276 13.54331 -1.480315 2.677165 13.54331 -1.716535 2.795276 13.54331 -1.716535 2.007874 10.62992 -1.716535 2.007874 13.54331 -1.716535 -4.440892e-16 10.62992 -1.716535 0.7874016 9.84252 -1.716535 7.593925e-14 0 -1.716535 2.795276 9.84252 -1.716535 0.7874016 5.329071e-15 -1.716535 0.7874016 9.84252 -1.480315 0.7874016 5.329071e-15 -1.716535 0.7874016 5.329071e-15 -1.480315 0.7874016 9.84252 -1.480315 0.7874016 5.329071e-15 -1.480315 0.6692913 9.96063 -1.480315 0.6692913 5.329071e-15 -1.480315 0.7874016 9.84252 -1.480315 2.677165 9.96063 -1.480315 2.795276 9.84252 -1.480315 2.677165 13.54331 -1.480315 2.795276 13.54331 -1.480315 0.6692913 9.96063 -1.598425 0.6692913 5.329071e-15 -1.480315 0.6692913 5.329071e-15 -1.598425 0.6692913 9.96063 -1.598425 0.6692913 5.329071e-15 -1.598425 0.1181102 10.51181 -1.598425 0.1181102 5.329071e-15 -1.598425 0.6692913 9.96063 -1.598425 2.125984 10.51181 -1.598425 2.677165 9.96063 -1.598425 2.125984 13.54331 -1.598425 2.677165 13.54331 -1.598425 0.1181102 10.51181 -0.8503937 0.1181102 5.329071e-15 -1.598425 0.1181102 5.329071e-15 -0.8503937 0.1181102 10.51181 -0.8503937 2.677165 13.54331 -0.8503937 2.125984 10.51181 -0.8503937 2.125984 13.54331 -0.8503937 0.1181102 10.51181 -0.8503937 0.6692913 9.96063 -0.8503937 0.1181102 5.329071e-15 -0.8503937 2.677165 9.96063 -0.8503937 0.6692913 5.329071e-15 -0.8503937 0.6692913 9.96063 -0.9685039 0.6692913 5.329071e-15 -0.8503937 0.6692913 5.329071e-15 -0.9685039 0.6692913 9.96063 -0.9685039 2.795276 13.54331 -0.9685039 2.677165 9.96063 -0.9685039 2.677165 13.54331 -0.9685039 0.6692913 9.96063 -0.9685039 0.7874016 9.84252 -0.9685039 0.6692913 5.329071e-15 -0.9685039 2.795276 9.84252 -0.9685039 0.7874016 5.329071e-15 -0.8503937 2.677165 13.54331 -0.9685039 2.677165 9.96063 -0.8503937 2.677165 9.96063 -0.9685039 2.677165 13.54331 -1.598425 2.125984 10.51181 -1.351814 2.125984 11.43041 -0.8503937 2.125984 10.51181 -1.38189 2.125984 11.52298 -1.598425 2.125984 13.54331 -1.273074 2.125984 11.37321 -1.351814 2.125984 11.61554 -1.273074 2.125984 11.67275 -1.175745 2.125984 11.67275 -1.351814 2.125984 13.00066 -1.273074 2.125984 12.94345 -1.38189 2.125984 13.09323 -1.351814 2.125984 13.18579 -1.273074 2.125984 13.243 -1.175745 2.125984 13.243 -1.066929 2.125984 11.52298 -0.8503937 2.125984 13.54331 -1.097005 2.125984 11.43041 -1.175745 2.125984 11.37321 -1.097005 2.125984 11.61554 -1.097005 2.125984 13.00066 -1.175745 2.125984 12.94345 -1.066929 2.125984 13.09323 -1.097005 2.125984 13.18579 -1.480315 2.677165 13.54331 -1.598425 2.677165 9.96063 -1.480315 2.677165 9.96063 -1.598425 2.677165 13.54331 -1.716535 2.795276 13.54331 -1.480315 2.795276 9.84252 -1.716535 2.795276 9.84252 -1.480315 2.795276 13.54331 -1.480315 2.795276 9.84252 -1.716535 0.7874016 9.84252 -1.716535 2.795276 9.84252 -1.480315 0.7874016 9.84252 -1.480315 0.6692913 9.96063 -1.598425 2.677165 9.96063 -1.598425 0.6692913 9.96063 -1.480315 2.677165 9.96063 -0.8503937 2.125984 10.51181 -1.598425 0.1181102 10.51181 -1.598425 2.125984 10.51181 -0.8503937 0.1181102 10.51181 -0.8503937 0.6692913 9.96063 -0.9685039 2.677165 9.96063 -0.9685039 0.6692913 9.96063 -0.8503937 2.677165 9.96063</float_array>
                    <technique_common>
                        <accessor count="164" source="#ID75" stride="3">
                            <param name="X" type="float" />
                            <param name="Y" type="float" />
                            <param name="Z" type="float" />
                        </accessor>
                    </technique_common>
                </source>
                <source id="ID72">
                    <float_array id="ID76" count="492">1 0 0 1 0 0 1 0 0 1 0 0 1 0 0 1 0 0 1 0 0 1 0 0 0 -1 0 0 -1 0 0 -1 0 0 -1 0 0 0 1 0 0 1 0 0 1 0 0 1 0 -1 -7.185692e-15 0 -1 -7.185692e-15 0 -1 -7.185692e-15 0 -1 -7.185692e-15 0 4.355452e-15 -1 0 4.355452e-15 -1 0 4.355452e-15 -1 0 4.355452e-15 -1 0 4.355452e-15 -1 0 4.355452e-15 -1 0 4.355452e-15 -1 0 4.355452e-15 -1 0 4.355452e-15 -1 0 4.355452e-15 -1 0 4.355452e-15 -1 0 4.355452e-15 -1 4.699944e-15 1 7.647749e-15 4.699944e-15 1 7.647749e-15 4.699944e-15 1 7.647749e-15 4.699944e-15 1 7.647749e-15 3.759955e-15 4.423477e-16 -1 3.759955e-15 4.423477e-16 -1 3.759955e-15 4.423477e-16 -1 3.759955e-15 4.423477e-16 -1 0 1 0 0 1 0 0 1 0 0 1 0 0 0 1 0 0 1 0 0 1 0 0 1 0 0 1 0 0 1 0 0 1 0 0 1 0 0 1 0 0 1 0 0 1 0 0 1 -1 0 0 -1 0 0 -1 0 0 -1 0 0 -1 0 0 -1 0 0 -1 0 0 -1 0 0 -4.699944e-15 1 7.647749e-15 -4.699944e-15 1 7.647749e-15 -4.699944e-15 1 7.647749e-15 -4.699944e-15 1 7.647749e-15 1 0 0 1 0 0 1 0 0 1 0 0 1 0 0 1 0 0 1 0 0 1 0 0 0 -1 0 0 -1 0 0 -1 0 0 -1 0 1 0 0 1 0 0 1 0 0 1 0 0 1 0 0 1 0 0 1 0 0 1 0 0 0 1 0 0 1 0 0 1 0 0 1 0 -1 1.569108e-16 -2.653931e-17 -1 1.569108e-16 -2.653931e-17 -1 1.569108e-16 -2.653931e-17 -1 1.569108e-16 -2.653931e-17 -1 1.569108e-16 -2.653931e-17 -1 1.569108e-16 -2.653931e-17 -1 1.569108e-16 -2.653931e-17 -1 1.569108e-16 -2.653931e-17 0 -1 0 0 -1 0 0 -1 0 0 -1 0 -1 0 0 -1 0 0 -1 0 0 -1 0 0 -1 0 0 -1 0 0 -1 0 0 -1 0 0 0 -1 0 0 -1 0 0 -1 0 0 -1 0 0 1 0 0 1 0 0 1 0 0 1 0 0 1 0 0 1 0 0 1 0 0 1 0 0 1 0 0 1 0 0 1 0 0 1 0 0 1 0 0 1 0 0 1 0 0 1 0 0 1 0 0 1 0 0 1 0 0 1 0 0 1 0 0 1 0 0 1 0 0 1 0 0 -1 0 0 -1 0 0 -1 0 0 -1 0 0 1 0 0 1 0 0 1 0 0 1 0 -3.759955e-15 4.423477e-16 -1 -3.759955e-15 4.423477e-16 -1 -3.759955e-15 4.423477e-16 -1 -3.759955e-15 4.423477e-16 -1 0 -1.769391e-15 1 0 -1.769391e-15 1 0 -1.769391e-15 1 0 -1.769391e-15 1 0 8.846954e-16 -1 0 8.846954e-16 -1 0 8.846954e-16 -1 0 8.846954e-16 -1 -4.43522e-31 -1.769391e-15 1 -4.43522e-31 -1.769391e-15 1 -4.43522e-31 -1.769391e-15 1 -4.43522e-31 -1.769391e-15 1</float_array>
                    <technique_common>
                        <accessor count="164" source="#ID76" stride="3">
                            <param name="X" type="float" />
                            <param name="Y" type="float" />
                            <param name="Z" type="float" />
                        </accessor>
                    </technique_common>
                </source>
                <source id="ID74">
                    <float_array id="ID77" count="304">0.1733333 -0.9 0.1733333 -0.06666667 0.1066667 -0.9 0.1066667 0 0.2766667 0 0.3433333 -0.06666667 0.2766667 0.2466667 0.3433333 0.2466667 0.655 0.2466667 0.5716667 0 0.655 0 0.5716667 0.2466667 0.655 0.1066667 0.5716667 0.2766667 0.5716667 0.1066667 0.655 0.2766667 0.655 -7.771561e-16 0.5716667 -0.9 0.655 -0.9 0.5716667 -7.771561e-16 -0.5716667 0.1733333 -0.5816667 0.1633333 -0.5716667 0.1066667 -0.5916667 0.1733333 -0.5916667 0.1633333 -0.655 0.1733333 -0.635 0.1633333 -0.635 0.1733333 -0.645 0.1633333 -0.645 0.1166667 -0.5816667 0.1166667 -0.655 0.1066667 -0.635 -0.06666667 -0.655 -0.9 -0.635 -0.9 -0.655 -0.06666667 -0.655 0.3433333 -0.635 0.1733333 -0.635 0.3433333 -0.655 0.1733333 -0.635 0.2466667 -0.655 -0.06666667 -0.635 -0.06666667 -0.655 0.2466667 0.5816667 0.2866667 0.5716667 0.3433333 0.645 0.2866667 0.645 0.3333333 0.635 0.3433333 0.635 0.3333333 0.655 0.3433333 0.5816667 0.3333333 0.5916667 0.3433333 0.5916667 0.3333333 -0.3433333 0.2466667 -0.2766667 0 -0.2766667 0.2466667 -0.1066667 0 -0.1733333 -0.06666667 -0.1066667 -0.9 -0.3433333 -0.06666667 -0.1733333 -0.9 -0.5716667 -0.06666667 -0.5916667 -0.9 -0.5716667 -0.9 -0.5916667 -0.06666667 0.1633333 -0.05666667 0.1633333 -0.9 0.1733333 -0.06666667 0.3333333 -0.05666667 0.3333333 0.2466667 0.5916667 -0.05666667 0.5816667 -0.9 0.5916667 -0.9 0.5816667 -0.05666667 0.1166667 -0.01 0.1166667 -0.9 0.2866667 -0.01 0.2866667 0.2466667 -0.5816667 -0.01 -0.645 -0.9 -0.5816667 -0.9 -0.645 -0.01 -0.3333333 0.2466667 -0.2866667 -0.01 -0.2866667 0.2466667 -0.1166667 -0.01 -0.1633333 -0.05666667 -0.1166667 -0.9 -0.3333333 -0.05666667 -0.1633333 -0.9 0.645 -0.05666667 0.635 -0.9 0.645 -0.9 0.635 -0.05666667 -0.3333333 -0.05666667 -0.3333333 0.2466667 -0.1633333 -0.05666667 -0.1733333 -0.06666667 -0.1633333 -0.9 0.645 0.2466667 0.635 -0.05666667 0.645 -0.05666667 0.635 0.2466667 -0.5816667 -0.01 -0.6025464 0.06777505 -0.645 -0.01 -0.6 0.07561218 -0.5816667 0.2466667 -0.6092131 0.06293143 -0.6025464 0.08344932 -0.6092131 0.08829294 -0.6174536 0.08829294 -0.6025464 0.2007227 -0.6092131 0.1958791 -0.6 0.2085598 -0.6025464 0.216397 -0.6092131 0.2212406 -0.6174536 0.2212406 -0.6266667 0.07561218 -0.645 0.2466667 -0.6241202 0.06777505 -0.6174536 0.06293143 -0.6241202 0.08344932 -0.6241202 0.2007227 -0.6174536 0.1958791 -0.6266667 0.2085598 -0.6241202 0.216397 0.5916667 0.2466667 0.5816667 -0.05666667 0.5916667 -0.05666667 0.5816667 0.2466667 -0.5716667 0.2466667 -0.5916667 -0.06666667 -0.5716667 -0.06666667 -0.5916667 0.2466667 -0.5916667 0.3433333 -0.5716667 0.1733333 -0.5716667 0.3433333 -0.5916667 0.1733333 0.5916667 0.1633333 0.5816667 0.3333333 0.5816667 0.1633333 0.5916667 0.3333333 -0.645 0.2866667 -0.5816667 0.1166667 -0.5816667 0.2866667 -0.645 0.1166667 0.645 0.1633333 0.635 0.3333333 0.635 0.1633333 0.645 0.3333333</float_array>
                    <technique_common>
                        <accessor count="152" source="#ID77" stride="2">
                            <param name="S" type="float" />
                            <param name="T" type="float" />
                        </accessor>
                    </technique_common>
                </source>
                <vertices id="ID73">
                    <input semantic="POSITION" source="#ID71" />
                    <input semantic="NORMAL" source="#ID72" />
                </vertices>
                <triangles count="116" material="Material2">
                    <input offset="0" semantic="VERTEX" source="#ID73" />
                    <input offset="1" semantic="TEXCOORD" source="#ID74" />
                    <p>0 0 1 1 2 2 3 3 1 1 4 4 1 1 3 3 2 2 4 4 1 1 5 5 4 4 5 5 6 6 6 6 5 5 7 7 8 8 9 9 10 10 9 9 8 8 11 11 12 12 13 13 14 14 13 13 12 12 15 15 16 16 17 17 18 18 17 17 16 16 19 19 20 20 21 21 22 22 21 21 20 20 23 23 21 21 23 23 24 24 25 25 26 26 27 27 26 26 25 25 28 28 28 28 25 25 29 29 22 22 30 30 31 31 30 30 22 22 21 21 31 31 30 30 29 29 31 31 29 29 25 25 32 32 33 33 34 34 33 33 32 32 35 35 36 36 37 37 38 38 37 37 36 36 39 39 40 40 41 41 42 42 41 41 40 40 43 43 44 13 45 44 46 45 45 44 44 13 47 15 45 44 47 15 48 46 48 46 47 15 49 47 49 47 50 48 51 49 50 48 49 47 52 50 52 50 49 47 47 15 46 45 53 51 54 52 53 51 46 45 45 44 54 52 53 51 55 53 56 54 57 55 58 56 59 57 60 58 61 59 60 58 59 57 57 55 60 58 57 55 62 60 62 60 57 55 56 54 63 61 61 59 60 58 64 62 65 63 66 64 65 63 64 62 67 65 68 0 69 66 70 67 69 66 68 0 71 68 71 68 72 69 69 66 72 69 71 68 73 5 72 69 73 5 74 70 74 70 73 5 75 7 76 71 77 72 78 73 77 72 76 71 79 74 80 67 81 75 82 76 81 75 80 67 83 66 81 75 83 66 84 77 84 77 83 66 85 69 84 77 85 69 86 78 86 78 85 69 87 70 88 79 89 80 90 81 89 80 88 79 91 82 92 83 93 84 94 85 95 86 96 87 97 88 96 87 95 86 93 84 96 87 93 84 98 89 98 89 93 84 92 83 99 90 97 88 96 87 100 91 101 92 102 93 101 92 100 91 103 94 104 54 105 95 106 96 107 97 108 98 109 99 108 98 107 97 105 95 108 98 105 95 110 60 110 60 105 95 104 54 111 61 109 99 108 98 112 100 113 101 114 102 113 101 112 100 115 103 116 104 117 105 118 106 117 105 116 104 119 107 119 107 116 104 120 108 118 106 117 105 121 109 119 107 120 108 122 110 122 110 120 108 123 111 123 111 120 108 124 112 124 112 120 108 125 113 124 112 125 113 126 114 125 113 120 108 127 115 127 115 120 108 128 116 128 116 120 108 129 117 129 117 120 108 130 118 118 106 131 119 132 120 131 119 118 106 133 121 133 121 118 106 134 122 134 122 118 106 121 109 132 120 131 119 135 123 132 120 135 123 124 112 132 120 124 112 136 124 136 124 124 112 137 125 137 125 124 112 126 114 132 120 136 124 138 126 132 120 138 126 139 127 132 120 139 127 130 118 132 120 130 118 120 108 140 128 141 129 142 130 141 129 140 128 143 131 144 132 145 133 146 134 145 133 144 132 147 135 148 136 149 137 150 138 149 137 148 136 151 139 152 140 153 141 154 142 153 141 152 140 155 143 156 144 157 145 158 146 157 145 156 144 159 147 160 148 161 149 162 150 161 149 160 148 163 151</p>
                </triangles>
            </mesh>
        </geometry>
        <geometry id="ID78">
            <mesh>
                <source id="ID79">
                    <float_array id="ID83" count="30">-1.351814 2.125984 13.00066 -1.175745 2.125984 12.94345 -1.273074 2.125984 12.94345 -1.097005 2.125984 13.00066 -1.38189 2.125984 13.09323 -1.066929 2.125984 13.09323 -1.351814 2.125984 13.18579 -1.097005 2.125984 13.18579 -1.273074 2.125984 13.243 -1.175745 2.125984 13.243</float_array>
                    <technique_common>
                        <accessor count="10" source="#ID83" stride="3">
                            <param name="X" type="float" />
                            <param name="Y" type="float" />
                            <param name="Z" type="float" />
                        </accessor>
                    </technique_common>
                </source>
                <source id="ID80">
                    <float_array id="ID84" count="30">-1.018984e-29 1 1.63906e-15 -1.018984e-29 1 1.63906e-15 -1.018984e-29 1 1.63906e-15 -1.018984e-29 1 1.63906e-15 -1.018984e-29 1 1.63906e-15 -1.018984e-29 1 1.63906e-15 -1.018984e-29 1 1.63906e-15 -1.018984e-29 1 1.63906e-15 -1.018984e-29 1 1.63906e-15 -1.018984e-29 1 1.63906e-15</float_array>
                    <technique_common>
                        <accessor count="10" source="#ID84" stride="3">
                            <param name="X" type="float" />
                            <param name="Y" type="float" />
                            <param name="Z" type="float" />
                        </accessor>
                    </technique_common>
                </source>
                <source id="ID82">
                    <float_array id="ID85" count="20">20.21292 0.7096572 20.6097 0.8385812 20.39036 0.8385812 20.78715 0.7096572 20.14514 0.5010538 20.85493 0.5010538 20.21292 0.2924504 20.78715 0.2924504 20.39036 0.1635264 20.6097 0.1635264</float_array>
                    <technique_common>
                        <accessor count="10" source="#ID85" stride="2">
                            <param name="S" type="float" />
                            <param name="T" type="float" />
                        </accessor>
                    </technique_common>
                </source>
                <vertices id="ID81">
                    <input semantic="POSITION" source="#ID79" />
                    <input semantic="NORMAL" source="#ID80" />
                </vertices>
                <triangles count="8" material="Material2">
                    <input offset="0" semantic="VERTEX" source="#ID81" />
                    <input offset="1" semantic="TEXCOORD" source="#ID82" />
                    <p>0 0 1 1 2 2 1 1 0 0 3 3 3 3 0 0 4 4 3 3 4 4 5 5 5 5 4 4 6 6 5 5 6 6 7 7 7 7 6 6 8 8 7 7 8 8 9 9</p>
                </triangles>
            </mesh>
        </geometry>
        <geometry id="ID86">
            <mesh>
                <source id="ID87">
                    <float_array id="ID91" count="30">-1.351814 2.125984 11.43041 -1.175745 2.125984 11.37321 -1.273074 2.125984 11.37321 -1.097005 2.125984 11.43041 -1.38189 2.125984 11.52298 -1.066929 2.125984 11.52298 -1.351814 2.125984 11.61554 -1.097005 2.125984 11.61554 -1.273074 2.125984 11.67275 -1.175745 2.125984 11.67275</float_array>
                    <technique_common>
                        <accessor count="10" source="#ID91" stride="3">
                            <param name="X" type="float" />
                            <param name="Y" type="float" />
                            <param name="Z" type="float" />
                        </accessor>
                    </technique_common>
                </source>
                <source id="ID88">
                    <float_array id="ID92" count="30">-1.015482e-29 1 1.63906e-15 -1.015482e-29 1 1.63906e-15 -1.015482e-29 1 1.63906e-15 -1.015482e-29 1 1.63906e-15 -1.015482e-29 1 1.63906e-15 -1.015482e-29 1 1.63906e-15 -1.015482e-29 1 1.63906e-15 -1.015482e-29 1 1.63906e-15 -1.015482e-29 1 1.63906e-15 -1.015482e-29 1 1.63906e-15</float_array>
                    <technique_common>
                        <accessor count="10" source="#ID92" stride="3">
                            <param name="X" type="float" />
                            <param name="Y" type="float" />
                            <param name="Z" type="float" />
                        </accessor>
                    </technique_common>
                </source>
                <source id="ID90">
                    <float_array id="ID93" count="20">20.21292 0.7096572 20.6097 0.8385812 20.39036 0.8385812 20.78715 0.7096572 20.14514 0.5010538 20.85493 0.5010538 20.21292 0.2924504 20.78715 0.2924504 20.39036 0.1635264 20.6097 0.1635264</float_array>
                    <technique_common>
                        <accessor count="10" source="#ID93" stride="2">
                            <param name="S" type="float" />
                            <param name="T" type="float" />
                        </accessor>
                    </technique_common>
                </source>
                <vertices id="ID89">
                    <input semantic="POSITION" source="#ID87" />
                    <input semantic="NORMAL" source="#ID88" />
                </vertices>
                <triangles count="8" material="Material2">
                    <input offset="0" semantic="VERTEX" source="#ID89" />
                    <input offset="1" semantic="TEXCOORD" source="#ID90" />
                    <p>0 0 1 1 2 2 1 1 0 0 3 3 3 3 0 0 4 4 3 3 4 4 5 5 5 5 4 4 6 6 5 5 6 6 7 7 7 7 6 6 8 8 7 7 8 8 9 9</p>
                </triangles>
            </mesh>
        </geometry>
        <geometry id="ID94">
            <mesh>
                <source id="ID95">
                    <float_array id="ID99" count="492">-5.062992 2.795276 13.54331 -5.062992 2.007874 10.62992 -5.062992 2.007874 13.54331 -5.062992 0 10.62992 -5.062992 0.7874016 9.84252 -5.062992 7.638334e-14 0 -5.062992 2.795276 9.84252 -5.062992 0.7874016 5.329071e-15 -4.826772 2.795276 9.84252 -5.062992 0.7874016 9.84252 -5.062992 2.795276 9.84252 -4.826772 0.7874016 9.84252 -5.062992 0.7874016 9.84252 -4.826772 0.7874016 5.329071e-15 -5.062992 0.7874016 5.329071e-15 -4.826772 0.7874016 9.84252 -5.062992 0.7874016 5.329071e-15 -4.944882 0.6692913 5.329071e-15 -5.062992 7.638334e-14 0 -4.826772 0.7874016 5.329071e-15 -4.826772 0.6692913 5.329071e-15 -4.07874 0.7874016 5.329071e-15 -4.314961 0.6692913 5.329071e-15 -4.314961 0.7874016 5.329071e-15 -4.19685 0.6692913 5.329071e-15 -4.19685 0.1181102 5.329071e-15 -4.944882 0.1181102 5.329071e-15 -4.07874 7.638334e-14 0 -4.07874 0 10.62992 -5.062992 7.638334e-14 0 -4.07874 7.638334e-14 0 -5.062992 0 10.62992 -4.07874 0 10.62992 -5.062992 2.007874 10.62992 -5.062992 0 10.62992 -4.07874 2.007874 10.62992 -4.07874 2.007874 13.54331 -5.062992 2.007874 10.62992 -4.07874 2.007874 10.62992 -5.062992 2.007874 13.54331 -5.062992 2.007874 13.54331 -4.944882 2.125984 13.54331 -5.062992 2.795276 13.54331 -4.07874 2.007874 13.54331 -4.19685 2.125984 13.54331 -4.19685 2.677165 13.54331 -4.314961 2.795276 13.54331 -4.314961 2.677165 13.54331 -4.07874 2.795276 13.54331 -4.944882 2.677165 13.54331 -4.826772 2.795276 13.54331 -4.826772 2.677165 13.54331 -5.062992 2.795276 13.54331 -4.826772 2.795276 9.84252 -5.062992 2.795276 9.84252 -4.826772 2.795276 13.54331 -4.826772 0.7874016 5.329071e-15 -4.826772 0.6692913 9.96063 -4.826772 0.6692913 5.329071e-15 -4.826772 0.7874016 9.84252 -4.826772 2.677165 9.96063 -4.826772 2.795276 9.84252 -4.826772 2.677165 13.54331 -4.826772 2.795276 13.54331 -4.826772 0.6692913 9.96063 -4.944882 0.6692913 5.329071e-15 -4.826772 0.6692913 5.329071e-15 -4.944882 0.6692913 9.96063 -4.944882 0.6692913 5.329071e-15 -4.944882 0.1181102 10.51181 -4.944882 0.1181102 5.329071e-15 -4.944882 0.6692913 9.96063 -4.944882 2.125984 10.51181 -4.944882 2.677165 9.96063 -4.944882 2.125984 13.54331 -4.944882 2.677165 13.54331 -4.944882 0.1181102 10.51181 -4.19685 0.1181102 5.329071e-15 -4.944882 0.1181102 5.329071e-15 -4.19685 0.1181102 10.51181 -4.19685 2.677165 13.54331 -4.19685 2.125984 10.51181 -4.19685 2.125984 13.54331 -4.19685 0.1181102 10.51181 -4.19685 0.6692913 9.96063 -4.19685 0.1181102 5.329071e-15 -4.19685 2.677165 9.96063 -4.19685 0.6692913 5.329071e-15 -4.19685 0.6692913 9.96063 -4.314961 0.6692913 5.329071e-15 -4.19685 0.6692913 5.329071e-15 -4.314961 0.6692913 9.96063 -4.314961 2.795276 13.54331 -4.314961 2.677165 9.96063 -4.314961 2.677165 13.54331 -4.314961 0.6692913 9.96063 -4.314961 0.7874016 9.84252 -4.314961 0.6692913 5.329071e-15 -4.314961 2.795276 9.84252 -4.314961 0.7874016 5.329071e-15 -4.314961 0.7874016 9.84252 -4.07874 0.7874016 5.329071e-15 -4.314961 0.7874016 5.329071e-15 -4.07874 0.7874016 9.84252 -4.07874 0.7874016 5.329071e-15 -4.07874 0.7874016 9.84252 -4.07874 7.638334e-14 0 -4.07874 0 10.62992 -4.07874 2.007874 10.62992 -4.07874 2.795276 9.84252 -4.07874 2.007874 13.54331 -4.07874 2.795276 13.54331 -4.314961 2.795276 13.54331 -4.07874 2.795276 9.84252 -4.314961 2.795276 9.84252 -4.07874 2.795276 13.54331 -4.19685 2.677165 13.54331 -4.314961 2.677165 9.96063 -4.19685 2.677165 9.96063 -4.314961 2.677165 13.54331 -4.944882 2.125984 10.51181 -4.69827 2.125984 11.43041 -4.19685 2.125984 10.51181 -4.728346 2.125984 11.52298 -4.944882 2.125984 13.54331 -4.61953 2.125984 11.37321 -4.69827 2.125984 11.61554 -4.61953 2.125984 11.67275 -4.522202 2.125984 11.67275 -4.69827 2.125984 13.00066 -4.61953 2.125984 12.94345 -4.728346 2.125984 13.09323 -4.69827 2.125984 13.18579 -4.61953 2.125984 13.243 -4.522202 2.125984 13.243 -4.413386 2.125984 11.52298 -4.19685 2.125984 13.54331 -4.443462 2.125984 11.43041 -4.522202 2.125984 11.37321 -4.443462 2.125984 11.61554 -4.443462 2.125984 13.00066 -4.522202 2.125984 12.94345 -4.413386 2.125984 13.09323 -4.443462 2.125984 13.18579 -4.826772 2.677165 13.54331 -4.944882 2.677165 9.96063 -4.826772 2.677165 9.96063 -4.944882 2.677165 13.54331 -4.826772 0.6692913 9.96063 -4.944882 2.677165 9.96063 -4.944882 0.6692913 9.96063 -4.826772 2.677165 9.96063 -4.19685 2.125984 10.51181 -4.944882 0.1181102 10.51181 -4.944882 2.125984 10.51181 -4.19685 0.1181102 10.51181 -4.19685 0.6692913 9.96063 -4.314961 2.677165 9.96063 -4.314961 0.6692913 9.96063 -4.19685 2.677165 9.96063 -4.07874 2.795276 9.84252 -4.314961 0.7874016 9.84252 -4.314961 2.795276 9.84252 -4.07874 0.7874016 9.84252</float_array>
                    <technique_common>
                        <accessor count="164" source="#ID99" stride="3">
                            <param name="X" type="float" />
                            <param name="Y" type="float" />
                            <param name="Z" type="float" />
                        </accessor>
                    </technique_common>
                </source>
                <source id="ID96">
                    <float_array id="ID100" count="492">-1 0 0 -1 0 0 -1 0 0 -1 0 0 -1 0 0 -1 0 0 -1 0 0 -1 0 0 -3.759955e-15 4.423477e-16 -1 -3.759955e-15 4.423477e-16 -1 -3.759955e-15 4.423477e-16 -1 -3.759955e-15 4.423477e-16 -1 -4.699944e-15 1 7.647749e-15 -4.699944e-15 1 7.647749e-15 -4.699944e-15 1 7.647749e-15 -4.699944e-15 1 7.647749e-15 0 4.355452e-15 -1 0 4.355452e-15 -1 0 4.355452e-15 -1 0 4.355452e-15 -1 0 4.355452e-15 -1 0 4.355452e-15 -1 0 4.355452e-15 -1 0 4.355452e-15 -1 0 4.355452e-15 -1 0 4.355452e-15 -1 0 4.355452e-15 -1 0 4.355452e-15 -1 0 -1 -7.185692e-15 0 -1 -7.185692e-15 0 -1 -7.185692e-15 0 -1 -7.185692e-15 0 0 1 0 0 1 0 0 1 0 0 1 0 -1 0 0 -1 0 0 -1 0 0 -1 0 0 0 1 0 0 1 0 0 1 0 0 1 0 0 1 0 0 1 0 0 1 0 0 1 0 0 1 0 0 1 0 0 1 0 0 1 0 1 0 0 1 0 0 1 0 0 1 0 1 0 0 1 0 0 1 0 0 1 0 0 1 0 0 1 0 0 1 0 0 1 0 0 0 -1 0 0 -1 0 0 -1 0 0 -1 0 1 0 0 1 0 0 1 0 0 1 0 0 1 0 0 1 0 0 1 0 0 1 0 0 0 1 0 0 1 0 0 1 0 0 1 0 -1 1.569108e-16 -2.653931e-17 -1 1.569108e-16 -2.653931e-17 -1 1.569108e-16 -2.653931e-17 -1 1.569108e-16 -2.653931e-17 -1 1.569108e-16 -2.653931e-17 -1 1.569108e-16 -2.653931e-17 -1 1.569108e-16 -2.653931e-17 -1 1.569108e-16 -2.653931e-17 0 -1 0 0 -1 0 0 -1 0 0 -1 0 -1 0 0 -1 0 0 -1 0 0 -1 0 0 -1 0 0 -1 0 0 -1 0 0 -1 0 0 4.699944e-15 1 7.647749e-15 4.699944e-15 1 7.647749e-15 4.699944e-15 1 7.647749e-15 4.699944e-15 1 7.647749e-15 1 0 0 1 0 0 1 0 0 1 0 0 1 0 0 1 0 0 1 0 0 1 0 0 0 1 0 0 1 0 0 1 0 0 1 0 0 -1 0 0 -1 0 0 -1 0 0 -1 0 0 1 0 0 1 0 0 1 0 0 1 0 0 1 0 0 1 0 0 1 0 0 1 0 0 1 0 0 1 0 0 1 0 0 1 0 0 1 0 0 1 0 0 1 0 0 1 0 0 1 0 0 1 0 0 1 0 0 1 0 0 1 0 0 1 0 0 1 0 0 1 0 0 -1 0 0 -1 0 0 -1 0 0 -1 0 0 -1.769391e-15 1 0 -1.769391e-15 1 0 -1.769391e-15 1 0 -1.769391e-15 1 0 8.846954e-16 -1 0 8.846954e-16 -1 0 8.846954e-16 -1 0 8.846954e-16 -1 4.36592e-31 -1.769391e-15 1 4.36592e-31 -1.769391e-15 1 4.36592e-31 -1.769391e-15 1 4.36592e-31 -1.769391e-15 1 3.759955e-15 4.423477e-16 -1 3.759955e-15 4.423477e-16 -1 3.759955e-15 4.423477e-16 -1 3.759955e-15 4.423477e-16 -1</float_array>
                    <technique_common>
                        <accessor count="164" source="#ID100" stride="3">
                            <param name="X" type="float" />
                            <param name="Y" type="float" />
                            <param name="Z" type="float" />
                        </accessor>
                    </technique_common>
                </source>
                <source id="ID98">
                    <float_array id="ID101" count="304">-0.3433333 0.2466667 -0.2766667 0 -0.2766667 0.2466667 -0.1066667 0 -0.1733333 -0.06666667 -0.1066667 -0.9 -0.3433333 -0.06666667 -0.1733333 -0.9 -0.5916667 0.3433333 -0.5716667 0.1733333 -0.5716667 0.3433333 -0.5916667 0.1733333 -0.5716667 -0.06666667 -0.5916667 -0.9 -0.5716667 -0.9 -0.5916667 -0.06666667 -0.5716667 0.1733333 -0.5816667 0.1633333 -0.5716667 0.1066667 -0.5916667 0.1733333 -0.5916667 0.1633333 -0.655 0.1733333 -0.635 0.1633333 -0.635 0.1733333 -0.645 0.1633333 -0.645 0.1166667 -0.5816667 0.1166667 -0.655 0.1066667 0.655 -7.771561e-16 0.5716667 -0.9 0.655 -0.9 0.5716667 -7.771561e-16 0.655 0.1066667 0.5716667 0.2766667 0.5716667 0.1066667 0.655 0.2766667 0.655 0.2466667 0.5716667 0 0.655 0 0.5716667 0.2466667 0.5816667 0.2866667 0.5716667 0.3433333 0.645 0.2866667 0.645 0.3333333 0.635 0.3433333 0.635 0.3333333 0.655 0.3433333 0.5816667 0.3333333 0.5916667 0.3433333 0.5916667 0.3333333 -0.5716667 0.2466667 -0.5916667 -0.06666667 -0.5716667 -0.06666667 -0.5916667 0.2466667 0.1733333 -0.9 0.1633333 -0.05666667 0.1633333 -0.9 0.1733333 -0.06666667 0.3333333 -0.05666667 0.3433333 -0.06666667 0.3333333 0.2466667 0.3433333 0.2466667 0.5916667 -0.05666667 0.5816667 -0.9 0.5916667 -0.9 0.5816667 -0.05666667 0.1166667 -0.01 0.1166667 -0.9 0.2866667 -0.01 0.2866667 0.2466667 -0.5816667 -0.01 -0.645 -0.9 -0.5816667 -0.9 -0.645 -0.01 -0.3333333 0.2466667 -0.2866667 -0.01 -0.2866667 0.2466667 -0.1166667 -0.01 -0.1633333 -0.05666667 -0.1166667 -0.9 -0.3333333 -0.05666667 -0.1633333 -0.9 0.645 -0.05666667 0.635 -0.9 0.645 -0.9 0.635 -0.05666667 -0.3333333 -0.05666667 -0.3333333 0.2466667 -0.1633333 -0.05666667 -0.1733333 -0.06666667 -0.1633333 -0.9 -0.635 -0.06666667 -0.655 -0.9 -0.635 -0.9 -0.655 -0.06666667 0.1733333 -0.06666667 0.1066667 -0.9 0.1066667 0 0.2766667 0 0.2766667 0.2466667 -0.635 0.2466667 -0.655 -0.06666667 -0.635 -0.06666667 -0.655 0.2466667 0.645 0.2466667 0.635 -0.05666667 0.645 -0.05666667 0.635 0.2466667 -0.5816667 -0.01 -0.6025464 0.06777505 -0.645 -0.01 -0.6 0.07561218 -0.5816667 0.2466667 -0.6092131 0.06293143 -0.6025464 0.08344932 -0.6092131 0.08829294 -0.6174536 0.08829294 -0.6025464 0.2007227 -0.6092131 0.1958791 -0.6 0.2085598 -0.6025464 0.216397 -0.6092131 0.2212406 -0.6174536 0.2212406 -0.6266667 0.07561218 -0.645 0.2466667 -0.6241202 0.06777505 -0.6174536 0.06293143 -0.6241202 0.08344932 -0.6241202 0.2007227 -0.6174536 0.1958791 -0.6266667 0.2085598 -0.6241202 0.216397 0.5916667 0.2466667 0.5816667 -0.05666667 0.5916667 -0.05666667 0.5816667 0.2466667 0.5916667 0.1633333 0.5816667 0.3333333 0.5816667 0.1633333 0.5916667 0.3333333 -0.645 0.2866667 -0.5816667 0.1166667 -0.5816667 0.2866667 -0.645 0.1166667 0.645 0.1633333 0.635 0.3333333 0.635 0.1633333 0.645 0.3333333 -0.655 0.3433333 -0.635 0.1733333 -0.635 0.3433333 -0.655 0.1733333</float_array>
                    <technique_common>
                        <accessor count="152" source="#ID101" stride="2">
                            <param name="S" type="float" />
                            <param name="T" type="float" />
                        </accessor>
                    </technique_common>
                </source>
                <vertices id="ID97">
                    <input semantic="POSITION" source="#ID95" />
                    <input semantic="NORMAL" source="#ID96" />
                </vertices>
                <triangles count="116" material="Material2">
                    <input offset="0" semantic="VERTEX" source="#ID97" />
                    <input offset="1" semantic="TEXCOORD" source="#ID98" />
                    <p>0 0 1 1 2 2 3 3 4 4 5 5 4 4 3 3 1 1 4 4 1 1 6 6 6 6 1 1 0 0 7 7 5 5 4 4 8 8 9 9 10 10 9 9 8 8 11 11 12 12 13 13 14 14 13 13 12 12 15 15 16 16 17 17 18 18 17 17 16 16 19 19 17 17 19 19 20 20 21 21 22 22 23 23 22 22 21 21 24 24 24 24 21 21 25 25 18 18 26 26 27 27 26 26 18 18 17 17 27 27 26 26 25 25 27 27 25 25 21 21 28 28 29 29 30 30 29 29 28 28 31 31 32 32 33 33 34 34 33 33 32 32 35 35 36 36 37 37 38 38 37 37 36 36 39 39 40 33 41 40 42 41 41 40 40 33 43 35 41 40 43 35 44 42 44 42 43 35 45 43 45 43 46 44 47 45 46 44 45 43 48 46 48 46 45 43 43 35 42 41 49 47 50 48 49 47 42 41 41 40 50 48 49 47 51 49 52 50 53 51 54 52 53 51 52 50 55 53 56 54 57 55 58 56 57 55 56 54 59 57 59 57 60 58 57 55 60 58 59 57 61 59 60 58 61 59 62 60 62 60 61 59 63 61 64 62 65 63 66 64 65 63 64 62 67 65 68 56 69 66 70 67 69 66 68 56 71 55 69 66 71 55 72 68 72 68 71 55 73 58 72 68 73 58 74 69 74 69 73 58 75 60 76 70 77 71 78 72 77 71 76 70 79 73 80 74 81 75 82 76 83 77 84 78 85 79 84 78 83 77 81 75 84 78 81 75 86 80 86 80 81 75 80 74 87 81 85 79 84 78 88 82 89 83 90 84 89 83 88 82 91 85 92 0 93 86 94 87 95 88 96 89 97 90 96 89 95 88 93 86 96 89 93 86 98 6 98 6 93 86 92 0 99 7 97 90 96 89 100 91 101 92 102 93 101 92 100 91 103 94 104 54 105 95 106 96 107 97 105 95 108 98 105 95 107 97 106 96 108 98 105 95 109 59 108 98 109 59 110 99 110 99 109 59 111 61 112 100 113 101 114 102 113 101 112 100 115 103 116 104 117 105 118 106 117 105 116 104 119 107 120 108 121 109 122 110 121 109 120 108 123 111 123 111 120 108 124 112 122 110 121 109 125 113 123 111 124 112 126 114 126 114 124 112 127 115 127 115 124 112 128 116 128 116 124 112 129 117 128 116 129 117 130 118 129 117 124 112 131 119 131 119 124 112 132 120 132 120 124 112 133 121 133 121 124 112 134 122 122 110 135 123 136 124 135 123 122 110 137 125 137 125 122 110 138 126 138 126 122 110 125 113 136 124 135 123 139 127 136 124 139 127 128 116 136 124 128 116 140 128 140 128 128 116 141 129 141 129 128 116 130 118 136 124 140 128 142 130 136 124 142 130 143 131 136 124 143 131 134 122 136 124 134 122 124 112 144 132 145 133 146 134 145 133 144 132 147 135 148 136 149 137 150 138 149 137 148 136 151 139 152 140 153 141 154 142 153 141 152 140 155 143 156 144 157 145 158 146 157 145 156 144 159 147 160 148 161 149 162 150 161 149 160 148 163 151</p>
                </triangles>
            </mesh>
        </geometry>
        <geometry id="ID102">
            <mesh>
                <source id="ID103">
                    <float_array id="ID107" count="30">-4.69827 2.125984 11.43041 -4.522202 2.125984 11.37321 -4.61953 2.125984 11.37321 -4.443462 2.125984 11.43041 -4.728346 2.125984 11.52298 -4.413386 2.125984 11.52298 -4.69827 2.125984 11.61554 -4.443462 2.125984 11.61554 -4.61953 2.125984 11.67275 -4.522202 2.125984 11.67275</float_array>
                    <technique_common>
                        <accessor count="10" source="#ID107" stride="3">
                            <param name="X" type="float" />
                            <param name="Y" type="float" />
                            <param name="Z" type="float" />
                        </accessor>
                    </technique_common>
                </source>
                <source id="ID104">
                    <float_array id="ID108" count="30">-1.020068e-29 1 1.63906e-15 -1.020068e-29 1 1.63906e-15 -1.020068e-29 1 1.63906e-15 -1.020068e-29 1 1.63906e-15 -1.020068e-29 1 1.63906e-15 -1.020068e-29 1 1.63906e-15 -1.020068e-29 1 1.63906e-15 -1.020068e-29 1 1.63906e-15 -1.020068e-29 1 1.63906e-15 -1.020068e-29 1 1.63906e-15</float_array>
                    <technique_common>
                        <accessor count="10" source="#ID108" stride="3">
                            <param name="X" type="float" />
                            <param name="Y" type="float" />
                            <param name="Z" type="float" />
                        </accessor>
                    </technique_common>
                </source>
                <source id="ID106">
                    <float_array id="ID109" count="20">20.21287 0.7096556 20.60966 0.8385794 20.39032 0.8385794 20.78711 0.7096556 20.14509 0.5010527 20.85488 0.5010527 20.21287 0.2924497 20.78711 0.2924497 20.39032 0.163526 20.60966 0.163526</float_array>
                    <technique_common>
                        <accessor count="10" source="#ID109" stride="2">
                            <param name="S" type="float" />
                            <param name="T" type="float" />
                        </accessor>
                    </technique_common>
                </source>
                <vertices id="ID105">
                    <input semantic="POSITION" source="#ID103" />
                    <input semantic="NORMAL" source="#ID104" />
                </vertices>
                <triangles count="8" material="Material2">
                    <input offset="0" semantic="VERTEX" source="#ID105" />
                    <input offset="1" semantic="TEXCOORD" source="#ID106" />
                    <p>0 0 1 1 2 2 1 1 0 0 3 3 3 3 0 0 4 4 3 3 4 4 5 5 5 5 4 4 6 6 5 5 6 6 7 7 7 7 6 6 8 8 7 7 8 8 9 9</p>
                </triangles>
            </mesh>
        </geometry>
        <geometry id="ID110">
            <mesh>
                <source id="ID111">
                    <float_array id="ID115" count="30">-4.69827 2.125984 13.00066 -4.522202 2.125984 12.94345 -4.61953 2.125984 12.94345 -4.443462 2.125984 13.00066 -4.728346 2.125984 13.09323 -4.413386 2.125984 13.09323 -4.69827 2.125984 13.18579 -4.443462 2.125984 13.18579 -4.61953 2.125984 13.243 -4.522202 2.125984 13.243</float_array>
                    <technique_common>
                        <accessor count="10" source="#ID115" stride="3">
                            <param name="X" type="float" />
                            <param name="Y" type="float" />
                            <param name="Z" type="float" />
                        </accessor>
                    </technique_common>
                </source>
                <source id="ID112">
                    <float_array id="ID116" count="30">-1.018984e-29 1 1.63906e-15 -1.018984e-29 1 1.63906e-15 -1.018984e-29 1 1.63906e-15 -1.018984e-29 1 1.63906e-15 -1.018984e-29 1 1.63906e-15 -1.018984e-29 1 1.63906e-15 -1.018984e-29 1 1.63906e-15 -1.018984e-29 1 1.63906e-15 -1.018984e-29 1 1.63906e-15 -1.018984e-29 1 1.63906e-15</float_array>
                    <technique_common>
                        <accessor count="10" source="#ID116" stride="3">
                            <param name="X" type="float" />
                            <param name="Y" type="float" />
                            <param name="Z" type="float" />
                        </accessor>
                    </technique_common>
                </source>
                <source id="ID114">
                    <float_array id="ID117" count="20">20.21287 0.7096556 20.60966 0.8385794 20.39032 0.8385794 20.78711 0.7096556 20.14509 0.5010527 20.85488 0.5010527 20.21287 0.2924497 20.78711 0.2924497 20.39032 0.163526 20.60966 0.163526</float_array>
                    <technique_common>
                        <accessor count="10" source="#ID117" stride="2">
                            <param name="S" type="float" />
                            <param name="T" type="float" />
                        </accessor>
                    </technique_common>
                </source>
                <vertices id="ID113">
                    <input semantic="POSITION" source="#ID111" />
                    <input semantic="NORMAL" source="#ID112" />
                </vertices>
                <triangles count="8" material="Material2">
                    <input offset="0" semantic="VERTEX" source="#ID113" />
                    <input offset="1" semantic="TEXCOORD" source="#ID114" />
                    <p>0 0 1 1 2 2 1 1 0 0 3 3 3 3 0 0 4 4 3 3 4 4 5 5 5 5 4 4 6 6 5 5 6 6 7 7 7 7 6 6 8 8 7 7 8 8 9 9</p>
                </triangles>
            </mesh>
        </geometry>
        <geometry id="ID120">
            <mesh>
                <source id="ID121">
                    <float_array id="ID125" count="426">1.176156 0.1574803 1.176156 1.033465 0.1968504 1.285647 1.033465 0.1574803 1.285647 1.176156 0.1968504 1.176156 0.8672966 0.1968504 1.354476 0.8672966 0.1574803 1.354476 1.033465 0.1574803 1.285647 0.6889764 0.1574803 1.377953 1.176156 0.1574803 1.176156 0.8672966 0.1574803 1.354476 0.3444882 0.1574803 1.285647 0.2017965 0.1574803 1.176156 0.5106562 0.1574803 1.354476 0.0234763 0.1574803 0.8672966 0 0.1574803 0.6889764 0.09230533 0.1574803 1.033465 0.09230533 0.1574803 0.3444882 0.2017965 0.1574803 0.2017965 0.0234763 0.1574803 0.5106562 0.5106562 0.1574803 0.0234763 0.6889764 0.1574803 0 0.3444882 0.1574803 0.09230533 1.285647 0.1574803 0.3444882 1.377953 0.1574803 0.6889764 1.176156 0.1574803 0.2017965 1.354476 0.1574803 0.5106562 0.8672966 0.1574803 0.0234763 1.033465 0.1574803 0.09230533 1.285647 0.1968504 1.033465 1.285647 0.1574803 1.033465 0.6889764 0.1968504 1.377953 0.6889764 0.1574803 1.377953 1.354476 0.1968504 0.5106562 1.377953 0.1574803 0.6889764 1.354476 0.1574803 0.5106562 1.377953 0.1968504 0.6889764 1.176156 0.1574803 0.2017965 1.277055 -0.03937008 0.4453864 1.176156 -0.03937008 0.2017965 1.377953 -0.03937008 0.6889764 1.377953 0.1574803 0.6889764 1.176156 0.1574803 0.2017965 0.6889764 -0.03937008 0 0.6889764 0.1574803 0 0.9325663 -0.03937008 0.1008983 1.176156 -0.03937008 0.2017965 0.6889764 0.1574803 0 0.2017965 -0.03937008 0.2017965 0.2017965 0.1574803 0.2017965 0.4453864 -0.03937008 0.1008983 0.6889764 -0.03937008 0 0 0.1574803 0.6889764 0.1008983 -0.03937008 0.4453864 0 -0.03937008 0.6889764 0.2017965 -0.03937008 0.2017965 0.2017965 0.1574803 0.2017965 0.2017965 0.1574803 1.176156 0.1008983 -0.03937008 0.9325663 0.2017965 -0.03937008 1.176156 0 -0.03937008 0.6889764 0 0.1574803 0.6889764 0.4453864 -0.03937008 1.277055 0.2017965 0.1574803 1.176156 0.2017965 -0.03937008 1.176156 0.6889764 0.1574803 1.377953 0.6889764 -0.03937008 1.377953 0.9325663 -0.03937008 1.277055 0.6889764 0.1574803 1.377953 0.6889764 -0.03937008 1.377953 1.176156 0.1574803 1.176156 1.176156 -0.03937008 1.176156 0.5106562 0.1968504 1.354476 0.5106562 0.1574803 1.354476 0.3444882 0.1968504 1.285647 0.3444882 0.1574803 1.285647 0.2017965 0.1968504 1.176156 0.2017965 0.1574803 1.176156 0.09230533 0.1574803 1.033465 0.09230533 0.1968504 1.033465 0.0234763 0.1574803 0.8672966 0.0234763 0.1968504 0.8672966 0 0.1574803 0.6889764 0 0.1968504 0.6889764 0.0234763 0.1574803 0.5106562 0.0234763 0.1968504 0.5106562 0.09230533 0.1574803 0.3444882 0.09230533 0.1968504 0.3444882 0.2017965 0.1574803 0.2017965 0.2017965 0.1968504 0.2017965 0.3444882 0.1968504 0.09230533 0.3444882 0.1574803 0.09230533 0.5106562 0.1968504 0.0234763 0.5106562 0.1574803 0.0234763 0.6889764 0.1968504 0 0.6889764 0.1574803 0 0.8672966 0.1968504 0.0234763 0.8672966 0.1574803 0.0234763 1.033465 0.1968504 0.09230533 1.033465 0.1574803 0.09230533 1.176156 0.1968504 0.2017965 1.176156 0.1574803 0.2017965 1.285647 0.1574803 0.3444882 1.285647 0.1968504 0.3444882 1.354476 0.1574803 0.8672966 1.285647 0.1574803 1.033465 1.354476 0.1968504 0.8672966 1.354476 0.1574803 0.8672966 1.377953 0.1574803 0.6889764 1.277055 -0.03937008 0.9325663 1.377953 -0.03937008 0.6889764 1.176156 -0.03937008 1.176156 1.176156 0.1574803 1.176156 0.9325663 -0.03937008 0.1008983 0.4453864 -0.03937008 0.1008983 0.6889764 -0.03937008 0 0.8203864 -0.03937008 0.1132315 1.176156 -0.03937008 0.2017965 1.057179 -0.03937008 0.2272649 1.277055 -0.03937008 0.4453864 1.221045 -0.03937008 0.4327458 1.279528 -0.03937008 0.6889764 1.377953 -0.03937008 0.6889764 1.277055 -0.03937008 0.9325663 1.221045 -0.03937008 0.9452069 1.176156 -0.03937008 1.176156 1.057179 -0.03937008 1.150688 0.8203864 -0.03937008 1.264721 0.9325663 -0.03937008 1.277055 0.5575664 -0.03937008 1.264721 0.5575664 -0.03937008 0.1132315 0.2017965 -0.03937008 0.2017965 0.3207737 -0.03937008 0.2272649 0.1008983 -0.03937008 0.4453864 0.1569081 -0.03937008 0.4327458 0.0984252 -0.03937008 0.6889764 0 -0.03937008 0.6889764 0.1569081 -0.03937008 0.9452069 0.1008983 -0.03937008 0.9325663 0.2017965 -0.03937008 1.176156 0.3207737 -0.03937008 1.150688 0.4453864 -0.03937008 1.277055 0.6889764 -0.03937008 1.377953</float_array>
                    <technique_common>
                        <accessor count="142" source="#ID125" stride="3">
                            <param name="X" type="float" />
                            <param name="Y" type="float" />
                            <param name="Z" type="float" />
                        </accessor>
                    </technique_common>
                </source>
                <source id="ID122">
                    <float_array id="ID126" count="426">0.7071068 2.79727e-31 0.7071068 0.5 -3.108078e-32 0.8660254 0.5 -3.108078e-32 0.8660254 0.7071068 2.79727e-31 0.7071068 0.258819 5.59454e-31 0.9659258 0.258819 5.59454e-31 0.9659258 0 -1 1.602374e-30 0 -1 1.602374e-30 0 -1 1.602374e-30 0 -1 1.602374e-30 0 -1 1.602374e-30 0 -1 1.602374e-30 0 -1 1.602374e-30 0 -1 1.602374e-30 0 -1 1.602374e-30 0 -1 1.602374e-30 0 -1 1.602374e-30 0 -1 1.602374e-30 0 -1 1.602374e-30 0 -1 1.602374e-30 0 -1 1.602374e-30 0 -1 1.602374e-30 0 -1 1.602374e-30 0 -1 1.602374e-30 0 -1 1.602374e-30 0 -1 1.602374e-30 0 -1 1.602374e-30 0 -1 1.602374e-30 0.8660254 9.790446e-31 0.5 0.8660254 9.790446e-31 0.5 -6.326888e-16 -9.20888e-18 1 -6.326888e-16 -9.20888e-18 1 0.9659258 -3.885097e-31 -0.258819 1 -1.20438e-30 4.90111e-16 0.9659258 -3.885097e-31 -0.258819 1 -1.20438e-30 4.90111e-16 0.9238795 1.664169e-16 -0.3826834 0.9238795 1.664169e-16 -0.3826834 0.9238795 1.664169e-16 -0.3826834 0.9238795 1.664169e-16 -0.3826834 0.9238795 1.664169e-16 -0.3826834 0.3826834 1.368497e-16 -0.9238795 0.3826834 1.368497e-16 -0.9238795 0.3826834 1.368497e-16 -0.9238795 0.3826834 1.368497e-16 -0.9238795 0.3826834 1.368497e-16 -0.9238795 -0.3826834 -1.998684e-16 -0.9238795 -0.3826834 -1.998684e-16 -0.9238795 -0.3826834 -1.998684e-16 -0.9238795 -0.3826834 -1.998684e-16 -0.9238795 -0.3826834 -1.998684e-16 -0.9238795 -0.9238795 5.609067e-17 -0.3826834 -0.9238795 5.609067e-17 -0.3826834 -0.9238795 5.609067e-17 -0.3826834 -0.9238795 5.609067e-17 -0.3826834 -0.9238795 5.609067e-17 -0.3826834 -0.9238795 5.913443e-17 0.3826834 -0.9238795 5.913443e-17 0.3826834 -0.9238795 5.913443e-17 0.3826834 -0.9238795 5.913443e-17 0.3826834 -0.9238795 5.913443e-17 0.3826834 -0.3826834 1.082971e-16 0.9238795 -0.3826834 1.082971e-16 0.9238795 -0.3826834 1.082971e-16 0.9238795 -0.3826834 1.082971e-16 0.9238795 -0.3826834 1.082971e-16 0.9238795 0.3826834 -4.529578e-16 0.9238795 0.3826834 -4.529578e-16 0.9238795 0.3826834 -4.529578e-16 0.9238795 0.3826834 -4.529578e-16 0.9238795 0.3826834 -4.529578e-16 0.9238795 -0.258819 -9.20888e-18 0.9659258 -0.258819 -9.20888e-18 0.9659258 -0.5 -7.148579e-31 0.8660254 -0.5 -7.148579e-31 0.8660254 -0.7071068 -2.175655e-31 0.7071068 -0.7071068 -2.175655e-31 0.7071068 -0.8660254 7.614791e-31 0.5 -0.8660254 7.614791e-31 0.5 -0.9659258 1.942549e-31 0.258819 -0.9659258 1.942549e-31 0.258819 -1 9.20888e-18 9.802221e-17 -1 9.20888e-18 9.802221e-17 -0.9659258 9.20888e-18 -0.258819 -0.9659258 9.20888e-18 -0.258819 -0.8660254 -5.905348e-31 -0.5 -0.8660254 -5.905348e-31 -0.5 -0.7071068 -7.148579e-31 -0.7071068 -0.7071068 -7.148579e-31 -0.7071068 -0.5 -1.149989e-30 -0.8660254 -0.5 -1.149989e-30 -0.8660254 -0.258819 -9.945849e-31 -0.9659258 -0.258819 -9.945849e-31 -0.9659258 5.346666e-17 -1.243231e-31 -1 5.346666e-17 -1.243231e-31 -1 0.258819 -2.79727e-31 -0.9659258 0.258819 -2.79727e-31 -0.9659258 0.5 -1.087827e-30 -0.8660254 0.5 -1.087827e-30 -0.8660254 0.7071068 -5.597264e-17 -0.7071068 0.7071068 -5.597264e-17 -0.7071068 0.8660254 -5.597264e-17 -0.5 0.8660254 -5.597264e-17 -0.5 0 -1 1.602374e-30 0 -1 1.602374e-30 0.9659258 -9.246532e-31 0.258819 0.9659258 -9.246532e-31 0.258819 0.9238795 -9.157133e-17 0.3826834 0.9238795 -9.157133e-17 0.3826834 0.9238795 -9.157133e-17 0.3826834 0.9238795 -9.157133e-17 0.3826834 0.9238795 -9.157133e-17 0.3826834 0 -1 1.602374e-30 0 -1 1.602374e-30 0 -1 1.602374e-30 0 -1 1.602374e-30 0 -1 1.602374e-30 0 -1 1.602374e-30 0 -1 1.602374e-30 0 -1 1.602374e-30 0 -1 1.602374e-30 0 -1 1.602374e-30 0 -1 1.602374e-30 0 -1 1.602374e-30 0 -1 1.602374e-30 0 -1 1.602374e-30 0 -1 1.602374e-30 0 -1 1.602374e-30 0 -1 1.602374e-30 0 -1 1.602374e-30 0 -1 1.602374e-30 0 -1 1.602374e-30 0 -1 1.602374e-30 0 -1 1.602374e-30 0 -1 1.602374e-30 0 -1 1.602374e-30 0 -1 1.602374e-30 0 -1 1.602374e-30 0 -1 1.602374e-30 0 -1 1.602374e-30 0 -1 1.602374e-30 0 -1 1.602374e-30</float_array>
                    <technique_common>
                        <accessor count="142" source="#ID126" stride="3">
                            <param name="X" type="float" />
                            <param name="Y" type="float" />
                            <param name="Z" type="float" />
                        </accessor>
                    </technique_common>
                </source>
                <source id="ID124">
                    <float_array id="ID127" count="376">0.01218244 -0.002666667 -6.028164e-17 0 -7.546047e-17 -0.002666667 0.01218244 0 0.01218244 -0.002666667 2.289835e-16 -3.469447e-18 2.185752e-16 -0.002666667 0.01218244 1.734723e-18 0.05488172 -0.01470551 0.03571712 1.665335e-16 0.06097294 -0.02525582 0.04626743 -0.006091222 0.01176734 0.003153049 7.632783e-17 1.665335e-16 0.02394978 0.003153049 -0.0191646 -0.01470551 -0.02525582 -0.02525582 -0.01055031 -0.006091222 -0.02840887 -0.0492056 -0.02525582 -0.06097294 -0.02840887 -0.03702316 -0.01055031 -0.08013753 -3.26128e-16 -0.08622876 -0.0191646 -0.07152324 0.04626743 -0.08013753 0.06097294 -0.06097294 0.03571712 -0.08622876 0.05488172 -0.07152324 0.01176734 -0.08938181 0.02394978 -0.08938181 0.01218244 -3.469447e-18 -2.654127e-16 -0.002666667 0.01218244 -0.002666667 -2.203099e-16 1.734723e-18 0.01218244 -0.002666667 1.228184e-15 0 1.221245e-15 -0.002666667 0.01218244 -1.734723e-18 0.01218244 0 2.775558e-16 -0.002666667 0.01218244 -0.002666667 2.775558e-16 0 0.03571712 -1.908196e-17 0.01785856 -0.01333333 0.03571712 -0.01333333 4.163336e-17 -0.01333333 6.938894e-17 -1.908196e-17 -3.608225e-16 -2.775558e-17 0.03571712 -0.01333333 0.03571712 -2.775558e-17 0.01785856 -0.01333333 -3.885781e-16 -0.01333333 -2.775558e-16 -2.428613e-17 0.03571712 -0.01333333 0.03571712 -2.428613e-17 0.01785856 -0.01333333 -2.775558e-16 -0.01333333 0.03571712 1.734723e-18 0.01785856 -0.01333333 -3.139849e-16 -0.01333333 -3.686287e-16 0 0.03571712 -1.734723e-18 0.01785856 -0.01333333 0.03571712 -0.01333333 -9.020562e-17 -0.01333333 -1.179612e-16 -1.734723e-18 0.01785856 -0.01333333 9.020562e-17 5.20417e-18 8.326673e-17 -0.01333333 0.03571712 0 0.03571712 -0.01333333 0.01785856 -0.01333333 -6.843484e-16 -6.765422e-17 -5.924081e-16 -0.01333333 0.03571712 -6.245005e-17 0.03571712 -0.01333333 0.01218244 -0.002666667 3.677614e-16 -6.938894e-18 3.677614e-16 -0.002666667 0.01218244 -5.20417e-18 0.01218244 -0.002666667 1.31839e-16 0 1.31839e-16 -0.002666667 0.01218244 -5.20417e-18 0.01218244 -0.002666667 -9.020562e-17 1.734723e-18 -9.020562e-17 -0.002666667 0.01218244 0 0.01218244 6.938894e-18 -2.844947e-16 -0.002666667 0.01218244 -0.002666667 -2.844947e-16 0 0.01218244 1.734723e-18 1.387779e-17 -0.002666667 0.01218244 -0.002666667 1.387779e-17 1.734723e-18 0.01218244 -3.469447e-18 -1.804112e-16 -0.002666667 0.01218244 -0.002666667 -1.804112e-16 0 0.01218244 1.734723e-18 1.040834e-16 -0.002666667 0.01218244 -0.002666667 1.040834e-16 1.734723e-18 0.01218244 1.040834e-17 1.179612e-16 -0.002666667 0.01218244 -0.002666667 9.020562e-17 1.734723e-18 0.01218244 -6.938894e-18 3.131176e-16 -0.002666667 0.01218244 -0.002666667 3.15286e-16 1.734723e-18 1.31839e-16 1.734723e-18 0.01218244 -0.002666667 0.01218244 1.040834e-17 1.856154e-16 -0.002666667 7.632783e-17 0 0.01218244 -0.002666667 0.01218244 -8.673617e-18 7.632783e-17 -0.002666667 -4.093947e-16 -1.196959e-16 0.01218244 -0.002666667 0.01218244 -1.144917e-16 -4.093947e-16 -0.002666667 -4.718448e-16 1.734723e-18 0.01218244 -0.002666667 0.01218244 -5.20417e-18 -4.718448e-16 -0.002666667 -1.110223e-16 0 0.01218244 -0.002666667 0.01218244 8.673617e-18 -1.110223e-16 -0.002666667 -1.387779e-17 -3.469447e-18 0.01218244 -0.002666667 0.01218244 -1.214306e-17 -1.387779e-17 -0.002666667 0.01218244 2.255141e-17 -2.63678e-16 -0.002666667 0.01218244 -0.002666667 -2.359224e-16 1.214306e-17 0.01218244 -6.938894e-18 1.387779e-16 -0.002666667 1.387779e-16 1.734723e-18 0.02394978 -0.003153049 2.775558e-17 -2.775558e-17 0.03450009 -0.009244271 0.01218244 5.551115e-17 0.01218244 0 4.510281e-16 -0.002666667 0.01218244 -0.002666667 4.510281e-16 0 0.01218244 5.20417e-18 -7.632783e-17 -0.002666667 0.03571712 6.938894e-18 0.01785856 -0.01333333 0.03571712 -0.01333333 -2.567391e-16 -0.01333333 -2.012279e-16 6.938894e-18 -0.03048647 -0.01262791 -1.734723e-17 3.122502e-17 -0.01785856 5.89806e-17 -0.02314685 -0.01049194 -0.04311438 -0.02525582 -0.03500894 -0.02376562 -0.04311438 -0.04311438 -0.03993707 -0.04087156 -0.03695518 -0.05842172 -0.04311438 -0.06097294 -0.03048647 -0.07360085 -0.02665386 -0.07294006 -0.01785856 -0.08622876 -0.01107342 -0.08155107 0.006700249 -0.08254922 1.977585e-16 -0.08622876 0.02314685 -0.07573681 -0.006700249 -0.003679537 0.01785856 3.469447e-17 0.01107342 -0.004677685 0.03048647 -0.01262791 0.02665386 -0.01328869 0.03695518 -0.02780704 0.04311438 -0.02525582 0.03993707 -0.0453572 0.04311438 -0.04311438 0.04311438 -0.06097294 0.03500894 -0.06246313 0.03048647 -0.07360085 0.01785856 -0.08622876</float_array>
                    <technique_common>
                        <accessor count="188" source="#ID127" stride="2">
                            <param name="S" type="float" />
                            <param name="T" type="float" />
                        </accessor>
                    </technique_common>
                </source>
                <vertices id="ID123">
                    <input semantic="POSITION" source="#ID121" />
                    <input semantic="NORMAL" source="#ID122" />
                </vertices>
                <triangles count="118" material="Material2">
                    <input offset="0" semantic="VERTEX" source="#ID123" />
                    <input offset="1" semantic="TEXCOORD" source="#ID124" />
                    <p>0 0 1 1 2 2 1 1 0 0 3 3 2 4 4 5 5 6 4 5 2 4 1 7 6 8 7 9 8 10 7 9 6 8 9 11 7 9 10 12 11 13 10 12 7 9 12 14 11 13 13 15 14 16 13 15 11 13 15 17 14 16 16 18 17 19 16 18 14 16 18 20 17 19 19 21 20 22 19 21 17 19 21 23 22 24 23 25 24 26 23 25 22 24 25 27 26 28 24 26 20 22 24 26 26 28 27 29 28 30 0 31 29 32 0 31 28 30 3 33 5 34 30 35 31 36 30 35 5 34 4 37 32 38 33 39 34 40 33 39 32 38 35 41 36 42 37 43 38 44 37 43 36 42 39 45 39 45 36 42 40 46 41 47 42 48 43 49 42 48 41 47 44 50 44 50 41 47 45 51 46 52 47 53 48 54 47 53 46 52 49 55 49 55 46 52 50 56 51 57 52 58 53 44 52 58 51 57 54 59 54 59 51 57 55 60 56 61 57 62 58 63 57 62 56 61 59 64 59 64 56 61 60 65 61 66 62 67 63 68 62 67 61 66 64 69 64 69 61 66 65 70 66 71 67 72 68 73 67 72 66 71 69 74 69 74 66 71 70 75 31 76 71 77 72 78 71 77 31 76 30 79 72 80 73 81 74 82 73 81 72 80 71 83 74 84 75 85 76 86 75 85 74 84 73 87 75 88 77 89 76 90 77 89 75 88 78 91 78 92 79 93 77 94 79 93 78 92 80 95 80 96 81 97 79 98 81 97 80 96 82 99 82 100 83 101 81 102 83 101 82 100 84 103 84 104 85 105 83 106 85 105 84 104 86 107 86 108 87 109 85 110 87 109 86 108 88 111 89 112 87 113 88 114 87 113 89 112 90 115 91 116 90 117 89 118 90 117 91 116 92 119 93 120 92 121 91 122 92 121 93 120 94 123 95 124 94 125 93 126 94 125 95 124 96 127 97 128 96 129 95 130 96 129 97 128 98 131 99 132 98 133 97 134 98 133 99 132 100 135 99 136 101 137 100 138 101 137 99 136 102 139 102 140 34 141 101 94 34 141 102 140 32 142 103 143 8 144 23 145 8 144 103 143 104 146 105 147 29 148 106 149 29 148 105 147 28 150 35 151 106 152 33 102 106 152 35 151 105 33 107 153 108 154 109 155 108 154 107 153 110 156 110 156 107 153 111 157 112 158 113 159 114 160 113 159 112 158 115 161 115 161 112 158 116 162 115 161 116 162 117 163 117 163 116 162 118 164 117 163 118 164 119 165 119 165 118 164 120 166 120 166 118 164 121 167 120 166 121 167 122 168 120 166 122 168 123 169 123 169 122 168 124 170 123 169 124 170 125 171 125 171 124 170 126 172 126 172 124 170 127 173 126 172 127 173 128 174 113 159 129 175 130 176 129 175 113 159 115 161 130 176 129 175 131 177 130 176 131 177 132 178 132 178 131 177 133 179 132 178 133 179 134 180 132 178 134 180 135 181 135 181 134 180 136 182 135 181 136 182 137 183 137 183 136 182 138 184 138 184 136 182 139 185 138 184 139 185 128 174 138 184 128 174 140 186 140 186 128 174 127 173 140 186 127 173 141 187</p>
                </triangles>
            </mesh>
        </geometry>
        <geometry id="ID128">
            <mesh>
                <source id="ID134">
                    <float_array id="ID138" count="126">1.057179 -13.09055 0.2272649 0.5575664 -13.09055 0.1132315 0.8203864 -13.09055 0.1132315 0.3207737 -13.09055 0.2272649 0.1569081 -13.09055 0.4327458 1.221045 -13.09055 0.4327458 0.0984252 -13.09055 0.6889764 1.279528 -13.09055 0.6889764 0.1569081 -13.09055 0.9452069 1.221045 -13.09055 0.9452069 0.3207737 -13.09055 1.150688 1.057179 -13.09055 1.150688 0.5575664 -13.09055 1.264721 0.8203864 -13.09055 1.264721 1.221045 -0.03937008 0.9452069 1.057179 -13.09055 1.150688 1.221045 -13.09055 0.9452069 1.057179 -0.03937008 1.150688 0.8203864 -0.03937008 1.264721 0.8203864 -13.09055 1.264721 0.5575664 -0.03937008 1.264721 0.5575664 -13.09055 1.264721 0.3207737 -0.03937008 1.150688 0.3207737 -13.09055 1.150688 0.1569081 -13.09055 0.9452069 0.1569081 -0.03937008 0.9452069 0.0984252 -13.09055 0.6889764 0.0984252 -0.03937008 0.6889764 0.1569081 -13.09055 0.4327458 0.1569081 -0.03937008 0.4327458 0.3207737 -13.09055 0.2272649 0.3207737 -0.03937008 0.2272649 0.5575664 -0.03937008 0.1132315 0.5575664 -13.09055 0.1132315 0.8203864 -0.03937008 0.1132315 0.8203864 -13.09055 0.1132315 1.057179 -0.03937008 0.2272649 1.057179 -13.09055 0.2272649 1.221045 -13.09055 0.4327458 1.221045 -0.03937008 0.4327458 1.279528 -13.09055 0.6889764 1.279528 -0.03937008 0.6889764</float_array>
                    <technique_common>
                        <accessor count="42" source="#ID138" stride="3">
                            <param name="X" type="float" />
                            <param name="Y" type="float" />
                            <param name="Z" type="float" />
                        </accessor>
                    </technique_common>
                </source>
                <source id="ID135">
                    <float_array id="ID139" count="126">0 -1 0 0 -1 0 0 -1 0 0 -1 0 0 -1 0 0 -1 0 0 -1 0 0 -1 0 0 -1 0 0 -1 0 0 -1 0 0 -1 0 0 -1 0 0 -1 0 0.9009689 0 0.4338837 0.6234898 0 0.7818315 0.9009689 0 0.4338837 0.6234898 0 0.7818315 0.2225209 0 0.9749279 0.2225209 0 0.9749279 -0.2225209 0 0.9749279 -0.2225209 0 0.9749279 -0.6234898 0 0.7818315 -0.6234898 0 0.7818315 -0.9009689 0 0.4338837 -0.9009689 0 0.4338837 -1 0 3.624832e-17 -1 0 3.624832e-17 -0.9009689 0 -0.4338837 -0.9009689 0 -0.4338837 -0.6234898 0 -0.7818315 -0.6234898 0 -0.7818315 -0.2225209 0 -0.9749279 -0.2225209 0 -0.9749279 0.2225209 0 -0.9749279 0.2225209 0 -0.9749279 0.6234898 0 -0.7818315 0.6234898 0 -0.7818315 0.9009689 0 -0.4338837 0.9009689 0 -0.4338837 1 0 1.812416e-17 1 0 1.812416e-17</float_array>
                    <technique_common>
                        <accessor count="42" source="#ID139" stride="3">
                            <param name="X" type="float" />
                            <param name="Y" type="float" />
                            <param name="Z" type="float" />
                        </accessor>
                    </technique_common>
                </source>
                <source id="ID137">
                    <float_array id="ID140" count="138">0.2685235 0.05772528 0.1416219 0.02876081 0.2083781 0.02876081 0.08147653 0.05772528 0.03985467 0.1099174 0.3101453 0.1099174 0.025 0.175 0.325 0.175 0.03985467 0.2400826 0.3101453 0.2400826 0.08147653 0.2922747 0.2685235 0.2922747 0.1416219 0.3212392 0.2083781 0.3212392 0.875158 -3.315 0.9424778 1.776357e-15 0.875158 1.776357e-15 0.9424778 -3.315 8.326673e-17 8.881784e-16 0.06731984 -3.315 0.06731984 8.881784e-16 8.326673e-17 -3.315 0.06731984 0 0.1346397 -3.315 0.1346397 0 0.06731984 -3.315 0.1346397 8.881784e-16 0.2019595 -3.315 0.2019595 8.881784e-16 0.1346397 -3.315 0.2019595 -3.315 0.2692794 4.440892e-16 0.2019595 4.440892e-16 0.2692794 -3.315 0.2692794 -3.315 0.3365992 0 0.2692794 0 0.3365992 -3.315 0.3365992 -3.315 0.4039191 8.881784e-16 0.3365992 8.881784e-16 0.4039191 -3.315 0.4039191 -3.315 0.4712389 0 0.4039191 0 0.4712389 -3.315 0.5385587 -3.315 0.4712389 -3.315 0.5385587 0 0.6058786 -3.315 0.5385587 -1.332268e-15 0.5385587 -3.315 0.6058786 -1.332268e-15 0.6731984 -3.315 0.6058786 8.881784e-16 0.6058786 -3.315 0.6731984 8.881784e-16 0.6731984 -3.315 0.7405183 1.776357e-15 0.6731984 1.776357e-15 0.7405183 -3.315 0.7405183 -3.315 0.8078381 4.440892e-16 0.7405183 4.440892e-16 0.8078381 -3.315 0.8078381 -3.315 0.875158 -4.440892e-16 0.8078381 -4.440892e-16 0.875158 -3.315</float_array>
                    <technique_common>
                        <accessor count="69" source="#ID140" stride="2">
                            <param name="S" type="float" />
                            <param name="T" type="float" />
                        </accessor>
                    </technique_common>
                </source>
                <vertices id="ID136">
                    <input semantic="POSITION" source="#ID134" />
                    <input semantic="NORMAL" source="#ID135" />
                </vertices>
                <triangles count="40" material="Material2">
                    <input offset="0" semantic="VERTEX" source="#ID136" />
                    <input offset="1" semantic="TEXCOORD" source="#ID137" />
                    <p>0 0 1 1 2 2 1 1 0 0 3 3 3 3 0 0 4 4 4 4 0 0 5 5 4 4 5 5 6 6 6 6 5 5 7 7 6 6 7 7 8 8 8 8 7 7 9 9 8 8 9 9 10 10 10 10 9 9 11 11 10 10 11 11 12 12 12 12 11 11 13 13 14 14 15 15 16 16 15 15 14 14 17 17 15 18 18 19 19 20 18 19 15 18 17 21 19 22 20 23 21 24 20 23 19 22 18 25 21 26 22 27 23 28 22 27 21 26 20 29 22 30 24 31 23 32 24 31 22 30 25 33 25 34 26 35 24 36 26 35 25 34 27 37 27 38 28 39 26 40 28 39 27 38 29 41 29 42 30 43 28 44 30 43 29 42 31 45 32 46 30 43 31 47 30 43 32 46 33 48 34 49 33 50 32 51 33 50 34 49 35 52 36 53 35 54 34 55 35 54 36 53 37 56 36 57 38 58 37 59 38 58 36 57 39 60 39 61 40 62 38 63 40 62 39 61 41 64 41 65 16 66 40 67 16 66 41 65 14 68</p>
                </triangles>
            </mesh>
        </geometry>
    </library_geometries>
    <library_materials>
        <material id="ID6" name="screw_normal">
            <instance_effect url="#ID7" />
        </material>
        <material id="ID19" name="metal">
            <instance_effect url="#ID20" />
        </material>
        <material id="ID66" name="mount">
            <instance_effect url="#ID67" />
        </material>
        <material id="ID129" name="metal_galvanized">
            <instance_effect url="#ID130" />
        </material>
    </library_materials>
    <library_effects>
        <effect id="ID7">
            <profile_COMMON>
                <newparam sid="ID9">
                    <surface type="2D">
                        <init_from>ID8</init_from>
                    </surface>
                </newparam>
                <newparam sid="ID10">
                    <sampler2D>
                        <source>ID9</source>
                    </sampler2D>
                </newparam>
                <technique sid="COMMON">
                    <lambert>
                        <diffuse>
                            <texture texture="ID10" texcoord="UVSET0" />
                        </diffuse>
                    </lambert>
                </technique>
            </profile_COMMON>
        </effect>
        <effect id="ID20">
            <profile_COMMON>
                <newparam sid="ID22">
                    <surface type="2D">
                        <init_from>ID21</init_from>
                    </surface>
                </newparam>
                <newparam sid="ID23">
                    <sampler2D>
                        <source>ID22</source>
                    </sampler2D>
                </newparam>
                <technique sid="COMMON">
                    <lambert>
                        <diffuse>
                            <texture texture="ID23" texcoord="UVSET0" />
                        </diffuse>
                    </lambert>
                </technique>
            </profile_COMMON>
        </effect>
        <effect id="ID67">
            <profile_COMMON>
                <newparam sid="ID69">
                    <surface type="2D">
                        <init_from>ID68</init_from>
                    </surface>
                </newparam>
                <newparam sid="ID70">
                    <sampler2D>
                        <source>ID69</source>
                    </sampler2D>
                </newparam>
                <technique sid="COMMON">
                    <lambert>
                        <diffuse>
                            <texture texture="ID70" texcoord="UVSET0" />
                        </diffuse>
                    </lambert>
                </technique>
            </profile_COMMON>
        </effect>
        <effect id="ID130">
            <profile_COMMON>
                <newparam sid="ID132">
                    <surface type="2D">
                        <init_from>ID131</init_from>
                    </surface>
                </newparam>
                <newparam sid="ID133">
                    <sampler2D>
                        <source>ID132</source>
                    </sampler2D>
                </newparam>
                <technique sid="COMMON">
                    <lambert>
                        <diffuse>
                            <texture texture="ID133" texcoord="UVSET0" />
                        </diffuse>
                    </lambert>
                </technique>
            </profile_COMMON>
        </effect>
    </library_effects>
    <library_images>
        <image id="ID8">
            <init_from>panel_2x1/screw_normal.png</init_from>
        </image>
        <image id="ID21">
            <init_from>panel_2x1/metal.jpg</init_from>
        </image>
        <image id="ID68">
            <init_from>panel_2x1/mount.jpg</init_from>
        </image>
        <image id="ID131">
            <init_from>panel_2x1/metal_galvanized.jpg</init_from>
        </image>
    </library_images>
    <scene>
        <instance_visual_scene url="#ID2" />
    </scene>
</COLLADA>
