<?xml version="1.0" encoding="UTF-8" standalone="no" ?>
<COLLADA xmlns="http://www.collada.org/2005/11/COLLADASchema" version="1.4.1">
    <asset>
        <contributor>
            <authoring_tool>SketchUp 17.2.2555</authoring_tool>
        </contributor>
        <created>2026-07-05T17:08:04Z</created>
        <modified>2026-07-05T17:08:04Z</modified>
        <unit meter="0.0254" name="inch" />
        <up_axis>Z_UP</up_axis>
    </asset>
    <library_cameras>
        <camera id="ID1" name="skp_camera_Last_Saved_SketchUp_View">
            <optics>
                <technique_common>
                    <perspective>
                        <yfov>35</yfov>
                        <aspect_ratio>0</aspect_ratio>
                        <znear>0.1</znear>
                        <zfar>2</zfar>
                    </perspective>
                </technique_common>
            </optics>
        </camera>
    </library_cameras>
    <library_visual_scenes>
        <visual_scene id="ID2">
            <node name="SketchUp">
                <node name="skp_camera_Last_Saved_SketchUp_View">
                    <matrix>0.8954276 0.1462204 -0.4205104 -12.97215 -0.4452071 0.2940873 -0.8457561 -28.88153 0 0.9445276 0.3284322 8.763224 0 0 0 1</matrix>
                    <instance_camera url="#ID1" />
                </node>
                <node id="ID3" name="instance_0">
                    <matrix>1 0 0 -0.03937008 0 -9.603429e-15 1 0.3896832 0 -1 -9.603429e-15 1.128906 0 0 0 1</matrix>
                    <instance_node url="#ID4" />
                </node>
                <node id="ID63" name="instance_1">
                    <matrix>1 0 0 4.468504 0 1 0 1.106686 0 0 1 -12.80456 0 0 0 1</matrix>
                    <instance_node url="#ID64" />
                </node>
                <node id="ID118" name="instance_2">
                    <matrix>0.8 0 0 2.46063 0 4.551914e-16 -0.8 3.486072 0 0.8 4.551914e-16 -2.332122 0 0 0 1</matrix>
                    <instance_node url="#ID119" />
                </node>
            </node>
        </visual_scene>
    </library_visual_scenes>
    <library_nodes>
        <node id="ID4" name="panel">
            <instance_geometry url="#ID5">
                <bind_material>
                    <technique_common>
                        <instance_material symbol="Material2" target="#ID6">
                            <bind_vertex_input semantic="UVSET0" input_semantic="TEXCOORD" input_set="0" />
                        </instance_material>
                    </technique_common>
                </bind_material>
            </instance_geometry>
            <instance_geometry url="#ID18">
                <bind_material>
                    <technique_common>
                        <instance_material symbol="Material2" target="#ID6">
                            <bind_vertex_input semantic="UVSET0" input_semantic="TEXCOORD" input_set="0" />
                        </instance_material>
                    </technique_common>
                </bind_material>
            </instance_geometry>
            <instance_geometry url="#ID26">
                <bind_material>
                    <technique_common>
                        <instance_material symbol="Material2" target="#ID27">
                            <bind_vertex_input semantic="UVSET0" input_semantic="TEXCOORD" input_set="0" />
                        </instance_material>
                    </technique_common>
                </bind_material>
            </instance_geometry>
            <instance_geometry url="#ID39">
                <bind_material>
                    <technique_common>
                        <instance_material symbol="Material2" target="#ID6">
                            <bind_vertex_input semantic="UVSET0" input_semantic="TEXCOORD" input_set="0" />
                        </instance_material>
                    </technique_common>
                </bind_material>
            </instance_geometry>
            <instance_geometry url="#ID47">
                <bind_material>
                    <technique_common>
                        <instance_material symbol="Material2" target="#ID6">
                            <bind_vertex_input semantic="UVSET0" input_semantic="TEXCOORD" input_set="0" />
                        </instance_material>
                    </technique_common>
                </bind_material>
            </instance_geometry>
            <instance_geometry url="#ID55">
                <bind_material>
                    <technique_common>
                        <instance_material symbol="Material2" target="#ID27">
                            <bind_vertex_input semantic="UVSET0" input_semantic="TEXCOORD" input_set="0" />
                        </instance_material>
                    </technique_common>
                </bind_material>
            </instance_geometry>
        </node>
        <node id="ID64" name="mount">
            <instance_geometry url="#ID65">
                <bind_material>
                    <technique_common>
                        <instance_material symbol="Material2" target="#ID66">
                            <bind_vertex_input semantic="UVSET0" input_semantic="TEXCOORD" input_set="0" />
                        </instance_material>
                    </technique_common>
                </bind_material>
            </instance_geometry>
            <instance_geometry url="#ID78">
                <bind_material>
                    <technique_common>
                        <instance_material symbol="Material2" target="#ID6">
                            <bind_vertex_input semantic="UVSET0" input_semantic="TEXCOORD" input_set="0" />
                        </instance_material>
                    </technique_common>
                </bind_material>
            </instance_geometry>
            <instance_geometry url="#ID86">
                <bind_material>
                    <technique_common>
                        <instance_material symbol="Material2" target="#ID6">
                            <bind_vertex_input semantic="UVSET0" input_semantic="TEXCOORD" input_set="0" />
                        </instance_material>
                    </technique_common>
                </bind_material>
            </instance_geometry>
            <instance_geometry url="#ID94">
                <bind_material>
                    <technique_common>
                        <instance_material symbol="Material2" target="#ID6">
                            <bind_vertex_input semantic="UVSET0" input_semantic="TEXCOORD" input_set="0" />
                        </instance_material>
                    </technique_common>
                </bind_material>
            </instance_geometry>
            <instance_geometry url="#ID102">
                <bind_material>
                    <technique_common>
                        <instance_material symbol="Material2" target="#ID66">
                            <bind_vertex_input semantic="UVSET0" input_semantic="TEXCOORD" input_set="0" />
                        </instance_material>
                    </technique_common>
                </bind_material>
            </instance_geometry>
            <instance_geometry url="#ID110">
                <bind_material>
                    <technique_common>
                        <instance_material symbol="Material2" target="#ID6">
                            <bind_vertex_input semantic="UVSET0" input_semantic="TEXCOORD" input_set="0" />
                        </instance_material>
                    </technique_common>
                </bind_material>
            </instance_geometry>
        </node>
        <node id="ID119" name="pipe">
            <instance_geometry url="#ID120">
                <bind_material>
                    <technique_common>
                        <instance_material symbol="Material2" target="#ID27">
                            <bind_vertex_input semantic="UVSET0" input_semantic="TEXCOORD" input_set="0" />
                        </instance_material>
                    </technique_common>
                </bind_material>
            </instance_geometry>
            <instance_geometry url="#ID128">
                <bind_material>
                    <technique_common>
                        <instance_material symbol="Material2" target="#ID129">
                            <bind_vertex_input semantic="UVSET0" input_semantic="TEXCOORD" input_set="0" />
                        </instance_material>
                    </technique_common>
                </bind_material>
            </instance_geometry>
        </node>
    </library_nodes>
    <library_geometries>
        <geometry id="ID5">
            <mesh>
                <source id="ID11">
                    <float_array id="ID15" count="30">0.4423649 -2.137518 4.275254 0.2662965 -2.104705 4.228392 0.3636247 -2.104705 4.228392 0.1875564 -2.137518 4.275254 0.4724409 -2.190611 4.351079 0.1574803 -2.190611 4.351079 0.4423649 -2.243704 4.426903 0.1875564 -2.243704 4.426903 0.3636247 -2.276517 4.473765 0.2662965 -2.276517 4.473765</float_array>
                    <technique_common>
                        <accessor count="10" source="#ID15" stride="3">
                            <param name="X" type="float" />
                            <param name="Y" type="float" />
                            <param name="Z" type="float" />
                        </accessor>
                    </technique_common>
                </source>
                <source id="ID12">
                    <float_array id="ID16" count="30">2.542968e-31 -0.819152 -0.5735764 2.542968e-31 -0.819152 -0.5735764 2.542968e-31 -0.819152 -0.5735764 2.542968e-31 -0.819152 -0.5735764 2.542968e-31 -0.819152 -0.5735764 2.542968e-31 -0.819152 -0.5735764 2.542968e-31 -0.819152 -0.5735764 2.542968e-31 -0.819152 -0.5735764 2.542968e-31 -0.819152 -0.5735764 2.542968e-31 -0.819152 -0.5735764</float_array>
                    <technique_common>
                        <accessor count="10" source="#ID16" stride="3">
                            <param name="X" type="float" />
                            <param name="Y" type="float" />
                            <param name="Z" type="float" />
                        </accessor>
                    </technique_common>
                </source>
                <source id="ID14">
                    <float_array id="ID17" count="20">0.785765 0.2927911 0.3889748 0.1638662 0.608315 0.1638662 0.2115249 0.2927911 0.8535449 0.501396 0.1437451 0.501396 0.7857651 0.7100009 0.211525 0.7100009 0.6083152 0.8389258 0.388975 0.8389258</float_array>
                    <technique_common>
                        <accessor count="10" source="#ID17" stride="2">
                            <param name="S" type="float" />
                            <param name="T" type="float" />
                        </accessor>
                    </technique_common>
                </source>
                <vertices id="ID13">
                    <input semantic="POSITION" source="#ID11" />
                    <input semantic="NORMAL" source="#ID12" />
                </vertices>
                <triangles count="8" material="Material2">
                    <input offset="0" semantic="VERTEX" source="#ID13" />
                    <input offset="1" semantic="TEXCOORD" source="#ID14" />
                    <p>0 0 1 1 2 2 1 1 0 0 3 3 3 3 0 0 4 4 3 3 4 4 5 5 5 5 4 4 6 6 5 5 6 6 7 7 7 7 6 6 8 8 7 7 8 8 9 9</p>
                </triangles>
            </mesh>
        </geometry>
        <geometry id="ID18">
            <mesh>
                <source id="ID19">
                    <float_array id="ID23" count="30">5.914806 -2.137518 4.275254 5.738737 -2.104705 4.228392 5.836066 -2.104705 4.228392 5.659997 -2.137518 4.275254 5.944882 -2.190611 4.351079 5.629921 -2.190611 4.351079 5.914806 -2.243704 4.426903 5.659997 -2.243704 4.426903 5.836066 -2.276517 4.473765 5.738737 -2.276517 4.473765</float_array>
                    <technique_common>
                        <accessor count="10" source="#ID23" stride="3">
                            <param name="X" type="float" />
                            <param name="Y" type="float" />
                            <param name="Z" type="float" />
                        </accessor>
                    </technique_common>
                </source>
                <source id="ID20">
                    <float_array id="ID24" count="30">-1.386874e-29 -0.819152 -0.5735764 -1.386874e-29 -0.819152 -0.5735764 -1.386874e-29 -0.819152 -0.5735764 -1.386874e-29 -0.819152 -0.5735764 -1.386874e-29 -0.819152 -0.5735764 -1.386874e-29 -0.819152 -0.5735764 -1.386874e-29 -0.819152 -0.5735764 -1.386874e-29 -0.819152 -0.5735764 -1.386874e-29 -0.819152 -0.5735764 -1.386874e-29 -0.819152 -0.5735764</float_array>
                    <technique_common>
                        <accessor count="10" source="#ID24" stride="3">
                            <param name="X" type="float" />
                            <param name="Y" type="float" />
                            <param name="Z" type="float" />
                        </accessor>
                    </technique_common>
                </source>
                <source id="ID22">
                    <float_array id="ID25" count="20">20.78725 0.2924518 20.39046 0.1635272 20.6098 0.1635272 20.21301 0.2924518 20.85503 0.5010562 20.14523 0.5010562 20.78725 0.7096606 20.21301 0.7096606 20.6098 0.8385852 20.39046 0.8385852</float_array>
                    <technique_common>
                        <accessor count="10" source="#ID25" stride="2">
                            <param name="S" type="float" />
                            <param name="T" type="float" />
                        </accessor>
                    </technique_common>
                </source>
                <vertices id="ID21">
                    <input semantic="POSITION" source="#ID19" />
                    <input semantic="NORMAL" source="#ID20" />
                </vertices>
                <triangles count="8" material="Material2">
                    <input offset="0" semantic="VERTEX" source="#ID21" />
                    <input offset="1" semantic="TEXCOORD" source="#ID22" />
                    <p>0 0 1 1 2 2 1 1 0 0 3 3 3 3 0 0 4 4 3 3 4 4 5 5 5 5 4 4 6 6 5 5 6 6 7 7 7 7 6 6 8 8 7 7 8 8 9 9</p>
                </triangles>
            </mesh>
        </geometry>
        <geometry id="ID26">
            <mesh>
                <source id="ID32">
                    <float_array id="ID36" count="228">0.03937008 1.128906 -0.3896832 0 1.161156 -0.3671014 0.03937008 1.183738 -0.3993515 6.062992 1.183738 -0.3993515 6.062992 1.128906 -0.3896832 0 -2.316433 4.599411 0.03937008 -2.348683 4.576829 0 1.741657 0.03937008 0.03937008 1.764239 0.007119998 6.062992 1.764239 0.007119998 6.102362 1.161156 -0.3671014 6.062992 1.128906 -0.3896832 5.836066 1.05674 -0.2866192 0.03937008 1.128906 -0.3896832 5.914806 1.023927 -0.2397571 5.944882 0.9708337 -0.1639326 6.062992 -2.348683 4.576829 5.914806 0.9177408 -0.08810811 5.836066 0.8849276 -0.041246 5.738737 0.8849276 -0.041246 5.914806 -2.137518 4.275254 0.3636247 0.8849276 -0.041246 0.2662965 0.8849276 -0.041246 5.836066 -2.104705 4.228392 5.944882 -2.190611 4.351079 5.914806 -2.243704 4.426903 5.836066 -2.276517 4.473765 5.738737 -2.276517 4.473765 0.3636247 -2.276517 4.473765 0.2662965 -2.276517 4.473765 0.1574803 0.9708337 -0.1639326 0.03937008 -2.348683 4.576829 0.1875564 1.023927 -0.2397571 0.2662965 1.05674 -0.2866192 5.738737 1.05674 -0.2866192 0.3636247 1.05674 -0.2866192 0.1875564 0.9177408 -0.08810811 0.1875564 -2.137518 4.275254 0.2662965 -2.104705 4.228392 5.738737 -2.104705 4.228392 0.3636247 -2.104705 4.228392 0.1574803 -2.190611 4.351079 0.1875564 -2.243704 4.426903 5.659997 -2.137518 4.275254 0.4423649 -2.137518 4.275254 5.629921 -2.190611 4.351079 0.4724409 -2.190611 4.351079 5.659997 -2.243704 4.426903 0.4423649 -2.243704 4.426903 5.659997 1.023927 -0.2397571 0.4423649 1.023927 -0.2397571 5.629921 0.9708337 -0.1639326 0.4724409 0.9708337 -0.1639326 5.659997 0.9177408 -0.08810811 0.4423649 0.9177408 -0.08810811 0.03937008 -2.339015 4.631661 0 -1.735932 5.005882 0.03937008 1.773908 0.06195183 6.062992 1.773908 0.06195183 6.102362 1.741657 0.03937008 6.102362 -2.316433 4.599411 6.062992 -2.348683 4.576829 6.062992 -2.339015 4.631661 0.03937008 -1.758514 5.038133 0.03937008 -1.703682 5.028464 0.1574803 1.728744 0.126452 0.1181102 1.701177 0.1658221 0.1181102 -1.630951 4.924594 0.1574803 -1.658518 4.963964 5.944882 -1.658518 4.963964 5.984252 1.701177 0.1658221 6.062992 -1.703682 5.028464 5.944882 1.728744 0.126452 5.984252 -1.630951 4.924594 6.102362 -1.735932 5.005882 6.062992 -1.758514 5.038133</float_array>
                    <technique_common>
                        <accessor count="76" source="#ID36" stride="3">
                            <param name="X" type="float" />
                            <param name="Y" type="float" />
                            <param name="Z" type="float" />
                        </accessor>
                    </technique_common>
                </source>
                <source id="ID33">
                    <float_array id="ID37" count="228">-0.4605629 -0.3573971 -0.8124956 -0.8755787 -0.08388519 -0.4757365 -0.341586 0.2224004 -0.9131577 0.341586 0.2224004 -0.9131577 0.4605629 -0.3573971 -0.8124956 -0.8755787 -0.4757365 0.08388519 -0.4605629 -0.8857332 -0.05795359 -0.8755787 0.4757365 -0.08388519 -0.341586 0.7820222 -0.5213064 0.341586 0.7820222 -0.5213064 0.8755787 -0.08388519 -0.4757365 -4.733386e-31 -0.819152 -0.5735764 -4.733386e-31 -0.819152 -0.5735764 -4.733386e-31 -0.819152 -0.5735764 -4.733386e-31 -0.819152 -0.5735764 -4.733386e-31 -0.819152 -0.5735764 -4.733386e-31 -0.819152 -0.5735764 -4.733386e-31 -0.819152 -0.5735764 -4.733386e-31 -0.819152 -0.5735764 -4.733386e-31 -0.819152 -0.5735764 -4.733386e-31 -0.819152 -0.5735764 -4.733386e-31 -0.819152 -0.5735764 -4.733386e-31 -0.819152 -0.5735764 -4.733386e-31 -0.819152 -0.5735764 -4.733386e-31 -0.819152 -0.5735764 -4.733386e-31 -0.819152 -0.5735764 -4.733386e-31 -0.819152 -0.5735764 -4.733386e-31 -0.819152 -0.5735764 -4.733386e-31 -0.819152 -0.5735764 -4.733386e-31 -0.819152 -0.5735764 -4.733386e-31 -0.819152 -0.5735764 -4.733386e-31 -0.819152 -0.5735764 -4.733386e-31 -0.819152 -0.5735764 -4.733386e-31 -0.819152 -0.5735764 -4.733386e-31 -0.819152 -0.5735764 -4.733386e-31 -0.819152 -0.5735764 -4.733386e-31 -0.819152 -0.5735764 -4.733386e-31 -0.819152 -0.5735764 -4.733386e-31 -0.819152 -0.5735764 -4.733386e-31 -0.819152 -0.5735764 -4.733386e-31 -0.819152 -0.5735764 -4.733386e-31 -0.819152 -0.5735764 -4.733386e-31 -0.819152 -0.5735764 -4.733386e-31 -0.819152 -0.5735764 -4.733386e-31 -0.819152 -0.5735764 -4.733386e-31 -0.819152 -0.5735764 -4.733386e-31 -0.819152 -0.5735764 -4.733386e-31 -0.819152 -0.5735764 -4.733386e-31 -0.819152 -0.5735764 -4.733386e-31 -0.819152 -0.5735764 -4.733386e-31 -0.819152 -0.5735764 -4.733386e-31 -0.819152 -0.5735764 -4.733386e-31 -0.819152 -0.5735764 -4.733386e-31 -0.819152 -0.5735764 -4.733386e-31 -0.819152 -0.5735764 -0.341586 -0.7820222 0.5213064 -0.8755787 0.08388519 0.4757365 -0.341586 0.9131577 0.2224004 0.341586 0.9131577 0.2224004 0.8755787 0.4757365 -0.08388519 0.8755787 -0.4757365 0.08388519 0.4605629 -0.8857332 -0.05795359 0.341586 -0.7820222 0.5213064 -0.341586 -0.2224004 0.9131577 -0.341586 0.5213064 0.7820222 0 0.819152 0.5735764 0 0.819152 0.5735764 0 0.819152 0.5735764 0 0.819152 0.5735764 0 0.819152 0.5735764 0 0.819152 0.5735764 0.341586 0.5213064 0.7820222 0 0.819152 0.5735764 0 0.819152 0.5735764 0.8755787 0.08388519 0.4757365 0.341586 -0.2224004 0.9131577</float_array>
                    <technique_common>
                        <accessor count="76" source="#ID37" stride="3">
                            <param name="X" type="float" />
                            <param name="Y" type="float" />
                            <param name="Z" type="float" />
                        </accessor>
                    </technique_common>
                </source>
                <source id="ID35">
                    <float_array id="ID38" count="268">-1.272256 -2.42715 -1.268923 -2.42715 -1.272256 -2.423817 -1.782256 -2.423817 -1.272256 -2.42715 -1.272256 -2.423817 -1.782256 -2.42715 -1.268923 -2.940484 -1.272256 -2.940484 -1.268923 -2.42715 -1.006403 -1.562666 -0.9464031 -1.56738 -0.9464031 -1.562666 -1.006403 -1.56738 -1.893471 -0.1027258 -1.953471 -0.6127258 -1.893471 -0.6127258 -1.953471 -0.1027258 -2.055589 -2.42715 -2.052256 -2.42715 -2.052256 -2.423817 -1.763043 -2.437803 -1.76971 -2.442646 -1.772256 -2.450484 -1.782256 -2.940484 -1.76971 -2.458321 -1.763043 -2.463164 -1.754803 -2.463164 -1.76971 -2.909313 -1.29971 -2.463164 -1.291469 -2.463164 -1.763043 -2.904469 -1.772256 -2.91715 -1.76971 -2.924987 -1.763043 -2.929831 -1.754803 -2.929831 -1.29971 -2.929831 -1.291469 -2.929831 -1.282256 -2.450484 -1.284803 -2.442646 -1.291469 -2.437803 -1.754803 -2.437803 -1.29971 -2.437803 -1.284803 -2.458321 -1.284803 -2.909313 -1.291469 -2.904469 -1.754803 -2.904469 -1.29971 -2.904469 -1.282256 -2.91715 -1.284803 -2.924987 -1.748136 -2.909313 -1.306376 -2.909313 -1.745589 -2.91715 -1.308923 -2.91715 -1.748136 -2.924987 -1.306376 -2.924987 -1.748136 -2.442646 -1.306376 -2.442646 -1.745589 -2.450484 -1.308923 -2.450484 -1.748136 -2.458321 -1.306376 -2.458321 -1.272256 -2.943817 -1.268923 -2.940484 -1.272256 -2.940484 -0.4683681 1.272823 -0.5283681 1.786156 -0.5283681 1.272823 -0.4683681 1.786156 -0.3612507 -0.5699563 -0.3659648 -0.5699563 -0.3636077 -0.5740388 -0.2469179 -2.566156 -0.2516319 -2.056156 -0.2516319 -2.566156 -0.2469179 -2.056156 0.3523377 -0.7698718 0.2923377 -0.7745859 0.3523377 -0.7745859 0.2923377 -0.7698718 -2.055589 -2.940484 -2.052256 -2.940484 -1.782256 -2.943817 -1.782256 -2.940484 0.3413673 0.2563038 0.2813673 0.2610178 0.2813673 0.2563038 0.3413673 0.2610178 2.357359 -0.2628595 2.352645 0.2504738 2.352645 -0.2628595 2.357359 0.2504738 2.473718 0.7751428 2.463718 0.7818095 1.963718 0.7751428 2.467051 0.7858788 2.473718 1.288476 2.467051 1.27774 2.463718 1.28181 1.973718 1.28181 1.970385 0.7858788 1.963718 1.288476 1.973718 0.7818095 1.970385 1.27774 -0.9266193 1.237899e-14 -0.9289763 0.004082483 -0.9313333 1.260103e-14 -1.21 0.5133333 -1.27 -3.885781e-16 -1.21 -1.665335e-16 -1.27 0.5133333 -2.052256 -2.943817 0.06 0.002 -1.110223e-16 -0.508 0.06 -0.508 -1.94289e-16 0.002 0.3218179 -0.6928846 0.3194609 -0.6888022 0.3171039 -0.6928846 -1.434619 -3.330669e-16 -1.439333 -0.5133333 -1.434619 -0.5133333 -1.439333 -3.053113e-16 -1.424929 0.7131187 -1.429643 0.2031187 -1.424929 0.2031187 -1.429643 0.7131187 0.08381936 -0.01666221 0.1438194 -0.01194816 0.08381936 -0.01194816 0.1438194 -0.01666221 1.511106 -0.2191494 1.513463 -0.2150669 1.508749 -0.2150669</float_array>
                    <technique_common>
                        <accessor count="134" source="#ID38" stride="2">
                            <param name="S" type="float" />
                            <param name="T" type="float" />
                        </accessor>
                    </technique_common>
                </source>
                <vertices id="ID34">
                    <input semantic="POSITION" source="#ID32" />
                    <input semantic="NORMAL" source="#ID33" />
                </vertices>
                <triangles count="102" material="Material2">
                    <input offset="0" semantic="VERTEX" source="#ID34" />
                    <input offset="1" semantic="TEXCOORD" source="#ID35" />
                    <p>0 0 1 1 2 2 3 3 0 4 2 5 0 4 3 3 4 6 5 7 0 4 6 8 0 4 5 7 1 9 7 10 2 11 1 12 2 11 7 10 8 13 9 14 2 15 8 16 2 15 9 14 3 17 10 18 4 19 3 20 11 6 12 21 13 4 12 21 11 6 14 22 14 22 11 6 15 23 15 23 11 6 16 24 15 23 16 24 17 25 17 25 16 24 18 26 18 26 16 24 19 27 19 27 16 24 20 28 19 27 20 28 21 29 21 29 20 28 22 30 22 30 20 28 23 31 20 28 16 24 24 32 24 32 16 24 25 33 25 33 16 24 26 34 26 34 16 24 27 35 27 35 16 24 28 36 28 36 16 24 29 37 13 4 30 38 31 8 30 38 13 4 32 39 32 39 13 4 33 40 33 40 13 4 12 21 33 40 12 21 34 41 33 40 34 41 35 42 31 8 30 38 36 43 31 8 36 43 22 30 31 8 22 30 37 44 37 44 22 30 38 45 38 45 22 30 39 46 39 46 22 30 23 31 38 45 39 46 40 47 31 8 37 44 41 48 31 8 41 48 42 49 31 8 42 49 29 37 31 8 29 37 16 24 43 50 40 47 39 46 40 47 43 50 44 51 44 51 43 50 45 52 44 51 45 52 46 53 46 53 45 52 47 54 46 53 47 54 48 55 48 55 47 54 27 35 48 55 27 35 28 36 49 56 35 42 34 41 35 42 49 56 50 57 50 57 49 56 51 58 50 57 51 58 52 59 52 59 51 58 53 60 52 59 53 60 54 61 54 61 53 60 19 27 54 61 19 27 21 29 55 62 5 63 6 64 56 65 1 66 5 67 1 66 56 65 7 68 57 69 8 70 7 71 57 72 9 73 8 74 9 73 57 72 58 75 3 76 59 77 10 78 59 77 3 76 9 79 4 19 60 80 61 81 60 80 4 19 10 18 62 82 6 64 61 83 6 64 62 82 55 62 63 84 5 85 55 86 5 85 63 84 56 87 64 88 7 89 56 90 7 89 64 88 57 91 57 92 65 93 58 94 65 93 57 92 66 95 66 95 57 92 64 96 66 95 64 96 67 97 67 97 64 96 68 98 68 98 64 96 69 99 58 94 70 100 71 101 70 100 58 94 72 102 72 102 58 94 65 93 71 101 70 100 73 103 71 101 73 103 69 99 71 101 69 99 64 96 58 104 59 105 9 106 10 107 74 108 60 109 74 108 10 107 59 110 62 111 61 81 60 80 62 112 63 113 55 114 63 113 62 112 75 115 64 116 56 117 63 118 59 119 71 120 74 121 71 120 59 119 58 122 75 123 64 124 63 125 64 124 75 123 71 126 60 127 75 128 62 129 75 128 60 127 74 130 74 131 71 132 75 133</p>
                </triangles>
            </mesh>
        </geometry>
        <geometry id="ID39">
            <mesh>
                <source id="ID40">
                    <float_array id="ID44" count="30">5.914806 1.023927 -0.2397571 5.738737 1.05674 -0.2866192 5.836066 1.05674 -0.2866192 5.659997 1.023927 -0.2397571 5.944882 0.9708337 -0.1639326 5.629921 0.9708337 -0.1639326 5.914806 0.9177408 -0.08810811 5.659997 0.9177408 -0.08810811 5.836066 0.8849276 -0.041246 5.738737 0.8849276 -0.041246</float_array>
                    <technique_common>
                        <accessor count="10" source="#ID44" stride="3">
                            <param name="X" type="float" />
                            <param name="Y" type="float" />
                            <param name="Z" type="float" />
                        </accessor>
                    </technique_common>
                </source>
                <source id="ID41">
                    <float_array id="ID45" count="30">1.380517e-29 -0.819152 -0.5735764 1.380517e-29 -0.819152 -0.5735764 1.380517e-29 -0.819152 -0.5735764 1.380517e-29 -0.819152 -0.5735764 1.380517e-29 -0.819152 -0.5735764 1.380517e-29 -0.819152 -0.5735764 1.380517e-29 -0.819152 -0.5735764 1.380517e-29 -0.819152 -0.5735764 1.380517e-29 -0.819152 -0.5735764 1.380517e-29 -0.819152 -0.5735764</float_array>
                    <technique_common>
                        <accessor count="10" source="#ID45" stride="3">
                            <param name="X" type="float" />
                            <param name="Y" type="float" />
                            <param name="Z" type="float" />
                        </accessor>
                    </technique_common>
                </source>
                <source id="ID43">
                    <float_array id="ID46" count="20">20.7875 -11.70854 20.39071 -11.83747 20.61005 -11.83747 20.21326 -11.70854 20.85528 -11.49994 20.14548 -11.49994 20.7875 -11.29133 20.21326 -11.29133 20.61005 -11.16241 20.39071 -11.16241</float_array>
                    <technique_common>
                        <accessor count="10" source="#ID46" stride="2">
                            <param name="S" type="float" />
                            <param name="T" type="float" />
                        </accessor>
                    </technique_common>
                </source>
                <vertices id="ID42">
                    <input semantic="POSITION" source="#ID40" />
                    <input semantic="NORMAL" source="#ID41" />
                </vertices>
                <triangles count="8" material="Material2">
                    <input offset="0" semantic="VERTEX" source="#ID42" />
                    <input offset="1" semantic="TEXCOORD" source="#ID43" />
                    <p>0 0 1 1 2 2 1 1 0 0 3 3 3 3 0 0 4 4 3 3 4 4 5 5 5 5 4 4 6 6 5 5 6 6 7 7 7 7 6 6 8 8 7 7 8 8 9 9</p>
                </triangles>
            </mesh>
        </geometry>
        <geometry id="ID47">
            <mesh>
                <source id="ID48">
                    <float_array id="ID52" count="30">0.4423649 1.023927 -0.2397571 0.2662965 1.05674 -0.2866192 0.3636247 1.05674 -0.2866192 0.1875564 1.023927 -0.2397571 0.4724409 0.9708337 -0.1639326 0.1574803 0.9708337 -0.1639326 0.4423649 0.9177408 -0.08810811 0.1875564 0.9177408 -0.08810811 0.3636247 0.8849276 -0.041246 0.2662965 0.8849276 -0.041246</float_array>
                    <technique_common>
                        <accessor count="10" source="#ID52" stride="3">
                            <param name="X" type="float" />
                            <param name="Y" type="float" />
                            <param name="Z" type="float" />
                        </accessor>
                    </technique_common>
                </source>
                <source id="ID49">
                    <float_array id="ID53" count="30">-2.315709e-31 -0.819152 -0.5735764 -2.315709e-31 -0.819152 -0.5735764 -2.315709e-31 -0.819152 -0.5735764 -2.315709e-31 -0.819152 -0.5735764 -2.315709e-31 -0.819152 -0.5735764 -2.315709e-31 -0.819152 -0.5735764 -2.315709e-31 -0.819152 -0.5735764 -2.315709e-31 -0.819152 -0.5735764 -2.315709e-31 -0.819152 -0.5735764 -2.315709e-31 -0.819152 -0.5735764</float_array>
                    <technique_common>
                        <accessor count="10" source="#ID53" stride="3">
                            <param name="X" type="float" />
                            <param name="Y" type="float" />
                            <param name="Z" type="float" />
                        </accessor>
                    </technique_common>
                </source>
                <source id="ID51">
                    <float_array id="ID54" count="20">0.7888145 -11.70892 0.3920243 -11.83784 0.6113645 -11.83784 0.2145743 -11.70892 0.8565944 -11.50031 0.1467946 -11.50031 0.7888146 -11.29171 0.2145745 -11.29171 0.6113647 -11.16278 0.3920245 -11.16278</float_array>
                    <technique_common>
                        <accessor count="10" source="#ID54" stride="2">
                            <param name="S" type="float" />
                            <param name="T" type="float" />
                        </accessor>
                    </technique_common>
                </source>
                <vertices id="ID50">
                    <input semantic="POSITION" source="#ID48" />
                    <input semantic="NORMAL" source="#ID49" />
                </vertices>
                <triangles count="8" material="Material2">
                    <input offset="0" semantic="VERTEX" source="#ID50" />
                    <input offset="1" semantic="TEXCOORD" source="#ID51" />
                    <p>0 0 1 1 2 2 1 1 0 0 3 3 3 3 0 0 4 4 3 3 4 4 5 5 5 5 4 4 6 6 5 5 6 6 7 7 7 7 6 6 8 8 7 7 8 8 9 9</p>
                </triangles>
            </mesh>
        </geometry>
        <geometry id="ID55">
            <mesh>
                <source id="ID56">
                    <float_array id="ID60" count="72">0.1181102 3.303547 4.924594 0.1181102 1.701177 0.1658221 0.1181102 -1.630951 4.924594 0.1181102 3.303547 0.1658221 0.1181102 3.303547 0.1658221 5.944882 3.303547 0.126452 0.1574803 3.303547 0.126452 5.984252 3.303547 0.1658221 0.1181102 3.303547 4.924594 5.984252 3.303547 4.924594 0.1574803 3.303547 4.963964 5.944882 3.303547 4.963964 0.1574803 1.728744 0.126452 0.1574803 3.303547 0.126452 0.1574803 3.303547 4.963964 0.1574803 -1.658518 4.963964 5.984252 1.701177 0.1658221 5.984252 3.303547 4.924594 5.984252 -1.630951 4.924594 5.984252 3.303547 0.1658221 5.944882 1.728744 0.126452 5.944882 3.303547 0.126452 5.944882 3.303547 4.963964 5.944882 -1.658518 4.963964</float_array>
                    <technique_common>
                        <accessor count="24" source="#ID60" stride="3">
                            <param name="X" type="float" />
                            <param name="Y" type="float" />
                            <param name="Z" type="float" />
                        </accessor>
                    </technique_common>
                </source>
                <source id="ID57">
                    <float_array id="ID61" count="72">-0.9238795 1.104039e-17 0.3826834 -0.966691 8.844122e-17 -0.2559461 -0.8577514 2.451502e-17 0.5140647 -0.9238795 1.454102e-16 -0.3826834 -3.793619e-17 1 1.950521e-16 -3.793619e-17 1 1.950521e-16 -3.793619e-17 1 1.950521e-16 -3.793619e-17 1 1.950521e-16 -3.793619e-17 1 1.950521e-16 -3.793619e-17 1 1.950521e-16 -3.793619e-17 1 1.950521e-16 -3.793619e-17 1 1.950521e-16 -0.4309339 4.27436e-16 -0.9023835 -0.3826834 4.441109e-16 -0.9238795 -0.3826834 5.839229e-17 0.9238795 -0.3162856 5.97786e-17 0.948664 0.966691 1.330618e-16 -0.2559461 0.9238795 6.828846e-17 0.3826834 0.8577514 9.173297e-17 0.5140647 0.9238795 1.989502e-16 -0.3826834 0.4309339 4.723293e-16 -0.9023835 0.3826834 4.839776e-16 -0.9238795 0.3826834 1.019671e-16 0.9238795 0.3162856 9.579293e-17 0.948664</float_array>
                    <technique_common>
                        <accessor count="24" source="#ID61" stride="3">
                            <param name="X" type="float" />
                            <param name="Y" type="float" />
                            <param name="Z" type="float" />
                        </accessor>
                    </technique_common>
                </source>
                <source id="ID59">
                    <float_array id="ID62" count="80">-0.003333333 0.4201216 -0.4062427 0.2844542 -0.003333333 0.002334025 -0.4062427 0.4201216 -0.4062427 0.4201216 -0.409576 0.9134549 -0.409576 0.4234549 -0.4062427 0.9167882 -0.003333333 0.4201216 -0.003333333 0.9167882 1.110223e-16 0.4234549 1.110223e-16 0.9134549 0.007071068 0 0.002357023 -0.1333333 0.007071068 -0.1356674 0.002357023 0 -0.287257 -0.4177875 -0.2825429 -1.94289e-15 -0.287257 -1.94289e-15 -0.2825429 -0.4201216 -0.909576 0.2844542 -1.312485 0.4201216 -1.312485 0.002334025 -0.909576 0.4201216 0.3488393 0.1333333 0.3441253 0.2666667 0.3441253 0.1309993 0.3488393 0.2666667 -0.9029094 0.4201216 -0.4129094 0.2867882 -0.4129094 0.4201216 -0.9029094 0.2867882 0.003333333 -2.775558e-17 0.4933333 0.4201216 0.003333333 0.4201216 0.4933333 1.387779e-16 -0.06393941 0.4177875 -0.06865345 0.8355751 -0.06865345 0.4154535 -0.06393941 0.8355751</float_array>
                    <technique_common>
                        <accessor count="40" source="#ID62" stride="2">
                            <param name="S" type="float" />
                            <param name="T" type="float" />
                        </accessor>
                    </technique_common>
                </source>
                <vertices id="ID58">
                    <input semantic="POSITION" source="#ID56" />
                    <input semantic="NORMAL" source="#ID57" />
                </vertices>
                <triangles count="22" material="Material2">
                    <input offset="0" semantic="VERTEX" source="#ID58" />
                    <input offset="1" semantic="TEXCOORD" source="#ID59" />
                    <p>0 0 1 1 2 2 1 1 0 0 3 3 4 4 5 5 6 6 5 5 4 4 7 7 7 7 4 4 8 8 7 7 8 8 9 9 9 9 8 8 10 10 9 9 10 10 11 11 3 12 12 13 1 14 12 13 3 12 13 15 2 16 14 17 0 18 14 17 2 16 15 19 16 20 17 21 18 22 17 21 16 20 19 23 20 24 19 25 16 26 19 25 20 24 21 27 21 28 12 29 13 30 12 29 21 28 20 31 15 32 22 33 14 34 22 33 15 32 23 35 18 36 22 37 23 38 22 37 18 36 17 39</p>
                </triangles>
            </mesh>
        </geometry>
        <geometry id="ID65">
            <mesh>
                <source id="ID71">
                    <float_array id="ID75" count="384">0.984252 3.65641 9.84252 0.7480315 0.7874016 9.84252 0.7480315 3.65641 9.84252 0.984252 0.7874016 9.84252 0.7480315 0.7874016 9.84252 0.984252 0.7874016 5.329071e-15 0.7480315 0.7874016 5.329071e-15 0.984252 0.7874016 9.84252 0.7480315 0.6692913 9.96063 0.7480315 0.7874016 9.84252 0.7480315 0.6692913 5.329071e-15 0.7480315 3.65641 9.96063 0.7480315 3.65641 9.84252 0.7480315 0.7874016 5.329071e-15 0 3.65641 9.84252 0.1181102 3.65641 9.96063 0.2362205 3.65641 9.84252 0 3.65641 10.62992 0.1181102 3.65641 10.51181 0.8661417 3.65641 10.51181 0.7480315 3.65641 9.96063 0.984252 3.65641 9.84252 0.7480315 3.65641 9.84252 0.8661417 3.65641 9.96063 0.984252 3.65641 10.62992 0.2362205 3.65641 9.96063 0.984252 0.7874016 5.329071e-15 0.984252 0.7874016 9.84252 0.984252 7.638334e-14 0 0.984252 0 10.62992 0.984252 3.65641 10.62992 0.984252 3.65641 9.84252 0 0.7874016 5.329071e-15 0.1181102 0.6692913 5.329071e-15 0 7.638334e-14 0 0.2362205 0.7874016 5.329071e-15 0.2362205 0.6692913 5.329071e-15 0.984252 0.7874016 5.329071e-15 0.7480315 0.6692913 5.329071e-15 0.7480315 0.7874016 5.329071e-15 0.8661417 0.6692913 5.329071e-15 0.8661417 0.1181102 5.329071e-15 0.1181102 0.1181102 5.329071e-15 0.984252 7.638334e-14 0 0.8661417 0.6692913 9.96063 0.7480315 3.65641 9.96063 0.7480315 0.6692913 9.96063 0.8661417 3.65641 9.96063 0.8661417 0.6692913 9.96063 0.7480315 0.6692913 5.329071e-15 0.8661417 0.6692913 5.329071e-15 0.7480315 0.6692913 9.96063 0.984252 0 10.62992 0 3.65641 10.62992 0 0 10.62992 0.984252 3.65641 10.62992 0.8661417 0.1181102 10.51181 0.8661417 0.6692913 9.96063 0.8661417 0.1181102 5.329071e-15 0.8661417 3.65641 10.51181 0.8661417 3.65641 9.96063 0.8661417 0.6692913 5.329071e-15 0.1181102 3.65641 10.51181 0.3346457 3.112936 10.51181 0.1181102 0.1181102 10.51181 0.3647217 3.205501 10.51181 0.8661417 3.65641 10.51181 0.4434619 3.262709 10.51181 0.5407901 3.262709 10.51181 0.6195302 3.205501 10.51181 0.6496063 3.112936 10.51181 0.6496063 0.6615837 10.51181 0.3647217 0.5690191 10.51181 0.8661417 0.1181102 10.51181 0.3346457 0.6615837 10.51181 0.4434619 0.511811 10.51181 0.5407901 0.511811 10.51181 0.6195302 0.5690191 10.51181 0.3647217 3.020372 10.51181 0.3647217 0.7541483 10.51181 0.4434619 2.963164 10.51181 0.4434619 0.8113564 10.51181 0.5407901 2.963164 10.51181 0.5407901 0.8113564 10.51181 0.6195302 3.020372 10.51181 0.6195302 0.7541483 10.51181 0.1181102 0.6692913 5.329071e-15 0.1181102 0.1181102 10.51181 0.1181102 0.1181102 5.329071e-15 0.1181102 0.6692913 9.96063 0.1181102 3.65641 10.51181 0.1181102 3.65641 9.96063 0.2362205 0.6692913 9.96063 0.1181102 3.65641 9.96063 0.1181102 0.6692913 9.96063 0.2362205 3.65641 9.96063 0.2362205 0.7874016 5.329071e-15 0.2362205 0.6692913 9.96063 0.2362205 0.6692913 5.329071e-15 0.2362205 0.7874016 9.84252 0.2362205 3.65641 9.96063 0.2362205 3.65641 9.84252 0.2362205 3.65641 9.84252 0 0.7874016 9.84252 0 3.65641 9.84252 0.2362205 0.7874016 9.84252 0 0 10.62992 0 0.7874016 9.84252 0 7.638334e-14 0 0 3.65641 10.62992 0 3.65641 9.84252 0 0.7874016 5.329071e-15 0.984252 0 10.62992 0 7.638334e-14 0 0.984252 7.638334e-14 0 0 0 10.62992 0 0.7874016 9.84252 0.2362205 0.7874016 5.329071e-15 0 0.7874016 5.329071e-15 0.2362205 0.7874016 9.84252 0.2362205 0.6692913 9.96063 0.1181102 0.6692913 5.329071e-15 0.2362205 0.6692913 5.329071e-15 0.1181102 0.6692913 9.96063 0.1181102 0.1181102 10.51181 0.8661417 0.1181102 5.329071e-15 0.1181102 0.1181102 5.329071e-15 0.8661417 0.1181102 10.51181</float_array>
                    <technique_common>
                        <accessor count="128" source="#ID75" stride="3">
                            <param name="X" type="float" />
                            <param name="Y" type="float" />
                            <param name="Z" type="float" />
                        </accessor>
                    </technique_common>
                </source>
                <source id="ID72">
                    <float_array id="ID76" count="384">4.699944e-15 5.529346e-16 -1 4.699944e-15 5.529346e-16 -1 4.699944e-15 5.529346e-16 -1 4.699944e-15 5.529346e-16 -1 4.699944e-15 1 7.647749e-15 4.699944e-15 1 7.647749e-15 4.699944e-15 1 7.647749e-15 4.699944e-15 1 7.647749e-15 -1 0 0 -1 0 0 -1 0 0 -1 0 0 -1 0 0 -1 0 0 -8.326679e-17 1 6.784465e-16 -8.326679e-17 1 6.784465e-16 -8.326679e-17 1 6.784465e-16 -8.326679e-17 1 6.784465e-16 -8.326679e-17 1 6.784465e-16 -8.326679e-17 1 6.784465e-16 -8.326679e-17 1 6.784465e-16 -8.326679e-17 1 6.784465e-16 -8.326679e-17 1 6.784465e-16 -8.326679e-17 1 6.784465e-16 -8.326679e-17 1 6.784465e-16 -8.326679e-17 1 6.784465e-16 1 0 0 1 0 0 1 0 0 1 0 0 1 0 0 1 0 0 6.752567e-32 4.355452e-15 -1 6.752567e-32 4.355452e-15 -1 6.752567e-32 4.355452e-15 -1 6.752567e-32 4.355452e-15 -1 6.752567e-32 4.355452e-15 -1 6.752567e-32 4.355452e-15 -1 6.752567e-32 4.355452e-15 -1 6.752567e-32 4.355452e-15 -1 6.752567e-32 4.355452e-15 -1 6.752567e-32 4.355452e-15 -1 6.752567e-32 4.355452e-15 -1 6.752567e-32 4.355452e-15 -1 0 -1.671091e-15 1 0 -1.671091e-15 1 0 -1.671091e-15 1 0 -1.671091e-15 1 0 -1 0 0 -1 0 0 -1 0 0 -1 0 4.811629e-32 -4.766141e-16 1 4.811629e-32 -4.766141e-16 1 4.811629e-32 -4.766141e-16 1 4.811629e-32 -4.766141e-16 1 -1 0 0 -1 0 0 -1 0 0 -1 0 0 -1 0 0 -1 0 0 0 5.108488e-16 -1 0 5.108488e-16 -1 0 5.108488e-16 -1 0 5.108488e-16 -1 0 5.108488e-16 -1 0 5.108488e-16 -1 0 5.108488e-16 -1 0 5.108488e-16 -1 0 5.108488e-16 -1 0 5.108488e-16 -1 0 5.108488e-16 -1 0 5.108488e-16 -1 0 5.108488e-16 -1 0 5.108488e-16 -1 0 5.108488e-16 -1 0 5.108488e-16 -1 0 5.108488e-16 -1 0 5.108488e-16 -1 0 5.108488e-16 -1 0 5.108488e-16 -1 0 5.108488e-16 -1 0 5.108488e-16 -1 0 5.108488e-16 -1 0 5.108488e-16 -1 1 0 0 1 0 0 1 0 0 1 0 0 1 0 0 1 0 0 0 -1.671091e-15 1 0 -1.671091e-15 1 0 -1.671091e-15 1 0 -1.671091e-15 1 1 0 0 1 0 0 1 0 0 1 0 0 1 0 0 1 0 0 -4.699944e-15 5.529346e-16 -1 -4.699944e-15 5.529346e-16 -1 -4.699944e-15 5.529346e-16 -1 -4.699944e-15 5.529346e-16 -1 -1 0 0 -1 0 0 -1 0 0 -1 0 0 -1 0 0 -1 0 0 0 -1 0 0 -1 0 0 -1 0 0 -1 0 -4.699944e-15 1 7.647749e-15 -4.699944e-15 1 7.647749e-15 -4.699944e-15 1 7.647749e-15 -4.699944e-15 1 7.647749e-15 0 -1 0 0 -1 0 0 -1 0 0 -1 0 0 1 0 0 1 0 0 1 0 0 1 0</float_array>
                    <technique_common>
                        <accessor count="128" source="#ID76" stride="3">
                            <param name="X" type="float" />
                            <param name="Y" type="float" />
                            <param name="Z" type="float" />
                        </accessor>
                    </technique_common>
                </source>
                <source id="ID74">
                    <float_array id="ID77" count="240">-0.655 0.4162427 -0.635 0.1733333 -0.635 0.4162427 -0.655 0.1733333 -0.635 -0.06666667 -0.655 -0.9 -0.635 -0.9 -0.655 -0.06666667 -0.1633333 -0.05666667 -0.1733333 -0.06666667 -0.1633333 -0.9 -0.4162427 -0.05666667 -0.4162427 -0.06666667 -0.1733333 -0.9 -0.5716667 -0.06666667 -0.5816667 -0.05666667 -0.5916667 -0.06666667 -0.5716667 -3.330669e-16 -0.5816667 -0.01 -0.645 -0.01 -0.635 -0.05666667 -0.655 -0.06666667 -0.635 -0.06666667 -0.645 -0.05666667 -0.655 -3.330669e-16 -0.5916667 -0.05666667 0.1733333 -0.9 0.1733333 -0.06666667 0.1066667 -0.9 0.1066667 0 0.4162427 2.220446e-16 0.4162427 -0.06666667 -0.5716667 0.1733333 -0.5816667 0.1633333 -0.5716667 0.1066667 -0.5916667 0.1733333 -0.5916667 0.1633333 -0.655 0.1733333 -0.635 0.1633333 -0.635 0.1733333 -0.645 0.1633333 -0.645 0.1166667 -0.5816667 0.1166667 -0.655 0.1066667 0.645 0.1633333 0.635 0.4162427 0.635 0.1633333 0.645 0.4162427 0.645 -0.05666667 0.635 -0.9 0.645 -0.9 0.635 -0.05666667 0.655 0.1066667 0.5716667 0.4162427 0.5716667 0.1066667 0.655 0.4162427 -0.1166667 -0.01 -0.1633333 -0.05666667 -0.1166667 -0.9 -0.4162427 -0.01 -0.1633333 -0.9 -0.5816667 0.4162427 -0.6 0.3702286 -0.5816667 0.1166667 -0.6025464 0.3780657 -0.645 0.4162427 -0.6092131 0.3829094 -0.6174536 0.3829094 -0.6241202 0.3780657 -0.6266667 0.3702286 -0.6266667 0.1626808 -0.6025464 0.1548436 -0.645 0.1166667 -0.6 0.1626808 -0.6092131 0.15 -0.6174536 0.15 -0.6241202 0.1548436 -0.6025464 0.3623915 -0.6025464 0.1705179 -0.6092131 0.3575478 -0.6092131 0.1753615 -0.6174536 0.3575478 -0.6174536 0.1753615 -0.6241202 0.3623915 -0.6241202 0.1705179 0.1633333 -0.9 0.1166667 -0.01 0.1166667 -0.9 0.1633333 -0.05666667 0.4162427 -0.01 0.4162427 -0.05666667 0.5916667 0.1633333 0.5816667 0.4162427 0.5816667 0.1633333 0.5916667 0.4162427 0.1733333 -0.06666667 -0.5916667 0.4162427 -0.5716667 0.1733333 -0.5716667 0.4162427 -0.5916667 0.1733333 -0.1066667 0 -0.1733333 -0.06666667 -0.1066667 -0.9 -0.4162427 2.220446e-16 0.655 0 0.5716667 -0.9 0.655 -0.9 0.5716667 0 -0.5716667 -0.06666667 -0.5916667 -0.9 -0.5716667 -0.9 -0.5916667 -0.06666667 0.5916667 -0.05666667 0.5816667 -0.9 0.5916667 -0.9 0.5816667 -0.05666667 -0.5816667 -0.01 -0.645 -0.9 -0.5816667 -0.9 -0.645 -0.01</float_array>
                    <technique_common>
                        <accessor count="120" source="#ID77" stride="2">
                            <param name="S" type="float" />
                            <param name="T" type="float" />
                        </accessor>
                    </technique_common>
                </source>
                <vertices id="ID73">
                    <input semantic="POSITION" source="#ID71" />
                    <input semantic="NORMAL" source="#ID72" />
                </vertices>
                <triangles count="92" material="Material2">
                    <input offset="0" semantic="VERTEX" source="#ID73" />
                    <input offset="1" semantic="TEXCOORD" source="#ID74" />
                    <p>0 0 1 1 2 2 1 1 0 0 3 3 4 4 5 5 6 6 5 5 4 4 7 7 8 8 9 9 10 10 9 9 8 8 11 11 9 9 11 11 12 12 13 13 10 10 9 9 14 14 15 15 16 16 15 15 14 14 17 17 15 15 17 17 18 18 18 18 17 17 19 19 20 20 21 21 22 22 21 21 20 20 23 23 21 21 23 23 24 24 24 24 23 23 19 19 24 24 19 19 17 17 25 25 16 16 15 15 26 26 27 27 28 28 29 29 27 27 30 30 27 27 29 29 28 28 30 30 27 27 31 31 32 32 33 33 34 34 33 33 32 32 35 35 33 33 35 35 36 36 37 37 38 38 39 39 38 38 37 37 40 40 40 40 37 37 41 41 34 34 42 42 43 43 42 42 34 34 33 33 43 43 42 42 41 41 43 43 41 41 37 37 44 44 45 45 46 46 45 45 44 44 47 47 48 48 49 49 50 50 49 49 48 48 51 51 52 52 53 53 54 54 53 53 52 52 55 55 56 56 57 57 58 58 57 57 56 56 59 59 57 57 59 59 60 11 61 60 58 58 57 57 62 61 63 62 64 63 63 62 62 61 65 64 65 64 62 61 66 65 65 64 66 65 67 66 67 66 66 65 68 67 68 67 66 65 69 68 69 68 66 65 70 69 70 69 66 65 71 70 64 63 72 71 73 72 72 71 64 63 74 73 74 73 64 63 63 62 73 72 72 71 75 74 73 72 75 74 76 75 73 72 76 75 77 76 73 72 77 76 71 70 73 72 71 70 66 65 78 77 74 73 63 62 74 73 78 77 79 78 79 78 78 77 80 79 79 78 80 79 81 80 81 80 80 79 82 81 81 80 82 81 83 82 83 82 82 81 84 83 83 82 84 83 85 84 85 84 84 83 70 69 85 84 70 69 71 70 86 85 87 86 88 87 87 86 86 85 89 88 87 86 89 88 90 89 90 89 89 88 91 90 92 91 93 92 94 93 93 92 92 91 95 94 96 26 97 88 98 85 97 88 96 26 99 95 99 95 100 90 97 88 100 90 99 95 101 31 102 96 103 97 104 98 103 97 102 96 105 99 106 100 107 101 108 102 107 101 106 100 109 103 107 101 109 103 110 12 111 13 108 102 107 101 112 104 113 105 114 106 113 105 112 104 115 107 116 108 117 109 118 110 117 109 116 108 119 111 120 112 121 113 122 114 121 113 120 112 123 115 124 116 125 117 126 118 125 117 124 116 127 119</p>
                </triangles>
            </mesh>
        </geometry>
        <geometry id="ID78">
            <mesh>
                <source id="ID79">
                    <float_array id="ID83" count="30">0.3647217 0.7541483 10.51181 0.3647217 0.5690191 10.51181 0.3346457 0.6615837 10.51181 0.4434619 0.8113564 10.51181 0.4434619 0.511811 10.51181 0.5407901 0.8113564 10.51181 0.5407901 0.511811 10.51181 0.6195302 0.7541483 10.51181 0.6195302 0.5690191 10.51181 0.6496063 0.6615837 10.51181</float_array>
                    <technique_common>
                        <accessor count="10" source="#ID83" stride="3">
                            <param name="X" type="float" />
                            <param name="Y" type="float" />
                            <param name="Z" type="float" />
                        </accessor>
                    </technique_common>
                </source>
                <source id="ID80">
                    <float_array id="ID84" count="30">1.825121e-15 7.256204e-15 -1 1.825121e-15 7.256204e-15 -1 1.825121e-15 7.256204e-15 -1 1.825121e-15 7.256204e-15 -1 1.825121e-15 7.256204e-15 -1 1.825121e-15 7.256204e-15 -1 1.825121e-15 7.256204e-15 -1 1.825121e-15 7.256204e-15 -1 1.825121e-15 7.256204e-15 -1 1.825121e-15 7.256204e-15 -1</float_array>
                    <technique_common>
                        <accessor count="10" source="#ID84" stride="3">
                            <param name="X" type="float" />
                            <param name="Y" type="float" />
                            <param name="Z" type="float" />
                        </accessor>
                    </technique_common>
                </source>
                <source id="ID82">
                    <float_array id="ID85" count="20">20.21294 0.2924507 20.21294 0.7096581 20.14516 0.5010544 20.39039 0.1635266 20.39039 0.8385822 20.60973 0.1635266 20.60973 0.8385822 20.78718 0.2924507 20.78718 0.7096581 20.85496 0.5010544</float_array>
                    <technique_common>
                        <accessor count="10" source="#ID85" stride="2">
                            <param name="S" type="float" />
                            <param name="T" type="float" />
                        </accessor>
                    </technique_common>
                </source>
                <vertices id="ID81">
                    <input semantic="POSITION" source="#ID79" />
                    <input semantic="NORMAL" source="#ID80" />
                </vertices>
                <triangles count="8" material="Material2">
                    <input offset="0" semantic="VERTEX" source="#ID81" />
                    <input offset="1" semantic="TEXCOORD" source="#ID82" />
                    <p>0 0 1 1 2 2 1 1 0 0 3 3 1 1 3 3 4 4 4 4 3 3 5 5 4 4 5 5 6 6 6 6 5 5 7 7 6 6 7 7 8 8 8 8 7 7 9 9</p>
                </triangles>
            </mesh>
        </geometry>
        <geometry id="ID86">
            <mesh>
                <source id="ID87">
                    <float_array id="ID91" count="30">0.3647217 3.205501 10.51181 0.3647217 3.020372 10.51181 0.3346457 3.112936 10.51181 0.4434619 3.262709 10.51181 0.4434619 2.963164 10.51181 0.5407901 3.262709 10.51181 0.5407901 2.963164 10.51181 0.6195302 3.205501 10.51181 0.6195302 3.020372 10.51181 0.6496063 3.112936 10.51181</float_array>
                    <technique_common>
                        <accessor count="10" source="#ID91" stride="3">
                            <param name="X" type="float" />
                            <param name="Y" type="float" />
                            <param name="Z" type="float" />
                        </accessor>
                    </technique_common>
                </source>
                <source id="ID88">
                    <float_array id="ID92" count="30">1.825121e-15 7.767053e-15 -1 1.825121e-15 7.767053e-15 -1 1.825121e-15 7.767053e-15 -1 1.825121e-15 7.767053e-15 -1 1.825121e-15 7.767053e-15 -1 1.825121e-15 7.767053e-15 -1 1.825121e-15 7.767053e-15 -1 1.825121e-15 7.767053e-15 -1 1.825121e-15 7.767053e-15 -1 1.825121e-15 7.767053e-15 -1</float_array>
                    <technique_common>
                        <accessor count="10" source="#ID92" stride="3">
                            <param name="X" type="float" />
                            <param name="Y" type="float" />
                            <param name="Z" type="float" />
                        </accessor>
                    </technique_common>
                </source>
                <source id="ID90">
                    <float_array id="ID93" count="20">20.21294 0.2924507 20.21294 0.7096581 20.14516 0.5010544 20.39039 0.1635266 20.39039 0.8385822 20.60973 0.1635266 20.60973 0.8385822 20.78718 0.2924507 20.78718 0.7096581 20.85496 0.5010544</float_array>
                    <technique_common>
                        <accessor count="10" source="#ID93" stride="2">
                            <param name="S" type="float" />
                            <param name="T" type="float" />
                        </accessor>
                    </technique_common>
                </source>
                <vertices id="ID89">
                    <input semantic="POSITION" source="#ID87" />
                    <input semantic="NORMAL" source="#ID88" />
                </vertices>
                <triangles count="8" material="Material2">
                    <input offset="0" semantic="VERTEX" source="#ID89" />
                    <input offset="1" semantic="TEXCOORD" source="#ID90" />
                    <p>0 0 1 1 2 2 1 1 0 0 3 3 1 1 3 3 4 4 4 4 3 3 5 5 4 4 5 5 6 6 6 6 5 5 7 7 6 6 7 7 8 8 8 8 7 7 9 9</p>
                </triangles>
            </mesh>
        </geometry>
        <geometry id="ID94">
            <mesh>
                <source id="ID95">
                    <float_array id="ID99" count="30">-3.532916 3.205501 10.51181 -3.532916 3.020372 10.51181 -3.562992 3.112936 10.51181 -3.454176 3.262709 10.51181 -3.454176 2.963164 10.51181 -3.356848 3.262709 10.51181 -3.356848 2.963164 10.51181 -3.278108 3.205501 10.51181 -3.278108 3.020372 10.51181 -3.248031 3.112936 10.51181</float_array>
                    <technique_common>
                        <accessor count="10" source="#ID99" stride="3">
                            <param name="X" type="float" />
                            <param name="Y" type="float" />
                            <param name="Z" type="float" />
                        </accessor>
                    </technique_common>
                </source>
                <source id="ID96">
                    <float_array id="ID100" count="30">1.825121e-15 7.767053e-15 -1 1.825121e-15 7.767053e-15 -1 1.825121e-15 7.767053e-15 -1 1.825121e-15 7.767053e-15 -1 1.825121e-15 7.767053e-15 -1 1.825121e-15 7.767053e-15 -1 1.825121e-15 7.767053e-15 -1 1.825121e-15 7.767053e-15 -1 1.825121e-15 7.767053e-15 -1 1.825121e-15 7.767053e-15 -1</float_array>
                    <technique_common>
                        <accessor count="10" source="#ID100" stride="3">
                            <param name="X" type="float" />
                            <param name="Y" type="float" />
                            <param name="Z" type="float" />
                        </accessor>
                    </technique_common>
                </source>
                <source id="ID98">
                    <float_array id="ID101" count="20">20.21289 0.29245 20.21289 0.7096562 20.14511 0.5010531 20.39033 0.1635262 20.39033 0.83858 20.60967 0.1635262 20.60967 0.83858 20.78712 0.29245 20.78712 0.7096562 20.8549 0.5010531</float_array>
                    <technique_common>
                        <accessor count="10" source="#ID101" stride="2">
                            <param name="S" type="float" />
                            <param name="T" type="float" />
                        </accessor>
                    </technique_common>
                </source>
                <vertices id="ID97">
                    <input semantic="POSITION" source="#ID95" />
                    <input semantic="NORMAL" source="#ID96" />
                </vertices>
                <triangles count="8" material="Material2">
                    <input offset="0" semantic="VERTEX" source="#ID97" />
                    <input offset="1" semantic="TEXCOORD" source="#ID98" />
                    <p>0 0 1 1 2 2 1 1 0 0 3 3 1 1 3 3 4 4 4 4 3 3 5 5 4 4 5 5 6 6 6 6 5 5 7 7 6 6 7 7 8 8 8 8 7 7 9 9</p>
                </triangles>
            </mesh>
        </geometry>
        <geometry id="ID102">
            <mesh>
                <source id="ID103">
                    <float_array id="ID107" count="384">-2.913386 0 10.62992 -3.897638 7.638334e-14 -3.552714e-15 -2.913386 7.638334e-14 -3.552714e-15 -3.897638 0 10.62992 -2.913386 0.7874016 1.776357e-15 -2.913386 0.7874016 9.84252 -2.913386 7.638334e-14 -3.552714e-15 -2.913386 0 10.62992 -2.913386 3.65641 10.62992 -2.913386 3.65641 9.84252 -2.913386 0 10.62992 -3.897638 3.65641 10.62992 -3.897638 0 10.62992 -2.913386 3.65641 10.62992 -3.897638 0 10.62992 -3.897638 0.7874016 9.84252 -3.897638 7.638334e-14 -3.552714e-15 -3.897638 3.65641 10.62992 -3.897638 3.65641 9.84252 -3.897638 0.7874016 1.776357e-15 -3.897638 0.7874016 1.776357e-15 -3.779528 0.6692913 1.776357e-15 -3.897638 7.638334e-14 -3.552714e-15 -3.661417 0.7874016 1.776357e-15 -3.661417 0.6692913 1.776357e-15 -2.913386 0.7874016 1.776357e-15 -3.149606 0.6692913 1.776357e-15 -3.149606 0.7874016 1.776357e-15 -3.031496 0.6692913 1.776357e-15 -3.031496 0.1181102 1.776357e-15 -3.779528 0.1181102 1.776357e-15 -2.913386 7.638334e-14 -3.552714e-15 -3.149606 0.7874016 9.84252 -2.913386 0.7874016 1.776357e-15 -3.149606 0.7874016 1.776357e-15 -2.913386 0.7874016 9.84252 -2.913386 3.65641 9.84252 -3.149606 0.7874016 9.84252 -3.149606 3.65641 9.84252 -2.913386 0.7874016 9.84252 -3.897638 3.65641 9.84252 -3.779528 3.65641 9.96063 -3.661417 3.65641 9.84252 -3.897638 3.65641 10.62992 -3.779528 3.65641 10.51181 -3.031496 3.65641 10.51181 -3.149606 3.65641 9.96063 -2.913386 3.65641 9.84252 -3.149606 3.65641 9.84252 -3.031496 3.65641 9.96063 -2.913386 3.65641 10.62992 -3.661417 3.65641 9.96063 -3.661417 3.65641 9.84252 -3.897638 0.7874016 9.84252 -3.897638 3.65641 9.84252 -3.661417 0.7874016 9.84252 -3.897638 0.7874016 9.84252 -3.661417 0.7874016 1.776357e-15 -3.897638 0.7874016 1.776357e-15 -3.661417 0.7874016 9.84252 -3.661417 0.7874016 1.776357e-15 -3.661417 0.6692913 9.96063 -3.661417 0.6692913 1.776357e-15 -3.661417 0.7874016 9.84252 -3.661417 3.65641 9.96063 -3.661417 3.65641 9.84252 -3.661417 0.6692913 9.96063 -3.779528 0.6692913 1.776357e-15 -3.661417 0.6692913 1.776357e-15 -3.779528 0.6692913 9.96063 -3.779528 0.6692913 1.776357e-15 -3.779528 0.1181102 10.51181 -3.779528 0.1181102 1.776357e-15 -3.779528 0.6692913 9.96063 -3.779528 3.65641 10.51181 -3.779528 3.65641 9.96063 -3.779528 0.1181102 10.51181 -3.031496 0.1181102 1.776357e-15 -3.779528 0.1181102 1.776357e-15 -3.031496 0.1181102 10.51181 -3.031496 0.1181102 10.51181 -3.031496 0.6692913 9.96063 -3.031496 0.1181102 1.776357e-15 -3.031496 3.65641 10.51181 -3.031496 3.65641 9.96063 -3.031496 0.6692913 1.776357e-15 -3.031496 0.6692913 9.96063 -3.149606 0.6692913 1.776357e-15 -3.031496 0.6692913 1.776357e-15 -3.149606 0.6692913 9.96063 -3.149606 0.6692913 9.96063 -3.149606 0.7874016 9.84252 -3.149606 0.6692913 1.776357e-15 -3.149606 3.65641 9.96063 -3.149606 3.65641 9.84252 -3.149606 0.7874016 1.776357e-15 -3.031496 0.6692913 9.96063 -3.149606 3.65641 9.96063 -3.149606 0.6692913 9.96063 -3.031496 3.65641 9.96063 -3.779528 3.65641 10.51181 -3.562992 3.112936 10.51181 -3.779528 0.1181102 10.51181 -3.532916 3.205501 10.51181 -3.031496 3.65641 10.51181 -3.454176 3.262709 10.51181 -3.356848 3.262709 10.51181 -3.278108 3.205501 10.51181 -3.248031 3.112936 10.51181 -3.248031 0.6615837 10.51181 -3.532916 0.5690191 10.51181 -3.031496 0.1181102 10.51181 -3.562992 0.6615837 10.51181 -3.454176 0.511811 10.51181 -3.356848 0.511811 10.51181 -3.278108 0.5690191 10.51181 -3.532916 3.020372 10.51181 -3.532916 0.7541483 10.51181 -3.454176 2.963164 10.51181 -3.454176 0.8113564 10.51181 -3.356848 2.963164 10.51181 -3.356848 0.8113564 10.51181 -3.278108 3.020372 10.51181 -3.278108 0.7541483 10.51181 -3.661417 0.6692913 9.96063 -3.779528 3.65641 9.96063 -3.779528 0.6692913 9.96063 -3.661417 3.65641 9.96063</float_array>
                    <technique_common>
                        <accessor count="128" source="#ID107" stride="3">
                            <param name="X" type="float" />
                            <param name="Y" type="float" />
                            <param name="Z" type="float" />
                        </accessor>
                    </technique_common>
                </source>
                <source id="ID104">
                    <float_array id="ID108" count="384">0 -1 0 0 -1 0 0 -1 0 0 -1 0 1 0 0 1 0 0 1 0 0 1 0 0 1 0 0 1 0 0 4.811629e-32 -4.766141e-16 1 4.811629e-32 -4.766141e-16 1 4.811629e-32 -4.766141e-16 1 4.811629e-32 -4.766141e-16 1 -1 0 0 -1 0 0 -1 0 0 -1 0 0 -1 0 0 -1 0 0 6.752567e-32 4.355452e-15 -1 6.752567e-32 4.355452e-15 -1 6.752567e-32 4.355452e-15 -1 6.752567e-32 4.355452e-15 -1 6.752567e-32 4.355452e-15 -1 6.752567e-32 4.355452e-15 -1 6.752567e-32 4.355452e-15 -1 6.752567e-32 4.355452e-15 -1 6.752567e-32 4.355452e-15 -1 6.752567e-32 4.355452e-15 -1 6.752567e-32 4.355452e-15 -1 6.752567e-32 4.355452e-15 -1 4.699944e-15 1 7.647749e-15 4.699944e-15 1 7.647749e-15 4.699944e-15 1 7.647749e-15 4.699944e-15 1 7.647749e-15 4.699944e-15 5.529346e-16 -1 4.699944e-15 5.529346e-16 -1 4.699944e-15 5.529346e-16 -1 4.699944e-15 5.529346e-16 -1 -8.326679e-17 1 6.784465e-16 -8.326679e-17 1 6.784465e-16 -8.326679e-17 1 6.784465e-16 -8.326679e-17 1 6.784465e-16 -8.326679e-17 1 6.784465e-16 -8.326679e-17 1 6.784465e-16 -8.326679e-17 1 6.784465e-16 -8.326679e-17 1 6.784465e-16 -8.326679e-17 1 6.784465e-16 -8.326679e-17 1 6.784465e-16 -8.326679e-17 1 6.784465e-16 -8.326679e-17 1 6.784465e-16 -4.699944e-15 5.529346e-16 -1 -4.699944e-15 5.529346e-16 -1 -4.699944e-15 5.529346e-16 -1 -4.699944e-15 5.529346e-16 -1 -4.699944e-15 1 7.647749e-15 -4.699944e-15 1 7.647749e-15 -4.699944e-15 1 7.647749e-15 -4.699944e-15 1 7.647749e-15 1 0 0 1 0 0 1 0 0 1 0 0 1 0 0 1 0 0 0 -1 0 0 -1 0 0 -1 0 0 -1 0 1 0 0 1 0 0 1 0 0 1 0 0 1 0 0 1 0 0 0 1 0 0 1 0 0 1 0 0 1 0 -1 0 0 -1 0 0 -1 0 0 -1 0 0 -1 0 0 -1 0 0 0 -1 0 0 -1 0 0 -1 0 0 -1 0 -1 0 0 -1 0 0 -1 0 0 -1 0 0 -1 0 0 -1 0 0 0 -1.671091e-15 1 0 -1.671091e-15 1 0 -1.671091e-15 1 0 -1.671091e-15 1 0 5.108488e-16 -1 0 5.108488e-16 -1 0 5.108488e-16 -1 0 5.108488e-16 -1 0 5.108488e-16 -1 0 5.108488e-16 -1 0 5.108488e-16 -1 0 5.108488e-16 -1 0 5.108488e-16 -1 0 5.108488e-16 -1 0 5.108488e-16 -1 0 5.108488e-16 -1 0 5.108488e-16 -1 0 5.108488e-16 -1 0 5.108488e-16 -1 0 5.108488e-16 -1 0 5.108488e-16 -1 0 5.108488e-16 -1 0 5.108488e-16 -1 0 5.108488e-16 -1 0 5.108488e-16 -1 0 5.108488e-16 -1 0 5.108488e-16 -1 0 5.108488e-16 -1 0 -1.671091e-15 1 0 -1.671091e-15 1 0 -1.671091e-15 1 0 -1.671091e-15 1</float_array>
                    <technique_common>
                        <accessor count="128" source="#ID108" stride="3">
                            <param name="X" type="float" />
                            <param name="Y" type="float" />
                            <param name="Z" type="float" />
                        </accessor>
                    </technique_common>
                </source>
                <source id="ID106">
                    <float_array id="ID109" count="240">0.655 0 0.5716667 -0.9 0.655 -0.9 0.5716667 0 0.1733333 -0.9 0.1733333 -0.06666667 0.1066667 -0.9 0.1066667 0 0.4162427 1.110223e-16 0.4162427 -0.06666667 0.655 0.1066667 0.5716667 0.4162427 0.5716667 0.1066667 0.655 0.4162427 -0.1066667 0 -0.1733333 -0.06666667 -0.1066667 -0.9 -0.4162427 1.110223e-16 -0.4162427 -0.06666667 -0.1733333 -0.9 -0.5716667 0.1733333 -0.5816667 0.1633333 -0.5716667 0.1066667 -0.5916667 0.1733333 -0.5916667 0.1633333 -0.655 0.1733333 -0.635 0.1633333 -0.635 0.1733333 -0.645 0.1633333 -0.645 0.1166667 -0.5816667 0.1166667 -0.655 0.1066667 -0.635 -0.06666667 -0.655 -0.9 -0.635 -0.9 -0.655 -0.06666667 -0.655 0.4162427 -0.635 0.1733333 -0.635 0.4162427 -0.655 0.1733333 -0.5716667 -0.06666667 -0.5816667 -0.05666667 -0.5916667 -0.06666667 -0.5716667 -2.220446e-16 -0.5816667 -0.01 -0.645 -0.01 -0.635 -0.05666667 -0.655 -0.06666667 -0.635 -0.06666667 -0.645 -0.05666667 -0.655 -2.220446e-16 -0.5916667 -0.05666667 -0.5916667 0.4162427 -0.5716667 0.1733333 -0.5716667 0.4162427 -0.5916667 0.1733333 -0.5716667 -0.06666667 -0.5916667 -0.9 -0.5716667 -0.9 -0.5916667 -0.06666667 0.1633333 -0.05666667 0.1633333 -0.9 0.1733333 -0.06666667 0.4162427 -0.05666667 0.5916667 -0.05666667 0.5816667 -0.9 0.5916667 -0.9 0.5816667 -0.05666667 0.1166667 -0.01 0.1166667 -0.9 0.4162427 -0.01 -0.5816667 -0.01 -0.645 -0.9 -0.5816667 -0.9 -0.645 -0.01 -0.1166667 -0.01 -0.1633333 -0.05666667 -0.1166667 -0.9 -0.4162427 -0.01 -0.4162427 -0.05666667 -0.1633333 -0.9 0.645 -0.05666667 0.635 -0.9 0.645 -0.9 0.635 -0.05666667 -0.1633333 -0.05666667 -0.1733333 -0.06666667 -0.1633333 -0.9 0.645 0.1633333 0.635 0.4162427 0.635 0.1633333 0.645 0.4162427 -0.5816667 0.4162427 -0.6 0.3702286 -0.5816667 0.1166667 -0.6025464 0.3780657 -0.645 0.4162427 -0.6092131 0.3829094 -0.6174536 0.3829094 -0.6241202 0.3780657 -0.6266667 0.3702286 -0.6266667 0.1626808 -0.6025464 0.1548436 -0.645 0.1166667 -0.6 0.1626808 -0.6092131 0.15 -0.6174536 0.15 -0.6241202 0.1548436 -0.6025464 0.3623915 -0.6025464 0.1705179 -0.6092131 0.3575478 -0.6092131 0.1753615 -0.6174536 0.3575478 -0.6174536 0.1753615 -0.6241202 0.3623915 -0.6241202 0.1705179 0.5916667 0.1633333 0.5816667 0.4162427 0.5816667 0.1633333 0.5916667 0.4162427</float_array>
                    <technique_common>
                        <accessor count="120" source="#ID109" stride="2">
                            <param name="S" type="float" />
                            <param name="T" type="float" />
                        </accessor>
                    </technique_common>
                </source>
                <vertices id="ID105">
                    <input semantic="POSITION" source="#ID103" />
                    <input semantic="NORMAL" source="#ID104" />
                </vertices>
                <triangles count="92" material="Material2">
                    <input offset="0" semantic="VERTEX" source="#ID105" />
                    <input offset="1" semantic="TEXCOORD" source="#ID106" />
                    <p>0 0 1 1 2 2 1 1 0 0 3 3 4 4 5 5 6 6 7 7 5 5 8 8 5 5 7 7 6 6 8 8 5 5 9 9 10 10 11 11 12 12 11 11 10 10 13 13 14 14 15 15 16 16 15 15 14 14 17 17 15 15 17 17 18 18 19 19 16 16 15 15 20 20 21 21 22 22 21 21 20 20 23 23 21 21 23 23 24 24 25 25 26 26 27 27 26 26 25 25 28 28 28 28 25 25 29 29 22 22 30 30 31 31 30 30 22 22 21 21 31 31 30 30 29 29 31 31 29 29 25 25 32 32 33 33 34 34 33 33 32 32 35 35 36 36 37 37 38 38 37 37 36 36 39 39 40 40 41 41 42 42 41 41 40 40 43 43 41 41 43 43 44 44 44 44 43 43 45 45 46 46 47 47 48 48 47 47 46 46 49 49 47 47 49 49 50 50 50 50 49 49 45 45 50 50 45 45 43 43 51 51 42 42 41 41 52 52 53 53 54 54 53 53 52 52 55 55 56 56 57 57 58 58 57 57 56 56 59 59 60 4 61 60 62 61 61 60 60 4 63 62 63 62 64 63 61 60 64 63 63 62 65 9 66 64 67 65 68 66 67 65 66 64 69 67 70 61 71 68 72 69 71 68 70 61 73 60 71 68 73 60 74 70 74 70 73 60 75 63 76 71 77 72 78 73 77 72 76 71 79 74 80 75 81 76 82 77 81 76 80 75 83 78 81 76 83 78 84 79 85 80 82 77 81 76 86 81 87 82 88 83 87 82 86 81 89 84 90 85 91 86 92 87 91 86 90 85 93 79 91 86 93 79 94 18 95 19 92 87 91 86 96 88 97 89 98 90 97 89 96 88 99 91 100 92 101 93 102 94 101 93 100 92 103 95 103 95 100 92 104 96 103 95 104 96 105 97 105 97 104 96 106 98 106 98 104 96 107 99 107 99 104 96 108 100 108 100 104 96 109 101 102 94 110 102 111 103 110 102 102 94 112 104 112 104 102 94 101 93 111 103 110 102 113 105 111 103 113 105 114 106 111 103 114 106 115 107 111 103 115 107 109 101 111 103 109 101 104 96 116 108 112 104 101 93 112 104 116 108 117 109 117 109 116 108 118 110 117 109 118 110 119 111 119 111 118 110 120 112 119 111 120 112 121 113 121 113 120 112 122 114 121 113 122 114 123 115 123 115 122 114 108 100 123 115 108 100 109 101 124 116 125 117 126 118 125 117 124 116 127 119</p>
                </triangles>
            </mesh>
        </geometry>
        <geometry id="ID110">
            <mesh>
                <source id="ID111">
                    <float_array id="ID115" count="30">-3.532916 0.7541483 10.51181 -3.532916 0.5690191 10.51181 -3.562992 0.6615837 10.51181 -3.454176 0.8113564 10.51181 -3.454176 0.511811 10.51181 -3.356848 0.8113564 10.51181 -3.356848 0.511811 10.51181 -3.278108 0.7541483 10.51181 -3.278108 0.5690191 10.51181 -3.248031 0.6615837 10.51181</float_array>
                    <technique_common>
                        <accessor count="10" source="#ID115" stride="3">
                            <param name="X" type="float" />
                            <param name="Y" type="float" />
                            <param name="Z" type="float" />
                        </accessor>
                    </technique_common>
                </source>
                <source id="ID112">
                    <float_array id="ID116" count="30">1.825121e-15 7.256204e-15 -1 1.825121e-15 7.256204e-15 -1 1.825121e-15 7.256204e-15 -1 1.825121e-15 7.256204e-15 -1 1.825121e-15 7.256204e-15 -1 1.825121e-15 7.256204e-15 -1 1.825121e-15 7.256204e-15 -1 1.825121e-15 7.256204e-15 -1 1.825121e-15 7.256204e-15 -1 1.825121e-15 7.256204e-15 -1</float_array>
                    <technique_common>
                        <accessor count="10" source="#ID116" stride="3">
                            <param name="X" type="float" />
                            <param name="Y" type="float" />
                            <param name="Z" type="float" />
                        </accessor>
                    </technique_common>
                </source>
                <source id="ID114">
                    <float_array id="ID117" count="20">20.21289 0.29245 20.21289 0.7096562 20.14511 0.5010531 20.39033 0.1635262 20.39033 0.83858 20.60967 0.1635262 20.60967 0.83858 20.78712 0.29245 20.78712 0.7096562 20.8549 0.5010531</float_array>
                    <technique_common>
                        <accessor count="10" source="#ID117" stride="2">
                            <param name="S" type="float" />
                            <param name="T" type="float" />
                        </accessor>
                    </technique_common>
                </source>
                <vertices id="ID113">
                    <input semantic="POSITION" source="#ID111" />
                    <input semantic="NORMAL" source="#ID112" />
                </vertices>
                <triangles count="8" material="Material2">
                    <input offset="0" semantic="VERTEX" source="#ID113" />
                    <input offset="1" semantic="TEXCOORD" source="#ID114" />
                    <p>0 0 1 1 2 2 1 1 0 0 3 3 1 1 3 3 4 4 4 4 3 3 5 5 4 4 5 5 6 6 6 6 5 5 7 7 6 6 7 7 8 8 8 8 7 7 9 9</p>
                </triangles>
            </mesh>
        </geometry>
        <geometry id="ID120">
            <mesh>
                <source id="ID121">
                    <float_array id="ID125" count="426">1.176156 0.1574803 1.176156 1.033465 0.1968504 1.285647 1.033465 0.1574803 1.285647 1.176156 0.1968504 1.176156 0.8672966 0.1968504 1.354476 0.8672966 0.1574803 1.354476 1.033465 0.1574803 1.285647 0.6889764 0.1574803 1.377953 1.176156 0.1574803 1.176156 0.8672966 0.1574803 1.354476 0.3444882 0.1574803 1.285647 0.2017965 0.1574803 1.176156 0.5106562 0.1574803 1.354476 0.0234763 0.1574803 0.8672966 0 0.1574803 0.6889764 0.09230533 0.1574803 1.033465 0.09230533 0.1574803 0.3444882 0.2017965 0.1574803 0.2017965 0.0234763 0.1574803 0.5106562 0.5106562 0.1574803 0.0234763 0.6889764 0.1574803 0 0.3444882 0.1574803 0.09230533 1.285647 0.1574803 0.3444882 1.377953 0.1574803 0.6889764 1.176156 0.1574803 0.2017965 1.354476 0.1574803 0.5106562 0.8672966 0.1574803 0.0234763 1.033465 0.1574803 0.09230533 1.285647 0.1968504 1.033465 1.285647 0.1574803 1.033465 0.6889764 0.1968504 1.377953 0.6889764 0.1574803 1.377953 1.354476 0.1968504 0.5106562 1.377953 0.1574803 0.6889764 1.354476 0.1574803 0.5106562 1.377953 0.1968504 0.6889764 1.176156 0.1574803 0.2017965 1.277055 -0.03937008 0.4453864 1.176156 -0.03937008 0.2017965 1.377953 -0.03937008 0.6889764 1.377953 0.1574803 0.6889764 1.176156 0.1574803 0.2017965 0.6889764 -0.03937008 0 0.6889764 0.1574803 0 0.9325663 -0.03937008 0.1008983 1.176156 -0.03937008 0.2017965 0.6889764 0.1574803 0 0.2017965 -0.03937008 0.2017965 0.2017965 0.1574803 0.2017965 0.4453864 -0.03937008 0.1008983 0.6889764 -0.03937008 0 0 0.1574803 0.6889764 0.1008983 -0.03937008 0.4453864 0 -0.03937008 0.6889764 0.2017965 -0.03937008 0.2017965 0.2017965 0.1574803 0.2017965 0.2017965 0.1574803 1.176156 0.1008983 -0.03937008 0.9325663 0.2017965 -0.03937008 1.176156 0 -0.03937008 0.6889764 0 0.1574803 0.6889764 0.4453864 -0.03937008 1.277055 0.2017965 0.1574803 1.176156 0.2017965 -0.03937008 1.176156 0.6889764 0.1574803 1.377953 0.6889764 -0.03937008 1.377953 0.9325663 -0.03937008 1.277055 0.6889764 0.1574803 1.377953 0.6889764 -0.03937008 1.377953 1.176156 0.1574803 1.176156 1.176156 -0.03937008 1.176156 0.5106562 0.1968504 1.354476 0.5106562 0.1574803 1.354476 0.3444882 0.1968504 1.285647 0.3444882 0.1574803 1.285647 0.2017965 0.1968504 1.176156 0.2017965 0.1574803 1.176156 0.09230533 0.1574803 1.033465 0.09230533 0.1968504 1.033465 0.0234763 0.1574803 0.8672966 0.0234763 0.1968504 0.8672966 0 0.1574803 0.6889764 0 0.1968504 0.6889764 0.0234763 0.1574803 0.5106562 0.0234763 0.1968504 0.5106562 0.09230533 0.1574803 0.3444882 0.09230533 0.1968504 0.3444882 0.2017965 0.1574803 0.2017965 0.2017965 0.1968504 0.2017965 0.3444882 0.1968504 0.09230533 0.3444882 0.1574803 0.09230533 0.5106562 0.1968504 0.0234763 0.5106562 0.1574803 0.0234763 0.6889764 0.1968504 0 0.6889764 0.1574803 0 0.8672966 0.1968504 0.0234763 0.8672966 0.1574803 0.0234763 1.033465 0.1968504 0.09230533 1.033465 0.1574803 0.09230533 1.176156 0.1968504 0.2017965 1.176156 0.1574803 0.2017965 1.285647 0.1574803 0.3444882 1.285647 0.1968504 0.3444882 1.354476 0.1574803 0.8672966 1.285647 0.1574803 1.033465 1.354476 0.1968504 0.8672966 1.354476 0.1574803 0.8672966 1.377953 0.1574803 0.6889764 1.277055 -0.03937008 0.9325663 1.377953 -0.03937008 0.6889764 1.176156 -0.03937008 1.176156 1.176156 0.1574803 1.176156 0.9325663 -0.03937008 0.1008983 0.4453864 -0.03937008 0.1008983 0.6889764 -0.03937008 0 0.8203864 -0.03937008 0.1132315 1.176156 -0.03937008 0.2017965 1.057179 -0.03937008 0.2272649 1.277055 -0.03937008 0.4453864 1.221045 -0.03937008 0.4327458 1.279528 -0.03937008 0.6889764 1.377953 -0.03937008 0.6889764 1.277055 -0.03937008 0.9325663 1.221045 -0.03937008 0.9452069 1.176156 -0.03937008 1.176156 1.057179 -0.03937008 1.150688 0.8203864 -0.03937008 1.264721 0.9325663 -0.03937008 1.277055 0.5575664 -0.03937008 1.264721 0.5575664 -0.03937008 0.1132315 0.2017965 -0.03937008 0.2017965 0.3207737 -0.03937008 0.2272649 0.1008983 -0.03937008 0.4453864 0.1569081 -0.03937008 0.4327458 0.0984252 -0.03937008 0.6889764 0 -0.03937008 0.6889764 0.1569081 -0.03937008 0.9452069 0.1008983 -0.03937008 0.9325663 0.2017965 -0.03937008 1.176156 0.3207737 -0.03937008 1.150688 0.4453864 -0.03937008 1.277055 0.6889764 -0.03937008 1.377953</float_array>
                    <technique_common>
                        <accessor count="142" source="#ID125" stride="3">
                            <param name="X" type="float" />
                            <param name="Y" type="float" />
                            <param name="Z" type="float" />
                        </accessor>
                    </technique_common>
                </source>
                <source id="ID122">
                    <float_array id="ID126" count="426">0.7071068 2.79727e-31 0.7071068 0.5 -3.108078e-32 0.8660254 0.5 -3.108078e-32 0.8660254 0.7071068 2.79727e-31 0.7071068 0.258819 5.59454e-31 0.9659258 0.258819 5.59454e-31 0.9659258 0 -1 1.602374e-30 0 -1 1.602374e-30 0 -1 1.602374e-30 0 -1 1.602374e-30 0 -1 1.602374e-30 0 -1 1.602374e-30 0 -1 1.602374e-30 0 -1 1.602374e-30 0 -1 1.602374e-30 0 -1 1.602374e-30 0 -1 1.602374e-30 0 -1 1.602374e-30 0 -1 1.602374e-30 0 -1 1.602374e-30 0 -1 1.602374e-30 0 -1 1.602374e-30 0 -1 1.602374e-30 0 -1 1.602374e-30 0 -1 1.602374e-30 0 -1 1.602374e-30 0 -1 1.602374e-30 0 -1 1.602374e-30 0.8660254 9.790446e-31 0.5 0.8660254 9.790446e-31 0.5 -6.326888e-16 -9.20888e-18 1 -6.326888e-16 -9.20888e-18 1 0.9659258 -3.885097e-31 -0.258819 1 -1.20438e-30 4.90111e-16 0.9659258 -3.885097e-31 -0.258819 1 -1.20438e-30 4.90111e-16 0.9238795 1.664169e-16 -0.3826834 0.9238795 1.664169e-16 -0.3826834 0.9238795 1.664169e-16 -0.3826834 0.9238795 1.664169e-16 -0.3826834 0.9238795 1.664169e-16 -0.3826834 0.3826834 1.368497e-16 -0.9238795 0.3826834 1.368497e-16 -0.9238795 0.3826834 1.368497e-16 -0.9238795 0.3826834 1.368497e-16 -0.9238795 0.3826834 1.368497e-16 -0.9238795 -0.3826834 -1.998684e-16 -0.9238795 -0.3826834 -1.998684e-16 -0.9238795 -0.3826834 -1.998684e-16 -0.9238795 -0.3826834 -1.998684e-16 -0.9238795 -0.3826834 -1.998684e-16 -0.9238795 -0.9238795 5.609067e-17 -0.3826834 -0.9238795 5.609067e-17 -0.3826834 -0.9238795 5.609067e-17 -0.3826834 -0.9238795 5.609067e-17 -0.3826834 -0.9238795 5.609067e-17 -0.3826834 -0.9238795 5.913443e-17 0.3826834 -0.9238795 5.913443e-17 0.3826834 -0.9238795 5.913443e-17 0.3826834 -0.9238795 5.913443e-17 0.3826834 -0.9238795 5.913443e-17 0.3826834 -0.3826834 1.082971e-16 0.9238795 -0.3826834 1.082971e-16 0.9238795 -0.3826834 1.082971e-16 0.9238795 -0.3826834 1.082971e-16 0.9238795 -0.3826834 1.082971e-16 0.9238795 0.3826834 -4.529578e-16 0.9238795 0.3826834 -4.529578e-16 0.9238795 0.3826834 -4.529578e-16 0.9238795 0.3826834 -4.529578e-16 0.9238795 0.3826834 -4.529578e-16 0.9238795 -0.258819 -9.20888e-18 0.9659258 -0.258819 -9.20888e-18 0.9659258 -0.5 -7.148579e-31 0.8660254 -0.5 -7.148579e-31 0.8660254 -0.7071068 -2.175655e-31 0.7071068 -0.7071068 -2.175655e-31 0.7071068 -0.8660254 7.614791e-31 0.5 -0.8660254 7.614791e-31 0.5 -0.9659258 1.942549e-31 0.258819 -0.9659258 1.942549e-31 0.258819 -1 9.20888e-18 9.802221e-17 -1 9.20888e-18 9.802221e-17 -0.9659258 9.20888e-18 -0.258819 -0.9659258 9.20888e-18 -0.258819 -0.8660254 -5.905348e-31 -0.5 -0.8660254 -5.905348e-31 -0.5 -0.7071068 -7.148579e-31 -0.7071068 -0.7071068 -7.148579e-31 -0.7071068 -0.5 -1.149989e-30 -0.8660254 -0.5 -1.149989e-30 -0.8660254 -0.258819 -9.945849e-31 -0.9659258 -0.258819 -9.945849e-31 -0.9659258 5.346666e-17 -1.243231e-31 -1 5.346666e-17 -1.243231e-31 -1 0.258819 -2.79727e-31 -0.9659258 0.258819 -2.79727e-31 -0.9659258 0.5 -1.087827e-30 -0.8660254 0.5 -1.087827e-30 -0.8660254 0.7071068 -5.597264e-17 -0.7071068 0.7071068 -5.597264e-17 -0.7071068 0.8660254 -5.597264e-17 -0.5 0.8660254 -5.597264e-17 -0.5 0 -1 1.602374e-30 0 -1 1.602374e-30 0.9659258 -9.246532e-31 0.258819 0.9659258 -9.246532e-31 0.258819 0.9238795 -9.157133e-17 0.3826834 0.9238795 -9.157133e-17 0.3826834 0.9238795 -9.157133e-17 0.3826834 0.9238795 -9.157133e-17 0.3826834 0.9238795 -9.157133e-17 0.3826834 0 -1 1.602374e-30 0 -1 1.602374e-30 0 -1 1.602374e-30 0 -1 1.602374e-30 0 -1 1.602374e-30 0 -1 1.602374e-30 0 -1 1.602374e-30 0 -1 1.602374e-30 0 -1 1.602374e-30 0 -1 1.602374e-30 0 -1 1.602374e-30 0 -1 1.602374e-30 0 -1 1.602374e-30 0 -1 1.602374e-30 0 -1 1.602374e-30 0 -1 1.602374e-30 0 -1 1.602374e-30 0 -1 1.602374e-30 0 -1 1.602374e-30 0 -1 1.602374e-30 0 -1 1.602374e-30 0 -1 1.602374e-30 0 -1 1.602374e-30 0 -1 1.602374e-30 0 -1 1.602374e-30 0 -1 1.602374e-30 0 -1 1.602374e-30 0 -1 1.602374e-30 0 -1 1.602374e-30 0 -1 1.602374e-30</float_array>
                    <technique_common>
                        <accessor count="142" source="#ID126" stride="3">
                            <param name="X" type="float" />
                            <param name="Y" type="float" />
                            <param name="Z" type="float" />
                        </accessor>
                    </technique_common>
                </source>
                <source id="ID124">
                    <float_array id="ID127" count="376">0.01218244 -0.002666667 -6.028164e-17 0 -7.546047e-17 -0.002666667 0.01218244 0 0.01218244 -0.002666667 2.289835e-16 -3.469447e-18 2.185752e-16 -0.002666667 0.01218244 1.734723e-18 0.05488172 -0.01470551 0.03571712 1.665335e-16 0.06097294 -0.02525582 0.04626743 -0.006091222 0.01176734 0.003153049 7.632783e-17 1.665335e-16 0.02394978 0.003153049 -0.0191646 -0.01470551 -0.02525582 -0.02525582 -0.01055031 -0.006091222 -0.02840887 -0.0492056 -0.02525582 -0.06097294 -0.02840887 -0.03702316 -0.01055031 -0.08013753 -3.26128e-16 -0.08622876 -0.0191646 -0.07152324 0.04626743 -0.08013753 0.06097294 -0.06097294 0.03571712 -0.08622876 0.05488172 -0.07152324 0.01176734 -0.08938181 0.02394978 -0.08938181 0.01218244 -3.469447e-18 -2.654127e-16 -0.002666667 0.01218244 -0.002666667 -2.203099e-16 1.734723e-18 0.01218244 -0.002666667 1.228184e-15 0 1.221245e-15 -0.002666667 0.01218244 -1.734723e-18 0.01218244 0 2.775558e-16 -0.002666667 0.01218244 -0.002666667 2.775558e-16 0 0.03571712 -1.908196e-17 0.01785856 -0.01333333 0.03571712 -0.01333333 4.163336e-17 -0.01333333 6.938894e-17 -1.908196e-17 -3.608225e-16 -2.775558e-17 0.03571712 -0.01333333 0.03571712 -2.775558e-17 0.01785856 -0.01333333 -3.885781e-16 -0.01333333 -2.775558e-16 -2.428613e-17 0.03571712 -0.01333333 0.03571712 -2.428613e-17 0.01785856 -0.01333333 -2.775558e-16 -0.01333333 0.03571712 1.734723e-18 0.01785856 -0.01333333 -3.139849e-16 -0.01333333 -3.686287e-16 0 0.03571712 -1.734723e-18 0.01785856 -0.01333333 0.03571712 -0.01333333 -9.020562e-17 -0.01333333 -1.179612e-16 -1.734723e-18 0.01785856 -0.01333333 9.020562e-17 5.20417e-18 8.326673e-17 -0.01333333 0.03571712 0 0.03571712 -0.01333333 0.01785856 -0.01333333 -6.843484e-16 -6.765422e-17 -5.924081e-16 -0.01333333 0.03571712 -6.245005e-17 0.03571712 -0.01333333 0.01218244 -0.002666667 3.677614e-16 -6.938894e-18 3.677614e-16 -0.002666667 0.01218244 -5.20417e-18 0.01218244 -0.002666667 1.31839e-16 0 1.31839e-16 -0.002666667 0.01218244 -5.20417e-18 0.01218244 -0.002666667 -9.020562e-17 1.734723e-18 -9.020562e-17 -0.002666667 0.01218244 0 0.01218244 6.938894e-18 -2.844947e-16 -0.002666667 0.01218244 -0.002666667 -2.844947e-16 0 0.01218244 1.734723e-18 1.387779e-17 -0.002666667 0.01218244 -0.002666667 1.387779e-17 1.734723e-18 0.01218244 -3.469447e-18 -1.804112e-16 -0.002666667 0.01218244 -0.002666667 -1.804112e-16 0 0.01218244 1.734723e-18 1.040834e-16 -0.002666667 0.01218244 -0.002666667 1.040834e-16 1.734723e-18 0.01218244 1.040834e-17 1.179612e-16 -0.002666667 0.01218244 -0.002666667 9.020562e-17 1.734723e-18 0.01218244 -6.938894e-18 3.131176e-16 -0.002666667 0.01218244 -0.002666667 3.15286e-16 1.734723e-18 1.31839e-16 1.734723e-18 0.01218244 -0.002666667 0.01218244 1.040834e-17 1.856154e-16 -0.002666667 7.632783e-17 0 0.01218244 -0.002666667 0.01218244 -8.673617e-18 7.632783e-17 -0.002666667 -4.093947e-16 -1.196959e-16 0.01218244 -0.002666667 0.01218244 -1.144917e-16 -4.093947e-16 -0.002666667 -4.718448e-16 1.734723e-18 0.01218244 -0.002666667 0.01218244 -5.20417e-18 -4.718448e-16 -0.002666667 -1.110223e-16 0 0.01218244 -0.002666667 0.01218244 8.673617e-18 -1.110223e-16 -0.002666667 -1.387779e-17 -3.469447e-18 0.01218244 -0.002666667 0.01218244 -1.214306e-17 -1.387779e-17 -0.002666667 0.01218244 2.255141e-17 -2.63678e-16 -0.002666667 0.01218244 -0.002666667 -2.359224e-16 1.214306e-17 0.01218244 -6.938894e-18 1.387779e-16 -0.002666667 1.387779e-16 1.734723e-18 0.02394978 -0.003153049 2.775558e-17 -2.775558e-17 0.03450009 -0.009244271 0.01218244 5.551115e-17 0.01218244 0 4.510281e-16 -0.002666667 0.01218244 -0.002666667 4.510281e-16 0 0.01218244 5.20417e-18 -7.632783e-17 -0.002666667 0.03571712 6.938894e-18 0.01785856 -0.01333333 0.03571712 -0.01333333 -2.567391e-16 -0.01333333 -2.012279e-16 6.938894e-18 -0.03048647 -0.01262791 -1.734723e-17 3.122502e-17 -0.01785856 5.89806e-17 -0.02314685 -0.01049194 -0.04311438 -0.02525582 -0.03500894 -0.02376562 -0.04311438 -0.04311438 -0.03993707 -0.04087156 -0.03695518 -0.05842172 -0.04311438 -0.06097294 -0.03048647 -0.07360085 -0.02665386 -0.07294006 -0.01785856 -0.08622876 -0.01107342 -0.08155107 0.006700249 -0.08254922 1.977585e-16 -0.08622876 0.02314685 -0.07573681 -0.006700249 -0.003679537 0.01785856 3.469447e-17 0.01107342 -0.004677685 0.03048647 -0.01262791 0.02665386 -0.01328869 0.03695518 -0.02780704 0.04311438 -0.02525582 0.03993707 -0.0453572 0.04311438 -0.04311438 0.04311438 -0.06097294 0.03500894 -0.06246313 0.03048647 -0.07360085 0.01785856 -0.08622876</float_array>
                    <technique_common>
                        <accessor count="188" source="#ID127" stride="2">
                            <param name="S" type="float" />
                            <param name="T" type="float" />
                        </accessor>
                    </technique_common>
                </source>
                <vertices id="ID123">
                    <input semantic="POSITION" source="#ID121" />
                    <input semantic="NORMAL" source="#ID122" />
                </vertices>
                <triangles count="118" material="Material2">
                    <input offset="0" semantic="VERTEX" source="#ID123" />
                    <input offset="1" semantic="TEXCOORD" source="#ID124" />
                    <p>0 0 1 1 2 2 1 1 0 0 3 3 2 4 4 5 5 6 4 5 2 4 1 7 6 8 7 9 8 10 7 9 6 8 9 11 7 9 10 12 11 13 10 12 7 9 12 14 11 13 13 15 14 16 13 15 11 13 15 17 14 16 16 18 17 19 16 18 14 16 18 20 17 19 19 21 20 22 19 21 17 19 21 23 22 24 23 25 24 26 23 25 22 24 25 27 26 28 24 26 20 22 24 26 26 28 27 29 28 30 0 31 29 32 0 31 28 30 3 33 5 34 30 35 31 36 30 35 5 34 4 37 32 38 33 39 34 40 33 39 32 38 35 41 36 42 37 43 38 44 37 43 36 42 39 45 39 45 36 42 40 46 41 47 42 48 43 49 42 48 41 47 44 50 44 50 41 47 45 51 46 52 47 53 48 54 47 53 46 52 49 55 49 55 46 52 50 56 51 57 52 58 53 44 52 58 51 57 54 59 54 59 51 57 55 60 56 61 57 62 58 63 57 62 56 61 59 64 59 64 56 61 60 65 61 66 62 67 63 68 62 67 61 66 64 69 64 69 61 66 65 70 66 71 67 72 68 73 67 72 66 71 69 74 69 74 66 71 70 75 31 76 71 77 72 78 71 77 31 76 30 79 72 80 73 81 74 82 73 81 72 80 71 83 74 84 75 85 76 86 75 85 74 84 73 87 75 88 77 89 76 90 77 89 75 88 78 91 78 92 79 93 77 94 79 93 78 92 80 95 80 96 81 97 79 98 81 97 80 96 82 99 82 100 83 101 81 102 83 101 82 100 84 103 84 104 85 105 83 106 85 105 84 104 86 107 86 108 87 109 85 110 87 109 86 108 88 111 89 112 87 113 88 114 87 113 89 112 90 115 91 116 90 117 89 118 90 117 91 116 92 119 93 120 92 121 91 122 92 121 93 120 94 123 95 124 94 125 93 126 94 125 95 124 96 127 97 128 96 129 95 130 96 129 97 128 98 131 99 132 98 133 97 134 98 133 99 132 100 135 99 136 101 137 100 138 101 137 99 136 102 139 102 140 34 141 101 94 34 141 102 140 32 142 103 143 8 144 23 145 8 144 103 143 104 146 105 147 29 148 106 149 29 148 105 147 28 150 35 151 106 152 33 102 106 152 35 151 105 33 107 153 108 154 109 155 108 154 107 153 110 156 110 156 107 153 111 157 112 158 113 159 114 160 113 159 112 158 115 161 115 161 112 158 116 162 115 161 116 162 117 163 117 163 116 162 118 164 117 163 118 164 119 165 119 165 118 164 120 166 120 166 118 164 121 167 120 166 121 167 122 168 120 166 122 168 123 169 123 169 122 168 124 170 123 169 124 170 125 171 125 171 124 170 126 172 126 172 124 170 127 173 126 172 127 173 128 174 113 159 129 175 130 176 129 175 113 159 115 161 130 176 129 175 131 177 130 176 131 177 132 178 132 178 131 177 133 179 132 178 133 179 134 180 132 178 134 180 135 181 135 181 134 180 136 182 135 181 136 182 137 183 137 183 136 182 138 184 138 184 136 182 139 185 138 184 139 185 128 174 138 184 128 174 140 186 140 186 128 174 127 173 140 186 127 173 141 187</p>
                </triangles>
            </mesh>
        </geometry>
        <geometry id="ID128">
            <mesh>
                <source id="ID134">
                    <float_array id="ID138" count="126">1.057179 -13.09055 0.2272649 0.5575664 -13.09055 0.1132315 0.8203864 -13.09055 0.1132315 0.3207737 -13.09055 0.2272649 0.1569081 -13.09055 0.4327458 1.221045 -13.09055 0.4327458 0.0984252 -13.09055 0.6889764 1.279528 -13.09055 0.6889764 0.1569081 -13.09055 0.9452069 1.221045 -13.09055 0.9452069 0.3207737 -13.09055 1.150688 1.057179 -13.09055 1.150688 0.5575664 -13.09055 1.264721 0.8203864 -13.09055 1.264721 1.221045 -0.03937008 0.9452069 1.057179 -13.09055 1.150688 1.221045 -13.09055 0.9452069 1.057179 -0.03937008 1.150688 0.8203864 -0.03937008 1.264721 0.8203864 -13.09055 1.264721 0.5575664 -0.03937008 1.264721 0.5575664 -13.09055 1.264721 0.3207737 -0.03937008 1.150688 0.3207737 -13.09055 1.150688 0.1569081 -13.09055 0.9452069 0.1569081 -0.03937008 0.9452069 0.0984252 -13.09055 0.6889764 0.0984252 -0.03937008 0.6889764 0.1569081 -13.09055 0.4327458 0.1569081 -0.03937008 0.4327458 0.3207737 -13.09055 0.2272649 0.3207737 -0.03937008 0.2272649 0.5575664 -0.03937008 0.1132315 0.5575664 -13.09055 0.1132315 0.8203864 -0.03937008 0.1132315 0.8203864 -13.09055 0.1132315 1.057179 -0.03937008 0.2272649 1.057179 -13.09055 0.2272649 1.221045 -13.09055 0.4327458 1.221045 -0.03937008 0.4327458 1.279528 -13.09055 0.6889764 1.279528 -0.03937008 0.6889764</float_array>
                    <technique_common>
                        <accessor count="42" source="#ID138" stride="3">
                            <param name="X" type="float" />
                            <param name="Y" type="float" />
                            <param name="Z" type="float" />
                        </accessor>
                    </technique_common>
                </source>
                <source id="ID135">
                    <float_array id="ID139" count="126">0 -1 0 0 -1 0 0 -1 0 0 -1 0 0 -1 0 0 -1 0 0 -1 0 0 -1 0 0 -1 0 0 -1 0 0 -1 0 0 -1 0 0 -1 0 0 -1 0 0.9009689 0 0.4338837 0.6234898 0 0.7818315 0.9009689 0 0.4338837 0.6234898 0 0.7818315 0.2225209 0 0.9749279 0.2225209 0 0.9749279 -0.2225209 0 0.9749279 -0.2225209 0 0.9749279 -0.6234898 0 0.7818315 -0.6234898 0 0.7818315 -0.9009689 0 0.4338837 -0.9009689 0 0.4338837 -1 0 3.624832e-17 -1 0 3.624832e-17 -0.9009689 0 -0.4338837 -0.9009689 0 -0.4338837 -0.6234898 0 -0.7818315 -0.6234898 0 -0.7818315 -0.2225209 0 -0.9749279 -0.2225209 0 -0.9749279 0.2225209 0 -0.9749279 0.2225209 0 -0.9749279 0.6234898 0 -0.7818315 0.6234898 0 -0.7818315 0.9009689 0 -0.4338837 0.9009689 0 -0.4338837 1 0 1.812416e-17 1 0 1.812416e-17</float_array>
                    <technique_common>
                        <accessor count="42" source="#ID139" stride="3">
                            <param name="X" type="float" />
                            <param name="Y" type="float" />
                            <param name="Z" type="float" />
                        </accessor>
                    </technique_common>
                </source>
                <source id="ID137">
                    <float_array id="ID140" count="138">0.2685235 0.05772528 0.1416219 0.02876081 0.2083781 0.02876081 0.08147653 0.05772528 0.03985467 0.1099174 0.3101453 0.1099174 0.025 0.175 0.325 0.175 0.03985467 0.2400826 0.3101453 0.2400826 0.08147653 0.2922747 0.2685235 0.2922747 0.1416219 0.3212392 0.2083781 0.3212392 0.875158 -3.315 0.9424778 1.776357e-15 0.875158 1.776357e-15 0.9424778 -3.315 8.326673e-17 8.881784e-16 0.06731984 -3.315 0.06731984 8.881784e-16 8.326673e-17 -3.315 0.06731984 0 0.1346397 -3.315 0.1346397 0 0.06731984 -3.315 0.1346397 8.881784e-16 0.2019595 -3.315 0.2019595 8.881784e-16 0.1346397 -3.315 0.2019595 -3.315 0.2692794 4.440892e-16 0.2019595 4.440892e-16 0.2692794 -3.315 0.2692794 -3.315 0.3365992 0 0.2692794 0 0.3365992 -3.315 0.3365992 -3.315 0.4039191 8.881784e-16 0.3365992 8.881784e-16 0.4039191 -3.315 0.4039191 -3.315 0.4712389 0 0.4039191 0 0.4712389 -3.315 0.5385587 -3.315 0.4712389 -3.315 0.5385587 0 0.6058786 -3.315 0.5385587 -1.332268e-15 0.5385587 -3.315 0.6058786 -1.332268e-15 0.6731984 -3.315 0.6058786 8.881784e-16 0.6058786 -3.315 0.6731984 8.881784e-16 0.6731984 -3.315 0.7405183 1.776357e-15 0.6731984 1.776357e-15 0.7405183 -3.315 0.7405183 -3.315 0.8078381 4.440892e-16 0.7405183 4.440892e-16 0.8078381 -3.315 0.8078381 -3.315 0.875158 -4.440892e-16 0.8078381 -4.440892e-16 0.875158 -3.315</float_array>
                    <technique_common>
                        <accessor count="69" source="#ID140" stride="2">
                            <param name="S" type="float" />
                            <param name="T" type="float" />
                        </accessor>
                    </technique_common>
                </source>
                <vertices id="ID136">
                    <input semantic="POSITION" source="#ID134" />
                    <input semantic="NORMAL" source="#ID135" />
                </vertices>
                <triangles count="40" material="Material2">
                    <input offset="0" semantic="VERTEX" source="#ID136" />
                    <input offset="1" semantic="TEXCOORD" source="#ID137" />
                    <p>0 0 1 1 2 2 1 1 0 0 3 3 3 3 0 0 4 4 4 4 0 0 5 5 4 4 5 5 6 6 6 6 5 5 7 7 6 6 7 7 8 8 8 8 7 7 9 9 8 8 9 9 10 10 10 10 9 9 11 11 10 10 11 11 12 12 12 12 11 11 13 13 14 14 15 15 16 16 15 15 14 14 17 17 15 18 18 19 19 20 18 19 15 18 17 21 19 22 20 23 21 24 20 23 19 22 18 25 21 26 22 27 23 28 22 27 21 26 20 29 22 30 24 31 23 32 24 31 22 30 25 33 25 34 26 35 24 36 26 35 25 34 27 37 27 38 28 39 26 40 28 39 27 38 29 41 29 42 30 43 28 44 30 43 29 42 31 45 32 46 30 43 31 47 30 43 32 46 33 48 34 49 33 50 32 51 33 50 34 49 35 52 36 53 35 54 34 55 35 54 36 53 37 56 36 57 38 58 37 59 38 58 36 57 39 60 39 61 40 62 38 63 40 62 39 61 41 64 41 65 16 66 40 67 16 66 41 65 14 68</p>
                </triangles>
            </mesh>
        </geometry>
    </library_geometries>
    <library_materials>
        <material id="ID6" name="screw_normal">
            <instance_effect url="#ID7" />
        </material>
        <material id="ID27" name="metal">
            <instance_effect url="#ID28" />
        </material>
        <material id="ID66" name="mount">
            <instance_effect url="#ID67" />
        </material>
        <material id="ID129" name="metal_galvanized">
            <instance_effect url="#ID130" />
        </material>
    </library_materials>
    <library_effects>
        <effect id="ID7">
            <profile_COMMON>
                <newparam sid="ID9">
                    <surface type="2D">
                        <init_from>ID8</init_from>
                    </surface>
                </newparam>
                <newparam sid="ID10">
                    <sampler2D>
                        <source>ID9</source>
                    </sampler2D>
                </newparam>
                <technique sid="COMMON">
                    <lambert>
                        <diffuse>
                            <texture texture="ID10" texcoord="UVSET0" />
                        </diffuse>
                    </lambert>
                </technique>
            </profile_COMMON>
        </effect>
        <effect id="ID28">
            <profile_COMMON>
                <newparam sid="ID30">
                    <surface type="2D">
                        <init_from>ID29</init_from>
                    </surface>
                </newparam>
                <newparam sid="ID31">
                    <sampler2D>
                        <source>ID30</source>
                    </sampler2D>
                </newparam>
                <technique sid="COMMON">
                    <lambert>
                        <diffuse>
                            <texture texture="ID31" texcoord="UVSET0" />
                        </diffuse>
                    </lambert>
                </technique>
            </profile_COMMON>
        </effect>
        <effect id="ID67">
            <profile_COMMON>
                <newparam sid="ID69">
                    <surface type="2D">
                        <init_from>ID68</init_from>
                    </surface>
                </newparam>
                <newparam sid="ID70">
                    <sampler2D>
                        <source>ID69</source>
                    </sampler2D>
                </newparam>
                <technique sid="COMMON">
                    <lambert>
                        <diffuse>
                            <texture texture="ID70" texcoord="UVSET0" />
                        </diffuse>
                    </lambert>
                </technique>
            </profile_COMMON>
        </effect>
        <effect id="ID130">
            <profile_COMMON>
                <newparam sid="ID132">
                    <surface type="2D">
                        <init_from>ID131</init_from>
                    </surface>
                </newparam>
                <newparam sid="ID133">
                    <sampler2D>
                        <source>ID132</source>
                    </sampler2D>
                </newparam>
                <technique sid="COMMON">
                    <lambert>
                        <diffuse>
                            <texture texture="ID133" texcoord="UVSET0" />
                        </diffuse>
                    </lambert>
                </technique>
            </profile_COMMON>
        </effect>
    </library_effects>
    <library_images>
        <image id="ID8">
            <init_from>panel_2x2_35deg/screw_normal.png</init_from>
        </image>
        <image id="ID29">
            <init_from>panel_2x2_35deg/metal.jpg</init_from>
        </image>
        <image id="ID68">
            <init_from>panel_2x2_35deg/mount.jpg</init_from>
        </image>
        <image id="ID131">
            <init_from>panel_2x2_35deg/metal_galvanized.jpg</init_from>
        </image>
    </library_images>
    <scene>
        <instance_visual_scene url="#ID2" />
    </scene>
</COLLADA>
