<?xml version="1.0" encoding="UTF-8" standalone="no" ?>
<COLLADA xmlns="http://www.collada.org/2005/11/COLLADASchema" version="1.4.1">
    <asset>
        <contributor>
            <authoring_tool>SketchUp 17.2.2555</authoring_tool>
        </contributor>
        <created>2026-05-21T02:00:35Z</created>
        <modified>2026-05-21T02:00:35Z</modified>
        <unit meter="0.0254" name="inch" />
        <up_axis>Z_UP</up_axis>
    </asset>
    <library_cameras>
        <camera id="ID1" name="skp_camera_Last_Saved_SketchUp_View">
            <optics>
                <technique_common>
                    <perspective>
                        <yfov>35</yfov>
                        <aspect_ratio>0</aspect_ratio>
                        <znear>0.1</znear>
                        <zfar>2</zfar>
                    </perspective>
                </technique_common>
            </optics>
        </camera>
    </library_cameras>
    <library_visual_scenes>
        <visual_scene id="ID2">
            <node name="SketchUp">
                <node name="skp_camera_Last_Saved_SketchUp_View">
                    <matrix>0.7547358 0.1598286 -0.6362615 -2.646794 -0.6560289 0.1838766 -0.7319942 -3.733952 0 0.9698681 0.2436305 2.174718 0 0 0 1</matrix>
                    <instance_camera url="#ID1" />
                </node>
                <node id="ID3" name="instance_0">
                    <matrix>1 0 0 0.5905512 0 1 0 -0.1181102 0 0 1 0.5804409 0 0 0 1</matrix>
                    <instance_node url="#ID4" />
                </node>
                <node id="ID55" name="instance_1">
                    <matrix>1 0 0 0 0 1 0 0 0 0 1 0 0 0 0 1</matrix>
                    <instance_node url="#ID56" />
                </node>
            </node>
        </visual_scene>
    </library_visual_scenes>
    <library_nodes>
        <node id="ID4" name="pilot">
            <instance_geometry url="#ID5">
                <bind_material>
                    <technique_common>
                        <instance_material symbol="Material2" target="#ID6">
                            <bind_vertex_input semantic="UVSET0" input_semantic="TEXCOORD" input_set="0" />
                        </instance_material>
                    </technique_common>
                </bind_material>
            </instance_geometry>
            <instance_geometry url="#ID13">
                <bind_material>
                    <technique_common>
                        <instance_material symbol="Material2" target="#ID14">
                            <bind_vertex_input semantic="UVSET0" input_semantic="TEXCOORD" input_set="0" />
                        </instance_material>
                    </technique_common>
                </bind_material>
            </instance_geometry>
            <instance_geometry url="#ID26">
                <bind_material>
                    <technique_common>
                        <instance_material symbol="Material2" target="#ID14">
                            <bind_vertex_input semantic="UVSET0" input_semantic="TEXCOORD" input_set="0" />
                        </instance_material>
                    </technique_common>
                </bind_material>
            </instance_geometry>
            <instance_geometry url="#ID34">
                <bind_material>
                    <technique_common>
                        <instance_material symbol="Material2" target="#ID14">
                            <bind_vertex_input semantic="UVSET0" input_semantic="TEXCOORD" input_set="0" />
                        </instance_material>
                    </technique_common>
                </bind_material>
            </instance_geometry>
            <instance_geometry url="#ID42">
                <bind_material>
                    <technique_common>
                        <instance_material symbol="Material2" target="#ID43">
                            <bind_vertex_input semantic="UVSET0" input_semantic="TEXCOORD" input_set="0" />
                        </instance_material>
                    </technique_common>
                </bind_material>
            </instance_geometry>
        </node>
        <node id="ID56" name="placard">
            <instance_geometry url="#ID57">
                <bind_material>
                    <technique_common>
                        <instance_material symbol="Material2" target="#ID58">
                            <bind_vertex_input semantic="UVSET0" input_semantic="TEXCOORD" input_set="0" />
                        </instance_material>
                    </technique_common>
                </bind_material>
            </instance_geometry>
            <instance_geometry url="#ID70">
                <bind_material>
                    <technique_common>
                        <instance_material symbol="Material2" target="#ID71">
                            <bind_vertex_input semantic="UVSET0" input_semantic="TEXCOORD" input_set="0" />
                        </instance_material>
                    </technique_common>
                </bind_material>
            </instance_geometry>
            <instance_geometry url="#ID83">
                <bind_material>
                    <technique_common>
                        <instance_material symbol="Material2" target="#ID58">
                            <bind_vertex_input semantic="UVSET0" input_semantic="TEXCOORD" input_set="0" />
                        </instance_material>
                    </technique_common>
                </bind_material>
            </instance_geometry>
            <instance_geometry url="#ID91">
                <bind_material>
                    <technique_common>
                        <instance_material symbol="Material2" target="#ID92">
                            <bind_vertex_input semantic="UVSET0" input_semantic="TEXCOORD" input_set="0" />
                        </instance_material>
                    </technique_common>
                </bind_material>
            </instance_geometry>
        </node>
    </library_nodes>
    <library_geometries>
        <geometry id="ID5">
            <mesh>
                <source id="ID8">
                    <float_array id="ID11" count="432">-0.5317155 -0.007874016 0.1424728 -0.4658126 -0.0177126 0.268937 -0.5195464 -0.0177126 0.139212 -0.4767231 -0.007874016 0.2752362 -0.4767231 -0.007874016 0.2752362 -0.5317155 -0.04335433 0.1424728 -0.4767231 -0.04335433 0.2752362 -0.5317155 -0.007874016 0.1424728 -0.3803344 -0.0177126 0.3803344 -0.3892428 -0.007874016 0.3892428 -0.537874 -0.0177126 -1.110223e-16 -0.5504724 -0.007874016 -1.110223e-16 -0.3892428 -0.007874016 0.3892428 -0.3892428 -0.04335433 0.3892428 -0.5504724 -0.04335433 -1.110223e-16 -0.5504724 -0.007874016 -1.110223e-16 -0.4659059 -0.03351575 0.2689909 -0.5317155 -0.04335433 0.1424728 -0.5196505 -0.03351575 0.1392399 -0.4767231 -0.04335433 0.2752362 -0.268937 -0.0177126 0.4658126 -0.2752362 -0.007874016 0.4767231 -0.5195464 -0.0177126 -0.139212 -0.5317155 -0.007874016 -0.1424728 -0.2752362 -0.04335433 0.4767231 -0.2752362 -0.007874016 0.4767231 -0.3804106 -0.03351575 0.3804106 -0.3892428 -0.04335433 0.3892428 -0.5317155 -0.04335433 -0.1424728 -0.5317155 -0.007874016 -0.1424728 -0.5504724 -0.04335433 -1.110223e-16 -0.5379818 -0.03351575 -2.220446e-16 -0.139212 -0.0177126 0.5195464 -0.1424728 -0.007874016 0.5317155 -0.4658126 -0.0177126 -0.268937 -0.4767231 -0.007874016 -0.2752362 -0.2689909 -0.03351575 0.4659059 -0.2752362 -0.04335433 0.4767231 -0.1424728 -0.04335433 0.5317155 -0.1424728 -0.007874016 0.5317155 -0.4767231 -0.04335433 -0.2752362 -0.4767231 -0.007874016 -0.2752362 -0.5196505 -0.03351575 -0.1392399 -0.5317155 -0.04335433 -0.1424728 0 -0.0177126 0.537874 0 -0.007874016 0.5504724 -0.3803344 -0.0177126 -0.3803344 -0.3892428 -0.007874016 -0.3892428 -0.1392399 -0.03351575 0.5196505 -0.1424728 -0.04335433 0.5317155 0 -0.04335433 0.5504724 0 -0.007874016 0.5504724 -0.3892428 -0.04335433 -0.3892428 -0.3892428 -0.007874016 -0.3892428 -0.4659059 -0.03351575 -0.2689909 -0.4767231 -0.04335433 -0.2752362 0.1424728 -0.007874016 0.5317155 0.139212 -0.0177126 0.5195464 -0.268937 -0.0177126 -0.4658126 -0.2752362 -0.007874016 -0.4767231 -8.881784e-16 -0.03351575 0.5379818 0 -0.04335433 0.5504724 0.1424728 -0.04335433 0.5317155 0.1424728 -0.007874016 0.5317155 -0.2752362 -0.007874016 -0.4767231 -0.2752362 -0.04335433 -0.4767231 -0.3804106 -0.03351575 -0.3804106 -0.3892428 -0.04335433 -0.3892428 0.2752362 -0.007874016 0.4767231 0.268937 -0.0177126 0.4658126 -0.139212 -0.0177126 -0.5195464 -0.1424728 -0.007874016 -0.5317155 0.1424728 -0.04335433 0.5317155 0.1392399 -0.03351575 0.5196505 0.2752362 -0.04335433 0.4767231 0.2752362 -0.007874016 0.4767231 -0.1424728 -0.007874016 -0.5317155 -0.1424728 -0.04335433 -0.5317155 -0.2689909 -0.03351575 -0.4659059 -0.2752362 -0.04335433 -0.4767231 0.3892428 -0.007874016 0.3892428 0.3803344 -0.0177126 0.3803344 0 -0.0177126 -0.537874 0 -0.007874016 -0.5504724 0.2752362 -0.04335433 0.4767231 0.2689909 -0.03351575 0.4659059 0.3892428 -0.04335433 0.3892428 0.3892428 -0.007874016 0.3892428 0 -0.007874016 -0.5504724 0 -0.04335433 -0.5504724 -0.1392399 -0.03351575 -0.5196505 -0.1424728 -0.04335433 -0.5317155 0.4767231 -0.007874016 0.2752362 0.4658126 -0.0177126 0.268937 0.1424728 -0.007874016 -0.5317155 0.139212 -0.0177126 -0.5195464 0.3892428 -0.04335433 0.3892428 0.3804106 -0.03351575 0.3804106 0.4767231 -0.007874016 0.2752362 0.4767231 -0.04335433 0.2752362 0.1424728 -0.007874016 -0.5317155 0.1424728 -0.04335433 -0.5317155 6.661338e-16 -0.03351575 -0.5379818 0 -0.04335433 -0.5504724 0.5317155 -0.007874016 0.1424728 0.5195464 -0.0177126 0.139212 0.2752362 -0.007874016 -0.4767231 0.268937 -0.0177126 -0.4658126 0.4767231 -0.04335433 0.2752362 0.4659059 -0.03351575 0.2689909 0.5317155 -0.007874016 0.1424728 0.5317155 -0.04335433 0.1424728 0.2752362 -0.007874016 -0.4767231 0.2752362 -0.04335433 -0.4767231 0.1424728 -0.04335433 -0.5317155 0.1392399 -0.03351575 -0.5196505 0.5504724 -0.007874016 0 0.537874 -0.0177126 0 0.3892428 -0.007874016 -0.3892428 0.3803344 -0.0177126 -0.3803344 0.5317155 -0.04335433 0.1424728 0.5196505 -0.03351575 0.1392399 0.5504724 -0.007874016 0 0.5504724 -0.04335433 0 0.3892428 -0.007874016 -0.3892428 0.3892428 -0.04335433 -0.3892428 0.2752362 -0.04335433 -0.4767231 0.2689909 -0.03351575 -0.4659059 0.5195464 -0.0177126 -0.139212 0.5317155 -0.007874016 -0.1424728 0.4767231 -0.007874016 -0.2752362 0.4658126 -0.0177126 -0.268937 0.5379818 -0.03351575 5.551115e-16 0.5504724 -0.04335433 0 0.5317155 -0.007874016 -0.1424728 0.5317155 -0.04335433 -0.1424728 0.4767231 -0.04335433 -0.2752362 0.4767231 -0.007874016 -0.2752362 0.3892428 -0.04335433 -0.3892428 0.3804106 -0.03351575 -0.3804106 0.5196505 -0.03351575 -0.1392399 0.5317155 -0.04335433 -0.1424728 0.4767231 -0.04335433 -0.2752362 0.4659059 -0.03351575 -0.2689909</float_array>
                    <technique_common>
                        <accessor count="144" source="#ID11" stride="3">
                            <param name="X" type="float" />
                            <param name="Y" type="float" />
                            <param name="Z" type="float" />
                        </accessor>
                    </technique_common>
                </source>
                <source id="ID9">
                    <float_array id="ID12" count="432">0.5945187 0.7881438 -0.1593008 0.5330309 0.7881438 -0.3077455 0.5945187 0.7881438 -0.1593008 0.5330309 0.7881438 -0.3077455 -0.8660254 7.748474e-32 0.5 -0.9659258 8.548474e-32 0.258819 -0.8660254 7.748474e-32 0.5 -0.9659258 8.548474e-32 0.258819 0.4352179 0.7881438 -0.4352179 0.4352179 0.7881438 -0.4352179 0.6154911 0.7881438 1.58044e-16 0.6154911 0.7881438 1.660084e-16 -0.7071068 -5.148425e-32 0.7071068 -0.7071068 -5.148425e-32 0.7071068 -1 -1.043899e-31 -2.762444e-16 -1 -1.043899e-31 -2.762444e-16 0.535874 -0.785569 -0.309387 0.5976898 -0.785569 -0.1601505 0.5976898 -0.785569 -0.1601505 0.535874 -0.785569 -0.309387 0.3077455 0.7881438 -0.5330309 0.3077455 0.7881438 -0.5330309 0.5945187 0.7881438 0.1593008 0.5945187 0.7881438 0.1593008 -0.5 5.550954e-32 0.8660254 -0.5 5.550954e-32 0.8660254 0.4375393 -0.785569 -0.4375393 0.4375393 -0.785569 -0.4375393 -0.9659258 -1.02672e-31 -0.258819 -0.9659258 -1.02672e-31 -0.258819 0.618774 -0.785569 -1.138121e-16 0.618774 -0.785569 6.406456e-16 0.1593008 0.7881438 -0.5945187 0.1593008 0.7881438 -0.5945187 0.5330309 0.7881438 0.3077455 0.5330309 0.7881438 0.3077455 0.309387 -0.785569 -0.535874 0.309387 -0.785569 -0.535874 -0.258819 9.899379e-32 0.9659258 -0.258819 9.899379e-32 0.9659258 -0.8660254 4.176635e-32 -0.5 -0.8660254 4.176635e-32 -0.5 0.5976898 -0.785569 0.1601505 0.5976898 -0.785569 0.1601505 4.075871e-16 0.7881438 -0.6154911 3.699616e-16 0.7881438 -0.6154911 0.4352179 0.7881438 0.4352179 0.4352179 0.7881438 0.4352179 0.1601505 -0.785569 -0.5976898 0.1601505 -0.785569 -0.5976898 -5.524888e-16 1.427893e-47 1 -5.524888e-16 1.427893e-47 1 -0.7071068 8.35327e-32 -0.7071068 -0.7071068 8.35327e-32 -0.7071068 0.535874 -0.785569 0.309387 0.535874 -0.785569 0.309387 -0.1593008 0.7881438 -0.5945187 -0.1593008 0.7881438 -0.5945187 0.3077455 0.7881438 0.5330309 0.3077455 0.7881438 0.5330309 3.46115e-15 -0.785569 -0.618774 -2.385312e-15 -0.785569 -0.618774 0.258819 -1.179115e-32 0.9659258 0.258819 -1.179115e-32 0.9659258 -0.5 1.32749e-32 -0.8660254 -0.5 1.32749e-32 -0.8660254 0.4375393 -0.785569 0.4375393 0.4375393 -0.785569 0.4375393 -0.3077455 0.7881438 -0.5330309 -0.3077455 0.7881438 -0.5330309 0.1593008 0.7881438 0.5945187 0.1593008 0.7881438 0.5945187 -0.1601505 -0.785569 -0.5976898 -0.1601505 -0.785569 -0.5976898 0.5 -5.18396e-32 0.8660254 0.5 -5.18396e-32 0.8660254 -0.258819 -1.328813e-31 -0.9659258 -0.258819 -1.328813e-31 -0.9659258 0.309387 -0.785569 0.535874 0.309387 -0.785569 0.535874 -0.4352179 0.7881438 -0.4352179 -0.4352179 0.7881438 -0.4352179 3.327241e-17 0.7881438 0.6154911 2.845859e-17 0.7881438 0.6154911 -0.309387 -0.785569 -0.535874 -0.309387 -0.785569 -0.535874 0.7071068 -8.35327e-32 0.7071068 0.7071068 -8.35327e-32 0.7071068 -5.346666e-17 -2.122156e-31 -1 -5.346666e-17 -2.122156e-31 -1 0.1601505 -0.785569 0.5976898 0.1601505 -0.785569 0.5976898 -0.5330309 0.7881438 -0.3077455 -0.5330309 0.7881438 -0.3077455 -0.1593008 0.7881438 0.5945187 -0.1593008 0.7881438 0.5945187 -0.4375393 -0.785569 -0.4375393 -0.4375393 -0.785569 -0.4375393 0.8660254 1.694484e-32 0.5 0.8660254 1.694484e-32 0.5 0.258819 -6.926099e-32 -0.9659258 0.258819 -6.926099e-32 -0.9659258 -2.429461e-15 -0.785569 0.618774 1.958517e-15 -0.785569 0.618774 -0.5945187 0.7881438 -0.1593008 -0.5945187 0.7881438 -0.1593008 -0.3077455 0.7881438 0.5330309 -0.3077455 0.7881438 0.5330309 -0.535874 -0.785569 -0.309387 -0.535874 -0.785569 -0.309387 0.9659258 5.871119e-32 0.258819 0.9659258 5.871119e-32 0.258819 0.5 -3.201653e-33 -0.8660254 0.5 -3.201653e-33 -0.8660254 -0.1601505 -0.785569 0.5976898 -0.1601505 -0.785569 0.5976898 -0.6154911 0.7881438 -1.138343e-16 -0.6154911 0.7881438 -1.663621e-16 -0.4352179 0.7881438 0.4352179 -0.4352179 0.7881438 0.4352179 -0.5976898 -0.785569 -0.1601505 -0.5976898 -0.785569 -0.1601505 1 -1.043899e-31 1.871333e-16 1 -1.043899e-31 1.871333e-16 0.7071068 -8.35327e-32 -0.7071068 0.7071068 -8.35327e-32 -0.7071068 -0.309387 -0.785569 0.535874 -0.309387 -0.785569 0.535874 -0.5945187 0.7881438 0.1593008 -0.5945187 0.7881438 0.1593008 -0.5330309 0.7881438 0.3077455 -0.5330309 0.7881438 0.3077455 -0.618774 -0.785569 -2.104978e-15 -0.618774 -0.785569 1.517495e-15 0.9659258 -1.731743e-31 -0.258819 0.9659258 -1.731743e-31 -0.258819 0.8660254 -1.105508e-31 -0.5 0.8660254 -1.105508e-31 -0.5 -0.4375393 -0.785569 0.4375393 -0.4375393 -0.785569 0.4375393 -0.5976898 -0.785569 0.1601505 -0.5976898 -0.785569 0.1601505 -0.535874 -0.785569 0.309387 -0.535874 -0.785569 0.309387</float_array>
                    <technique_common>
                        <accessor count="144" source="#ID12" stride="3">
                            <param name="X" type="float" />
                            <param name="Y" type="float" />
                            <param name="Z" type="float" />
                        </accessor>
                    </technique_common>
                </source>
                <vertices id="ID10">
                    <input semantic="POSITION" source="#ID8" />
                    <input semantic="NORMAL" source="#ID9" />
                </vertices>
                <triangles count="144" material="Material2">
                    <input offset="0" semantic="VERTEX" source="#ID10" />
                    <p>0 1 2 1 0 3 4 5 6 5 4 7 3 8 1 8 3 9 0 10 11 10 0 2 12 6 13 6 12 4 7 14 5 14 7 15 16 17 18 17 16 19 9 20 8 20 9 21 11 22 23 22 11 10 24 12 13 12 24 25 26 19 16 19 26 27 15 28 14 28 15 29 18 30 31 30 18 17 21 32 20 32 21 33 23 34 35 34 23 22 36 27 26 27 36 37 38 25 24 25 38 39 29 40 28 40 29 41 42 30 43 30 42 31 33 44 32 44 33 45 35 46 47 46 35 34 48 37 36 37 48 49 50 39 38 39 50 51 41 52 40 52 41 53 54 43 55 43 54 42 44 56 57 56 44 45 47 58 59 58 47 46 60 49 48 49 60 61 62 51 50 51 62 63 64 52 53 52 64 65 66 55 67 55 66 54 57 68 69 68 57 56 59 70 71 70 59 58 72 60 73 60 72 61 74 63 62 63 74 75 76 65 64 65 76 77 78 67 79 67 78 66 69 80 81 80 69 68 71 82 83 82 71 70 84 73 85 73 84 72 86 75 74 75 86 87 88 77 76 77 88 89 90 79 91 79 90 78 81 92 93 92 81 80 82 94 83 94 82 95 96 85 97 85 96 84 98 86 99 86 98 87 100 89 88 89 100 101 102 91 103 91 102 90 93 104 105 104 93 92 95 106 94 106 95 107 108 97 109 97 108 96 110 99 111 99 110 98 112 101 100 101 112 113 114 102 103 102 114 115 105 116 117 116 105 104 107 118 106 118 107 119 120 109 121 109 120 108 122 111 123 111 122 110 124 113 112 113 124 125 126 115 114 115 126 127 128 116 129 116 128 117 119 130 118 130 119 131 120 132 133 132 120 121 134 123 135 123 134 122 124 136 125 136 124 137 138 127 126 127 138 139 131 129 130 129 131 128 133 140 141 140 133 132 137 135 136 135 137 134 142 139 138 139 142 143 141 143 142 143 141 140</p>
                </triangles>
            </mesh>
        </geometry>
        <geometry id="ID13">
            <mesh>
                <source id="ID19">
                    <float_array id="ID23" count="144">-0.268937 -0.0177126 0.4658126 -0.3803344 0 0.3803344 -0.3803344 -0.0177126 0.3803344 -0.268937 0 0.4658126 -0.4658126 -0.0177126 0.268937 -0.4658126 0 0.268937 -0.139212 -0.0177126 0.5195464 -0.139212 0 0.5195464 -0.5195464 -0.0177126 0.139212 -0.5195464 0 0.139212 0 -0.0177126 0.537874 0 0 0.537874 -0.537874 -0.0177126 -1.110223e-16 -0.537874 0 -1.110223e-16 0.139212 -0.0177126 0.5195464 0.139212 0 0.5195464 -0.5195464 -0.0177126 -0.139212 -0.5195464 0 -0.139212 0.268937 -0.0177126 0.4658126 0.268937 0 0.4658126 -0.4658126 -0.0177126 -0.268937 -0.4658126 0 -0.268937 0.3803344 -0.0177126 0.3803344 0.3803344 0 0.3803344 -0.3803344 -0.0177126 -0.3803344 -0.3803344 0 -0.3803344 0.4658126 0 0.268937 0.4658126 -0.0177126 0.268937 -0.268937 0 -0.4658126 -0.268937 -0.0177126 -0.4658126 0.5195464 0 0.139212 0.5195464 -0.0177126 0.139212 -0.139212 0 -0.5195464 -0.139212 -0.0177126 -0.5195464 0.537874 0 0 0.537874 -0.0177126 0 0 0 -0.537874 0 -0.0177126 -0.537874 0.5195464 0 -0.139212 0.5195464 -0.0177126 -0.139212 0.139212 0 -0.5195464 0.139212 -0.0177126 -0.5195464 0.4658126 0 -0.268937 0.4658126 -0.0177126 -0.268937 0.268937 0 -0.4658126 0.268937 -0.0177126 -0.4658126 0.3803344 0 -0.3803344 0.3803344 -0.0177126 -0.3803344</float_array>
                    <technique_common>
                        <accessor count="48" source="#ID23" stride="3">
                            <param name="X" type="float" />
                            <param name="Y" type="float" />
                            <param name="Z" type="float" />
                        </accessor>
                    </technique_common>
                </source>
                <source id="ID20">
                    <float_array id="ID24" count="144">-0.5 0 0.8660254 -0.7071068 0 0.7071068 -0.7071068 0 0.7071068 -0.5 0 0.8660254 -0.8660254 0 0.5 -0.8660254 0 0.5 -0.258819 0 0.9659258 -0.258819 0 0.9659258 -0.9659258 0 0.258819 -0.9659258 0 0.258819 -6.059555e-16 0 1 -6.059555e-16 0 1 -1 0 -2.762444e-16 -1 0 -2.762444e-16 0.258819 0 0.9659258 0.258819 0 0.9659258 -0.9659258 0 -0.258819 -0.9659258 0 -0.258819 0.5 0 0.8660254 0.5 0 0.8660254 -0.8660254 0 -0.5 -0.8660254 0 -0.5 0.7071068 0 0.7071068 0.7071068 0 0.7071068 -0.7071068 0 -0.7071068 -0.7071068 0 -0.7071068 0.8660254 0 0.5 0.8660254 0 0.5 -0.5 0 -0.8660254 -0.5 0 -0.8660254 0.9659258 0 0.258819 0.9659258 0 0.258819 -0.258819 0 -0.9659258 -0.258819 0 -0.9659258 1 0 1.782222e-16 1 0 1.782222e-16 -7.128888e-17 0 -1 -7.128888e-17 0 -1 0.9659258 0 -0.258819 0.9659258 0 -0.258819 0.258819 0 -0.9659258 0.258819 0 -0.9659258 0.8660254 0 -0.5 0.8660254 0 -0.5 0.5 0 -0.8660254 0.5 0 -0.8660254 0.7071068 0 -0.7071068 0.7071068 0 -0.7071068</float_array>
                    <technique_common>
                        <accessor count="48" source="#ID24" stride="3">
                            <param name="X" type="float" />
                            <param name="Y" type="float" />
                            <param name="Z" type="float" />
                        </accessor>
                    </technique_common>
                </source>
                <source id="ID22">
                    <float_array id="ID25" count="88">-0.13662 -0.008998 -0.1932099 0 -0.1932099 -0.008998 -0.13662 0 -0.2366328 -0.008998 -0.2366328 0 -0.07071972 -0.008998 -0.07071972 0 -0.2639296 -0.008998 -0.2639296 0 0 -0.008998 0 0 -0.27324 -0.008998 -0.27324 0 0.07071972 -0.008998 0.07071972 0 0.13662 -0.008998 0.13662 0 -0.2366328 -0.008998 -0.2366328 0 0.1932099 -0.008998 0.1932099 0 -0.1932099 -0.008998 -0.1932099 0 0.2366328 0 0.2366328 -0.008998 -0.13662 0 -0.13662 -0.008998 0.2639296 0 0.2639296 -0.008998 -0.07071972 0 -0.07071972 -0.008998 0.27324 0 0.27324 -0.008998 0.2639296 0 0.2639296 -0.008998 0.07071972 0 0.07071972 -0.008998 0.2366328 0 0.2366328 -0.008998 0.13662 0 0.13662 -0.008998 0.1932099 0 0.1932099 -0.008998</float_array>
                    <technique_common>
                        <accessor count="44" source="#ID25" stride="2">
                            <param name="S" type="float" />
                            <param name="T" type="float" />
                        </accessor>
                    </technique_common>
                </source>
                <vertices id="ID21">
                    <input semantic="POSITION" source="#ID19" />
                    <input semantic="NORMAL" source="#ID20" />
                </vertices>
                <triangles count="48" material="Material2">
                    <input offset="0" semantic="VERTEX" source="#ID21" />
                    <input offset="1" semantic="TEXCOORD" source="#ID22" />
                    <p>0 0 1 1 2 2 1 1 0 0 3 3 1 1 4 4 2 2 4 4 1 1 5 5 6 6 3 3 0 0 3 3 6 6 7 7 5 5 8 8 4 4 8 8 5 5 9 9 10 10 7 7 6 6 7 7 10 10 11 11 9 9 12 12 8 8 12 12 9 9 13 13 14 14 11 11 10 10 11 11 14 14 15 15 13 13 16 8 12 12 16 8 13 13 17 9 18 16 15 15 14 14 15 15 18 16 19 17 17 9 20 18 16 8 20 18 17 9 21 19 22 20 19 17 18 16 19 17 22 20 23 21 21 19 24 22 20 18 24 22 21 19 25 23 26 24 22 20 27 25 22 20 26 24 23 21 28 26 24 22 25 23 24 22 28 26 29 27 30 28 27 25 31 29 27 25 30 28 26 24 32 30 29 27 28 26 29 27 32 30 33 31 34 32 31 29 35 33 31 29 34 32 30 28 36 11 33 31 32 30 33 31 36 11 37 10 38 34 35 33 39 35 35 33 38 34 34 32 40 36 37 10 36 11 37 10 40 36 41 37 42 38 39 35 43 39 39 35 42 38 38 34 44 40 41 37 40 36 41 37 44 40 45 41 46 42 43 39 47 43 43 39 46 42 42 38 46 42 45 41 44 40 45 41 46 42 47 43</p>
                </triangles>
            </mesh>
        </geometry>
        <geometry id="ID26">
            <mesh>
                <source id="ID27">
                    <float_array id="ID31" count="144">6.661338e-16 -0.03351575 -0.5379818 -0.1392399 -0.05125591 -0.5196505 -0.1392399 -0.03351575 -0.5196505 6.661338e-16 -0.05125591 -0.5379818 0.1392399 -0.03351575 -0.5196505 0.1392399 -0.05125591 -0.5196505 -0.2689909 -0.05125591 -0.4659059 -0.2689909 -0.03351575 -0.4659059 0.2689909 -0.03351575 -0.4659059 0.2689909 -0.05125591 -0.4659059 -0.3804106 -0.05125591 -0.3804106 -0.3804106 -0.03351575 -0.3804106 0.3804106 -0.03351575 -0.3804106 0.3804106 -0.05125591 -0.3804106 -0.4659059 -0.03351575 -0.2689909 -0.4659059 -0.05125591 -0.2689909 0.4659059 -0.05125591 -0.2689909 0.4659059 -0.03351575 -0.2689909 -0.5196505 -0.03351575 -0.1392399 -0.5196505 -0.05125591 -0.1392399 0.5196505 -0.05125591 -0.1392399 0.5196505 -0.03351575 -0.1392399 -0.5379818 -0.03351575 -2.220446e-16 -0.5379818 -0.05125591 -2.220446e-16 0.5379818 -0.05125591 5.551115e-16 0.5379818 -0.03351575 5.551115e-16 -0.5196505 -0.03351575 0.1392399 -0.5196505 -0.05125591 0.1392399 0.5196505 -0.05125591 0.1392399 0.5196505 -0.03351575 0.1392399 -0.4659059 -0.03351575 0.2689909 -0.4659059 -0.05125591 0.2689909 0.4659059 -0.05125591 0.2689909 0.4659059 -0.03351575 0.2689909 -0.3804106 -0.03351575 0.3804106 -0.3804106 -0.05125591 0.3804106 0.3804106 -0.05125591 0.3804106 0.3804106 -0.03351575 0.3804106 -0.2689909 -0.05125591 0.4659059 -0.2689909 -0.03351575 0.4659059 0.2689909 -0.03351575 0.4659059 0.2689909 -0.05125591 0.4659059 -0.1392399 -0.05125591 0.5196505 -0.1392399 -0.03351575 0.5196505 0.1392399 -0.03351575 0.5196505 0.1392399 -0.05125591 0.5196505 -8.881784e-16 -0.05125591 0.5379818 -8.881784e-16 -0.03351575 0.5379818</float_array>
                    <technique_common>
                        <accessor count="48" source="#ID31" stride="3">
                            <param name="X" type="float" />
                            <param name="Y" type="float" />
                            <param name="Z" type="float" />
                        </accessor>
                    </technique_common>
                </source>
                <source id="ID28">
                    <float_array id="ID32" count="144">8.643777e-16 0 -1 -0.258819 0 -0.9659258 -0.258819 0 -0.9659258 8.643777e-16 0 -1 0.258819 0 -0.9659258 0.258819 0 -0.9659258 -0.5 0 -0.8660254 -0.5 0 -0.8660254 0.5 0 -0.8660254 0.5 0 -0.8660254 -0.7071068 0 -0.7071068 -0.7071068 0 -0.7071068 0.7071068 0 -0.7071068 0.7071068 0 -0.7071068 -0.8660254 0 -0.5 -0.8660254 0 -0.5 0.8660254 0 -0.5 0.8660254 0 -0.5 -0.9659258 0 -0.258819 -0.9659258 0 -0.258819 0.9659258 0 -0.258819 0.9659258 0 -0.258819 -1 0 -8.287332e-16 -1 0 -8.287332e-16 1 0 8.019999e-16 1 0 8.019999e-16 -0.9659258 0 0.258819 -0.9659258 0 0.258819 0.9659258 0 0.258819 0.9659258 0 0.258819 -0.8660254 0 0.5 -0.8660254 0 0.5 0.8660254 0 0.5 0.8660254 0 0.5 -0.7071068 0 0.7071068 -0.7071068 0 0.7071068 0.7071068 0 0.7071068 0.7071068 0 0.7071068 -0.5 0 0.8660254 -0.5 0 0.8660254 0.5 0 0.8660254 0.5 0 0.8660254 -0.258819 0 0.9659258 -0.258819 0 0.9659258 0.258819 0 0.9659258 0.258819 0 0.9659258 -1.211911e-15 0 1 -1.211911e-15 0 1</float_array>
                    <technique_common>
                        <accessor count="48" source="#ID32" stride="3">
                            <param name="X" type="float" />
                            <param name="Y" type="float" />
                            <param name="Z" type="float" />
                        </accessor>
                    </technique_common>
                </source>
                <source id="ID30">
                    <float_array id="ID33" count="92">3.38396e-16 -0.017026 -0.07073389 -0.026038 -0.07073389 -0.017026 3.38396e-16 -0.026038 0.07073389 -0.017026 0.07073389 -0.026038 -0.1366474 -0.026038 -0.1366474 -0.017026 0.1366474 -0.017026 0.1366474 -0.026038 -0.1932486 -0.026038 -0.1932486 -0.017026 0.1932486 -0.017026 0.1932486 -0.026038 -0.2366802 -0.017026 -0.2366802 -0.026038 0.2366802 -0.026038 0.2366802 -0.017026 -0.2639825 -0.017026 -0.2639825 -0.026038 0.2639825 -0.026038 0.2639825 -0.017026 -0.2732948 -0.017026 -0.2732948 -0.026038 0.2732948 -0.026038 0.2732948 -0.017026 -0.2639825 -0.017026 -0.2639825 -0.026038 -0.2366802 -0.017026 -0.2366802 -0.026038 0.2366802 -0.026038 0.2366802 -0.017026 -0.1932486 -0.017026 -0.1932486 -0.026038 0.1932486 -0.026038 0.1932486 -0.017026 -0.1366474 -0.026038 -0.1366474 -0.017026 0.1366474 -0.017026 0.1366474 -0.026038 -0.07073389 -0.026038 -0.07073389 -0.017026 0.07073389 -0.017026 0.07073389 -0.026038 -4.511946e-16 -0.026038 -4.511946e-16 -0.017026</float_array>
                    <technique_common>
                        <accessor count="46" source="#ID33" stride="2">
                            <param name="S" type="float" />
                            <param name="T" type="float" />
                        </accessor>
                    </technique_common>
                </source>
                <vertices id="ID29">
                    <input semantic="POSITION" source="#ID27" />
                    <input semantic="NORMAL" source="#ID28" />
                </vertices>
                <triangles count="48" material="Material2">
                    <input offset="0" semantic="VERTEX" source="#ID29" />
                    <input offset="1" semantic="TEXCOORD" source="#ID30" />
                    <p>0 0 1 1 2 2 1 1 0 0 3 3 4 4 3 3 0 0 3 3 4 4 5 5 2 2 6 6 7 7 6 6 2 2 1 1 8 8 5 5 4 4 5 5 8 8 9 9 7 7 10 10 11 11 10 10 7 7 6 6 12 12 9 9 8 8 9 9 12 12 13 13 14 14 10 10 15 15 10 10 14 14 11 11 12 12 16 16 13 13 16 16 12 12 17 17 18 18 15 15 19 19 15 15 18 18 14 14 17 17 20 20 16 16 20 20 17 17 21 21 22 22 19 19 23 23 19 19 22 22 18 18 21 21 24 24 20 20 24 24 21 21 25 25 26 26 23 23 27 27 23 23 26 26 22 22 25 25 28 20 24 24 28 20 25 25 29 21 30 28 27 27 31 29 27 27 30 28 26 26 29 21 32 30 28 20 32 30 29 21 33 31 34 32 31 29 35 33 31 29 34 32 30 28 33 31 36 34 32 30 36 34 33 31 37 35 38 36 34 32 35 33 34 32 38 36 39 37 36 34 40 38 41 39 40 38 36 34 37 35 42 40 39 37 38 36 39 37 42 40 43 41 41 39 44 42 45 43 44 42 41 39 40 38 46 44 43 41 42 40 43 41 46 44 47 45 45 43 47 45 46 44 47 45 45 43 44 42</p>
                </triangles>
            </mesh>
        </geometry>
        <geometry id="ID34">
            <mesh>
                <source id="ID35">
                    <float_array id="ID39" count="144">-0.1444394 -0.05125591 -0.5390551 0.1444394 -0.05125591 -0.5390551 0 -0.05125591 -0.5580709 6.661338e-16 -0.05125591 -0.5379818 -0.1392399 -0.05125591 -0.5196505 -0.2790354 -0.05125591 -0.4833035 -0.2689909 -0.05125591 -0.4659059 -0.3946157 -0.05125591 -0.3946157 -0.3804106 -0.05125591 -0.3804106 -0.4833035 -0.05125591 -0.2790354 -0.4659059 -0.05125591 -0.2689909 -0.5390551 -0.05125591 -0.1444394 -0.5196505 -0.05125591 -0.1392399 -0.5580709 -0.05125591 -1.110223e-16 -0.5379818 -0.05125591 -2.220446e-16 -0.5196505 -0.05125591 0.1392399 -0.5390551 -0.05125591 0.1444394 -0.4659059 -0.05125591 0.2689909 -0.4833035 -0.05125591 0.2790354 -0.3804106 -0.05125591 0.3804106 -0.3946157 -0.05125591 0.3946157 -0.2689909 -0.05125591 0.4659059 -0.2790354 -0.05125591 0.4833035 -0.1392399 -0.05125591 0.5196505 -0.1444394 -0.05125591 0.5390551 -8.881784e-16 -0.05125591 0.5379818 0.1392399 -0.05125591 -0.5196505 0.2790354 -0.05125591 -0.4833035 0.2689909 -0.05125591 -0.4659059 0.3946157 -0.05125591 -0.3946157 0.3804106 -0.05125591 -0.3804106 0.4833035 -0.05125591 -0.2790354 0.4659059 -0.05125591 -0.2689909 0.5390551 -0.05125591 -0.1444394 0.5196505 -0.05125591 -0.1392399 0.5580709 -0.05125591 0 0.5379818 -0.05125591 5.551115e-16 0.5390551 -0.05125591 0.1444394 0.5196505 -0.05125591 0.1392399 0.4659059 -0.05125591 0.2689909 0.4833035 -0.05125591 0.2790354 0.3804106 -0.05125591 0.3804106 0.3946157 -0.05125591 0.3946157 0.2689909 -0.05125591 0.4659059 0.2790354 -0.05125591 0.4833035 0.1392399 -0.05125591 0.5196505 0.1444394 -0.05125591 0.5390551 0 -0.05125591 0.5580709</float_array>
                    <technique_common>
                        <accessor count="48" source="#ID39" stride="3">
                            <param name="X" type="float" />
                            <param name="Y" type="float" />
                            <param name="Z" type="float" />
                        </accessor>
                    </technique_common>
                </source>
                <source id="ID36">
                    <float_array id="ID40" count="144">0 1 0 0 1 0 0 1 0 0 1 0 0 1 0 0 1 0 0 1 0 0 1 0 0 1 0 0 1 0 0 1 0 0 1 0 0 1 0 0 1 0 0 1 0 0 1 0 0 1 0 0 1 0 0 1 0 0 1 0 0 1 0 0 1 0 0 1 0 0 1 0 0 1 0 0 1 0 0 1 0 0 1 0 0 1 0 0 1 0 0 1 0 0 1 0 0 1 0 0 1 0 0 1 0 0 1 0 0 1 0 0 1 0 0 1 0 0 1 0 0 1 0 0 1 0 0 1 0 0 1 0 0 1 0 0 1 0 0 1 0 0 1 0</float_array>
                    <technique_common>
                        <accessor count="48" source="#ID40" stride="3">
                            <param name="X" type="float" />
                            <param name="Y" type="float" />
                            <param name="Z" type="float" />
                        </accessor>
                    </technique_common>
                </source>
                <source id="ID38">
                    <float_array id="ID41" count="96">0.0733752 -0.27384 -0.0733752 -0.27384 0 -0.2835 -3.38396e-16 -0.2732948 0.07073389 -0.2639825 0.14175 -0.2455182 0.1366474 -0.2366802 0.2004648 -0.2004648 0.1932486 -0.1932486 0.2455182 -0.14175 0.2366802 -0.1366474 0.27384 -0.0733752 0.2639825 -0.07073389 0.2835 -5.639933e-17 0.2732948 -1.127987e-16 0.2639825 0.07073389 0.27384 0.0733752 0.2366802 0.1366474 0.2455182 0.14175 0.1932486 0.1932486 0.2004648 0.2004648 0.1366474 0.2366802 0.14175 0.2455182 0.07073389 0.2639825 0.0733752 0.27384 4.511946e-16 0.2732948 -0.07073389 -0.2639825 -0.14175 -0.2455182 -0.1366474 -0.2366802 -0.2004648 -0.2004648 -0.1932486 -0.1932486 -0.2455182 -0.14175 -0.2366802 -0.1366474 -0.27384 -0.0733752 -0.2639825 -0.07073389 -0.2835 0 -0.2732948 2.819966e-16 -0.27384 0.0733752 -0.2639825 0.07073389 -0.2366802 0.1366474 -0.2455182 0.14175 -0.1932486 0.1932486 -0.2004648 0.2004648 -0.1366474 0.2366802 -0.14175 0.2455182 -0.07073389 0.2639825 -0.0733752 0.27384 0 0.2835</float_array>
                    <technique_common>
                        <accessor count="48" source="#ID41" stride="2">
                            <param name="S" type="float" />
                            <param name="T" type="float" />
                        </accessor>
                    </technique_common>
                </source>
                <vertices id="ID37">
                    <input semantic="POSITION" source="#ID35" />
                    <input semantic="NORMAL" source="#ID36" />
                </vertices>
                <triangles count="48" material="Material2">
                    <input offset="0" semantic="VERTEX" source="#ID37" />
                    <input offset="1" semantic="TEXCOORD" source="#ID38" />
                    <p>0 0 1 1 2 2 1 1 0 0 3 3 3 3 0 0 4 4 4 4 0 0 5 5 4 4 5 5 6 6 6 6 5 5 7 7 6 6 7 7 8 8 8 8 7 7 9 9 8 8 9 9 10 10 10 10 9 9 11 11 10 10 11 11 12 12 12 12 11 11 13 13 12 12 13 13 14 14 14 14 13 13 15 15 15 15 13 13 16 16 15 15 16 16 17 17 17 17 16 16 18 18 17 17 18 18 19 19 19 19 18 18 20 20 19 19 20 20 21 21 21 21 20 20 22 22 21 21 22 22 23 23 23 23 22 22 24 24 23 23 24 24 25 25 1 1 26 26 27 27 26 26 1 1 3 3 27 27 26 26 28 28 27 27 28 28 29 29 29 29 28 28 30 30 29 29 30 30 31 31 31 31 30 30 32 32 31 31 32 32 33 33 33 33 32 32 34 34 33 33 34 34 35 35 35 35 34 34 36 36 35 35 36 36 37 37 37 37 36 36 38 38 37 37 38 38 39 39 37 37 39 39 40 40 40 40 39 39 41 41 40 40 41 41 42 42 42 42 41 41 43 43 42 42 43 43 44 44 44 44 43 43 45 45 44 44 45 45 46 46 46 46 45 45 25 25 46 46 25 25 24 24 46 46 24 24 47 47</p>
                </triangles>
            </mesh>
        </geometry>
        <geometry id="ID42">
            <mesh>
                <source id="ID48">
                    <float_array id="ID52" count="648">0.1180449 -0.3724724 -0.4405496 -0.1180449 -0.3724724 -0.4405496 4.440892e-16 -0.3724724 -0.4560906 -0.2280453 -0.3724724 -0.394986 0.2280453 -0.3724724 -0.394986 -0.3225047 -0.3724724 -0.3225047 0.3225047 -0.3724724 -0.3225047 0.394986 -0.3724724 -0.2280453 -0.394986 -0.3724724 -0.2280453 -0.4405496 -0.3724724 -0.1180449 0.4405496 -0.3724724 -0.1180449 0.4560906 -0.3724724 -8.881784e-16 -0.4560906 -0.3724724 -8.881784e-16 0.4405496 -0.3724724 0.1180449 -0.4405496 -0.3724724 0.1180449 -0.394986 -0.3724724 0.2280453 0.394986 -0.3724724 0.2280453 -0.3225047 -0.3724724 0.3225047 0.3225047 -0.3724724 0.3225047 -0.2280453 -0.3724724 0.394986 0.2280453 -0.3724724 0.394986 -0.1180449 -0.3724724 0.4405496 0.1180449 -0.3724724 0.4405496 4.440892e-16 -0.3724724 0.4560906 0.4906143 -0.3776732 0.1314597 0.394986 -0.3724724 0.2280453 0.4405496 -0.3724724 0.1180449 0.4398727 -0.3776732 0.2539606 0.3225047 -0.3724724 0.3225047 0.3591546 -0.3776732 0.3591546 0.2280453 -0.3724724 0.394986 0.2539606 -0.3776732 0.4398727 0.1180449 -0.3724724 0.4405496 0.1314597 -0.3776732 0.4906143 4.440892e-16 -0.3724724 0.4560906 -2.220446e-16 -0.3776732 0.5079213 -0.1314597 -0.3776732 0.4906143 -0.1180449 -0.3724724 0.4405496 -0.2539606 -0.3776732 0.4398727 -0.2280453 -0.3724724 0.394986 -0.3591546 -0.3776732 0.3591546 -0.3225047 -0.3724724 0.3225047 -0.4398727 -0.3776732 0.2539606 -0.394986 -0.3724724 0.2280453 -0.4906143 -0.3776732 0.1314597 -0.4405496 -0.3724724 0.1180449 -0.5079213 -0.3776732 0 -0.4560906 -0.3724724 -8.881784e-16 -0.4405496 -0.3724724 -0.1180449 -0.4906143 -0.3776732 -0.1314597 -0.394986 -0.3724724 -0.2280453 -0.4398727 -0.3776732 -0.2539606 -0.3225047 -0.3724724 -0.3225047 -0.3591546 -0.3776732 -0.3591546 -0.2280453 -0.3724724 -0.394986 -0.2539606 -0.3776732 -0.4398727 -0.1180449 -0.3724724 -0.4405496 -0.1314597 -0.3776732 -0.4906143 4.440892e-16 -0.3724724 -0.4560906 -2.220446e-16 -0.3776732 -0.5079213 0.1314597 -0.3776732 -0.4906143 0.1180449 -0.3724724 -0.4405496 0.2539606 -0.3776732 -0.4398727 0.2280453 -0.3724724 -0.394986 0.3591546 -0.3776732 -0.3591546 0.3225047 -0.3724724 -0.3225047 0.4398727 -0.3776732 -0.2539606 0.394986 -0.3724724 -0.2280453 0.4906143 -0.3776732 -0.1314597 0.4405496 -0.3724724 -0.1180449 0.5079213 -0.3776732 1.110223e-16 0.4560906 -0.3724724 -8.881784e-16 0.5606629 -0.2910906 0.1502292 0.4398727 -0.3776732 0.2539606 0.4906143 -0.3776732 0.1314597 0.5026766 -0.2910906 0.2902205 0.3591546 -0.3776732 0.3591546 0.4104337 -0.2910906 0.4104337 0.2539606 -0.3776732 0.4398727 0.2902205 -0.2910906 0.5026766 0.1502292 -0.2910906 0.5606629 0.1314597 -0.3776732 0.4906143 0 -0.2910906 0.5804409 -2.220446e-16 -0.3776732 0.5079213 -0.1314597 -0.3776732 0.4906143 -0.1502292 -0.2910906 0.5606629 -0.2539606 -0.3776732 0.4398727 -0.2902205 -0.2910906 0.5026766 -0.4104337 -0.2910906 0.4104337 -0.3591546 -0.3776732 0.3591546 -0.5026766 -0.2910906 0.2902205 -0.4398727 -0.3776732 0.2539606 -0.4906143 -0.3776732 0.1314597 -0.5606629 -0.2910906 0.1502292 -0.5079213 -0.3776732 0 -0.5804409 -0.2910906 -1.110223e-16 -0.4906143 -0.3776732 -0.1314597 -0.5606629 -0.2910906 -0.1502292 -0.5026766 -0.2910906 -0.2902205 -0.4398727 -0.3776732 -0.2539606 -0.3591546 -0.3776732 -0.3591546 -0.4104337 -0.2910906 -0.4104337 -0.2539606 -0.3776732 -0.4398727 -0.2902205 -0.2910906 -0.5026766 -0.1502292 -0.2910906 -0.5606629 -0.1314597 -0.3776732 -0.4906143 0 -0.2910906 -0.5804409 -2.220446e-16 -0.3776732 -0.5079213 0.1314597 -0.3776732 -0.4906143 0.1502292 -0.2910906 -0.5606629 0.2539606 -0.3776732 -0.4398727 0.2902205 -0.2910906 -0.5026766 0.4104337 -0.2910906 -0.4104337 0.3591546 -0.3776732 -0.3591546 0.5026766 -0.2910906 -0.2902205 0.4398727 -0.3776732 -0.2539606 0.4906143 -0.3776732 -0.1314597 0.5606629 -0.2910906 -0.1502292 0.5079213 -0.3776732 1.110223e-16 0.5804409 -0.2910906 0 0.5390551 -0.1575551 0.1444394 0.5026766 -0.2910906 0.2902205 0.5606629 -0.2910906 0.1502292 0.4833035 -0.1575551 0.2790354 0.3946157 -0.1575551 0.3946157 0.4104337 -0.2910906 0.4104337 0.2902205 -0.2910906 0.5026766 0.2790354 -0.1575551 0.4833035 0.1502292 -0.2910906 0.5606629 0.1444394 -0.1575551 0.5390551 0 -0.1575551 0.5580709 0 -0.2910906 0.5804409 -0.1444394 -0.1575551 0.5390551 -0.1502292 -0.2910906 0.5606629 -0.2790354 -0.1575551 0.4833035 -0.2902205 -0.2910906 0.5026766 -0.3946157 -0.1575551 0.3946157 -0.4104337 -0.2910906 0.4104337 -0.5026766 -0.2910906 0.2902205 -0.4833035 -0.1575551 0.2790354 -0.5390551 -0.1575551 0.1444394 -0.5606629 -0.2910906 0.1502292 -0.5804409 -0.2910906 -1.110223e-16 -0.5580709 -0.1575551 -1.110223e-16 -0.5606629 -0.2910906 -0.1502292 -0.5390551 -0.1575551 -0.1444394 -0.5026766 -0.2910906 -0.2902205 -0.4833035 -0.1575551 -0.2790354 -0.4104337 -0.2910906 -0.4104337 -0.3946157 -0.1575551 -0.3946157 -0.2902205 -0.2910906 -0.5026766 -0.2790354 -0.1575551 -0.4833035 -0.1502292 -0.2910906 -0.5606629 -0.1444394 -0.1575551 -0.5390551 0 -0.2910906 -0.5804409 0 -0.1575551 -0.5580709 0.1444394 -0.1575551 -0.5390551 0.1502292 -0.2910906 -0.5606629 0.2790354 -0.1575551 -0.4833035 0.2902205 -0.2910906 -0.5026766 0.3946157 -0.1575551 -0.3946157 0.4104337 -0.2910906 -0.4104337 0.5026766 -0.2910906 -0.2902205 0.4833035 -0.1575551 -0.2790354 0.5606629 -0.2910906 -0.1502292 0.5390551 -0.1575551 -0.1444394 0.5804409 -0.2910906 0 0.5580709 -0.1575551 0 0.5390551 -0.05125591 0.1444394 0.4833035 -0.1575551 0.2790354 0.5390551 -0.1575551 0.1444394 0.4833035 -0.05125591 0.2790354 0.3946157 -0.1575551 0.3946157 0.3946157 -0.05125591 0.3946157 0.2790354 -0.05125591 0.4833035 0.2790354 -0.1575551 0.4833035 0.1444394 -0.05125591 0.5390551 0.1444394 -0.1575551 0.5390551 0 -0.05125591 0.5580709 0 -0.1575551 0.5580709 -0.1444394 -0.05125591 0.5390551 -0.1444394 -0.1575551 0.5390551 -0.2790354 -0.05125591 0.4833035 -0.2790354 -0.1575551 0.4833035 -0.3946157 -0.05125591 0.3946157 -0.3946157 -0.1575551 0.3946157 -0.4833035 -0.1575551 0.2790354 -0.4833035 -0.05125591 0.2790354 -0.5390551 -0.1575551 0.1444394 -0.5390551 -0.05125591 0.1444394 -0.5580709 -0.1575551 -1.110223e-16 -0.5580709 -0.05125591 -1.110223e-16 -0.5390551 -0.1575551 -0.1444394 -0.5390551 -0.05125591 -0.1444394 -0.4833035 -0.1575551 -0.2790354 -0.4833035 -0.05125591 -0.2790354 -0.3946157 -0.1575551 -0.3946157 -0.3946157 -0.05125591 -0.3946157 -0.2790354 -0.05125591 -0.4833035 -0.2790354 -0.1575551 -0.4833035 -0.1444394 -0.05125591 -0.5390551 -0.1444394 -0.1575551 -0.5390551 0 -0.05125591 -0.5580709 0 -0.1575551 -0.5580709 0.1444394 -0.05125591 -0.5390551 0.1444394 -0.1575551 -0.5390551 0.2790354 -0.05125591 -0.4833035 0.2790354 -0.1575551 -0.4833035 0.3946157 -0.05125591 -0.3946157 0.3946157 -0.1575551 -0.3946157 0.4833035 -0.1575551 -0.2790354 0.4833035 -0.05125591 -0.2790354 0.5390551 -0.1575551 -0.1444394 0.5390551 -0.05125591 -0.1444394 0.5580709 -0.1575551 0 0.5580709 -0.05125591 0</float_array>
                    <technique_common>
                        <accessor count="216" source="#ID52" stride="3">
                            <param name="X" type="float" />
                            <param name="Y" type="float" />
                            <param name="Z" type="float" />
                        </accessor>
                    </technique_common>
                </source>
                <source id="ID49">
                    <float_array id="ID53" count="648">0 -1 -3.437577e-17 0 -1 -3.437577e-17 0 -1 -3.437577e-17 0 -1 -3.437577e-17 0 -1 -3.437577e-17 0 -1 -3.437577e-17 0 -1 -3.437577e-17 0 -1 -3.437577e-17 0 -1 -3.437577e-17 0 -1 -3.437577e-17 0 -1 -3.437577e-17 0 -1 -3.437577e-17 0 -1 -3.437577e-17 0 -1 -3.437577e-17 0 -1 -3.437577e-17 0 -1 -3.437577e-17 0 -1 -3.437577e-17 0 -1 -3.437577e-17 0 -1 -3.437577e-17 0 -1 -3.437577e-17 0 -1 -3.437577e-17 0 -1 -3.437577e-17 0 -1 -3.437577e-17 0 -1 -3.437577e-17 -0.09643847 -0.9950035 -0.02584061 -0.08646437 -0.9950035 -0.04992023 -0.09643847 -0.9950035 -0.02584061 -0.08646437 -0.9950035 -0.04992023 -0.07059786 -0.9950035 -0.07059786 -0.07059786 -0.9950035 -0.07059786 -0.04992023 -0.9950035 -0.08646437 -0.04992023 -0.9950035 -0.08646437 -0.02584061 -0.9950035 -0.09643847 -0.02584061 -0.9950035 -0.09643847 -3.875585e-17 -0.9950035 -0.09984045 1.698076e-16 -0.9950035 -0.09984045 0.02584061 -0.9950035 -0.09643847 0.02584061 -0.9950035 -0.09643847 0.04992023 -0.9950035 -0.08646437 0.04992023 -0.9950035 -0.08646437 0.07059786 -0.9950035 -0.07059786 0.07059786 -0.9950035 -0.07059786 0.08646437 -0.9950035 -0.04992023 0.08646437 -0.9950035 -0.04992023 0.09643847 -0.9950035 -0.02584061 0.09643847 -0.9950035 -0.02584061 0.09984045 -0.9950035 -5.780685e-17 0.09984045 -0.9950035 2.447738e-16 0.09643847 -0.9950035 0.02584061 0.09643847 -0.9950035 0.02584061 0.08646437 -0.9950035 0.04992023 0.08646437 -0.9950035 0.04992023 0.07059786 -0.9950035 0.07059786 0.07059786 -0.9950035 0.07059786 0.04992023 -0.9950035 0.08646437 0.04992023 -0.9950035 0.08646437 0.02584061 -0.9950035 0.09643847 0.02584061 -0.9950035 0.09643847 -3.630811e-16 -0.9950035 0.09984045 -1.144094e-16 -0.9950035 0.09984045 -0.02584061 -0.9950035 0.09643847 -0.02584061 -0.9950035 0.09643847 -0.04992023 -0.9950035 0.08646437 -0.04992023 -0.9950035 0.08646437 -0.07059786 -0.9950035 0.07059786 -0.07059786 -0.9950035 0.07059786 -0.08646437 -0.9950035 0.04992023 -0.08646437 -0.9950035 0.04992023 -0.09643847 -0.9950035 0.02584061 -0.09643847 -0.9950035 0.02584061 -0.09984045 -0.9950035 -9.273183e-17 -0.09984045 -0.9950035 2.437539e-16 0.7404969 -0.6421025 0.1984155 0.6639114 -0.6421025 0.3833094 0.7404969 -0.6421025 0.1984155 0.6639114 -0.6421025 0.3833094 0.5420813 -0.6421025 0.5420813 0.5420813 -0.6421025 0.5420813 0.3833094 -0.6421025 0.6639114 0.3833094 -0.6421025 0.6639114 0.1984155 -0.6421025 0.7404969 0.1984155 -0.6421025 0.7404969 -4.784244e-16 -0.6421025 0.7666188 -8.092289e-16 -0.6421025 0.7666188 -0.1984155 -0.6421025 0.7404969 -0.1984155 -0.6421025 0.7404969 -0.3833094 -0.6421025 0.6639114 -0.3833094 -0.6421025 0.6639114 -0.5420813 -0.6421025 0.5420813 -0.5420813 -0.6421025 0.5420813 -0.6639114 -0.6421025 0.3833094 -0.6639114 -0.6421025 0.3833094 -0.7404969 -0.6421025 0.1984155 -0.7404969 -0.6421025 0.1984155 -0.7666188 -0.6421025 -3.624671e-16 -0.7666188 -0.6421025 -4.409009e-16 -0.7404969 -0.6421025 -0.1984155 -0.7404969 -0.6421025 -0.1984155 -0.6639114 -0.6421025 -0.3833094 -0.6639114 -0.6421025 -0.3833094 -0.5420813 -0.6421025 -0.5420813 -0.5420813 -0.6421025 -0.5420813 -0.3833094 -0.6421025 -0.6639114 -0.3833094 -0.6421025 -0.6639114 -0.1984155 -0.6421025 -0.7404969 -0.1984155 -0.6421025 -0.7404969 1.51032e-15 -0.6421025 -0.7666188 1.43301e-15 -0.6421025 -0.7666188 0.1984155 -0.6421025 -0.7404969 0.1984155 -0.6421025 -0.7404969 0.3833094 -0.6421025 -0.6639114 0.3833094 -0.6421025 -0.6639114 0.5420813 -0.6421025 -0.5420813 0.5420813 -0.6421025 -0.5420813 0.6639114 -0.6421025 -0.3833094 0.6639114 -0.6421025 -0.3833094 0.7404969 -0.6421025 -0.1984155 0.7404969 -0.6421025 -0.1984155 0.7666188 -0.6421025 -8.429468e-18 0.7666188 -0.6421025 -1.219513e-16 0.952651 0.1652194 0.2552621 0.8541235 0.1652194 0.4931284 0.952651 0.1652194 0.2552621 0.8541235 0.1652194 0.4931284 0.6973889 0.1652194 0.6973889 0.6973889 0.1652194 0.6973889 0.4931284 0.1652194 0.8541235 0.4931284 0.1652194 0.8541235 0.2552621 0.1652194 0.952651 0.2552621 0.1652194 0.952651 -1.054605e-16 0.1652194 0.9862568 -9.936368e-17 0.1652194 0.9862568 -0.2552621 0.1652194 0.952651 -0.2552621 0.1652194 0.952651 -0.4931284 0.1652194 0.8541235 -0.4931284 0.1652194 0.8541235 -0.6973889 0.1652194 0.6973889 -0.6973889 0.1652194 0.6973889 -0.8541235 0.1652194 0.4931284 -0.8541235 0.1652194 0.4931284 -0.952651 0.1652194 0.2552621 -0.952651 0.1652194 0.2552621 -0.9862568 0.1652194 -2.167935e-16 -0.9862568 0.1652194 -2.109209e-16 -0.952651 0.1652194 -0.2552621 -0.952651 0.1652194 -0.2552621 -0.8541235 0.1652194 -0.4931284 -0.8541235 0.1652194 -0.4931284 -0.6973889 0.1652194 -0.6973889 -0.6973889 0.1652194 -0.6973889 -0.4931284 0.1652194 -0.8541235 -0.4931284 0.1652194 -0.8541235 -0.2552621 0.1652194 -0.952651 -0.2552621 0.1652194 -0.952651 8.942731e-16 0.1652194 -0.9862568 9.139908e-16 0.1652194 -0.9862568 0.2552621 0.1652194 -0.952651 0.2552621 0.1652194 -0.952651 0.4931284 0.1652194 -0.8541235 0.4931284 0.1652194 -0.8541235 0.6973889 0.1652194 -0.6973889 0.6973889 0.1652194 -0.6973889 0.8541235 0.1652194 -0.4931284 0.8541235 0.1652194 -0.4931284 0.952651 0.1652194 -0.2552621 0.952651 0.1652194 -0.2552621 0.9862568 0.1652194 -1.716282e-16 0.9862568 0.1652194 -1.933442e-16 0.9659258 0 0.258819 0.8660254 0 0.5 0.9659258 0 0.258819 0.8660254 0 0.5 0.7071068 0 0.7071068 0.7071068 0 0.7071068 0.5 0 0.8660254 0.5 0 0.8660254 0.258819 0 0.9659258 0.258819 0 0.9659258 1.960444e-16 0 1 1.960444e-16 0 1 -0.258819 0 0.9659258 -0.258819 0 0.9659258 -0.5 0 0.8660254 -0.5 0 0.8660254 -0.7071068 0 0.7071068 -0.7071068 0 0.7071068 -0.8660254 0 0.5 -0.8660254 0 0.5 -0.9659258 0 0.258819 -0.9659258 0 0.258819 -1 0 7.128888e-17 -1 0 7.128888e-17 -0.9659258 0 -0.258819 -0.9659258 0 -0.258819 -0.8660254 0 -0.5 -0.8660254 0 -0.5 -0.7071068 0 -0.7071068 -0.7071068 0 -0.7071068 -0.5 0 -0.8660254 -0.5 0 -0.8660254 -0.258819 0 -0.9659258 -0.258819 0 -0.9659258 3.653555e-16 0 -1 3.653555e-16 0 -1 0.258819 0 -0.9659258 0.258819 0 -0.9659258 0.5 0 -0.8660254 0.5 0 -0.8660254 0.7071068 0 -0.7071068 0.7071068 0 -0.7071068 0.8660254 0 -0.5 0.8660254 0 -0.5 0.9659258 0 -0.258819 0.9659258 0 -0.258819 1 0 -2.049555e-16 1 0 -2.049555e-16</float_array>
                    <technique_common>
                        <accessor count="216" source="#ID53" stride="3">
                            <param name="X" type="float" />
                            <param name="Y" type="float" />
                            <param name="Z" type="float" />
                        </accessor>
                    </technique_common>
                </source>
                <source id="ID51">
                    <float_array id="ID54" count="802">0.0999447 -0.3729987 -0.0999447 -0.3729987 3.759955e-16 -0.3861567 -0.1930783 -0.3344215 0.1930783 -0.3344215 -0.273054 -0.273054 0.273054 -0.273054 0.3344215 -0.1930783 -0.3344215 -0.1930783 -0.3729987 -0.0999447 0.3729987 -0.0999447 0.3861567 -7.411503e-16 -0.3861567 -7.411503e-16 0.3729987 0.0999447 -0.3729987 0.0999447 -0.3344215 0.1930783 0.3344215 0.1930783 -0.273054 0.273054 0.273054 0.273054 -0.1930783 0.3344215 0.1930783 0.3344215 -0.0999447 0.3729987 0.0999447 0.3729987 3.759955e-16 0.3861567 0.4433519 0.1219979 0.3623283 0.2038344 0.400738 0.1106316 0.4005773 0.2257924 0.3968233 0.2323265 0.2974181 0.2904699 0.3585888 0.2103435 0.3287012 0.3215585 0.3231724 0.3271146 0.2121059 0.3575492 0.2919302 0.2959849 0.2342768 0.3956751 0.2272342 0.3997612 0.1120747 0.4003368 0.2051386 0.3615916 0.1235945 0.4429095 0.1155166 0.4450846 0.004165621 0.4157078 0.1041016 0.4024837 0.004223785 0.4598114 -0.004165621 0.4157078 -0.1155166 0.4450846 -0.1041016 0.4024837 -0.004223785 0.4598114 -0.1120747 0.4003368 -0.2272342 0.3997612 -0.2051386 0.3615916 -0.1235945 0.4429095 -0.2121059 0.3575492 -0.3231724 0.3271146 -0.2919302 0.2959849 -0.2342768 0.3956751 -0.2974181 0.2904699 -0.3968233 0.2323265 -0.3585888 0.2103435 -0.3287012 0.3215585 -0.3623283 0.2038344 -0.4433519 0.1219979 -0.400738 0.1106316 -0.4005773 0.2257924 -0.4026207 0.1035707 -0.4598166 0.003617381 -0.4157129 0.003617381 -0.4452366 0.1149295 -0.4026207 -0.1035707 -0.4598166 -0.003617381 -0.4452366 -0.1149295 -0.4157129 -0.003617381 -0.3623283 -0.2038344 -0.4433519 -0.1219979 -0.4005773 -0.2257924 -0.400738 -0.1106316 -0.2974181 -0.2904699 -0.3968233 -0.2323265 -0.3287012 -0.3215585 -0.3585888 -0.2103435 -0.2121059 -0.3575492 -0.3231724 -0.3271146 -0.2342768 -0.3956751 -0.2919302 -0.2959849 -0.1120747 -0.4003368 -0.2272342 -0.3997612 -0.1235945 -0.4429095 -0.2051386 -0.3615916 -0.004165621 -0.4157078 -0.1155166 -0.4450846 -0.004223785 -0.4598114 -0.1041016 -0.4024837 0.1155166 -0.4450846 0.004165621 -0.4157078 0.004223785 -0.4598114 0.1041016 -0.4024837 0.2272342 -0.3997612 0.1120747 -0.4003368 0.1235945 -0.4429095 0.2051386 -0.3615916 0.3231724 -0.3271146 0.2121059 -0.3575492 0.2342768 -0.3956751 0.2919302 -0.2959849 0.3968233 -0.2323265 0.2974181 -0.2904699 0.3287012 -0.3215585 0.3585888 -0.2103435 0.4433519 -0.1219979 0.3623283 -0.2038344 0.4005773 -0.2257924 0.400738 -0.1106316 0.4598166 -0.003617381 0.4026207 -0.1035707 0.4452366 -0.1149295 0.4157129 -0.003617381 0.4598166 0.003617381 0.4026207 0.1035707 0.4157129 0.003617381 0.4452366 0.1149295 0.1340296 -0.03088637 0.01114427 0.06101258 0.03986314 -0.04751484 0.1012103 0.09313631 0.1374829 -0.004042793 -0.001018941 0.06201364 0.04839572 -0.03878896 0.08101297 0.1111521 0.1345463 0.02855183 -0.01564075 0.06001747 0.05618961 -0.02625752 0.05246014 0.1271449 0.06145042 -0.008400957 0.01236788 0.1369852 -0.03274599 0.05267286 0.1200134 0.06719139 0.06030098 0.01450937 -0.03826882 0.1321113 -0.04965159 0.03716785 0.08738249 0.1062177 -0.06030098 0.01450937 0.03826882 0.1321113 -0.08738249 0.1062177 0.04965159 0.03716785 -0.06145042 -0.008400957 -0.01236788 0.1369852 -0.1200134 0.06719139 0.03274599 0.05267286 0.01564075 0.06001747 -0.1345463 0.02855183 -0.05618961 -0.02625752 -0.05246014 0.1271449 0.001018941 0.06201364 -0.1374829 -0.004042793 -0.04839572 -0.03878896 -0.08101297 0.1111521 -0.1012103 0.09313631 -0.03986314 -0.04751484 -0.01114427 0.06101258 -0.1340296 -0.03088637 -0.1158643 0.07411729 -0.03099318 -0.05372292 -0.02158428 0.05814506 -0.1266165 -0.05372292 -0.1266165 0.05372292 -0.02158428 -0.05814506 -0.03099318 0.05372292 -0.1158643 -0.07411729 -0.03986314 0.04751484 -0.1012103 -0.09313631 -0.01114427 -0.06101258 -0.1340296 0.03088637 0.001018941 -0.06201364 -0.1374829 0.004042793 -0.08101297 -0.1111521 -0.04839572 0.03878896 0.01564075 -0.06001747 -0.1345463 -0.02855183 -0.05246014 -0.1271449 -0.05618961 0.02625752 -0.01236788 -0.1369852 -0.06145042 0.008400957 -0.1200134 -0.06719139 0.03274599 -0.05267286 0.03826882 -0.1321113 -0.06030098 -0.01450937 -0.08738249 -0.1062177 0.04965159 -0.03716785 -0.03826882 -0.1321113 0.06030098 -0.01450937 -0.04965159 -0.03716785 0.08738249 -0.1062177 0.01236788 -0.1369852 0.06145042 0.008400957 -0.03274599 -0.05267286 0.1200134 -0.06719139 0.1345463 -0.02855183 -0.01564075 -0.06001747 0.05246014 -0.1271449 0.05618961 0.02625752 0.1374829 0.004042793 -0.001018941 -0.06201364 0.08101297 -0.1111521 0.04839572 0.03878896 0.1012103 -0.09313631 0.03986314 0.04751484 0.01114427 -0.06101258 0.1340296 0.03088637 0.1158643 -0.07411729 0.03099318 0.05372292 0.02158428 -0.05814506 0.1266165 0.05372292 0.1266165 -0.05372292 0.02158428 0.05814506 0.03099318 -0.05372292 0.1158643 0.07411729 -0.2120458 -0.04742471 -0.3178722 0.08586619 -0.3265589 -0.04213096 -0.2036939 0.07563946 -0.3284358 -0.02335916 -0.1990275 0.08718124 -0.3124328 0.1039304 -0.2144138 -0.0352026 -0.3024422 0.130171 -0.2166334 -0.01680711 -0.1908762 0.1038209 -0.3292318 0.004707651 -0.2767216 0.1784402 -0.2164269 0.01928542 -0.1710568 0.1339855 -0.3239104 0.05914246 -0.2522933 0.2115747 -0.0824263 0.2010433 -0.1522865 0.2919325 -0.1785788 0.1237825 0.1522865 0.2919325 0.1785788 0.1237825 0.2522933 0.2115747 0.0824263 0.2010433 0.2767216 0.1784402 0.2164269 0.01928542 0.3239104 0.05914246 0.1710568 0.1339855 0.3024422 0.130171 0.2166334 -0.01680711 0.3292318 0.004707651 0.1908762 0.1038209 0.1990275 0.08718124 0.3284358 -0.02335916 0.3124328 0.1039304 0.2144138 -0.0352026 0.3178722 0.08586619 0.2120458 -0.04742471 0.3265589 -0.04213096 0.2036939 0.07563946 0.2069695 0.0661524 0.324265 -0.05716616 0.3214983 0.07109558 0.2096295 -0.05716616 0.2096295 0.05716616 0.3214983 -0.07109558 0.324265 0.05716616 0.2069695 -0.0661524 0.2120458 0.04742471 0.3178722 -0.08586619 0.3265589 0.04213096 0.2036939 -0.07563946 0.2144138 0.0352026 0.3124328 -0.1039304 0.3284358 0.02335916 0.1990275 -0.08718124 0.2166334 0.01680711 0.3024422 -0.130171 0.3292318 -0.004707651 0.1908762 -0.1038209 0.2164269 -0.01928542 0.2767216 -0.1784402 0.3239104 -0.05914246 0.1710568 -0.1339855 0.1785788 -0.1237825 0.1522865 -0.2919325 0.2522933 -0.2115747 0.0824263 -0.2010433 -0.1785788 -0.1237825 -0.1522865 -0.2919325 -0.0824263 -0.2010433 -0.2522933 -0.2115747 -0.2164269 -0.01928542 -0.2767216 -0.1784402 -0.1710568 -0.1339855 -0.3239104 -0.05914246 -0.2166334 0.01680711 -0.3024422 -0.130171 -0.1908762 -0.1038209 -0.3292318 -0.004707651 -0.1990275 -0.08718124 -0.3284358 0.02335916 -0.3124328 -0.1039304 -0.2144138 0.0352026 -0.2036939 -0.07563946 -0.3265589 0.04213096 -0.3178722 -0.08586619 -0.2120458 0.04742471 -0.2069695 -0.0661524 -0.324265 0.05716616 -0.3214983 -0.07109558 -0.2096295 0.05716616 -0.2096295 -0.05716616 -0.3214983 0.07109558 -0.324265 -0.05716616 -0.2069695 0.0661524 0.75 0 0.625 -0.09 0.75 -0.09 0.625 0 0.625 0 0.5 -0.09 0.625 -0.09 0.5 0 0.375 0 0.375 -0.09 0.375 -0.09 0.25 -4.163336e-17 0.25 -0.09 0.375 -4.163336e-17 0.25 -0.09 0.125 0 0.125 -0.09 0.125 -0.09 -1.110223e-16 0 -1.110223e-16 -0.09 0.125 0 3 -0.09 2.875 6.938894e-17 2.875 -0.09 3 6.938894e-17 2.875 -0.09 2.75 0 2.75 -0.09 2.875 0 2.75 6.938894e-18 2.625 -0.09 2.75 -0.09 2.625 6.938894e-18 2.625 6.938894e-18 2.5 -0.09 2.625 -0.09 2.5 6.938894e-18 2.5 0 2.375 -0.09 2.5 -0.09 2.375 0 2.25 -0.09 2.25 0 2.25 0 2.125 -0.09 2.25 -0.09 2.125 0 2.125 -4.857226e-17 2 -0.09 2.125 -0.09 2 -4.857226e-17 1.875 0 2 -0.09 2 0 1.875 -0.09 1.75 6.938894e-18 1.875 -0.09 1.875 6.938894e-18 1.75 -0.09 1.625 2.775558e-17 1.75 -0.09 1.75 2.775558e-17 1.625 -0.09 1.5 6.938894e-18 1.625 -0.09 1.625 6.938894e-18 1.5 -0.09 1.375 -6.938894e-18 1.5 -0.09 1.5 -6.938894e-18 1.375 -0.09 1.25 0 1.375 -0.09 1.375 0 1.25 -0.09 1.25 0 1.125 -0.09 1.25 -0.09 1.125 0 1 -0.09 1 0 1 0 0.875 -0.09 1 -0.09 0.875 0 0.875 0 0.75 -0.09 0.875 -0.09 0.75 0</float_array>
                    <technique_common>
                        <accessor count="401" source="#ID54" stride="2">
                            <param name="S" type="float" />
                            <param name="T" type="float" />
                        </accessor>
                    </technique_common>
                </source>
                <vertices id="ID50">
                    <input semantic="POSITION" source="#ID48" />
                    <input semantic="NORMAL" source="#ID49" />
                </vertices>
                <triangles count="214" material="Material2">
                    <input offset="0" semantic="VERTEX" source="#ID50" />
                    <input offset="1" semantic="TEXCOORD" source="#ID51" />
                    <p>0 0 1 1 2 2 1 1 0 0 3 3 3 3 0 0 4 4 3 3 4 4 5 5 5 5 4 4 6 6 5 5 6 6 7 7 5 5 7 7 8 8 8 8 7 7 9 9 9 9 7 7 10 10 9 9 10 10 11 11 9 9 11 11 12 12 12 12 11 11 13 13 12 12 13 13 14 14 14 14 13 13 15 15 15 15 13 13 16 16 15 15 16 16 17 17 17 17 16 16 18 18 17 17 18 18 19 19 19 19 18 18 20 20 19 19 20 20 21 21 21 21 20 20 22 22 21 21 22 22 23 23 24 24 25 25 26 26 25 25 24 24 27 27 27 28 28 29 25 30 28 29 27 28 29 31 29 32 30 33 28 34 30 33 29 32 31 35 31 36 32 37 30 38 32 37 31 36 33 39 33 40 34 41 32 42 34 41 33 40 35 43 34 44 36 45 37 46 36 45 34 44 35 47 37 48 38 49 39 50 38 49 37 48 36 51 39 52 40 53 41 54 40 53 39 52 38 55 41 56 42 57 43 58 42 57 41 56 40 59 43 60 44 61 45 62 44 61 43 60 42 63 45 64 46 65 47 66 46 65 45 64 44 67 48 68 46 69 49 70 46 69 48 68 47 71 50 72 49 73 51 74 49 73 50 72 48 75 52 76 51 77 53 78 51 77 52 76 50 79 54 80 53 81 55 82 53 81 54 80 52 83 56 84 55 85 57 86 55 85 56 84 54 87 58 88 57 89 59 90 57 89 58 88 56 91 60 92 58 93 59 94 58 93 60 92 61 95 62 96 61 97 60 98 61 97 62 96 63 99 64 100 63 101 62 102 63 101 64 100 65 103 66 104 65 105 64 106 65 105 66 104 67 107 68 108 67 109 66 110 67 109 68 108 69 111 70 112 69 113 68 114 69 113 70 112 71 115 70 116 26 117 71 118 26 117 70 116 24 119 72 120 73 121 74 122 73 121 72 120 75 123 75 124 76 125 73 126 76 125 75 124 77 127 77 128 78 129 76 130 78 129 77 128 79 131 78 132 80 133 81 134 80 133 78 132 79 135 81 136 82 137 83 138 82 137 81 136 80 139 84 140 82 141 85 142 82 141 84 140 83 143 86 144 85 145 87 146 85 145 86 144 84 147 86 148 88 149 89 150 88 149 86 148 87 151 89 152 90 153 91 154 90 153 89 152 88 155 90 156 92 157 91 158 92 157 90 156 93 159 93 160 94 161 92 162 94 161 93 160 95 163 95 164 96 165 94 166 96 165 95 164 97 167 96 168 98 169 99 170 98 169 96 168 97 171 100 172 98 173 101 174 98 173 100 172 99 175 102 176 101 177 103 178 101 177 102 176 100 179 104 180 102 181 103 182 102 181 104 180 105 183 106 184 105 185 104 186 105 185 106 184 107 187 106 188 108 189 107 190 108 189 106 188 109 191 109 192 110 193 108 194 110 193 109 192 111 195 112 196 110 197 111 198 110 197 112 196 113 199 114 200 113 201 112 202 113 201 114 200 115 203 114 204 116 205 115 206 116 205 114 204 117 207 117 208 118 209 116 210 118 209 117 208 119 211 119 212 74 213 118 214 74 213 119 212 72 215 120 216 121 217 122 218 121 217 120 216 123 219 121 220 124 221 125 222 124 221 121 220 123 223 126 224 124 225 127 226 124 225 126 224 125 227 128 228 127 229 129 230 127 229 128 228 126 231 128 232 130 233 131 234 130 233 128 232 129 235 131 236 132 237 133 238 132 237 131 236 130 239 133 240 134 241 135 242 134 241 133 240 132 243 135 244 136 245 137 246 136 245 135 244 134 247 136 248 138 249 137 250 138 249 136 248 139 251 138 252 140 253 141 254 140 253 138 252 139 255 140 256 142 257 141 258 142 257 140 256 143 259 143 260 144 261 142 262 144 261 143 260 145 263 145 264 146 265 144 266 146 265 145 264 147 267 147 268 148 269 146 270 148 269 147 268 149 271 149 272 150 273 148 274 150 273 149 272 151 275 151 276 152 277 150 278 152 277 151 276 153 279 153 280 154 281 152 282 154 281 153 280 155 283 156 284 154 285 155 286 154 285 156 284 157 287 158 288 157 289 156 290 157 289 158 288 159 291 160 292 159 293 158 294 159 293 160 292 161 295 160 296 162 297 161 298 162 297 160 296 163 299 163 300 164 301 162 302 164 301 163 300 165 303 165 304 166 305 164 306 166 305 165 304 167 307 167 308 122 309 166 310 122 309 167 308 120 311 168 312 169 313 170 314 169 313 168 312 171 315 171 316 172 317 169 318 172 317 171 316 173 319 172 317 174 320 175 321 174 320 172 317 173 319 175 322 176 323 177 324 176 323 175 322 174 325 177 326 178 327 179 328 178 327 177 326 176 323 179 329 180 330 181 331 180 330 179 329 178 332 181 333 182 334 183 335 182 334 181 333 180 336 183 337 184 338 185 339 184 338 183 337 182 340 184 341 186 342 185 343 186 342 184 341 187 344 187 345 188 346 186 347 188 346 187 345 189 348 189 349 190 350 188 351 190 350 189 349 191 352 191 352 192 353 190 350 192 353 191 352 193 354 193 355 194 356 192 357 194 356 193 355 195 358 195 359 196 360 194 361 196 360 195 359 197 362 198 363 196 364 197 365 196 364 198 363 199 366 200 367 199 368 198 369 199 368 200 367 201 370 202 371 201 372 200 373 201 372 202 371 203 374 204 375 203 376 202 377 203 376 204 375 205 378 206 379 205 380 204 381 205 380 206 379 207 382 208 383 207 384 206 385 207 384 208 383 209 386 208 387 210 388 209 389 210 388 208 387 211 390 211 390 212 391 210 388 212 391 211 390 213 392 213 393 214 394 212 395 214 394 213 393 215 396 215 397 170 398 214 399 170 398 215 397 168 400</p>
                </triangles>
            </mesh>
        </geometry>
        <geometry id="ID57">
            <mesh>
                <source id="ID63">
                    <float_array id="ID67" count="222">0.7433971 -0.1181102 0.02012254 0.4377053 -0.1181102 0.02012254 0.5905512 -0.1181102 -6.661338e-16 0.8858268 -0.1181102 0.07911886 0.2952756 -0.1181102 0.07911886 1.008134 -0.1181102 0.1729684 0.1729684 -0.1181102 0.1729684 1.101984 -0.1181102 0.2952756 0.07911886 -0.1181102 0.2952756 1.16098 -0.1181102 0.4377053 0.02012254 -0.1181102 0.4377053 1.181102 -0.1181102 0.5905512 0 -0.1181102 0.5905512 1.122047 -0.1181102 1.219937 1.181102 -0.1181102 1.968504 1.122047 -0.1181102 1.909449 0.05905512 -0.1181102 1.909449 0.05905512 -0.1181102 1.219937 0 -0.1181102 1.968504 0 0 1.968504 0 -0.1181102 0.5905512 0 -0.1181102 1.968504 0 0 0.5905512 0 0 0.5905512 0.02012254 -0.1181102 0.4377053 0 -0.1181102 0.5905512 0.02012254 0 0.4377053 0.07911886 -0.1181102 0.2952756 0.07911886 0 0.2952756 0.1729684 -0.1181102 0.1729684 0.1729684 0 0.1729684 0.2952756 0 0.07911886 0.2952756 -0.1181102 0.07911886 0.4377053 0 0.02012254 0.4377053 -0.1181102 0.02012254 0.5905512 0 -6.661338e-16 0.5905512 -0.1181102 -6.661338e-16 0.7433971 0 0.02012254 0.5905512 -0.1181102 -6.661338e-16 0.5905512 0 -6.661338e-16 0.7433971 -0.1181102 0.02012254 0.8858268 0 0.07911886 0.8858268 -0.1181102 0.07911886 1.008134 0 0.1729684 1.008134 -0.1181102 0.1729684 1.101984 -0.1181102 0.2952756 1.101984 0 0.2952756 1.16098 -0.1181102 0.4377053 1.16098 0 0.4377053 1.181102 -0.1181102 0.5905512 1.181102 0 0.5905512 1.181102 0 0.5905512 1.181102 -0.1181102 1.968504 1.181102 -0.1181102 0.5905512 1.181102 0 1.968504 1.181102 -0.1181102 1.968504 0 0 1.968504 0 -0.1181102 1.968504 1.181102 0 1.968504 0.4377053 0 0.02012254 0.7433971 0 0.02012254 0.5905512 0 -6.661338e-16 0.2952756 0 0.07911886 0.8858268 0 0.07911886 1.008134 0 0.1729684 0.1729684 0 0.1729684 0.07911886 0 0.2952756 1.101984 0 0.2952756 1.16098 0 0.4377053 0.02012254 0 0.4377053 1.181102 0 0.5905512 0 0 0.5905512 1.181102 0 1.968504 0 0 1.968504</float_array>
                    <technique_common>
                        <accessor count="74" source="#ID67" stride="3">
                            <param name="X" type="float" />
                            <param name="Y" type="float" />
                            <param name="Z" type="float" />
                        </accessor>
                    </technique_common>
                </source>
                <source id="ID64">
                    <float_array id="ID68" count="222">0 -1 0 0 -1 0 0 -1 0 0 -1 0 0 -1 0 0 -1 0 0 -1 0 0 -1 0 0 -1 0 0 -1 0 0 -1 0 0 -1 0 0 -1 0 0 -1 0 0 -1 0 0 -1 0 0 -1 0 0 -1 0 0 -1 0 -1 0 0 -1 0 0 -1 0 0 -1 0 0 -0.9914449 0 -0.1305262 -0.9659258 0 -0.258819 -0.9914449 0 -0.1305262 -0.9659258 0 -0.258819 -0.8660254 0 -0.5 -0.8660254 0 -0.5 -0.7071068 0 -0.7071068 -0.7071068 0 -0.7071068 -0.5 0 -0.8660254 -0.5 0 -0.8660254 -0.258819 0 -0.9659258 -0.258819 0 -0.9659258 -0.1305262 0 -0.9914449 -0.1305262 0 -0.9914449 0.258819 0 -0.9659258 0.1305262 0 -0.9914449 0.1305262 0 -0.9914449 0.258819 0 -0.9659258 0.5 0 -0.8660254 0.5 0 -0.8660254 0.7071068 0 -0.7071068 0.7071068 0 -0.7071068 0.8660254 0 -0.5 0.8660254 0 -0.5 0.9659258 0 -0.258819 0.9659258 0 -0.258819 0.9914449 0 -0.1305262 0.9914449 0 -0.1305262 1 0 0 1 0 0 1 0 0 1 0 0 0 0 1 0 0 1 0 0 1 0 0 1 0 1 0 0 1 0 0 1 0 0 1 0 0 1 0 0 1 0 0 1 0 0 1 0 0 1 0 0 1 0 0 1 0 0 1 0 0 1 0 0 1 0 0 1 0</float_array>
                    <technique_common>
                        <accessor count="74" source="#ID68" stride="3">
                            <param name="X" type="float" />
                            <param name="Y" type="float" />
                            <param name="Z" type="float" />
                        </accessor>
                    </technique_common>
                </source>
                <source id="ID66">
                    <float_array id="ID69" count="178">0.3776457 0.01022225 0.2223543 0.01022225 0.3 -3.38396e-16 0.45 0.04019238 0.15 0.04019238 0.512132 0.08786797 0.08786797 0.08786797 0.5598076 0.15 0.04019238 0.15 0.5897777 0.2223543 0.01022225 0.2223543 0.6 0.3 0 0.3 0.57 0.619728 0.6 1 0.57 0.97 0.03 0.97 0.03 0.619728 0 1 0.06 0.3 0.06 1 0 0.2974335 0.06 0.2191177 0.06 0.2974335 0 0.2191177 0 0.2015167 0.06 0.123201 0.06 0.2015167 0 0.123201 0 0.09453543 0.06 0.01621972 0.06 0.09453543 0 0.01621972 0 -0.09453543 0.06 -0.01621972 0 -0.01621972 0.06 -0.09453543 0 -0.2015167 0.06 -0.123201 0 -0.123201 0.06 -0.2015167 0 -0.2974335 0.06 -0.2191177 0 -0.2191177 0.06 -0.2974335 0 0.3757492 -0.06 0.2974335 0 0.2974335 -0.06 0.3757492 0 0.4311267 -0.06 0.352811 0 0.352811 -0.06 0.4311267 0 0.4597923 -0.06 0.3814766 0 0.3814766 -0.06 0.4597923 0 0.3814766 -0.06 0.4597923 -0.06 0.3814766 0 0.4597923 0 0.352811 -0.06 0.4311267 -0.06 0.352811 0 0.4311267 0 0.2974335 -0.06 0.3757492 -0.06 0.2974335 0 0.3757492 0 0.3 -0.06 1 -0.06 0.3 0.6 -0.06 0 0 0 -0.06 0.6 0 -0.2223543 0.01022225 -0.3776457 0.01022225 -0.3 -3.38396e-16 -0.15 0.04019238 -0.45 0.04019238 -0.512132 0.08786797 -0.08786797 0.08786797 -0.04019238 0.15 -0.5598076 0.15 -0.5897777 0.2223543 -0.01022225 0.2223543 -0.6 0.3 -0.6 1</float_array>
                    <technique_common>
                        <accessor count="89" source="#ID69" stride="2">
                            <param name="S" type="float" />
                            <param name="T" type="float" />
                        </accessor>
                    </technique_common>
                </source>
                <vertices id="ID65">
                    <input semantic="POSITION" source="#ID63" />
                    <input semantic="NORMAL" source="#ID64" />
                </vertices>
                <triangles count="62" material="Material2">
                    <input offset="0" semantic="VERTEX" source="#ID65" />
                    <input offset="1" semantic="TEXCOORD" source="#ID66" />
                    <p>0 0 1 1 2 2 1 1 0 0 3 3 1 1 3 3 4 4 4 4 3 3 5 5 4 4 5 5 6 6 6 6 5 5 7 7 6 6 7 7 8 8 8 8 7 7 9 9 8 8 9 9 10 10 10 10 9 9 11 11 10 10 11 11 12 12 12 12 11 11 13 13 13 13 11 11 14 14 13 13 14 14 15 15 15 15 14 14 16 16 12 12 17 17 18 18 17 17 12 12 13 13 18 18 17 17 16 16 18 18 16 16 14 14 19 18 20 19 21 20 20 19 19 18 22 12 23 21 24 22 25 23 24 22 23 21 26 24 26 25 27 26 24 27 27 26 26 25 28 28 28 29 29 30 27 31 29 30 28 29 30 32 31 33 29 34 30 35 29 34 31 33 32 36 33 37 32 38 31 39 32 38 33 37 34 40 35 41 34 42 33 43 34 42 35 41 36 44 37 45 38 46 39 47 38 46 37 45 40 48 41 49 40 50 37 51 40 50 41 49 42 52 43 53 42 54 41 55 42 54 43 53 44 56 43 57 45 58 44 59 45 58 43 57 46 60 46 61 47 62 45 63 47 62 46 61 48 64 48 65 49 66 47 67 49 66 48 65 50 68 51 69 52 70 53 71 52 70 51 69 54 18 55 72 56 73 57 74 56 73 55 72 58 75 59 76 60 77 61 78 60 77 59 76 62 79 60 77 62 79 63 80 63 80 62 79 64 81 64 81 62 79 65 82 64 81 65 82 66 83 64 81 66 83 67 84 67 84 66 83 68 85 68 85 66 83 69 86 68 85 69 86 70 87 70 87 69 86 71 12 70 87 71 12 72 88 72 88 71 12 73 18</p>
                </triangles>
            </mesh>
        </geometry>
        <geometry id="ID70">
            <mesh>
                <source id="ID76">
                    <float_array id="ID80" count="12">1.122047 -0.05905512 1.909449 0.05905512 -0.05905512 1.219937 1.122047 -0.05905512 1.219937 0.05905512 -0.05905512 1.909449</float_array>
                    <technique_common>
                        <accessor count="4" source="#ID80" stride="3">
                            <param name="X" type="float" />
                            <param name="Y" type="float" />
                            <param name="Z" type="float" />
                        </accessor>
                    </technique_common>
                </source>
                <source id="ID77">
                    <float_array id="ID81" count="12">0 -1 0 0 -1 0 0 -1 0 0 -1 0</float_array>
                    <technique_common>
                        <accessor count="4" source="#ID81" stride="3">
                            <param name="X" type="float" />
                            <param name="Y" type="float" />
                            <param name="Z" type="float" />
                        </accessor>
                    </technique_common>
                </source>
                <source id="ID79">
                    <float_array id="ID82" count="8">0.9999999 0.9999999 -3.866455e-08 0.4208466 0.9999999 0.4208465 -1.387779e-17 1</float_array>
                    <technique_common>
                        <accessor count="4" source="#ID82" stride="2">
                            <param name="S" type="float" />
                            <param name="T" type="float" />
                        </accessor>
                    </technique_common>
                </source>
                <vertices id="ID78">
                    <input semantic="POSITION" source="#ID76" />
                    <input semantic="NORMAL" source="#ID77" />
                </vertices>
                <triangles count="2" material="Material2">
                    <input offset="0" semantic="VERTEX" source="#ID78" />
                    <input offset="1" semantic="TEXCOORD" source="#ID79" />
                    <p>0 0 1 1 2 2 1 1 0 0 3 3</p>
                </triangles>
            </mesh>
        </geometry>
        <geometry id="ID83">
            <mesh>
                <source id="ID84">
                    <float_array id="ID88" count="48">0.05905512 -0.05905512 1.219937 0.05905512 -0.1181102 1.909449 0.05905512 -0.1181102 1.219937 0.05905512 -0.05905512 1.909449 1.122047 -0.1181102 1.219937 0.05905512 -0.05905512 1.219937 0.05905512 -0.1181102 1.219937 1.122047 -0.05905512 1.219937 1.122047 -0.05905512 1.909449 0.05905512 -0.1181102 1.909449 0.05905512 -0.05905512 1.909449 1.122047 -0.1181102 1.909449 1.122047 -0.05905512 1.909449 1.122047 -0.1181102 1.219937 1.122047 -0.1181102 1.909449 1.122047 -0.05905512 1.219937</float_array>
                    <technique_common>
                        <accessor count="16" source="#ID88" stride="3">
                            <param name="X" type="float" />
                            <param name="Y" type="float" />
                            <param name="Z" type="float" />
                        </accessor>
                    </technique_common>
                </source>
                <source id="ID85">
                    <float_array id="ID89" count="48">1 0 0 1 0 0 1 0 0 1 0 0 0 0 1 0 0 1 0 0 1 0 0 1 -0 -0 -1 -0 -0 -1 -0 -0 -1 -0 -0 -1 -1 0 0 -1 0 0 -1 0 0 -1 0 0</float_array>
                    <technique_common>
                        <accessor count="16" source="#ID89" stride="3">
                            <param name="X" type="float" />
                            <param name="Y" type="float" />
                            <param name="Z" type="float" />
                        </accessor>
                    </technique_common>
                </source>
                <source id="ID87">
                    <float_array id="ID90" count="32">-0.03 0.619728 -0.06 0.97 -0.06 0.619728 -0.03 0.97 0.57 -0.06 0.03 -0.03 0.03 -0.06 0.57 -0.03 -0.57 -0.03 -0.03 -0.06 -0.03 -0.03 -0.57 -0.06 0.03 0.97 0.06 0.619728 0.06 0.97 0.03 0.619728</float_array>
                    <technique_common>
                        <accessor count="16" source="#ID90" stride="2">
                            <param name="S" type="float" />
                            <param name="T" type="float" />
                        </accessor>
                    </technique_common>
                </source>
                <vertices id="ID86">
                    <input semantic="POSITION" source="#ID84" />
                    <input semantic="NORMAL" source="#ID85" />
                </vertices>
                <triangles count="8" material="Material2">
                    <input offset="0" semantic="VERTEX" source="#ID86" />
                    <input offset="1" semantic="TEXCOORD" source="#ID87" />
                    <p>0 0 1 1 2 2 1 1 0 0 3 3 4 4 5 5 6 6 5 5 4 4 7 7 8 8 9 9 10 10 9 9 8 8 11 11 12 12 13 13 14 14 13 13 12 12 15 15</p>
                </triangles>
            </mesh>
        </geometry>
        <geometry id="ID91">
            <mesh>
                <source id="ID97">
                    <float_array id="ID101" count="24">1.122047 -0.1181102 1.909449 0.05905512 -0.1181102 1.219937 1.122047 -0.1181102 1.219937 0.05905512 -0.1181102 1.909449 0.05905512 -0.1181102 1.909449 1.122047 -0.1181102 1.909449 0.05905512 -0.1181102 1.219937 1.122047 -0.1181102 1.219937</float_array>
                    <technique_common>
                        <accessor count="8" source="#ID101" stride="3">
                            <param name="X" type="float" />
                            <param name="Y" type="float" />
                            <param name="Z" type="float" />
                        </accessor>
                    </technique_common>
                </source>
                <source id="ID98">
                    <float_array id="ID102" count="24">0 -1 0 0 -1 0 0 -1 0 0 -1 0 -0 1 -0 -0 1 -0 -0 1 -0 -0 1 -0</float_array>
                    <technique_common>
                        <accessor count="8" source="#ID102" stride="3">
                            <param name="X" type="float" />
                            <param name="Y" type="float" />
                            <param name="Z" type="float" />
                        </accessor>
                    </technique_common>
                </source>
                <source id="ID100">
                    <float_array id="ID103" count="8">0.01558399 0.02652012 0.00082021 0.01694357 0.01558399 0.01694357 0.00082021 0.02652012</float_array>
                    <technique_common>
                        <accessor count="4" source="#ID103" stride="2">
                            <param name="S" type="float" />
                            <param name="T" type="float" />
                        </accessor>
                    </technique_common>
                </source>
                <vertices id="ID99">
                    <input semantic="POSITION" source="#ID97" />
                    <input semantic="NORMAL" source="#ID98" />
                </vertices>
                <triangles count="4" material="Material2">
                    <input offset="0" semantic="VERTEX" source="#ID99" />
                    <input offset="1" semantic="TEXCOORD" source="#ID100" />
                    <p>0 0 1 1 2 2 1 1 0 0 3 3 4 3 5 0 6 1 7 2 6 1 5 0</p>
                </triangles>
            </mesh>
        </geometry>
    </library_geometries>
    <library_materials>
        <material id="ID6" name="plastic_black">
            <instance_effect url="#ID7" />
        </material>
        <material id="ID14" name="housing">
            <instance_effect url="#ID15" />
        </material>
        <material id="ID43" name="lens">
            <instance_effect url="#ID44" />
        </material>
        <material id="ID58" name="plastic_black_textured">
            <instance_effect url="#ID59" />
        </material>
        <material id="ID71" name="placard">
            <instance_effect url="#ID72" />
        </material>
        <material id="ID92" name="plastic_glass">
            <instance_effect url="#ID93" />
        </material>
    </library_materials>
    <library_effects>
        <effect id="ID7">
            <profile_COMMON>
                <technique sid="COMMON">
                    <lambert>
                        <diffuse>
                            <color>0.1372549 0.1372549 0.1372549 1</color>
                        </diffuse>
                    </lambert>
                </technique>
            </profile_COMMON>
        </effect>
        <effect id="ID15">
            <profile_COMMON>
                <newparam sid="ID17">
                    <surface type="2D">
                        <init_from>ID16</init_from>
                    </surface>
                </newparam>
                <newparam sid="ID18">
                    <sampler2D>
                        <source>ID17</source>
                    </sampler2D>
                </newparam>
                <technique sid="COMMON">
                    <lambert>
                        <diffuse>
                            <texture texture="ID18" texcoord="UVSET0" />
                        </diffuse>
                    </lambert>
                </technique>
            </profile_COMMON>
        </effect>
        <effect id="ID44">
            <profile_COMMON>
                <newparam sid="ID46">
                    <surface type="2D">
                        <init_from>ID45</init_from>
                    </surface>
                </newparam>
                <newparam sid="ID47">
                    <sampler2D>
                        <source>ID46</source>
                    </sampler2D>
                </newparam>
                <technique sid="COMMON">
                    <lambert>
                        <diffuse>
                            <texture texture="ID47" texcoord="UVSET0" />
                        </diffuse>
                    </lambert>
                </technique>
            </profile_COMMON>
        </effect>
        <effect id="ID59">
            <profile_COMMON>
                <newparam sid="ID61">
                    <surface type="2D">
                        <init_from>ID60</init_from>
                    </surface>
                </newparam>
                <newparam sid="ID62">
                    <sampler2D>
                        <source>ID61</source>
                    </sampler2D>
                </newparam>
                <technique sid="COMMON">
                    <lambert>
                        <diffuse>
                            <texture texture="ID62" texcoord="UVSET0" />
                        </diffuse>
                    </lambert>
                </technique>
            </profile_COMMON>
        </effect>
        <effect id="ID72">
            <profile_COMMON>
                <newparam sid="ID74">
                    <surface type="2D">
                        <init_from>ID73</init_from>
                    </surface>
                </newparam>
                <newparam sid="ID75">
                    <sampler2D>
                        <source>ID74</source>
                    </sampler2D>
                </newparam>
                <technique sid="COMMON">
                    <lambert>
                        <diffuse>
                            <texture texture="ID75" texcoord="UVSET0" />
                        </diffuse>
                    </lambert>
                </technique>
            </profile_COMMON>
        </effect>
        <effect id="ID93">
            <profile_COMMON>
                <newparam sid="ID95">
                    <surface type="2D">
                        <init_from>ID94</init_from>
                    </surface>
                </newparam>
                <newparam sid="ID96">
                    <sampler2D>
                        <source>ID95</source>
                    </sampler2D>
                </newparam>
                <technique sid="COMMON">
                    <lambert>
                        <diffuse>
                            <texture texture="ID96" texcoord="UVSET0" />
                        </diffuse>
                        <transparent opaque="RGB_ZERO">
                            <color>0.48 0.48 0.48 1</color>
                        </transparent>
                        <transparency>
                            <float>1</float>
                        </transparency>
                    </lambert>
                </technique>
            </profile_COMMON>
        </effect>
    </library_effects>
    <library_images>
        <image id="ID16">
            <init_from>pilot_light/housing.jpg</init_from>
        </image>
        <image id="ID45">
            <init_from>pilot_light/lens.jpg</init_from>
        </image>
        <image id="ID60">
            <init_from>pilot_light/plastic_black_textured.jpg</init_from>
        </image>
        <image id="ID73">
            <init_from>pilot_light/placard.png</init_from>
        </image>
        <image id="ID94">
            <init_from>pilot_light/plastic_glass.jpg</init_from>
        </image>
    </library_images>
    <scene>
        <instance_visual_scene url="#ID2" />
    </scene>
</COLLADA>
