<?xml version="1.0" encoding="UTF-8" standalone="no" ?>
<COLLADA xmlns="http://www.collada.org/2005/11/COLLADASchema" version="1.4.1">
    <asset>
        <contributor>
            <authoring_tool>SketchUp 17.2.2555</authoring_tool>
        </contributor>
        <created>2026-06-01T23:42:30Z</created>
        <modified>2026-06-01T23:42:30Z</modified>
        <unit meter="0.0254" name="inch" />
        <up_axis>Z_UP</up_axis>
    </asset>
    <library_cameras>
        <camera id="ID1" name="skp_camera_Last_Saved_SketchUp_View">
            <optics>
                <technique_common>
                    <perspective>
                        <yfov>35</yfov>
                        <aspect_ratio>0</aspect_ratio>
                        <znear>0.1</znear>
                        <zfar>2</zfar>
                    </perspective>
                </technique_common>
            </optics>
        </camera>
    </library_cameras>
    <library_visual_scenes>
        <visual_scene id="ID2">
            <node name="SketchUp">
                <node name="skp_camera_Last_Saved_SketchUp_View">
                    <matrix>0.7755043 0.1826393 -0.6043476 -2.939928 -0.6313423 0.2243435 -0.7423455 -4.188953 -2.775558e-17 0.9572424 0.2892872 2.536572 0 0 0 1</matrix>
                    <instance_camera url="#ID1" />
                </node>
                <node id="ID3" name="instance_0">
                    <matrix>1 0 0 0.5905512 0 1 0 -0.5648071 0 0 1 0.5804409 0 0 0 1</matrix>
                    <instance_node url="#ID4" />
                </node>
                <node id="ID61" name="instance_1">
                    <matrix>1 0 0 0 0 1 0 0 0 0 1 0 0 0 0 1</matrix>
                    <instance_node url="#ID62" />
                </node>
            </node>
        </visual_scene>
    </library_visual_scenes>
    <library_nodes>
        <node id="ID4" name="speaker">
            <instance_geometry url="#ID5">
                <bind_material>
                    <technique_common>
                        <instance_material symbol="Material2" target="#ID6">
                            <bind_vertex_input semantic="UVSET0" input_semantic="TEXCOORD" input_set="0" />
                        </instance_material>
                    </technique_common>
                </bind_material>
            </instance_geometry>
            <instance_geometry url="#ID13">
                <bind_material>
                    <technique_common>
                        <instance_material symbol="Material2" target="#ID14">
                            <bind_vertex_input semantic="UVSET0" input_semantic="TEXCOORD" input_set="0" />
                        </instance_material>
                    </technique_common>
                </bind_material>
            </instance_geometry>
            <instance_geometry url="#ID26">
                <bind_material>
                    <technique_common>
                        <instance_material symbol="Material2" target="#ID14">
                            <bind_vertex_input semantic="UVSET0" input_semantic="TEXCOORD" input_set="0" />
                        </instance_material>
                    </technique_common>
                </bind_material>
            </instance_geometry>
            <instance_geometry url="#ID34">
                <bind_material>
                    <technique_common>
                        <instance_material symbol="Material2" target="#ID14">
                            <bind_vertex_input semantic="UVSET0" input_semantic="TEXCOORD" input_set="0" />
                        </instance_material>
                    </technique_common>
                </bind_material>
            </instance_geometry>
            <instance_geometry url="#ID42">
                <bind_material>
                    <technique_common>
                        <instance_material symbol="Material2" target="#ID6">
                            <bind_vertex_input semantic="UVSET0" input_semantic="TEXCOORD" input_set="0" />
                        </instance_material>
                    </technique_common>
                </bind_material>
            </instance_geometry>
            <instance_geometry url="#ID48">
                <bind_material>
                    <technique_common>
                        <instance_material symbol="Material2" target="#ID49">
                            <bind_vertex_input semantic="UVSET0" input_semantic="TEXCOORD" input_set="0" />
                        </instance_material>
                    </technique_common>
                </bind_material>
            </instance_geometry>
        </node>
        <node id="ID62" name="placard">
            <instance_geometry url="#ID63">
                <bind_material>
                    <technique_common>
                        <instance_material symbol="Material2" target="#ID64">
                            <bind_vertex_input semantic="UVSET0" input_semantic="TEXCOORD" input_set="0" />
                        </instance_material>
                    </technique_common>
                </bind_material>
            </instance_geometry>
            <instance_geometry url="#ID76">
                <bind_material>
                    <technique_common>
                        <instance_material symbol="Material2" target="#ID77">
                            <bind_vertex_input semantic="UVSET0" input_semantic="TEXCOORD" input_set="0" />
                        </instance_material>
                    </technique_common>
                </bind_material>
            </instance_geometry>
            <instance_geometry url="#ID89">
                <bind_material>
                    <technique_common>
                        <instance_material symbol="Material2" target="#ID64">
                            <bind_vertex_input semantic="UVSET0" input_semantic="TEXCOORD" input_set="0" />
                        </instance_material>
                    </technique_common>
                </bind_material>
            </instance_geometry>
            <instance_geometry url="#ID97">
                <bind_material>
                    <technique_common>
                        <instance_material symbol="Material2" target="#ID98">
                            <bind_vertex_input semantic="UVSET0" input_semantic="TEXCOORD" input_set="0" />
                        </instance_material>
                    </technique_common>
                </bind_material>
            </instance_geometry>
        </node>
    </library_nodes>
    <library_geometries>
        <geometry id="ID5">
            <mesh>
                <source id="ID8">
                    <float_array id="ID11" count="432">-0.5317155 0.4388228 0.1424728 -0.4658126 0.4289843 0.268937 -0.5195464 0.4289843 0.139212 -0.4767231 0.4388228 0.2752362 -0.4767231 0.4388228 0.2752362 -0.5317155 0.4033425 0.1424728 -0.4767231 0.4033425 0.2752362 -0.5317155 0.4388228 0.1424728 -0.3803344 0.4289843 0.3803344 -0.3892428 0.4388228 0.3892428 -0.537874 0.4289843 -6.661338e-16 -0.5504724 0.4388228 -6.661338e-16 -0.3892428 0.4388228 0.3892428 -0.3892428 0.4033425 0.3892428 -0.5504724 0.4033425 -6.661338e-16 -0.5504724 0.4388228 -6.661338e-16 -0.4659059 0.4131811 0.2689909 -0.5317155 0.4033425 0.1424728 -0.5196505 0.4131811 0.1392399 -0.4767231 0.4033425 0.2752362 -0.268937 0.4289843 0.4658126 -0.2752362 0.4388228 0.4767231 -0.5195464 0.4289843 -0.139212 -0.5317155 0.4388228 -0.1424728 -0.2752362 0.4033425 0.4767231 -0.2752362 0.4388228 0.4767231 -0.3804106 0.4131811 0.3804106 -0.3892428 0.4033425 0.3892428 -0.5317155 0.4033425 -0.1424728 -0.5317155 0.4388228 -0.1424728 -0.5504724 0.4033425 -6.661338e-16 -0.5379818 0.4131811 -7.771561e-16 -0.139212 0.4289843 0.5195464 -0.1424728 0.4388228 0.5317155 -0.4658126 0.4289843 -0.268937 -0.4767231 0.4388228 -0.2752362 -0.2689909 0.4131811 0.4659059 -0.2752362 0.4033425 0.4767231 -0.1424728 0.4033425 0.5317155 -0.1424728 0.4388228 0.5317155 -0.4767231 0.4033425 -0.2752362 -0.4767231 0.4388228 -0.2752362 -0.5196505 0.4131811 -0.1392399 -0.5317155 0.4033425 -0.1424728 7.771561e-16 0.4289843 0.537874 7.771561e-16 0.4388228 0.5504724 -0.3803344 0.4289843 -0.3803344 -0.3892428 0.4388228 -0.3892428 -0.1392399 0.4131811 0.5196505 -0.1424728 0.4033425 0.5317155 7.771561e-16 0.4033425 0.5504724 7.771561e-16 0.4388228 0.5504724 -0.3892428 0.4033425 -0.3892428 -0.3892428 0.4388228 -0.3892428 -0.4659059 0.4131811 -0.2689909 -0.4767231 0.4033425 -0.2752362 0.1424728 0.4388228 0.5317155 0.139212 0.4289843 0.5195464 -0.268937 0.4289843 -0.4658126 -0.2752362 0.4388228 -0.4767231 -1.110223e-16 0.4131811 0.5379818 7.771561e-16 0.4033425 0.5504724 0.1424728 0.4033425 0.5317155 0.1424728 0.4388228 0.5317155 -0.2752362 0.4388228 -0.4767231 -0.2752362 0.4033425 -0.4767231 -0.3804106 0.4131811 -0.3804106 -0.3892428 0.4033425 -0.3892428 0.2752362 0.4388228 0.4767231 0.268937 0.4289843 0.4658126 -0.139212 0.4289843 -0.5195464 -0.1424728 0.4388228 -0.5317155 0.1424728 0.4033425 0.5317155 0.1392399 0.4131811 0.5196505 0.2752362 0.4033425 0.4767231 0.2752362 0.4388228 0.4767231 -0.1424728 0.4388228 -0.5317155 -0.1424728 0.4033425 -0.5317155 -0.2689909 0.4131811 -0.4659059 -0.2752362 0.4033425 -0.4767231 0.3892428 0.4388228 0.3892428 0.3803344 0.4289843 0.3803344 7.771561e-16 0.4289843 -0.537874 7.771561e-16 0.4388228 -0.5504724 0.2752362 0.4033425 0.4767231 0.2689909 0.4131811 0.4659059 0.3892428 0.4033425 0.3892428 0.3892428 0.4388228 0.3892428 7.771561e-16 0.4388228 -0.5504724 7.771561e-16 0.4033425 -0.5504724 -0.1392399 0.4131811 -0.5196505 -0.1424728 0.4033425 -0.5317155 0.4767231 0.4388228 0.2752362 0.4658126 0.4289843 0.268937 0.1424728 0.4388228 -0.5317155 0.139212 0.4289843 -0.5195464 0.3892428 0.4033425 0.3892428 0.3804106 0.4131811 0.3804106 0.4767231 0.4388228 0.2752362 0.4767231 0.4033425 0.2752362 0.1424728 0.4388228 -0.5317155 0.1424728 0.4033425 -0.5317155 1.44329e-15 0.4131811 -0.5379818 7.771561e-16 0.4033425 -0.5504724 0.5317155 0.4388228 0.1424728 0.5195464 0.4289843 0.139212 0.2752362 0.4388228 -0.4767231 0.268937 0.4289843 -0.4658126 0.4767231 0.4033425 0.2752362 0.4659059 0.4131811 0.2689909 0.5317155 0.4388228 0.1424728 0.5317155 0.4033425 0.1424728 0.2752362 0.4388228 -0.4767231 0.2752362 0.4033425 -0.4767231 0.1424728 0.4033425 -0.5317155 0.1392399 0.4131811 -0.5196505 0.5504724 0.4388228 -5.551115e-16 0.537874 0.4289843 -5.551115e-16 0.3892428 0.4388228 -0.3892428 0.3803344 0.4289843 -0.3803344 0.5317155 0.4033425 0.1424728 0.5196505 0.4131811 0.1392399 0.5504724 0.4388228 -5.551115e-16 0.5504724 0.4033425 -5.551115e-16 0.3892428 0.4388228 -0.3892428 0.3892428 0.4033425 -0.3892428 0.2752362 0.4033425 -0.4767231 0.2689909 0.4131811 -0.4659059 0.5195464 0.4289843 -0.139212 0.5317155 0.4388228 -0.1424728 0.4767231 0.4388228 -0.2752362 0.4658126 0.4289843 -0.268937 0.5379818 0.4131811 0 0.5504724 0.4033425 -5.551115e-16 0.5317155 0.4388228 -0.1424728 0.5317155 0.4033425 -0.1424728 0.4767231 0.4033425 -0.2752362 0.4767231 0.4388228 -0.2752362 0.3892428 0.4033425 -0.3892428 0.3804106 0.4131811 -0.3804106 0.5196505 0.4131811 -0.1392399 0.5317155 0.4033425 -0.1424728 0.4767231 0.4033425 -0.2752362 0.4659059 0.4131811 -0.2689909</float_array>
                    <technique_common>
                        <accessor count="144" source="#ID11" stride="3">
                            <param name="X" type="float" />
                            <param name="Y" type="float" />
                            <param name="Z" type="float" />
                        </accessor>
                    </technique_common>
                </source>
                <source id="ID9">
                    <float_array id="ID12" count="432">0.5945187 0.7881438 -0.1593008 0.5330309 0.7881438 -0.3077455 0.5945187 0.7881438 -0.1593008 0.5330309 0.7881438 -0.3077455 -0.8660254 7.748474e-32 0.5 -0.9659258 8.548474e-32 0.258819 -0.8660254 7.748474e-32 0.5 -0.9659258 8.548474e-32 0.258819 0.4352179 0.7881438 -0.4352179 0.4352179 0.7881438 -0.4352179 0.6154911 0.7881438 1.58044e-16 0.6154911 0.7881438 1.660084e-16 -0.7071068 -5.148425e-32 0.7071068 -0.7071068 -5.148425e-32 0.7071068 -1 -1.043899e-31 -2.762444e-16 -1 -1.043899e-31 -2.762444e-16 0.535874 -0.785569 -0.309387 0.5976898 -0.785569 -0.1601505 0.5976898 -0.785569 -0.1601505 0.535874 -0.785569 -0.309387 0.3077455 0.7881438 -0.5330309 0.3077455 0.7881438 -0.5330309 0.5945187 0.7881438 0.1593008 0.5945187 0.7881438 0.1593008 -0.5 5.550954e-32 0.8660254 -0.5 5.550954e-32 0.8660254 0.4375393 -0.785569 -0.4375393 0.4375393 -0.785569 -0.4375393 -0.9659258 -1.02672e-31 -0.258819 -0.9659258 -1.02672e-31 -0.258819 0.618774 -0.785569 -1.138121e-16 0.618774 -0.785569 6.406456e-16 0.1593008 0.7881438 -0.5945187 0.1593008 0.7881438 -0.5945187 0.5330309 0.7881438 0.3077455 0.5330309 0.7881438 0.3077455 0.309387 -0.785569 -0.535874 0.309387 -0.785569 -0.535874 -0.258819 9.899379e-32 0.9659258 -0.258819 9.899379e-32 0.9659258 -0.8660254 4.176635e-32 -0.5 -0.8660254 4.176635e-32 -0.5 0.5976898 -0.785569 0.1601505 0.5976898 -0.785569 0.1601505 3.99269e-16 0.7881438 -0.6154911 3.604754e-16 0.7881438 -0.6154911 0.4352179 0.7881438 0.4352179 0.4352179 0.7881438 0.4352179 0.1601505 -0.785569 -0.5976898 0.1601505 -0.785569 -0.5976898 -5.346666e-16 1.383958e-47 1 -5.346666e-16 1.383958e-47 1 -0.7071068 8.35327e-32 -0.7071068 -0.7071068 8.35327e-32 -0.7071068 0.535874 -0.785569 0.309387 0.535874 -0.785569 0.309387 -0.1593008 0.7881438 -0.5945187 -0.1593008 0.7881438 -0.5945187 0.3077455 0.7881438 0.5330309 0.3077455 0.7881438 0.5330309 3.46947e-15 -0.785569 -0.618774 -2.375828e-15 -0.785569 -0.618774 0.258819 -1.179115e-32 0.9659258 0.258819 -1.179115e-32 0.9659258 -0.5 1.32749e-32 -0.8660254 -0.5 1.32749e-32 -0.8660254 0.4375393 -0.785569 0.4375393 0.4375393 -0.785569 0.4375393 -0.3077455 0.7881438 -0.5330309 -0.3077455 0.7881438 -0.5330309 0.1593008 0.7881438 0.5945187 0.1593008 0.7881438 0.5945187 -0.1601505 -0.785569 -0.5976898 -0.1601505 -0.785569 -0.5976898 0.5 -5.18396e-32 0.8660254 0.5 -5.18396e-32 0.8660254 -0.258819 -1.328813e-31 -0.9659258 -0.258819 -1.328813e-31 -0.9659258 0.309387 -0.785569 0.535874 0.309387 -0.785569 0.535874 -0.4352179 0.7881438 -0.4352179 -0.4352179 0.7881438 -0.4352179 3.327241e-17 0.7881438 0.6154911 2.845859e-17 0.7881438 0.6154911 -0.309387 -0.785569 -0.535874 -0.309387 -0.785569 -0.535874 0.7071068 -8.35327e-32 0.7071068 0.7071068 -8.35327e-32 0.7071068 -5.346666e-17 -2.122156e-31 -1 -5.346666e-17 -2.122156e-31 -1 0.1601505 -0.785569 0.5976898 0.1601505 -0.785569 0.5976898 -0.5330309 0.7881438 -0.3077455 -0.5330309 0.7881438 -0.3077455 -0.1593008 0.7881438 0.5945187 -0.1593008 0.7881438 0.5945187 -0.4375393 -0.785569 -0.4375393 -0.4375393 -0.785569 -0.4375393 0.8660254 1.694484e-32 0.5 0.8660254 1.694484e-32 0.5 0.258819 -6.926099e-32 -0.9659258 0.258819 -6.926099e-32 -0.9659258 -2.421141e-15 -0.785569 0.618774 1.968001e-15 -0.785569 0.618774 -0.5945187 0.7881438 -0.1593008 -0.5945187 0.7881438 -0.1593008 -0.3077455 0.7881438 0.5330309 -0.3077455 0.7881438 0.5330309 -0.535874 -0.785569 -0.309387 -0.535874 -0.785569 -0.309387 0.9659258 5.871119e-32 0.258819 0.9659258 5.871119e-32 0.258819 0.5 -3.201653e-33 -0.8660254 0.5 -3.201653e-33 -0.8660254 -0.1601505 -0.785569 0.5976898 -0.1601505 -0.785569 0.5976898 -0.6154911 0.7881438 -1.138343e-16 -0.6154911 0.7881438 -1.663621e-16 -0.4352179 0.7881438 0.4352179 -0.4352179 0.7881438 0.4352179 -0.5976898 -0.785569 -0.1601505 -0.5976898 -0.785569 -0.1601505 1 -1.043899e-31 1.693111e-16 1 -1.043899e-31 1.693111e-16 0.7071068 -8.35327e-32 -0.7071068 0.7071068 -8.35327e-32 -0.7071068 -0.309387 -0.785569 0.535874 -0.309387 -0.785569 0.535874 -0.5945187 0.7881438 0.1593008 -0.5945187 0.7881438 0.1593008 -0.5330309 0.7881438 0.3077455 -0.5330309 0.7881438 0.3077455 -0.618774 -0.785569 -2.104978e-15 -0.618774 -0.785569 1.517495e-15 0.9659258 -1.731743e-31 -0.258819 0.9659258 -1.731743e-31 -0.258819 0.8660254 -1.105508e-31 -0.5 0.8660254 -1.105508e-31 -0.5 -0.4375393 -0.785569 0.4375393 -0.4375393 -0.785569 0.4375393 -0.5976898 -0.785569 0.1601505 -0.5976898 -0.785569 0.1601505 -0.535874 -0.785569 0.309387 -0.535874 -0.785569 0.309387</float_array>
                    <technique_common>
                        <accessor count="144" source="#ID12" stride="3">
                            <param name="X" type="float" />
                            <param name="Y" type="float" />
                            <param name="Z" type="float" />
                        </accessor>
                    </technique_common>
                </source>
                <vertices id="ID10">
                    <input semantic="POSITION" source="#ID8" />
                    <input semantic="NORMAL" source="#ID9" />
                </vertices>
                <triangles count="144" material="Material2">
                    <input offset="0" semantic="VERTEX" source="#ID10" />
                    <p>0 1 2 1 0 3 4 5 6 5 4 7 3 8 1 8 3 9 0 10 11 10 0 2 12 6 13 6 12 4 7 14 5 14 7 15 16 17 18 17 16 19 9 20 8 20 9 21 11 22 23 22 11 10 24 12 13 12 24 25 26 19 16 19 26 27 15 28 14 28 15 29 18 30 31 30 18 17 21 32 20 32 21 33 23 34 35 34 23 22 36 27 26 27 36 37 38 25 24 25 38 39 29 40 28 40 29 41 42 30 43 30 42 31 33 44 32 44 33 45 35 46 47 46 35 34 48 37 36 37 48 49 50 39 38 39 50 51 41 52 40 52 41 53 54 43 55 43 54 42 44 56 57 56 44 45 47 58 59 58 47 46 60 49 48 49 60 61 62 51 50 51 62 63 64 52 53 52 64 65 66 55 67 55 66 54 57 68 69 68 57 56 59 70 71 70 59 58 72 60 73 60 72 61 74 63 62 63 74 75 76 65 64 65 76 77 78 67 79 67 78 66 69 80 81 80 69 68 71 82 83 82 71 70 84 73 85 73 84 72 86 75 74 75 86 87 88 77 76 77 88 89 90 79 91 79 90 78 81 92 93 92 81 80 82 94 83 94 82 95 96 85 97 85 96 84 98 86 99 86 98 87 100 89 88 89 100 101 102 91 103 91 102 90 93 104 105 104 93 92 95 106 94 106 95 107 108 97 109 97 108 96 110 99 111 99 110 98 112 101 100 101 112 113 114 102 103 102 114 115 105 116 117 116 105 104 107 118 106 118 107 119 120 109 121 109 120 108 122 111 123 111 122 110 124 113 112 113 124 125 126 115 114 115 126 127 128 116 129 116 128 117 119 130 118 130 119 131 120 132 133 132 120 121 134 123 135 123 134 122 124 136 125 136 124 137 138 127 126 127 138 139 131 129 130 129 131 128 133 140 141 140 133 132 137 135 136 135 137 134 142 139 138 139 142 143 141 143 142 143 141 140</p>
                </triangles>
            </mesh>
        </geometry>
        <geometry id="ID13">
            <mesh>
                <source id="ID19">
                    <float_array id="ID23" count="144">-0.268937 0.4289843 0.4658126 -0.3803344 0.4466969 0.3803344 -0.3803344 0.4289843 0.3803344 -0.268937 0.4466969 0.4658126 -0.4658126 0.4289843 0.268937 -0.4658126 0.4466969 0.268937 -0.139212 0.4289843 0.5195464 -0.139212 0.4466969 0.5195464 -0.5195464 0.4289843 0.139212 -0.5195464 0.4466969 0.139212 7.771561e-16 0.4289843 0.537874 7.771561e-16 0.4466969 0.537874 -0.537874 0.4289843 -6.661338e-16 -0.537874 0.4466969 -6.661338e-16 0.139212 0.4289843 0.5195464 0.139212 0.4466969 0.5195464 -0.5195464 0.4289843 -0.139212 -0.5195464 0.4466969 -0.139212 0.268937 0.4289843 0.4658126 0.268937 0.4466969 0.4658126 -0.4658126 0.4289843 -0.268937 -0.4658126 0.4466969 -0.268937 0.3803344 0.4289843 0.3803344 0.3803344 0.4466969 0.3803344 -0.3803344 0.4289843 -0.3803344 -0.3803344 0.4466969 -0.3803344 0.4658126 0.4466969 0.268937 0.4658126 0.4289843 0.268937 -0.268937 0.4466969 -0.4658126 -0.268937 0.4289843 -0.4658126 0.5195464 0.4466969 0.139212 0.5195464 0.4289843 0.139212 -0.139212 0.4466969 -0.5195464 -0.139212 0.4289843 -0.5195464 0.537874 0.4466969 -5.551115e-16 0.537874 0.4289843 -5.551115e-16 7.771561e-16 0.4466969 -0.537874 7.771561e-16 0.4289843 -0.537874 0.5195464 0.4466969 -0.139212 0.5195464 0.4289843 -0.139212 0.139212 0.4466969 -0.5195464 0.139212 0.4289843 -0.5195464 0.4658126 0.4466969 -0.268937 0.4658126 0.4289843 -0.268937 0.268937 0.4466969 -0.4658126 0.268937 0.4289843 -0.4658126 0.3803344 0.4466969 -0.3803344 0.3803344 0.4289843 -0.3803344</float_array>
                    <technique_common>
                        <accessor count="48" source="#ID23" stride="3">
                            <param name="X" type="float" />
                            <param name="Y" type="float" />
                            <param name="Z" type="float" />
                        </accessor>
                    </technique_common>
                </source>
                <source id="ID20">
                    <float_array id="ID24" count="144">-0.5 0 0.8660254 -0.7071068 0 0.7071068 -0.7071068 0 0.7071068 -0.5 0 0.8660254 -0.8660254 0 0.5 -0.8660254 0 0.5 -0.258819 0 0.9659258 -0.258819 0 0.9659258 -0.9659258 0 0.258819 -0.9659258 0 0.258819 -6.059555e-16 0 1 -6.059555e-16 0 1 -1 0 -2.762444e-16 -1 0 -2.762444e-16 0.258819 0 0.9659258 0.258819 0 0.9659258 -0.9659258 0 -0.258819 -0.9659258 0 -0.258819 0.5 0 0.8660254 0.5 0 0.8660254 -0.8660254 0 -0.5 -0.8660254 0 -0.5 0.7071068 0 0.7071068 0.7071068 0 0.7071068 -0.7071068 0 -0.7071068 -0.7071068 0 -0.7071068 0.8660254 0 0.5 0.8660254 0 0.5 -0.5 0 -0.8660254 -0.5 0 -0.8660254 0.9659258 0 0.258819 0.9659258 0 0.258819 -0.258819 0 -0.9659258 -0.258819 0 -0.9659258 1 0 1.782222e-16 1 0 1.782222e-16 -7.128888e-17 0 -1 -7.128888e-17 0 -1 0.9659258 0 -0.258819 0.9659258 0 -0.258819 0.258819 0 -0.9659258 0.258819 0 -0.9659258 0.8660254 0 -0.5 0.8660254 0 -0.5 0.5 0 -0.8660254 0.5 0 -0.8660254 0.7071068 0 -0.7071068 0.7071068 0 -0.7071068</float_array>
                    <technique_common>
                        <accessor count="48" source="#ID24" stride="3">
                            <param name="X" type="float" />
                            <param name="Y" type="float" />
                            <param name="Z" type="float" />
                        </accessor>
                    </technique_common>
                </source>
                <source id="ID22">
                    <float_array id="ID25" count="88">-0.13662 0.217924 -0.1932099 0.226922 -0.1932099 0.217924 -0.13662 0.226922 -0.2366328 0.217924 -0.2366328 0.226922 -0.07071972 0.217924 -0.07071972 0.226922 -0.2639296 0.217924 -0.2639296 0.226922 3.947953e-16 0.217924 3.947953e-16 0.226922 -0.27324 0.217924 -0.27324 0.226922 0.07071972 0.217924 0.07071972 0.226922 0.13662 0.217924 0.13662 0.226922 -0.2366328 0.217924 -0.2366328 0.226922 0.1932099 0.217924 0.1932099 0.226922 -0.1932099 0.217924 -0.1932099 0.226922 0.2366328 0.226922 0.2366328 0.217924 -0.13662 0.226922 -0.13662 0.217924 0.2639296 0.226922 0.2639296 0.217924 -0.07071972 0.226922 -0.07071972 0.217924 0.27324 0.226922 0.27324 0.217924 0.2639296 0.226922 0.2639296 0.217924 0.07071972 0.226922 0.07071972 0.217924 0.2366328 0.226922 0.2366328 0.217924 0.13662 0.226922 0.13662 0.217924 0.1932099 0.226922 0.1932099 0.217924</float_array>
                    <technique_common>
                        <accessor count="44" source="#ID25" stride="2">
                            <param name="S" type="float" />
                            <param name="T" type="float" />
                        </accessor>
                    </technique_common>
                </source>
                <vertices id="ID21">
                    <input semantic="POSITION" source="#ID19" />
                    <input semantic="NORMAL" source="#ID20" />
                </vertices>
                <triangles count="48" material="Material2">
                    <input offset="0" semantic="VERTEX" source="#ID21" />
                    <input offset="1" semantic="TEXCOORD" source="#ID22" />
                    <p>0 0 1 1 2 2 1 1 0 0 3 3 1 1 4 4 2 2 4 4 1 1 5 5 6 6 3 3 0 0 3 3 6 6 7 7 5 5 8 8 4 4 8 8 5 5 9 9 10 10 7 7 6 6 7 7 10 10 11 11 9 9 12 12 8 8 12 12 9 9 13 13 14 14 11 11 10 10 11 11 14 14 15 15 13 13 16 8 12 12 16 8 13 13 17 9 18 16 15 15 14 14 15 15 18 16 19 17 17 9 20 18 16 8 20 18 17 9 21 19 22 20 19 17 18 16 19 17 22 20 23 21 21 19 24 22 20 18 24 22 21 19 25 23 26 24 22 20 27 25 22 20 26 24 23 21 28 26 24 22 25 23 24 22 28 26 29 27 30 28 27 25 31 29 27 25 30 28 26 24 32 30 29 27 28 26 29 27 32 30 33 31 34 32 31 29 35 33 31 29 34 32 30 28 36 11 33 31 32 30 33 31 36 11 37 10 38 34 35 33 39 35 35 33 38 34 34 32 40 36 37 10 36 11 37 10 40 36 41 37 42 38 39 35 43 39 39 35 42 38 38 34 44 40 41 37 40 36 41 37 44 40 45 41 46 42 43 39 47 43 43 39 46 42 42 38 46 42 45 41 44 40 45 41 46 42 47 43</p>
                </triangles>
            </mesh>
        </geometry>
        <geometry id="ID26">
            <mesh>
                <source id="ID27">
                    <float_array id="ID31" count="144">1.44329e-15 0.4131811 -0.5379818 -0.1392399 0.3954409 -0.5196505 -0.1392399 0.4131811 -0.5196505 1.44329e-15 0.3954409 -0.5379818 0.1392399 0.4131811 -0.5196505 0.1392399 0.3954409 -0.5196505 -0.2689909 0.3954409 -0.4659059 -0.2689909 0.4131811 -0.4659059 0.2689909 0.4131811 -0.4659059 0.2689909 0.3954409 -0.4659059 -0.3804106 0.3954409 -0.3804106 -0.3804106 0.4131811 -0.3804106 0.3804106 0.4131811 -0.3804106 0.3804106 0.3954409 -0.3804106 -0.4659059 0.4131811 -0.2689909 -0.4659059 0.3954409 -0.2689909 0.4659059 0.3954409 -0.2689909 0.4659059 0.4131811 -0.2689909 -0.5196505 0.4131811 -0.1392399 -0.5196505 0.3954409 -0.1392399 0.5196505 0.3954409 -0.1392399 0.5196505 0.4131811 -0.1392399 -0.5379818 0.4131811 -7.771561e-16 -0.5379818 0.3954409 -7.771561e-16 0.5379818 0.3954409 0 0.5379818 0.4131811 0 -0.5196505 0.4131811 0.1392399 -0.5196505 0.3954409 0.1392399 0.5196505 0.3954409 0.1392399 0.5196505 0.4131811 0.1392399 -0.4659059 0.4131811 0.2689909 -0.4659059 0.3954409 0.2689909 0.4659059 0.3954409 0.2689909 0.4659059 0.4131811 0.2689909 -0.3804106 0.4131811 0.3804106 -0.3804106 0.3954409 0.3804106 0.3804106 0.3954409 0.3804106 0.3804106 0.4131811 0.3804106 -0.2689909 0.3954409 0.4659059 -0.2689909 0.4131811 0.4659059 0.2689909 0.4131811 0.4659059 0.2689909 0.3954409 0.4659059 -0.1392399 0.3954409 0.5196505 -0.1392399 0.4131811 0.5196505 0.1392399 0.4131811 0.5196505 0.1392399 0.3954409 0.5196505 -1.110223e-16 0.3954409 0.5379818 -1.110223e-16 0.4131811 0.5379818</float_array>
                    <technique_common>
                        <accessor count="48" source="#ID31" stride="3">
                            <param name="X" type="float" />
                            <param name="Y" type="float" />
                            <param name="Z" type="float" />
                        </accessor>
                    </technique_common>
                </source>
                <source id="ID28">
                    <float_array id="ID32" count="144">8.643777e-16 0 -1 -0.258819 0 -0.9659258 -0.258819 0 -0.9659258 8.643777e-16 0 -1 0.258819 0 -0.9659258 0.258819 0 -0.9659258 -0.5 0 -0.8660254 -0.5 0 -0.8660254 0.5 0 -0.8660254 0.5 0 -0.8660254 -0.7071068 0 -0.7071068 -0.7071068 0 -0.7071068 0.7071068 0 -0.7071068 0.7071068 0 -0.7071068 -0.8660254 0 -0.5 -0.8660254 0 -0.5 0.8660254 0 -0.5 0.8660254 0 -0.5 -0.9659258 0 -0.258819 -0.9659258 0 -0.258819 0.9659258 0 -0.258819 0.9659258 0 -0.258819 -1 0 -8.287332e-16 -1 0 -8.287332e-16 1 0 8.019999e-16 1 0 8.019999e-16 -0.9659258 0 0.258819 -0.9659258 0 0.258819 0.9659258 0 0.258819 0.9659258 0 0.258819 -0.8660254 0 0.5 -0.8660254 0 0.5 0.8660254 0 0.5 0.8660254 0 0.5 -0.7071068 0 0.7071068 -0.7071068 0 0.7071068 0.7071068 0 0.7071068 0.7071068 0 0.7071068 -0.5 0 0.8660254 -0.5 0 0.8660254 0.5 0 0.8660254 0.5 0 0.8660254 -0.258819 0 0.9659258 -0.258819 0 0.9659258 0.258819 0 0.9659258 0.258819 0 0.9659258 -1.220822e-15 0 1 -1.220822e-15 0 1</float_array>
                    <technique_common>
                        <accessor count="48" source="#ID32" stride="3">
                            <param name="X" type="float" />
                            <param name="Y" type="float" />
                            <param name="Z" type="float" />
                        </accessor>
                    </technique_common>
                </source>
                <source id="ID30">
                    <float_array id="ID33" count="92">7.331913e-16 0.209896 -0.07073389 0.200884 -0.07073389 0.209896 7.331913e-16 0.200884 0.07073389 0.209896 0.07073389 0.200884 -0.1366474 0.200884 -0.1366474 0.209896 0.1366474 0.209896 0.1366474 0.200884 -0.1932486 0.200884 -0.1932486 0.209896 0.1932486 0.209896 0.1932486 0.200884 -0.2366802 0.209896 -0.2366802 0.200884 0.2366802 0.200884 0.2366802 0.209896 -0.2639825 0.209896 -0.2639825 0.200884 0.2639825 0.200884 0.2639825 0.209896 -0.2732948 0.209896 -0.2732948 0.200884 0.2732948 0.200884 0.2732948 0.209896 -0.2639825 0.209896 -0.2639825 0.200884 -0.2366802 0.209896 -0.2366802 0.200884 0.2366802 0.200884 0.2366802 0.209896 -0.1932486 0.209896 -0.1932486 0.200884 0.1932486 0.200884 0.1932486 0.209896 -0.1366474 0.200884 -0.1366474 0.209896 0.1366474 0.209896 0.1366474 0.200884 -0.07073389 0.200884 -0.07073389 0.209896 0.07073389 0.209896 0.07073389 0.200884 -5.639933e-17 0.200884 -5.639933e-17 0.209896</float_array>
                    <technique_common>
                        <accessor count="46" source="#ID33" stride="2">
                            <param name="S" type="float" />
                            <param name="T" type="float" />
                        </accessor>
                    </technique_common>
                </source>
                <vertices id="ID29">
                    <input semantic="POSITION" source="#ID27" />
                    <input semantic="NORMAL" source="#ID28" />
                </vertices>
                <triangles count="48" material="Material2">
                    <input offset="0" semantic="VERTEX" source="#ID29" />
                    <input offset="1" semantic="TEXCOORD" source="#ID30" />
                    <p>0 0 1 1 2 2 1 1 0 0 3 3 4 4 3 3 0 0 3 3 4 4 5 5 2 2 6 6 7 7 6 6 2 2 1 1 8 8 5 5 4 4 5 5 8 8 9 9 7 7 10 10 11 11 10 10 7 7 6 6 12 12 9 9 8 8 9 9 12 12 13 13 14 14 10 10 15 15 10 10 14 14 11 11 12 12 16 16 13 13 16 16 12 12 17 17 18 18 15 15 19 19 15 15 18 18 14 14 17 17 20 20 16 16 20 20 17 17 21 21 22 22 19 19 23 23 19 19 22 22 18 18 21 21 24 24 20 20 24 24 21 21 25 25 26 26 23 23 27 27 23 23 26 26 22 22 25 25 28 20 24 24 28 20 25 25 29 21 30 28 27 27 31 29 27 27 30 28 26 26 29 21 32 30 28 20 32 30 29 21 33 31 34 32 31 29 35 33 31 29 34 32 30 28 33 31 36 34 32 30 36 34 33 31 37 35 38 36 34 32 35 33 34 32 38 36 39 37 36 34 40 38 41 39 40 38 36 34 37 35 42 40 39 37 38 36 39 37 42 40 43 41 41 39 44 42 45 43 44 42 41 39 40 38 46 44 43 41 42 40 43 41 46 44 47 45 45 43 47 45 46 44 47 45 45 43 44 42</p>
                </triangles>
            </mesh>
        </geometry>
        <geometry id="ID34">
            <mesh>
                <source id="ID35">
                    <float_array id="ID39" count="288">-0.1444394 0.3954409 -0.5390551 0.1444394 0.3954409 -0.5390551 7.771561e-16 0.3954409 -0.5580709 1.44329e-15 0.3954409 -0.5379818 -0.1392399 0.3954409 -0.5196505 -0.2790354 0.3954409 -0.4833035 -0.2689909 0.3954409 -0.4659059 -0.3946157 0.3954409 -0.3946157 -0.3804106 0.3954409 -0.3804106 -0.4833035 0.3954409 -0.2790354 -0.4659059 0.3954409 -0.2689909 -0.5390551 0.3954409 -0.1444394 -0.5196505 0.3954409 -0.1392399 -0.5580709 0.3954409 -6.661338e-16 -0.5379818 0.3954409 -7.771561e-16 -0.5196505 0.3954409 0.1392399 -0.5390551 0.3954409 0.1444394 -0.4659059 0.3954409 0.2689909 -0.4833035 0.3954409 0.2790354 -0.3804106 0.3954409 0.3804106 -0.3946157 0.3954409 0.3946157 -0.2689909 0.3954409 0.4659059 -0.2790354 0.3954409 0.4833035 -0.1392399 0.3954409 0.5196505 -0.1444394 0.3954409 0.5390551 -1.110223e-16 0.3954409 0.5379818 0.1392399 0.3954409 -0.5196505 0.2790354 0.3954409 -0.4833035 0.2689909 0.3954409 -0.4659059 0.3946157 0.3954409 -0.3946157 0.3804106 0.3954409 -0.3804106 0.4833035 0.3954409 -0.2790354 0.4659059 0.3954409 -0.2689909 0.5390551 0.3954409 -0.1444394 0.5196505 0.3954409 -0.1392399 0.5580709 0.3954409 -5.551115e-16 0.5379818 0.3954409 0 0.5390551 0.3954409 0.1444394 0.5196505 0.3954409 0.1392399 0.4659059 0.3954409 0.2689909 0.4833035 0.3954409 0.2790354 0.3804106 0.3954409 0.3804106 0.3946157 0.3954409 0.3946157 0.2689909 0.3954409 0.4659059 0.2790354 0.3954409 0.4833035 0.1392399 0.3954409 0.5196505 0.1444394 0.3954409 0.5390551 7.771561e-16 0.3954409 0.5580709 0.1444394 0.3954409 -0.5390551 7.771561e-16 0.3520906 -0.5580709 7.771561e-16 0.3954409 -0.5580709 0.1444394 0.3520906 -0.5390551 -0.1444394 0.3520906 -0.5390551 -0.1444394 0.3954409 -0.5390551 -0.2790354 0.3520906 -0.4833035 -0.2790354 0.3954409 -0.4833035 -0.3946157 0.3520906 -0.3946157 -0.3946157 0.3954409 -0.3946157 -0.4833035 0.3954409 -0.2790354 -0.4833035 0.3520906 -0.2790354 -0.5390551 0.3954409 -0.1444394 -0.5390551 0.3520906 -0.1444394 -0.5580709 0.3954409 -6.661338e-16 -0.5580709 0.3520906 -6.661338e-16 -0.5390551 0.3954409 0.1444394 -0.5390551 0.3520906 0.1444394 -0.4833035 0.3954409 0.2790354 -0.4833035 0.3520906 0.2790354 -0.3946157 0.3954409 0.3946157 -0.3946157 0.3520906 0.3946157 -0.2790354 0.3520906 0.4833035 -0.2790354 0.3954409 0.4833035 -0.1444394 0.3520906 0.5390551 -0.1444394 0.3954409 0.5390551 7.771561e-16 0.3520906 0.5580709 7.771561e-16 0.3954409 0.5580709 0.1444394 0.3520906 0.5390551 0.1444394 0.3954409 0.5390551 0.2790354 0.3520906 0.4833035 0.2790354 0.3954409 0.4833035 0.3946157 0.3520906 0.3946157 0.3946157 0.3954409 0.3946157 0.4833035 0.3954409 0.2790354 0.4833035 0.3520906 0.2790354 0.5390551 0.3954409 0.1444394 0.5390551 0.3520906 0.1444394 0.5580709 0.3954409 -5.551115e-16 0.5580709 0.3520906 -5.551115e-16 0.5390551 0.3954409 -0.1444394 0.5390551 0.3520906 -0.1444394 0.4833035 0.3954409 -0.2790354 0.4833035 0.3520906 -0.2790354 0.3946157 0.3954409 -0.3946157 0.3946157 0.3520906 -0.3946157 0.2790354 0.3520906 -0.4833035 0.2790354 0.3954409 -0.4833035</float_array>
                    <technique_common>
                        <accessor count="96" source="#ID39" stride="3">
                            <param name="X" type="float" />
                            <param name="Y" type="float" />
                            <param name="Z" type="float" />
                        </accessor>
                    </technique_common>
                </source>
                <source id="ID36">
                    <float_array id="ID40" count="288">0 1 0 0 1 0 0 1 0 0 1 0 0 1 0 0 1 0 0 1 0 0 1 0 0 1 0 0 1 0 0 1 0 0 1 0 0 1 0 0 1 0 0 1 0 0 1 0 0 1 0 0 1 0 0 1 0 0 1 0 0 1 0 0 1 0 0 1 0 0 1 0 0 1 0 0 1 0 0 1 0 0 1 0 0 1 0 0 1 0 0 1 0 0 1 0 0 1 0 0 1 0 0 1 0 0 1 0 0 1 0 0 1 0 0 1 0 0 1 0 0 1 0 0 1 0 0 1 0 0 1 0 0 1 0 0 1 0 0 1 0 0 1 0 0.258819 0 -0.9659258 3.920888e-16 0 -1 3.920888e-16 0 -1 0.258819 0 -0.9659258 -0.258819 0 -0.9659258 -0.258819 0 -0.9659258 -0.5 0 -0.8660254 -0.5 0 -0.8660254 -0.7071068 0 -0.7071068 -0.7071068 0 -0.7071068 -0.8660254 0 -0.5 -0.8660254 0 -0.5 -0.9659258 0 -0.258819 -0.9659258 0 -0.258819 -1 0 5.346666e-17 -1 0 5.346666e-17 -0.9659258 0 0.258819 -0.9659258 0 0.258819 -0.8660254 0 0.5 -0.8660254 0 0.5 -0.7071068 0 0.7071068 -0.7071068 0 0.7071068 -0.5 0 0.8660254 -0.5 0 0.8660254 -0.258819 0 0.9659258 -0.258819 0 0.9659258 2.049555e-16 0 1 2.049555e-16 0 1 0.258819 0 0.9659258 0.258819 0 0.9659258 0.5 0 0.8660254 0.5 0 0.8660254 0.7071068 0 0.7071068 0.7071068 0 0.7071068 0.8660254 0 0.5 0.8660254 0 0.5 0.9659258 0 0.258819 0.9659258 0 0.258819 1 0 -2.138666e-16 1 0 -2.138666e-16 0.9659258 0 -0.258819 0.9659258 0 -0.258819 0.8660254 0 -0.5 0.8660254 0 -0.5 0.7071068 0 -0.7071068 0.7071068 0 -0.7071068 0.5 0 -0.8660254 0.5 0 -0.8660254</float_array>
                    <technique_common>
                        <accessor count="96" source="#ID40" stride="3">
                            <param name="X" type="float" />
                            <param name="Y" type="float" />
                            <param name="Z" type="float" />
                        </accessor>
                    </technique_common>
                </source>
                <source id="ID38">
                    <float_array id="ID41" count="172">0.0733752 -0.27384 -0.0733752 -0.27384 -3.947953e-16 -0.2835 -7.331913e-16 -0.2732948 0.07073389 -0.2639825 0.14175 -0.2455182 0.1366474 -0.2366802 0.2004648 -0.2004648 0.1932486 -0.1932486 0.2455182 -0.14175 0.2366802 -0.1366474 0.27384 -0.0733752 0.2639825 -0.07073389 0.2835 -3.38396e-16 0.2732948 -3.947953e-16 0.2639825 0.07073389 0.27384 0.0733752 0.2366802 0.1366474 0.2455182 0.14175 0.1932486 0.1932486 0.2004648 0.2004648 0.1366474 0.2366802 0.14175 0.2455182 0.07073389 0.2639825 0.0733752 0.27384 5.639933e-17 0.2732948 -0.07073389 -0.2639825 -0.14175 -0.2455182 -0.1366474 -0.2366802 -0.2004648 -0.2004648 -0.1932486 -0.1932486 -0.2455182 -0.14175 -0.2366802 -0.1366474 -0.27384 -0.0733752 -0.2639825 -0.07073389 -0.2835 -2.819966e-16 -0.2732948 0 -0.27384 0.0733752 -0.2639825 0.07073389 -0.2366802 0.1366474 -0.2455182 0.14175 -0.1932486 0.1932486 -0.2004648 0.2004648 -0.1366474 0.2366802 -0.14175 0.2455182 -0.07073389 0.2639825 -0.0733752 0.27384 -3.947953e-16 0.2835 0.0733752 0.200884 3.947953e-16 0.178862 3.947953e-16 0.200884 0.0733752 0.178862 -0.0733752 0.178862 -0.0733752 0.200884 -0.14175 0.178862 -0.14175 0.200884 -0.2004648 0.178862 -0.2004648 0.200884 -0.2455182 0.200884 -0.2455182 0.178862 -0.27384 0.200884 -0.27384 0.178862 -0.2835 0.200884 -0.2835 0.178862 -0.2455182 0.200884 -0.2455182 0.178862 -0.2004648 0.200884 -0.2004648 0.178862 -0.14175 0.178862 -0.14175 0.200884 -0.0733752 0.178862 -0.0733752 0.200884 0.14175 0.178862 0.14175 0.200884 0.2004648 0.178862 0.2004648 0.200884 0.2455182 0.200884 0.2455182 0.178862 0.27384 0.200884 0.27384 0.178862 0.2835 0.200884 0.2835 0.178862 0.2004648 0.200884 0.2004648 0.178862 0.14175 0.178862 0.14175 0.200884</float_array>
                    <technique_common>
                        <accessor count="86" source="#ID41" stride="2">
                            <param name="S" type="float" />
                            <param name="T" type="float" />
                        </accessor>
                    </technique_common>
                </source>
                <vertices id="ID37">
                    <input semantic="POSITION" source="#ID35" />
                    <input semantic="NORMAL" source="#ID36" />
                </vertices>
                <triangles count="96" material="Material2">
                    <input offset="0" semantic="VERTEX" source="#ID37" />
                    <input offset="1" semantic="TEXCOORD" source="#ID38" />
                    <p>0 0 1 1 2 2 1 1 0 0 3 3 3 3 0 0 4 4 4 4 0 0 5 5 4 4 5 5 6 6 6 6 5 5 7 7 6 6 7 7 8 8 8 8 7 7 9 9 8 8 9 9 10 10 10 10 9 9 11 11 10 10 11 11 12 12 12 12 11 11 13 13 12 12 13 13 14 14 14 14 13 13 15 15 15 15 13 13 16 16 15 15 16 16 17 17 17 17 16 16 18 18 17 17 18 18 19 19 19 19 18 18 20 20 19 19 20 20 21 21 21 21 20 20 22 22 21 21 22 22 23 23 23 23 22 22 24 24 23 23 24 24 25 25 1 1 26 26 27 27 26 26 1 1 3 3 27 27 26 26 28 28 27 27 28 28 29 29 29 29 28 28 30 30 29 29 30 30 31 31 31 31 30 30 32 32 31 31 32 32 33 33 33 33 32 32 34 34 33 33 34 34 35 35 35 35 34 34 36 36 35 35 36 36 37 37 37 37 36 36 38 38 37 37 38 38 39 39 37 37 39 39 40 40 40 40 39 39 41 41 40 40 41 41 42 42 42 42 41 41 43 43 42 42 43 43 44 44 44 44 43 43 45 45 44 44 45 45 46 46 46 46 45 45 25 25 46 46 25 25 24 24 46 46 24 24 47 47 48 48 49 49 50 50 49 49 48 48 51 51 50 50 52 52 53 53 52 52 50 50 49 49 53 53 54 54 55 55 54 54 53 53 52 52 55 55 56 56 57 57 56 56 55 55 54 54 58 58 56 56 59 59 56 56 58 58 57 57 60 60 59 59 61 61 59 59 60 60 58 58 62 62 61 61 63 63 61 61 62 62 60 60 64 60 63 63 65 61 63 63 64 60 62 62 66 64 65 61 67 65 65 61 66 64 64 60 68 66 67 65 69 67 67 65 68 66 66 64 70 68 68 66 69 67 68 66 70 68 71 69 72 70 71 69 70 68 71 69 72 70 73 71 74 49 73 71 72 70 73 71 74 49 75 50 76 51 75 50 74 49 75 50 76 51 77 48 78 72 77 48 76 51 77 48 78 72 79 73 80 74 79 73 78 72 79 73 80 74 81 75 82 76 80 74 83 77 80 74 82 76 81 75 84 78 83 77 85 79 83 77 84 78 82 76 86 80 85 79 87 81 85 79 86 80 84 78 88 78 87 81 89 79 87 81 88 78 86 80 90 76 89 79 91 77 89 79 90 76 88 78 92 82 91 77 93 83 91 77 92 82 90 76 92 82 94 84 95 85 94 84 92 82 93 83 95 85 51 51 48 48 51 51 95 85 94 84</p>
                </triangles>
            </mesh>
        </geometry>
        <geometry id="ID42">
            <mesh>
                <source id="ID43">
                    <float_array id="ID46" count="1080">-0.4833035 0.3520906 0.2790354 -0.5390551 0.2873268 0.1444394 -0.4833035 0.2873268 0.2790354 -0.5390551 0.3520906 0.1444394 -0.3946157 0.3520906 0.3946157 -0.3946157 0.2873268 0.3946157 -0.5580709 0.2873268 -6.661338e-16 -0.5580709 0.3520906 -6.661338e-16 -0.5017057 0.1207154 0.2896599 -0.5390551 0.2873268 0.1444394 -0.55958 0.1207154 0.149939 -0.4833035 0.2873268 0.2790354 -0.2790354 0.2873268 0.4833035 -0.2790354 0.3520906 0.4833035 -0.3946157 0.2873268 0.3946157 -0.409641 0.1207154 0.409641 -0.5390551 0.2873268 -0.1444394 -0.5390551 0.3520906 -0.1444394 -0.5793199 0.1207154 -3.330669e-16 -0.5580709 0.2873268 -6.661338e-16 -0.4971181 0.1057601 0.2870113 -0.55958 0.1207154 0.149939 -0.5544632 0.1057601 0.148568 -0.5017057 0.1207154 0.2896599 -0.2896599 0.1207154 0.5017057 -0.2790354 0.2873268 0.4833035 -0.1444394 0.2873268 0.5390551 -0.1444394 0.3520906 0.5390551 -0.409641 0.1207154 0.409641 -0.4058952 0.1057601 0.4058952 -0.4833035 0.2873268 -0.2790354 -0.4833035 0.3520906 -0.2790354 -0.55958 0.1207154 -0.149939 -0.5390551 0.2873268 -0.1444394 -0.5740225 0.1057601 1.110223e-16 -0.5793199 0.1207154 -3.330669e-16 -0.4410613 0.04358546 0.2546469 -0.5544632 0.1057601 0.148568 -0.49194 0.04358546 0.1318149 -0.4971181 0.1057601 0.2870113 -0.2896599 0.1207154 0.5017057 -0.2870113 0.1057601 0.4971181 -0.149939 0.1207154 0.55958 -0.1444394 0.2873268 0.5390551 7.771561e-16 0.2873268 0.5580709 7.771561e-16 0.3520906 0.5580709 -0.3601251 0.04358546 0.3601251 -0.4058952 0.1057601 0.4058952 -0.3946157 0.2873268 -0.3946157 -0.3946157 0.3520906 -0.3946157 -0.5017057 0.1207154 -0.2896599 -0.4833035 0.2873268 -0.2790354 -0.5544632 0.1057601 -0.148568 -0.55958 0.1207154 -0.149939 -0.5740225 0.1057601 1.110223e-16 -0.5092938 0.04358546 -3.330669e-16 -0.4263526 0.03933116 0.2461548 -0.49194 0.04358546 0.1318149 -0.4755345 0.03933116 0.1274191 -0.4410613 0.04358546 0.2546469 -0.2546469 0.04358546 0.4410613 -0.2870113 0.1057601 0.4971181 -0.149939 0.1207154 0.55958 -0.148568 0.1057601 0.5544632 1.110223e-16 0.1207154 0.5793199 7.771561e-16 0.2873268 0.5580709 0.1444394 0.2873268 0.5390551 0.1444394 0.3520906 0.5390551 -0.3481154 0.03933116 0.3481154 -0.3601251 0.04358546 0.3601251 -0.2790354 0.3520906 -0.4833035 -0.2790354 0.2873268 -0.4833035 -0.409641 0.1207154 -0.409641 -0.3946157 0.2873268 -0.3946157 -0.4971181 0.1057601 -0.2870113 -0.5017057 0.1207154 -0.2896599 -0.49194 0.04358546 -0.1318149 -0.5544632 0.1057601 -0.148568 -0.5092938 0.04358546 -3.330669e-16 -0.4923096 0.03933116 -4.440892e-16 -0.4046292 0.04633806 0.2336128 -0.4755345 0.03933116 0.1274191 -0.4513053 0.04633806 0.1209269 -0.4263526 0.03933116 0.2461548 -0.1318149 0.04358546 0.49194 -0.148568 0.1057601 0.5544632 -0.2461548 0.03933116 0.4263526 -0.2546469 0.04358546 0.4410613 1.110223e-16 0.1207154 0.5793199 1.110223e-16 0.1057601 0.5740225 0.149939 0.1207154 0.55958 0.1444394 0.2873268 0.5390551 0.2790354 0.2873268 0.4833035 0.2790354 0.3520906 0.4833035 -0.3303784 0.04633806 0.3303784 -0.3481154 0.03933116 0.3481154 -0.1444394 0.3520906 -0.5390551 -0.1444394 0.2873268 -0.5390551 -0.2896599 0.1207154 -0.5017057 -0.2790354 0.2873268 -0.4833035 -0.4058952 0.1057601 -0.4058952 -0.409641 0.1207154 -0.409641 -0.4410613 0.04358546 -0.2546469 -0.4971181 0.1057601 -0.2870113 -0.4755345 0.03933116 -0.1274191 -0.49194 0.04358546 -0.1318149 -0.4923096 0.03933116 -4.440892e-16 -0.4672256 0.04633806 -5.551115e-16 -0.3897459 0.04874268 0.2250199 -0.4513053 0.04633806 0.1209269 -0.434705 0.04874268 0.1164789 -0.4046292 0.04633806 0.2336128 -5.551115e-16 0.04358546 0.5092938 1.110223e-16 0.1057601 0.5740225 -0.1274191 0.03933116 0.4755345 -0.1318149 0.04358546 0.49194 -0.2336128 0.04633806 0.4046292 -0.2461548 0.03933116 0.4263526 0.148568 0.1057601 0.5544632 0.149939 0.1207154 0.55958 0.2790354 0.2873268 0.4833035 0.2896599 0.1207154 0.5017057 0.3946157 0.2873268 0.3946157 0.3946157 0.3520906 0.3946157 -0.3182262 0.04874268 0.3182262 -0.3303784 0.04633806 0.3303784 7.771561e-16 0.3520906 -0.5580709 7.771561e-16 0.2873268 -0.5580709 -0.149939 0.1207154 -0.55958 -0.1444394 0.2873268 -0.5390551 -0.2896599 0.1207154 -0.5017057 -0.2870113 0.1057601 -0.4971181 -0.3601251 0.04358546 -0.3601251 -0.4058952 0.1057601 -0.4058952 -0.4263526 0.03933116 -0.2461548 -0.4410613 0.04358546 -0.2546469 -0.4513053 0.04633806 -0.1209269 -0.4755345 0.03933116 -0.1274191 -0.4500398 0.04874268 -1.110223e-16 -0.4672256 0.04633806 -5.551115e-16 -0.3747377 0.04779907 0.2163549 -0.4179655 0.04779907 0.1119935 0.148568 0.1057601 0.5544632 0.1318149 0.04358546 0.49194 -1.110223e-16 0.03933116 0.4923096 -5.551115e-16 0.04358546 0.5092938 -0.1209269 0.04633806 0.4513053 -0.1274191 0.03933116 0.4755345 -0.2250199 0.04874268 0.3897459 -0.2336128 0.04633806 0.4046292 0.2870113 0.1057601 0.4971181 0.2896599 0.1207154 0.5017057 0.3946157 0.2873268 0.3946157 0.409641 0.1207154 0.409641 0.4833035 0.3520906 0.2790354 0.4833035 0.2873268 0.2790354 -0.305972 0.04779907 0.305972 0.1444394 0.3520906 -0.5390551 0.1444394 0.2873268 -0.5390551 1.221245e-15 0.1207154 -0.5793199 7.771561e-16 0.2873268 -0.5580709 -0.149939 0.1207154 -0.55958 -0.148568 0.1057601 -0.5544632 -0.2546469 0.04358546 -0.4410613 -0.2870113 0.1057601 -0.4971181 -0.3481154 0.03933116 -0.3481154 -0.3601251 0.04358546 -0.3601251 -0.4046292 0.04633806 -0.2336128 -0.4263526 0.03933116 -0.2461548 -0.434705 0.04874268 -0.1164789 -0.4513053 0.04633806 -0.1209269 -0.4327098 0.04779907 2.220446e-16 0.2870113 0.1057601 0.4971181 0.2546469 0.04358546 0.4410613 0.1318149 0.04358546 0.49194 0.1274191 0.03933116 0.4755345 -1.110223e-16 0.04633806 0.4672256 -1.110223e-16 0.03933116 0.4923096 -0.1164789 0.04874268 0.434705 -0.1209269 0.04633806 0.4513053 -0.2163549 0.04779907 0.3747377 0.4058952 0.1057601 0.4058952 0.409641 0.1207154 0.409641 0.5017057 0.1207154 0.2896599 0.4833035 0.2873268 0.2790354 0.5390551 0.3520906 0.1444394 0.5390551 0.2873268 0.1444394 0.2790354 0.3520906 -0.4833035 0.2790354 0.2873268 -0.4833035 0.1444394 0.2873268 -0.5390551 0.149939 0.1207154 -0.55958 1.221245e-15 0.1207154 -0.5793199 9.992007e-16 0.1057601 -0.5740225 -0.1318149 0.04358546 -0.49194 -0.148568 0.1057601 -0.5544632 -0.2461548 0.03933116 -0.4263526 -0.2546469 0.04358546 -0.4410613 -0.3303784 0.04633806 -0.3303784 -0.3481154 0.03933116 -0.3481154 -0.3897459 0.04874268 -0.2250199 -0.4046292 0.04633806 -0.2336128 -0.4179655 0.04779907 -0.1119935 0.4058952 0.1057601 0.4058952 0.3601251 0.04358546 0.3601251 0.2546469 0.04358546 0.4410613 0.2461548 0.03933116 0.4263526 0.1274191 0.03933116 0.4755345 0.1209269 0.04633806 0.4513053 0 0.04874268 0.4500398 -1.110223e-16 0.04633806 0.4672256 -0.1119935 0.04779907 0.4179655 0.4971181 0.1057601 0.2870113 0.5017057 0.1207154 0.2896599 0.5390551 0.2873268 0.1444394 0.55958 0.1207154 0.149939 0.5580709 0.3520906 -5.551115e-16 0.5580709 0.2873268 -5.551115e-16 0.3946157 0.3520906 -0.3946157 0.3946157 0.2873268 -0.3946157 0.2790354 0.2873268 -0.4833035 0.2896599 0.1207154 -0.5017057 0.148568 0.1057601 -0.5544632 0.149939 0.1207154 -0.55958 1.110223e-16 0.04358546 -0.5092938 9.992007e-16 0.1057601 -0.5740225 -0.1274191 0.03933116 -0.4755345 -0.1318149 0.04358546 -0.49194 -0.2336128 0.04633806 -0.4046292 -0.2461548 0.03933116 -0.4263526 -0.3182262 0.04874268 -0.3182262 -0.3303784 0.04633806 -0.3303784 -0.3747377 0.04779907 -0.2163549 0.4971181 0.1057601 0.2870113 0.4410613 0.04358546 0.2546469 0.3601251 0.04358546 0.3601251 0.3481154 0.03933116 0.3481154 0.2461548 0.03933116 0.4263526 0.2336128 0.04633806 0.4046292 0.1209269 0.04633806 0.4513053 0.1164789 0.04874268 0.434705 1.110223e-16 0.04779907 0.4327098 0.55958 0.1207154 0.149939 0.5544632 0.1057601 0.148568 0.5580709 0.2873268 -5.551115e-16 0.5793199 0.1207154 -5.551115e-16 0.5390551 0.3520906 -0.1444394 0.5390551 0.2873268 -0.1444394 0.4833035 0.2873268 -0.2790354 0.4833035 0.3520906 -0.2790354 0.3946157 0.2873268 -0.3946157 0.409641 0.1207154 -0.409641 0.2870113 0.1057601 -0.4971181 0.2896599 0.1207154 -0.5017057 0.148568 0.1057601 -0.5544632 0.1318149 0.04358546 -0.49194 1.110223e-16 0.03933116 -0.4923096 1.110223e-16 0.04358546 -0.5092938 -0.1209269 0.04633806 -0.4513053 -0.1274191 0.03933116 -0.4755345 -0.2250199 0.04874268 -0.3897459 -0.2336128 0.04633806 -0.4046292 -0.305972 0.04779907 -0.305972 0.5544632 0.1057601 0.148568 0.49194 0.04358546 0.1318149 0.4410613 0.04358546 0.2546469 0.4263526 0.03933116 0.2461548 0.3481154 0.03933116 0.3481154 0.3303784 0.04633806 0.3303784 0.2336128 0.04633806 0.4046292 0.2250199 0.04874268 0.3897459 0.1119935 0.04779907 0.4179655 0.5740225 0.1057601 -5.551115e-16 0.5793199 0.1207154 -5.551115e-16 0.5390551 0.2873268 -0.1444394 0.55958 0.1207154 -0.149939 0.5017057 0.1207154 -0.2896599 0.4833035 0.2873268 -0.2790354 0.4058952 0.1057601 -0.4058952 0.409641 0.1207154 -0.409641 0.2870113 0.1057601 -0.4971181 0.2546469 0.04358546 -0.4410613 0.1318149 0.04358546 -0.49194 0.1274191 0.03933116 -0.4755345 -5.551115e-16 0.04633806 -0.4672256 1.110223e-16 0.03933116 -0.4923096 -0.1164789 0.04874268 -0.434705 -0.1209269 0.04633806 -0.4513053 -0.2163549 0.04779907 -0.3747377 0.5740225 0.1057601 -5.551115e-16 0.5092938 0.04358546 -9.992007e-16 0.49194 0.04358546 0.1318149 0.4755345 0.03933116 0.1274191 0.4263526 0.03933116 0.2461548 0.4046292 0.04633806 0.2336128 0.3303784 0.04633806 0.3303784 0.3182262 0.04874268 0.3182262 0.2163549 0.04779907 0.3747377 0.55958 0.1207154 -0.149939 0.5544632 0.1057601 -0.148568 0.4971181 0.1057601 -0.2870113 0.5017057 0.1207154 -0.2896599 0.4058952 0.1057601 -0.4058952 0.3601251 0.04358546 -0.3601251 0.2546469 0.04358546 -0.4410613 0.2461548 0.03933116 -0.4263526 0.1274191 0.03933116 -0.4755345 0.1209269 0.04633806 -0.4513053 -2.220446e-16 0.04874268 -0.4500398 -5.551115e-16 0.04633806 -0.4672256 -0.1119935 0.04779907 -0.4179655 0.49194 0.04358546 -0.1318149 0.5544632 0.1057601 -0.148568 0.4923096 0.03933116 -5.551115e-16 0.5092938 0.04358546 -9.992007e-16 0.4755345 0.03933116 0.1274191 0.4513053 0.04633806 0.1209269 0.4046292 0.04633806 0.2336128 0.3897459 0.04874268 0.2250199 0.305972 0.04779907 0.305972 0.4971181 0.1057601 -0.2870113 0.4410613 0.04358546 -0.2546469 0.3601251 0.04358546 -0.3601251 0.3481154 0.03933116 -0.3481154 0.2461548 0.03933116 -0.4263526 0.2336128 0.04633806 -0.4046292 0.1209269 0.04633806 -0.4513053 0.1164789 0.04874268 -0.434705 -3.330669e-16 0.04779907 -0.4327098 0.4755345 0.03933116 -0.1274191 0.49194 0.04358546 -0.1318149 0.4923096 0.03933116 -5.551115e-16 0.4672256 0.04633806 -6.661338e-16 0.4513053 0.04633806 0.1209269 0.434705 0.04874268 0.1164789 0.3747377 0.04779907 0.2163549 0.4410613 0.04358546 -0.2546469 0.4263526 0.03933116 -0.2461548 0.3481154 0.03933116 -0.3481154 0.3303784 0.04633806 -0.3303784 0.2336128 0.04633806 -0.4046292 0.2250199 0.04874268 -0.3897459 0.1119935 0.04779907 -0.4179655 0.4513053 0.04633806 -0.1209269 0.4755345 0.03933116 -0.1274191 0.4500398 0.04874268 -1.110223e-16 0.4672256 0.04633806 -6.661338e-16 0.4179655 0.04779907 0.1119935 0.4263526 0.03933116 -0.2461548 0.4046292 0.04633806 -0.2336128 0.3303784 0.04633806 -0.3303784 0.3182262 0.04874268 -0.3182262 0.2163549 0.04779907 -0.3747377 0.434705 0.04874268 -0.1164789 0.4513053 0.04633806 -0.1209269 0.4327098 0.04779907 1.110223e-16 0.4046292 0.04633806 -0.2336128 0.3897459 0.04874268 -0.2250199 0.305972 0.04779907 -0.305972 0.4179655 0.04779907 -0.1119935 0.3747377 0.04779907 -0.2163549</float_array>
                    <technique_common>
                        <accessor count="360" source="#ID46" stride="3">
                            <param name="X" type="float" />
                            <param name="Y" type="float" />
                            <param name="Z" type="float" />
                        </accessor>
                    </technique_common>
                </source>
                <source id="ID44">
                    <float_array id="ID47" count="1080">-0.8660254 0 0.5 -0.9659258 0 0.258819 -0.8660254 0 0.5 -0.9659258 0 0.258819 -0.7071068 0 0.7071068 -0.7071068 0 0.7071068 -1 0 8.019999e-17 -1 0 8.019999e-17 -0.859067 0.1265116 0.4959826 -0.9581647 0.1265116 0.2567395 -0.9581647 0.1265116 0.2567395 -0.859067 0.1265116 0.4959826 -0.5 0 0.8660254 -0.5 0 0.8660254 -0.7014253 0.1265116 0.7014253 -0.7014253 0.1265116 0.7014253 -0.9659258 0 -0.258819 -0.9659258 0 -0.258819 -0.9919651 0.1265116 7.203648e-17 -0.9919651 0.1265116 -2.468816e-16 -0.8163279 -0.3338837 0.4713071 -0.9104955 -0.3338837 0.2439665 -0.9104955 -0.3338837 0.2439665 -0.8163279 -0.3338837 0.4713071 -0.4959826 0.1265116 0.859067 -0.4959826 0.1265116 0.859067 -0.258819 0 0.9659258 -0.258819 0 0.9659258 -0.6665289 -0.3338837 0.6665289 -0.6665289 -0.3338837 0.6665289 -0.8660254 0 -0.5 -0.8660254 0 -0.5 -0.9581647 0.1265116 -0.2567395 -0.9581647 0.1265116 -0.2567395 -0.9426143 -0.3338837 2.226196e-15 -0.9426143 -0.3338837 -2.170155e-15 -0.5999258 -0.7211926 0.3463673 -0.6691303 -0.7211926 0.1792929 -0.6691303 -0.7211926 0.1792929 -0.5999258 -0.7211926 0.3463673 -0.4713071 -0.3338837 0.8163279 -0.4713071 -0.3338837 0.8163279 -0.2567395 0.1265116 0.9581647 -0.2567395 0.1265116 0.9581647 2.227777e-16 0 1 2.227777e-16 0 1 -0.4898374 -0.7211926 0.4898374 -0.4898374 -0.7211926 0.4898374 -0.7071068 0 -0.7071068 -0.7071068 0 -0.7071068 -0.859067 0.1265116 -0.4959826 -0.859067 0.1265116 -0.4959826 -0.9104955 -0.3338837 -0.2439665 -0.9104955 -0.3338837 -0.2439665 -0.6927346 -0.7211926 2.642633e-16 -0.6927346 -0.7211926 -3.180313e-16 -0.2104264 -0.9700314 0.1214898 -0.2347002 -0.9700314 0.06288773 -0.2347002 -0.9700314 0.06288773 -0.2104264 -0.9700314 0.1214898 -0.3463673 -0.7211926 0.5999258 -0.3463673 -0.7211926 0.5999258 -0.2439665 -0.3338837 0.9104955 -0.2439665 -0.3338837 0.9104955 -3.871961e-16 0.1265116 0.9919651 2.733332e-16 0.1265116 0.9919651 0.258819 0 0.9659258 0.258819 0 0.9659258 -0.1718125 -0.9700314 0.1718125 -0.1718125 -0.9700314 0.1718125 -0.5 0 -0.8660254 -0.5 0 -0.8660254 -0.7014253 0.1265116 -0.7014253 -0.7014253 0.1265116 -0.7014253 -0.8163279 -0.3338837 -0.4713071 -0.8163279 -0.3338837 -0.4713071 -0.6691303 -0.7211926 -0.1792929 -0.6691303 -0.7211926 -0.1792929 -0.2429795 -0.9700314 3.606237e-17 -0.2429795 -0.9700314 -2.412627e-16 0.2329942 -0.9631294 -0.1345193 0.2598713 -0.9631294 -0.06963229 0.2598713 -0.9631294 -0.06963229 0.2329942 -0.9631294 -0.1345193 -0.1792929 -0.7211926 0.6691303 -0.1792929 -0.7211926 0.6691303 -0.1214898 -0.9700314 0.2104264 -0.1214898 -0.9700314 0.2104264 -3.296438e-16 -0.3338837 0.9426143 -3.638141e-16 -0.3338837 0.9426143 0.2567395 0.1265116 0.9581647 0.2567395 0.1265116 0.9581647 0.5 0 0.8660254 0.5 0 0.8660254 0.190239 -0.9631294 -0.190239 0.190239 -0.9631294 -0.190239 -0.258819 0 -0.9659258 -0.258819 0 -0.9659258 -0.4959826 0.1265116 -0.859067 -0.4959826 0.1265116 -0.859067 -0.6665289 -0.3338837 -0.6665289 -0.6665289 -0.3338837 -0.6665289 -0.5999258 -0.7211926 -0.3463673 -0.5999258 -0.7211926 -0.3463673 -0.2347002 -0.9700314 -0.06288773 -0.2347002 -0.9700314 -0.06288773 0.2690385 -0.9631294 6.96848e-17 0.2690385 -0.9631294 2.639249e-16 0.04358142 -0.998733 -0.02516174 0.1338472 -0.9903528 -0.03586425 0.04860876 -0.998733 -0.01302468 0.1200041 -0.9903528 -0.06928441 -1.10474e-15 -0.7211926 0.6927346 -1.510076e-16 -0.7211926 0.6927346 -0.06288773 -0.9700314 0.2347002 -0.06288773 -0.9700314 0.2347002 0.1345193 -0.9631294 -0.2329942 0.1345193 -0.9631294 -0.2329942 0.2439665 -0.3338837 0.9104955 0.2439665 -0.3338837 0.9104955 0.4959826 0.1265116 0.859067 0.4959826 0.1265116 0.859067 0.7071068 0 0.7071068 0.7071068 0 0.7071068 0.03558408 -0.998733 -0.03558408 0.09798295 -0.9903528 -0.09798295 3.920888e-16 0 -1 3.920888e-16 0 -1 -0.2567395 0.1265116 -0.9581647 -0.2567395 0.1265116 -0.9581647 -0.4713071 -0.3338837 -0.8163279 -0.4713071 -0.3338837 -0.8163279 -0.4898374 -0.7211926 -0.4898374 -0.4898374 -0.7211926 -0.4898374 -0.2104264 -0.9700314 -0.1214898 -0.2104264 -0.9700314 -0.1214898 0.2598713 -0.9631294 0.06963229 0.2598713 -0.9631294 0.06963229 0.05032349 -0.998733 2.489176e-16 0.1385688 -0.9903528 7.187248e-16 -0.04708498 -0.9985209 0.02718453 -0.05251648 -0.9985209 0.01407175 0.1792929 -0.7211926 0.6691303 0.1792929 -0.7211926 0.6691303 1.758355e-16 -0.9700314 0.2429795 -8.126053e-16 -0.9700314 0.2429795 0.06963229 -0.9631294 -0.2598713 0.06963229 -0.9631294 -0.2598713 0.02516174 -0.998733 -0.04358142 0.06928441 -0.9903528 -0.1200041 0.4713071 -0.3338837 0.8163279 0.4713071 -0.3338837 0.8163279 0.7014253 0.1265116 0.7014253 0.7014253 0.1265116 0.7014253 0.8660254 0 0.5 0.8660254 0 0.5 -0.03844473 -0.9985209 0.03844473 0.258819 0 -0.9659258 0.258819 0 -0.9659258 1.449734e-15 0.1265116 -0.9919651 1.022795e-15 0.1265116 -0.9919651 -0.2439665 -0.3338837 -0.9104955 -0.2439665 -0.3338837 -0.9104955 -0.3463673 -0.7211926 -0.5999258 -0.3463673 -0.7211926 -0.5999258 -0.1718125 -0.9700314 -0.1718125 -0.1718125 -0.9700314 -0.1718125 0.2329942 -0.9631294 0.1345193 0.2329942 -0.9631294 0.1345193 0.04860876 -0.998733 0.01302468 0.1338472 -0.9903528 0.03586425 -0.05436906 -0.9985209 5.811443e-16 0.3463673 -0.7211926 0.5999258 0.3463673 -0.7211926 0.5999258 0.06288773 -0.9700314 0.2347002 0.06288773 -0.9700314 0.2347002 2.843842e-16 -0.9631294 -0.2690385 2.378895e-16 -0.9631294 -0.2690385 0.01302468 -0.998733 -0.04860876 0.03586425 -0.9903528 -0.1338472 -0.02718453 -0.9985209 0.04708498 0.6665289 -0.3338837 0.6665289 0.6665289 -0.3338837 0.6665289 0.859067 0.1265116 0.4959826 0.859067 0.1265116 0.4959826 0.9659258 0 0.258819 0.9659258 0 0.258819 0.5 0 -0.8660254 0.5 0 -0.8660254 0.2567395 0.1265116 -0.9581647 0.2567395 0.1265116 -0.9581647 2.765345e-15 -0.3338837 -0.9426143 6.756547e-16 -0.3338837 -0.9426143 -0.1792929 -0.7211926 -0.6691303 -0.1792929 -0.7211926 -0.6691303 -0.1214898 -0.9700314 -0.2104264 -0.1214898 -0.9700314 -0.2104264 0.190239 -0.9631294 0.190239 0.190239 -0.9631294 0.190239 0.04358142 -0.998733 0.02516174 0.1200041 -0.9903528 0.06928441 -0.05251648 -0.9985209 -0.01407175 0.4898374 -0.7211926 0.4898374 0.4898374 -0.7211926 0.4898374 0.1214898 -0.9700314 0.2104264 0.1214898 -0.9700314 0.2104264 -0.06963229 -0.9631294 -0.2598713 -0.06963229 -0.9631294 -0.2598713 2.225551e-16 -0.998733 -0.05032349 2.191087e-16 -0.9903528 -0.1385688 -0.01407175 -0.9985209 0.05251648 0.8163279 -0.3338837 0.4713071 0.8163279 -0.3338837 0.4713071 0.9581647 0.1265116 0.2567395 0.9581647 0.1265116 0.2567395 1 0 -2.049555e-16 1 0 -2.049555e-16 0.7071068 0 -0.7071068 0.7071068 0 -0.7071068 0.4959826 0.1265116 -0.859067 0.4959826 0.1265116 -0.859067 0.2439665 -0.3338837 -0.9104955 0.2439665 -0.3338837 -0.9104955 8.034475e-16 -0.7211926 -0.6927346 1.77434e-15 -0.7211926 -0.6927346 -0.06288773 -0.9700314 -0.2347002 -0.06288773 -0.9700314 -0.2347002 0.1345193 -0.9631294 0.2329942 0.1345193 -0.9631294 0.2329942 0.03558408 -0.998733 0.03558408 0.09798295 -0.9903528 0.09798295 -0.04708498 -0.9985209 -0.02718453 0.5999258 -0.7211926 0.3463673 0.5999258 -0.7211926 0.3463673 0.1718125 -0.9700314 0.1718125 0.1718125 -0.9700314 0.1718125 -0.1345193 -0.9631294 -0.2329942 -0.1345193 -0.9631294 -0.2329942 -0.03586425 -0.9903528 -0.1338472 -0.01302468 -0.998733 -0.04860876 4.164867e-16 -0.9985209 0.05436906 0.9104955 -0.3338837 0.2439665 0.9104955 -0.3338837 0.2439665 0.9919651 0.1265116 3.791396e-16 0.9919651 0.1265116 3.601824e-16 0.9659258 0 -0.258819 0.9659258 0 -0.258819 0.8660254 0 -0.5 0.8660254 0 -0.5 0.7014253 0.1265116 -0.7014253 0.7014253 0.1265116 -0.7014253 0.4713071 -0.3338837 -0.8163279 0.4713071 -0.3338837 -0.8163279 0.1792929 -0.7211926 -0.6691303 0.1792929 -0.7211926 -0.6691303 5.602202e-16 -0.9700314 -0.2429795 4.736191e-16 -0.9700314 -0.2429795 0.06963229 -0.9631294 0.2598713 0.06963229 -0.9631294 0.2598713 0.02516174 -0.998733 0.04358142 0.06928441 -0.9903528 0.1200041 -0.03844473 -0.9985209 -0.03844473 0.6691303 -0.7211926 0.1792929 0.6691303 -0.7211926 0.1792929 0.2104264 -0.9700314 0.1214898 0.2104264 -0.9700314 0.1214898 -0.190239 -0.9631294 -0.190239 -0.190239 -0.9631294 -0.190239 -0.06928441 -0.9903528 -0.1200041 -0.02516174 -0.998733 -0.04358142 0.01407175 -0.9985209 0.05251648 0.9426143 -0.3338837 5.110722e-16 0.9426143 -0.3338837 4.853089e-16 0.9581647 0.1265116 -0.2567395 0.9581647 0.1265116 -0.2567395 0.859067 0.1265116 -0.4959826 0.859067 0.1265116 -0.4959826 0.6665289 -0.3338837 -0.6665289 0.6665289 -0.3338837 -0.6665289 0.3463673 -0.7211926 -0.5999258 0.3463673 -0.7211926 -0.5999258 0.06288773 -0.9700314 -0.2347002 0.06288773 -0.9700314 -0.2347002 2.127767e-16 -0.9631294 0.2690385 -9.15514e-16 -0.9631294 0.2690385 0.01302468 -0.998733 0.04860876 0.03586425 -0.9903528 0.1338472 -0.02718453 -0.9985209 -0.04708498 0.6927346 -0.7211926 7.550381e-17 0.6927346 -0.7211926 -5.105239e-16 0.2347002 -0.9700314 0.06288773 0.2347002 -0.9700314 0.06288773 -0.2329942 -0.9631294 -0.1345193 -0.2329942 -0.9631294 -0.1345193 -0.09798295 -0.9903528 -0.09798295 -0.03558408 -0.998733 -0.03558408 0.02718453 -0.9985209 0.04708498 0.9104955 -0.3338837 -0.2439665 0.9104955 -0.3338837 -0.2439665 0.8163279 -0.3338837 -0.4713071 0.8163279 -0.3338837 -0.4713071 0.4898374 -0.7211926 -0.4898374 0.4898374 -0.7211926 -0.4898374 0.1214898 -0.9700314 -0.2104264 0.1214898 -0.9700314 -0.2104264 -0.06963229 -0.9631294 0.2598713 -0.06963229 -0.9631294 0.2598713 -6.715503e-17 -0.998733 0.05032349 3.334787e-16 -0.9903528 0.1385688 -0.01407175 -0.9985209 -0.05251648 0.6691303 -0.7211926 -0.1792929 0.6691303 -0.7211926 -0.1792929 0.2429795 -0.9700314 5.111498e-16 0.2429795 -0.9700314 -5.192981e-16 -0.2598713 -0.9631294 -0.06963229 -0.2598713 -0.9631294 -0.06963229 -0.1200041 -0.9903528 -0.06928441 -0.04358142 -0.998733 -0.02516174 0.03844473 -0.9985209 0.03844473 0.5999258 -0.7211926 -0.3463673 0.5999258 -0.7211926 -0.3463673 0.1718125 -0.9700314 -0.1718125 0.1718125 -0.9700314 -0.1718125 -0.1345193 -0.9631294 0.2329942 -0.1345193 -0.9631294 0.2329942 -0.03586425 -0.9903528 0.1338472 -0.01302468 -0.998733 0.04860876 -1.070529e-16 -0.9985209 -0.05436906 0.2347002 -0.9700314 -0.06288773 0.2347002 -0.9700314 -0.06288773 -0.2690385 -0.9631294 1.009228e-16 -0.2690385 -0.9631294 3.130273e-16 -0.1338472 -0.9903528 -0.03586425 -0.04860876 -0.998733 -0.01302468 0.04708498 -0.9985209 0.02718453 0.2104264 -0.9700314 -0.1214898 0.2104264 -0.9700314 -0.1214898 -0.190239 -0.9631294 0.190239 -0.190239 -0.9631294 0.190239 -0.06928441 -0.9903528 0.1200041 -0.02516174 -0.998733 0.04358142 0.01407175 -0.9985209 -0.05251648 -0.2598713 -0.9631294 0.06963229 -0.2598713 -0.9631294 0.06963229 -0.05032349 -0.998733 2.719501e-16 -0.1385688 -0.9903528 8.704155e-16 0.05251648 -0.9985209 0.01407175 -0.2329942 -0.9631294 0.1345193 -0.2329942 -0.9631294 0.1345193 -0.09798295 -0.9903528 0.09798295 -0.03558408 -0.998733 0.03558408 0.02718453 -0.9985209 -0.04708498 -0.04860876 -0.998733 0.01302468 -0.1338472 -0.9903528 0.03586425 0.05436906 -0.9985209 5.587141e-16 -0.1200041 -0.9903528 0.06928441 -0.04358142 -0.998733 0.02516174 0.03844473 -0.9985209 -0.03844473 0.05251648 -0.9985209 -0.01407175 0.04708498 -0.9985209 -0.02718453</float_array>
                    <technique_common>
                        <accessor count="360" source="#ID47" stride="3">
                            <param name="X" type="float" />
                            <param name="Y" type="float" />
                            <param name="Z" type="float" />
                        </accessor>
                    </technique_common>
                </source>
                <vertices id="ID45">
                    <input semantic="POSITION" source="#ID43" />
                    <input semantic="NORMAL" source="#ID44" />
                </vertices>
                <triangles count="384" material="Material2">
                    <input offset="0" semantic="VERTEX" source="#ID45" />
                    <p>0 1 2 1 0 3 4 2 5 2 4 0 3 6 1 6 3 7 8 9 10 9 8 11 12 4 5 4 12 13 14 8 15 8 14 11 7 16 6 16 7 17 9 18 10 18 9 19 20 21 22 21 20 23 24 14 15 14 24 25 26 13 12 13 26 27 28 20 29 20 28 23 17 30 16 30 17 31 19 32 18 32 19 33 21 34 22 34 21 35 36 37 38 37 36 39 29 40 28 40 29 41 42 25 24 25 42 43 44 27 26 27 44 45 46 39 36 39 46 47 31 48 30 48 31 49 33 50 32 50 33 51 35 52 34 52 35 53 38 54 55 54 38 37 56 57 58 57 56 59 60 47 46 47 60 61 41 62 40 62 41 63 64 43 42 43 64 65 66 45 44 45 66 67 68 59 56 59 68 69 70 48 49 48 70 71 51 72 50 72 51 73 53 74 52 74 53 75 76 54 77 54 76 55 58 78 79 78 58 57 80 81 82 81 80 83 84 61 60 61 84 85 86 69 68 69 86 87 63 88 62 88 63 89 90 65 64 65 90 91 92 67 66 67 92 93 94 83 80 83 94 95 96 71 70 71 96 97 73 98 72 98 73 99 75 100 74 100 75 101 102 77 103 77 102 76 104 78 105 78 104 79 82 106 107 106 82 81 108 109 110 109 108 111 112 85 84 85 112 113 114 87 86 87 114 115 116 95 94 95 116 117 118 88 89 88 118 119 90 120 91 120 90 121 122 93 92 93 122 123 124 111 108 111 124 125 126 97 96 97 126 127 99 128 98 128 99 129 130 100 101 100 130 131 132 103 133 103 132 102 134 105 135 105 134 104 136 106 137 106 136 107 138 109 139 109 138 110 140 110 141 110 140 108 142 112 143 112 142 113 144 115 114 115 144 145 146 117 116 117 146 147 148 125 124 125 148 149 150 119 118 119 150 151 121 152 120 152 121 153 154 122 155 122 154 123 156 108 140 108 156 124 157 127 126 127 157 158 129 159 128 159 129 160 161 131 130 131 161 162 163 133 164 133 163 132 165 135 166 135 165 134 167 137 168 137 167 136 169 139 170 139 169 138 171 110 138 110 171 141 172 143 173 143 172 142 174 144 175 144 174 145 176 147 146 147 176 177 178 149 148 149 178 179 180 124 156 124 180 148 181 151 150 151 181 182 183 152 153 152 183 184 185 155 186 155 185 154 187 158 157 158 187 188 189 159 160 159 189 190 191 162 161 162 191 192 193 164 194 164 193 163 195 166 196 166 195 165 197 168 198 168 197 167 199 170 200 170 199 169 201 138 169 138 201 171 202 173 203 173 202 172 204 175 205 175 204 174 206 176 207 176 206 177 208 179 178 179 208 209 210 148 180 148 210 178 211 182 181 182 211 212 213 183 214 183 213 184 215 186 216 186 215 185 217 188 187 188 217 218 219 190 189 190 219 220 191 221 192 221 191 222 223 194 224 194 223 193 225 196 226 196 225 195 227 198 228 198 227 197 229 200 230 200 229 199 231 169 199 169 231 201 232 203 233 203 232 202 234 205 235 205 234 204 236 207 237 207 236 206 238 208 239 208 238 209 240 178 210 178 240 208 241 211 242 211 241 212 243 214 244 214 243 213 245 216 246 216 245 215 217 247 218 247 217 248 249 220 219 220 249 250 222 251 221 251 222 252 253 223 224 223 253 254 255 226 256 226 255 225 257 228 258 228 257 227 259 230 260 230 259 229 261 199 229 199 261 231 262 233 263 233 262 232 264 235 265 235 264 234 266 237 267 237 266 236 268 239 269 239 268 238 239 240 270 240 239 208 271 241 242 241 271 272 273 244 274 244 273 243 248 246 247 246 248 245 249 275 250 275 249 276 252 277 251 277 252 278 279 254 253 254 279 280 281 255 256 255 281 282 283 258 284 258 283 257 285 260 286 260 285 259 287 229 259 229 287 261 288 263 289 263 288 262 290 265 291 265 290 264 292 267 293 267 292 266 294 269 295 269 294 268 269 270 296 270 269 239 297 271 298 271 297 272 275 273 274 273 275 276 278 299 277 299 278 300 301 280 279 280 301 302 303 282 281 282 303 304 305 283 284 283 305 306 307 286 308 286 307 285 309 259 285 259 309 287 288 310 311 310 288 289 290 312 313 312 290 291 314 293 315 293 314 292 316 295 317 295 316 294 295 296 318 296 295 269 300 298 299 298 300 297 319 302 301 302 319 320 321 304 303 304 321 322 323 306 305 306 323 324 325 307 308 307 325 326 327 285 307 285 327 309 311 320 319 320 311 310 313 328 329 328 313 312 330 315 331 315 330 314 332 317 333 317 332 316 317 318 334 318 317 295 335 322 321 322 335 336 337 324 323 324 337 338 339 326 325 326 339 340 326 327 307 327 326 341 329 336 335 336 329 328 330 342 343 342 330 331 332 344 345 344 332 333 333 334 346 334 333 317 347 338 337 338 347 348 349 340 339 340 349 350 340 341 326 341 340 351 343 348 347 348 343 342 345 352 353 352 345 344 333 354 344 354 333 346 355 350 349 350 355 356 350 351 340 351 350 357 353 356 355 356 353 352 344 358 352 358 344 354 356 357 350 357 356 359 352 359 356 359 352 358</p>
                </triangles>
            </mesh>
        </geometry>
        <geometry id="ID48">
            <mesh>
                <source id="ID54">
                    <float_array id="ID58" count="219">-0.1511807 0.005808932 0 -0.2912335 0.02287737 0.07803578 -0.3015071 0.02287737 -1.110223e-16 -0.1460294 0.005808932 0.03912845 -0.1460294 0.005808932 -0.03912845 -0.2912335 0.02287737 -0.07803578 0 0 0 -0.1309263 0.005808932 0.07559036 -0.2611128 0.02287737 0.1507535 -0.4327098 0.04779907 2.220446e-16 -0.4179655 0.04779907 0.1119935 -0.1309263 0.005808932 -0.07559036 -0.2611128 0.02287737 -0.1507535 -0.4179655 0.04779907 -0.1119935 -0.1069009 0.005808932 0.1069009 -0.2131977 0.02287737 0.2131977 -0.3747377 0.04779907 0.2163549 -0.1069009 0.005808932 -0.1069009 -0.2131977 0.02287737 -0.2131977 -0.3747377 0.04779907 -0.2163549 -0.07559036 0.005808932 0.1309263 -0.1507535 0.02287737 0.2611128 -0.305972 0.04779907 0.305972 -0.07559036 0.005808932 -0.1309263 -0.1507535 0.02287737 -0.2611128 -0.305972 0.04779907 -0.305972 -0.03912845 0.005808932 0.1460294 -0.07803578 0.02287737 0.2912335 -0.2163549 0.04779907 0.3747377 -0.03912845 0.005808932 -0.1460294 -0.07803578 0.02287737 -0.2912335 -0.2163549 0.04779907 -0.3747377 3.330669e-16 0.005808932 0.1511807 2.220446e-16 0.02287737 0.3015071 -0.1119935 0.04779907 0.4179655 1.110223e-16 0.005808932 -0.1511807 1.110223e-16 0.02287737 -0.3015071 -0.1119935 0.04779907 -0.4179655 0.07803578 0.02287737 0.2912335 0.03912845 0.005808932 0.1460294 1.110223e-16 0.04779907 0.4327098 0.07803578 0.02287737 -0.2912335 0.03912845 0.005808932 -0.1460294 -3.330669e-16 0.04779907 -0.4327098 0.1507535 0.02287737 0.2611128 0.07559036 0.005808932 0.1309263 0.1119935 0.04779907 0.4179655 0.1507535 0.02287737 -0.2611128 0.07559036 0.005808932 -0.1309263 0.1119935 0.04779907 -0.4179655 0.2131977 0.02287737 0.2131977 0.1069009 0.005808932 0.1069009 0.2163549 0.04779907 0.3747377 0.2131977 0.02287737 -0.2131977 0.1069009 0.005808932 -0.1069009 0.2163549 0.04779907 -0.3747377 0.2611128 0.02287737 0.1507535 0.1309263 0.005808932 0.07559036 0.305972 0.04779907 0.305972 0.2611128 0.02287737 -0.1507535 0.1309263 0.005808932 -0.07559036 0.305972 0.04779907 -0.305972 0.2912335 0.02287737 0.07803578 0.1460294 0.005808932 0.03912845 0.3747377 0.04779907 0.2163549 0.2912335 0.02287737 -0.07803578 0.1460294 0.005808932 -0.03912845 0.3747377 0.04779907 -0.2163549 0.3015071 0.02287737 0 0.1511807 0.005808932 -1.110223e-16 0.4179655 0.04779907 0.1119935 0.4179655 0.04779907 -0.1119935 0.4327098 0.04779907 1.110223e-16</float_array>
                    <technique_common>
                        <accessor count="73" source="#ID58" stride="3">
                            <param name="X" type="float" />
                            <param name="Y" type="float" />
                            <param name="Z" type="float" />
                        </accessor>
                    </technique_common>
                </source>
                <source id="ID55">
                    <float_array id="ID59" count="219">-0.07874977 -0.9968944 1.816958e-15 -0.1476475 -0.9882485 0.03956202 -0.1528559 -0.9882485 8.017618e-16 -0.07606643 -0.9968944 0.02038194 -0.07606643 -0.9968944 -0.02038194 -0.1476475 -0.9882485 -0.03956202 -8.378015e-17 -1 5.689031e-17 -0.0681993 -0.9968944 0.03937488 -0.1323771 -0.9882485 0.07642796 -0.1866114 -0.9824338 7.098803e-16 -0.1802528 -0.9824338 0.04829859 -0.0681993 -0.9968944 -0.03937488 -0.1323771 -0.9882485 -0.07642796 -0.1802528 -0.9824338 -0.04829859 -0.05568449 -0.9968944 0.05568449 -0.1080855 -0.9882485 0.1080855 -0.1616102 -0.9824338 0.09330571 -0.05568449 -0.9968944 -0.05568449 -0.1080855 -0.9882485 -0.1080855 -0.1616102 -0.9824338 -0.09330571 -0.03937488 -0.9968944 0.0681993 -0.07642796 -0.9882485 0.1323771 -0.1319542 -0.9824338 0.1319542 -0.03937488 -0.9968944 -0.0681993 -0.07642796 -0.9882485 -0.1323771 -0.1319542 -0.9824338 -0.1319542 -0.02038194 -0.9968944 0.07606643 -0.03956202 -0.9882485 0.1476475 -0.09330571 -0.9824338 0.1616102 -0.02038194 -0.9968944 -0.07606643 -0.03956202 -0.9882485 -0.1476475 -0.09330571 -0.9824338 -0.1616102 -1.017021e-16 -0.9968944 0.07874977 -2.200698e-16 -0.9882485 0.1528559 -0.04829859 -0.9824338 0.1802528 -5.36147e-17 -0.9968944 -0.07874977 -1.18329e-16 -0.9882485 -0.1528559 -0.04829859 -0.9824338 -0.1802528 0.03956202 -0.9882485 0.1476475 0.02038194 -0.9968944 0.07606643 -2.502629e-16 -0.9824338 0.1866114 0.03956202 -0.9882485 -0.1476475 0.02038194 -0.9968944 -0.07606643 -2.165736e-16 -0.9824338 -0.1866114 0.07642796 -0.9882485 0.1323771 0.03937488 -0.9968944 0.0681993 0.04829859 -0.9824338 0.1802528 0.07642796 -0.9882485 -0.1323771 0.03937488 -0.9968944 -0.0681993 0.04829859 -0.9824338 -0.1802528 0.1080855 -0.9882485 0.1080855 0.05568449 -0.9968944 0.05568449 0.09330571 -0.9824338 0.1616102 0.1080855 -0.9882485 -0.1080855 0.05568449 -0.9968944 -0.05568449 0.09330571 -0.9824338 -0.1616102 0.1323771 -0.9882485 0.07642796 0.0681993 -0.9968944 0.03937488 0.1319542 -0.9824338 0.1319542 0.1323771 -0.9882485 -0.07642796 0.0681993 -0.9968944 -0.03937488 0.1319542 -0.9824338 -0.1319542 0.1476475 -0.9882485 0.03956202 0.07606643 -0.9968944 0.02038194 0.1616102 -0.9824338 0.09330571 0.1476475 -0.9882485 -0.03956202 0.07606643 -0.9968944 -0.02038194 0.1616102 -0.9824338 -0.09330571 0.1528559 -0.9882485 6.469388e-16 0.07874977 -0.9968944 1.727278e-15 0.1802528 -0.9824338 0.04829859 0.1802528 -0.9824338 -0.04829859 0.1866114 -0.9824338 5.053385e-16</float_array>
                    <technique_common>
                        <accessor count="73" source="#ID59" stride="3">
                            <param name="X" type="float" />
                            <param name="Y" type="float" />
                            <param name="Z" type="float" />
                        </accessor>
                    </technique_common>
                </source>
                <source id="ID57">
                    <float_array id="ID60" count="146">-0.674545 -0.5000001 -0.8362423 -0.4099042 -0.8481036 -0.5 -0.6685975 -0.4548245 -0.6685975 -0.5451756 -0.8362423 -0.5900959 -0.5 -0.5000001 -0.6511604 -0.4127276 -0.8014666 -0.3259482 -0.9995831 -0.5 -0.9825602 -0.3706984 -0.6511604 -0.5872726 -0.8014666 -0.6740519 -0.9825602 -0.6293017 -0.6234219 -0.3765781 -0.7461464 -0.2538536 -0.9326516 -0.2502085 -0.6234219 -0.623422 -0.7461465 -0.7461465 -0.9326517 -0.7497916 -0.5872725 -0.3488397 -0.6740518 -0.1985335 -0.8532585 -0.1467414 -0.5872725 -0.6511605 -0.6740518 -0.8014667 -0.8532586 -0.8532587 -0.5451755 -0.3314025 -0.5900958 -0.1637578 -0.7497915 -0.06734838 -0.5451756 -0.6685976 -0.5900959 -0.8362424 -0.7497916 -0.9326517 -0.4999999 -0.3254551 -0.4999999 -0.1518964 -0.6293015 -0.01743983 -0.5 -0.6745451 -0.5 -0.8481038 -0.6293017 -0.9825603 -0.4099041 -0.1637578 -0.4548244 -0.3314026 -0.4999999 -0.0004169636 -0.4099042 -0.8362424 -0.4548244 -0.6685976 -0.5 -0.9995832 -0.3259481 -0.1985335 -0.4127274 -0.3488397 -0.3706983 -0.01743986 -0.3259482 -0.8014667 -0.4127275 -0.6511605 -0.3706984 -0.9825603 -0.2538535 -0.2538537 -0.376578 -0.3765781 -0.2502084 -0.06734844 -0.2538535 -0.7461466 -0.376578 -0.6234221 -0.2502085 -0.9326518 -0.1985333 -0.3259483 -0.3488395 -0.4127276 -0.1467413 -0.1467415 -0.1985334 -0.674052 -0.3488396 -0.5872726 -0.1467414 -0.8532587 -0.1637576 -0.4099043 -0.3314024 -0.4548245 -0.06734826 -0.2502086 -0.1637577 -0.590096 -0.3314024 -0.5451757 -0.06734832 -0.7497917 -0.1518963 -0.5000001 -0.325455 -0.5000001 -0.01743971 -0.3706985 -0.01743974 -0.6293018 -0.0004168444 -0.5000001</float_array>
                    <technique_common>
                        <accessor count="73" source="#ID60" stride="2">
                            <param name="S" type="float" />
                            <param name="T" type="float" />
                        </accessor>
                    </technique_common>
                </source>
                <vertices id="ID56">
                    <input semantic="POSITION" source="#ID54" />
                    <input semantic="NORMAL" source="#ID55" />
                </vertices>
                <triangles count="120" material="Material2">
                    <input offset="0" semantic="VERTEX" source="#ID56" />
                    <input offset="1" semantic="TEXCOORD" source="#ID57" />
                    <p>0 0 1 1 2 2 1 1 0 0 3 3 4 4 2 2 5 5 2 2 4 4 0 0 3 3 0 0 6 6 7 7 1 1 3 3 1 1 7 7 8 8 1 1 9 9 2 2 9 9 1 1 10 10 11 11 5 5 12 12 5 5 11 11 4 4 0 0 4 4 6 6 5 5 9 9 13 13 9 9 5 5 2 2 7 7 3 3 6 6 14 14 8 8 7 7 8 8 14 14 15 15 8 8 10 10 1 1 10 10 8 8 16 16 17 17 12 12 18 18 12 12 17 17 11 11 6 6 4 4 11 11 12 12 13 13 19 19 13 13 12 12 5 5 14 14 7 7 6 6 20 20 15 15 14 14 15 15 20 20 21 21 15 15 16 16 8 8 16 16 15 15 22 22 23 23 18 18 24 24 18 18 23 23 17 17 6 6 11 11 17 17 18 18 19 19 25 25 19 19 18 18 12 12 20 20 14 14 6 6 26 26 21 21 20 20 21 21 26 26 27 27 21 21 22 22 15 15 22 22 21 21 28 28 29 29 24 24 30 30 24 24 29 29 23 23 6 6 17 17 23 23 24 24 25 25 31 31 25 25 24 24 18 18 26 26 20 20 6 6 32 32 27 27 26 26 27 27 32 32 33 33 27 27 28 28 21 21 28 28 27 27 34 34 35 35 30 30 36 36 30 30 35 35 29 29 6 6 23 23 29 29 30 30 31 31 37 37 31 31 30 30 24 24 32 32 26 26 6 6 38 38 32 32 39 39 32 32 38 38 33 33 33 33 34 34 27 27 34 34 33 33 40 40 41 41 35 35 36 36 35 35 41 41 42 42 6 6 29 29 35 35 36 36 37 37 43 43 37 37 36 36 30 30 32 32 6 6 39 39 44 44 39 39 45 45 39 39 44 44 38 38 46 46 33 33 38 38 33 33 46 46 40 40 47 47 42 42 41 41 42 42 47 47 48 48 6 6 35 35 42 42 49 49 36 36 43 43 36 36 49 49 41 41 39 39 6 6 45 45 50 50 45 45 51 51 45 45 50 50 44 44 52 52 38 38 44 44 38 38 52 52 46 46 53 53 48 48 47 47 48 48 53 53 54 54 6 6 42 42 48 48 55 55 41 41 49 49 41 41 55 55 47 47 45 45 6 6 51 51 56 56 51 51 57 57 51 51 56 56 50 50 58 58 44 44 50 50 44 44 58 58 52 52 59 59 54 54 53 53 54 54 59 59 60 60 6 6 48 48 54 54 61 61 47 47 55 55 47 47 61 61 53 53 51 51 6 6 57 57 62 62 57 57 63 63 57 57 62 62 56 56 64 64 50 50 56 56 50 50 64 64 58 58 65 65 60 60 59 59 60 60 65 65 66 66 6 6 54 54 60 60 67 67 53 53 61 61 53 53 67 67 59 59 57 57 6 6 63 63 68 68 63 63 69 69 63 63 68 68 62 62 70 70 56 56 62 62 56 56 70 70 64 64 68 68 66 66 65 65 66 66 68 68 69 69 6 6 60 60 66 66 71 71 59 59 67 67 59 59 71 71 65 65 63 63 6 6 69 69 72 72 62 62 68 68 62 62 72 72 70 70 6 6 66 66 69 69 72 72 65 65 71 71 65 65 72 72 68 68</p>
                </triangles>
            </mesh>
        </geometry>
        <geometry id="ID63">
            <mesh>
                <source id="ID69">
                    <float_array id="ID73" count="222">0.7433971 -0.1181102 0.02012254 0.4377053 -0.1181102 0.02012254 0.5905512 -0.1181102 -6.661338e-16 0.8858268 -0.1181102 0.07911886 0.2952756 -0.1181102 0.07911886 1.008134 -0.1181102 0.1729684 0.1729684 -0.1181102 0.1729684 1.101984 -0.1181102 0.2952756 0.07911886 -0.1181102 0.2952756 1.16098 -0.1181102 0.4377053 0.02012254 -0.1181102 0.4377053 1.181102 -0.1181102 0.5905512 0 -0.1181102 0.5905512 1.122047 -0.1181102 1.219937 1.181102 -0.1181102 1.968504 1.122047 -0.1181102 1.909449 0.05905512 -0.1181102 1.909449 0.05905512 -0.1181102 1.219937 0 -0.1181102 1.968504 0 0 1.968504 0 -0.1181102 0.5905512 0 -0.1181102 1.968504 0 0 0.5905512 0 0 0.5905512 0.02012254 -0.1181102 0.4377053 0 -0.1181102 0.5905512 0.02012254 0 0.4377053 0.07911886 -0.1181102 0.2952756 0.07911886 0 0.2952756 0.1729684 -0.1181102 0.1729684 0.1729684 0 0.1729684 0.2952756 0 0.07911886 0.2952756 -0.1181102 0.07911886 0.4377053 0 0.02012254 0.4377053 -0.1181102 0.02012254 0.5905512 0 -6.661338e-16 0.5905512 -0.1181102 -6.661338e-16 0.7433971 0 0.02012254 0.5905512 -0.1181102 -6.661338e-16 0.5905512 0 -6.661338e-16 0.7433971 -0.1181102 0.02012254 0.8858268 0 0.07911886 0.8858268 -0.1181102 0.07911886 1.008134 0 0.1729684 1.008134 -0.1181102 0.1729684 1.101984 -0.1181102 0.2952756 1.101984 0 0.2952756 1.16098 -0.1181102 0.4377053 1.16098 0 0.4377053 1.181102 -0.1181102 0.5905512 1.181102 0 0.5905512 1.181102 0 0.5905512 1.181102 -0.1181102 1.968504 1.181102 -0.1181102 0.5905512 1.181102 0 1.968504 1.181102 -0.1181102 1.968504 0 0 1.968504 0 -0.1181102 1.968504 1.181102 0 1.968504 0.4377053 0 0.02012254 0.7433971 0 0.02012254 0.5905512 0 -6.661338e-16 0.2952756 0 0.07911886 0.8858268 0 0.07911886 1.008134 0 0.1729684 0.1729684 0 0.1729684 0.07911886 0 0.2952756 1.101984 0 0.2952756 1.16098 0 0.4377053 0.02012254 0 0.4377053 1.181102 0 0.5905512 0 0 0.5905512 1.181102 0 1.968504 0 0 1.968504</float_array>
                    <technique_common>
                        <accessor count="74" source="#ID73" stride="3">
                            <param name="X" type="float" />
                            <param name="Y" type="float" />
                            <param name="Z" type="float" />
                        </accessor>
                    </technique_common>
                </source>
                <source id="ID70">
                    <float_array id="ID74" count="222">0 -1 0 0 -1 0 0 -1 0 0 -1 0 0 -1 0 0 -1 0 0 -1 0 0 -1 0 0 -1 0 0 -1 0 0 -1 0 0 -1 0 0 -1 0 0 -1 0 0 -1 0 0 -1 0 0 -1 0 0 -1 0 0 -1 0 -1 0 0 -1 0 0 -1 0 0 -1 0 0 -0.9914449 0 -0.1305262 -0.9659258 0 -0.258819 -0.9914449 0 -0.1305262 -0.9659258 0 -0.258819 -0.8660254 0 -0.5 -0.8660254 0 -0.5 -0.7071068 0 -0.7071068 -0.7071068 0 -0.7071068 -0.5 0 -0.8660254 -0.5 0 -0.8660254 -0.258819 0 -0.9659258 -0.258819 0 -0.9659258 -0.1305262 0 -0.9914449 -0.1305262 0 -0.9914449 0.258819 0 -0.9659258 0.1305262 0 -0.9914449 0.1305262 0 -0.9914449 0.258819 0 -0.9659258 0.5 0 -0.8660254 0.5 0 -0.8660254 0.7071068 0 -0.7071068 0.7071068 0 -0.7071068 0.8660254 0 -0.5 0.8660254 0 -0.5 0.9659258 0 -0.258819 0.9659258 0 -0.258819 0.9914449 0 -0.1305262 0.9914449 0 -0.1305262 1 0 0 1 0 0 1 0 0 1 0 0 0 0 1 0 0 1 0 0 1 0 0 1 0 1 0 0 1 0 0 1 0 0 1 0 0 1 0 0 1 0 0 1 0 0 1 0 0 1 0 0 1 0 0 1 0 0 1 0 0 1 0 0 1 0 0 1 0</float_array>
                    <technique_common>
                        <accessor count="74" source="#ID74" stride="3">
                            <param name="X" type="float" />
                            <param name="Y" type="float" />
                            <param name="Z" type="float" />
                        </accessor>
                    </technique_common>
                </source>
                <source id="ID72">
                    <float_array id="ID75" count="178">0.3776457 0.01022225 0.2223543 0.01022225 0.3 -3.38396e-16 0.45 0.04019238 0.15 0.04019238 0.512132 0.08786797 0.08786797 0.08786797 0.5598076 0.15 0.04019238 0.15 0.5897777 0.2223543 0.01022225 0.2223543 0.6 0.3 0 0.3 0.57 0.619728 0.6 1 0.57 0.97 0.03 0.97 0.03 0.619728 0 1 0.06 0.3 0.06 1 0 0.2974335 0.06 0.2191177 0.06 0.2974335 0 0.2191177 0 0.2015167 0.06 0.123201 0.06 0.2015167 0 0.123201 0 0.09453543 0.06 0.01621972 0.06 0.09453543 0 0.01621972 0 -0.09453543 0.06 -0.01621972 0 -0.01621972 0.06 -0.09453543 0 -0.2015167 0.06 -0.123201 0 -0.123201 0.06 -0.2015167 0 -0.2974335 0.06 -0.2191177 0 -0.2191177 0.06 -0.2974335 0 0.3757492 -0.06 0.2974335 0 0.2974335 -0.06 0.3757492 0 0.4311267 -0.06 0.352811 0 0.352811 -0.06 0.4311267 0 0.4597923 -0.06 0.3814766 0 0.3814766 -0.06 0.4597923 0 0.3814766 -0.06 0.4597923 -0.06 0.3814766 0 0.4597923 0 0.352811 -0.06 0.4311267 -0.06 0.352811 0 0.4311267 0 0.2974335 -0.06 0.3757492 -0.06 0.2974335 0 0.3757492 0 0.3 -0.06 1 -0.06 0.3 0.6 -0.06 0 0 0 -0.06 0.6 0 -0.2223543 0.01022225 -0.3776457 0.01022225 -0.3 -3.38396e-16 -0.15 0.04019238 -0.45 0.04019238 -0.512132 0.08786797 -0.08786797 0.08786797 -0.04019238 0.15 -0.5598076 0.15 -0.5897777 0.2223543 -0.01022225 0.2223543 -0.6 0.3 -0.6 1</float_array>
                    <technique_common>
                        <accessor count="89" source="#ID75" stride="2">
                            <param name="S" type="float" />
                            <param name="T" type="float" />
                        </accessor>
                    </technique_common>
                </source>
                <vertices id="ID71">
                    <input semantic="POSITION" source="#ID69" />
                    <input semantic="NORMAL" source="#ID70" />
                </vertices>
                <triangles count="62" material="Material2">
                    <input offset="0" semantic="VERTEX" source="#ID71" />
                    <input offset="1" semantic="TEXCOORD" source="#ID72" />
                    <p>0 0 1 1 2 2 1 1 0 0 3 3 1 1 3 3 4 4 4 4 3 3 5 5 4 4 5 5 6 6 6 6 5 5 7 7 6 6 7 7 8 8 8 8 7 7 9 9 8 8 9 9 10 10 10 10 9 9 11 11 10 10 11 11 12 12 12 12 11 11 13 13 13 13 11 11 14 14 13 13 14 14 15 15 15 15 14 14 16 16 12 12 17 17 18 18 17 17 12 12 13 13 18 18 17 17 16 16 18 18 16 16 14 14 19 18 20 19 21 20 20 19 19 18 22 12 23 21 24 22 25 23 24 22 23 21 26 24 26 25 27 26 24 27 27 26 26 25 28 28 28 29 29 30 27 31 29 30 28 29 30 32 31 33 29 34 30 35 29 34 31 33 32 36 33 37 32 38 31 39 32 38 33 37 34 40 35 41 34 42 33 43 34 42 35 41 36 44 37 45 38 46 39 47 38 46 37 45 40 48 41 49 40 50 37 51 40 50 41 49 42 52 43 53 42 54 41 55 42 54 43 53 44 56 43 57 45 58 44 59 45 58 43 57 46 60 46 61 47 62 45 63 47 62 46 61 48 64 48 65 49 66 47 67 49 66 48 65 50 68 51 69 52 70 53 71 52 70 51 69 54 18 55 72 56 73 57 74 56 73 55 72 58 75 59 76 60 77 61 78 60 77 59 76 62 79 60 77 62 79 63 80 63 80 62 79 64 81 64 81 62 79 65 82 64 81 65 82 66 83 64 81 66 83 67 84 67 84 66 83 68 85 68 85 66 83 69 86 68 85 69 86 70 87 70 87 69 86 71 12 70 87 71 12 72 88 72 88 71 12 73 18</p>
                </triangles>
            </mesh>
        </geometry>
        <geometry id="ID76">
            <mesh>
                <source id="ID82">
                    <float_array id="ID86" count="12">1.122047 -0.05905512 1.909449 0.05905512 -0.05905512 1.219937 1.122047 -0.05905512 1.219937 0.05905512 -0.05905512 1.909449</float_array>
                    <technique_common>
                        <accessor count="4" source="#ID86" stride="3">
                            <param name="X" type="float" />
                            <param name="Y" type="float" />
                            <param name="Z" type="float" />
                        </accessor>
                    </technique_common>
                </source>
                <source id="ID83">
                    <float_array id="ID87" count="12">0 -1 0 0 -1 0 0 -1 0 0 -1 0</float_array>
                    <technique_common>
                        <accessor count="4" source="#ID87" stride="3">
                            <param name="X" type="float" />
                            <param name="Y" type="float" />
                            <param name="Z" type="float" />
                        </accessor>
                    </technique_common>
                </source>
                <source id="ID85">
                    <float_array id="ID88" count="8">0.9999999 0.9999999 -3.866455e-08 0.4208466 0.9999999 0.4208465 -1.387779e-17 1</float_array>
                    <technique_common>
                        <accessor count="4" source="#ID88" stride="2">
                            <param name="S" type="float" />
                            <param name="T" type="float" />
                        </accessor>
                    </technique_common>
                </source>
                <vertices id="ID84">
                    <input semantic="POSITION" source="#ID82" />
                    <input semantic="NORMAL" source="#ID83" />
                </vertices>
                <triangles count="2" material="Material2">
                    <input offset="0" semantic="VERTEX" source="#ID84" />
                    <input offset="1" semantic="TEXCOORD" source="#ID85" />
                    <p>0 0 1 1 2 2 1 1 0 0 3 3</p>
                </triangles>
            </mesh>
        </geometry>
        <geometry id="ID89">
            <mesh>
                <source id="ID90">
                    <float_array id="ID94" count="48">0.05905512 -0.05905512 1.219937 0.05905512 -0.1181102 1.909449 0.05905512 -0.1181102 1.219937 0.05905512 -0.05905512 1.909449 1.122047 -0.1181102 1.219937 0.05905512 -0.05905512 1.219937 0.05905512 -0.1181102 1.219937 1.122047 -0.05905512 1.219937 1.122047 -0.05905512 1.909449 0.05905512 -0.1181102 1.909449 0.05905512 -0.05905512 1.909449 1.122047 -0.1181102 1.909449 1.122047 -0.05905512 1.909449 1.122047 -0.1181102 1.219937 1.122047 -0.1181102 1.909449 1.122047 -0.05905512 1.219937</float_array>
                    <technique_common>
                        <accessor count="16" source="#ID94" stride="3">
                            <param name="X" type="float" />
                            <param name="Y" type="float" />
                            <param name="Z" type="float" />
                        </accessor>
                    </technique_common>
                </source>
                <source id="ID91">
                    <float_array id="ID95" count="48">1 0 0 1 0 0 1 0 0 1 0 0 0 0 1 0 0 1 0 0 1 0 0 1 -0 -0 -1 -0 -0 -1 -0 -0 -1 -0 -0 -1 -1 0 0 -1 0 0 -1 0 0 -1 0 0</float_array>
                    <technique_common>
                        <accessor count="16" source="#ID95" stride="3">
                            <param name="X" type="float" />
                            <param name="Y" type="float" />
                            <param name="Z" type="float" />
                        </accessor>
                    </technique_common>
                </source>
                <source id="ID93">
                    <float_array id="ID96" count="32">-0.03 0.619728 -0.06 0.97 -0.06 0.619728 -0.03 0.97 0.57 -0.06 0.03 -0.03 0.03 -0.06 0.57 -0.03 -0.57 -0.03 -0.03 -0.06 -0.03 -0.03 -0.57 -0.06 0.03 0.97 0.06 0.619728 0.06 0.97 0.03 0.619728</float_array>
                    <technique_common>
                        <accessor count="16" source="#ID96" stride="2">
                            <param name="S" type="float" />
                            <param name="T" type="float" />
                        </accessor>
                    </technique_common>
                </source>
                <vertices id="ID92">
                    <input semantic="POSITION" source="#ID90" />
                    <input semantic="NORMAL" source="#ID91" />
                </vertices>
                <triangles count="8" material="Material2">
                    <input offset="0" semantic="VERTEX" source="#ID92" />
                    <input offset="1" semantic="TEXCOORD" source="#ID93" />
                    <p>0 0 1 1 2 2 1 1 0 0 3 3 4 4 5 5 6 6 5 5 4 4 7 7 8 8 9 9 10 10 9 9 8 8 11 11 12 12 13 13 14 14 13 13 12 12 15 15</p>
                </triangles>
            </mesh>
        </geometry>
        <geometry id="ID97">
            <mesh>
                <source id="ID103">
                    <float_array id="ID107" count="24">1.122047 -0.1181102 1.909449 0.05905512 -0.1181102 1.219937 1.122047 -0.1181102 1.219937 0.05905512 -0.1181102 1.909449 0.05905512 -0.1181102 1.909449 1.122047 -0.1181102 1.909449 0.05905512 -0.1181102 1.219937 1.122047 -0.1181102 1.219937</float_array>
                    <technique_common>
                        <accessor count="8" source="#ID107" stride="3">
                            <param name="X" type="float" />
                            <param name="Y" type="float" />
                            <param name="Z" type="float" />
                        </accessor>
                    </technique_common>
                </source>
                <source id="ID104">
                    <float_array id="ID108" count="24">0 -1 0 0 -1 0 0 -1 0 0 -1 0 -0 1 -0 -0 1 -0 -0 1 -0 -0 1 -0</float_array>
                    <technique_common>
                        <accessor count="8" source="#ID108" stride="3">
                            <param name="X" type="float" />
                            <param name="Y" type="float" />
                            <param name="Z" type="float" />
                        </accessor>
                    </technique_common>
                </source>
                <source id="ID106">
                    <float_array id="ID109" count="8">0.01558399 0.02652012 0.00082021 0.01694357 0.01558399 0.01694357 0.00082021 0.02652012</float_array>
                    <technique_common>
                        <accessor count="4" source="#ID109" stride="2">
                            <param name="S" type="float" />
                            <param name="T" type="float" />
                        </accessor>
                    </technique_common>
                </source>
                <vertices id="ID105">
                    <input semantic="POSITION" source="#ID103" />
                    <input semantic="NORMAL" source="#ID104" />
                </vertices>
                <triangles count="4" material="Material2">
                    <input offset="0" semantic="VERTEX" source="#ID105" />
                    <input offset="1" semantic="TEXCOORD" source="#ID106" />
                    <p>0 0 1 1 2 2 1 1 0 0 3 3 4 3 5 0 6 1 7 2 6 1 5 0</p>
                </triangles>
            </mesh>
        </geometry>
    </library_geometries>
    <library_materials>
        <material id="ID6" name="plastic_black">
            <instance_effect url="#ID7" />
        </material>
        <material id="ID14" name="housing">
            <instance_effect url="#ID15" />
        </material>
        <material id="ID49" name="speaker">
            <instance_effect url="#ID50" />
        </material>
        <material id="ID64" name="plastic_black_textured">
            <instance_effect url="#ID65" />
        </material>
        <material id="ID77" name="placard">
            <instance_effect url="#ID78" />
        </material>
        <material id="ID98" name="plastic_glass">
            <instance_effect url="#ID99" />
        </material>
    </library_materials>
    <library_effects>
        <effect id="ID7">
            <profile_COMMON>
                <technique sid="COMMON">
                    <lambert>
                        <diffuse>
                            <color>0.1372549 0.1372549 0.1372549 1</color>
                        </diffuse>
                    </lambert>
                </technique>
            </profile_COMMON>
        </effect>
        <effect id="ID15">
            <profile_COMMON>
                <newparam sid="ID17">
                    <surface type="2D">
                        <init_from>ID16</init_from>
                    </surface>
                </newparam>
                <newparam sid="ID18">
                    <sampler2D>
                        <source>ID17</source>
                    </sampler2D>
                </newparam>
                <technique sid="COMMON">
                    <lambert>
                        <diffuse>
                            <texture texture="ID18" texcoord="UVSET0" />
                        </diffuse>
                    </lambert>
                </technique>
            </profile_COMMON>
        </effect>
        <effect id="ID50">
            <profile_COMMON>
                <newparam sid="ID52">
                    <surface type="2D">
                        <init_from>ID51</init_from>
                    </surface>
                </newparam>
                <newparam sid="ID53">
                    <sampler2D>
                        <source>ID52</source>
                    </sampler2D>
                </newparam>
                <technique sid="COMMON">
                    <lambert>
                        <diffuse>
                            <texture texture="ID53" texcoord="UVSET0" />
                        </diffuse>
                    </lambert>
                </technique>
            </profile_COMMON>
        </effect>
        <effect id="ID65">
            <profile_COMMON>
                <newparam sid="ID67">
                    <surface type="2D">
                        <init_from>ID66</init_from>
                    </surface>
                </newparam>
                <newparam sid="ID68">
                    <sampler2D>
                        <source>ID67</source>
                    </sampler2D>
                </newparam>
                <technique sid="COMMON">
                    <lambert>
                        <diffuse>
                            <texture texture="ID68" texcoord="UVSET0" />
                        </diffuse>
                    </lambert>
                </technique>
            </profile_COMMON>
        </effect>
        <effect id="ID78">
            <profile_COMMON>
                <newparam sid="ID80">
                    <surface type="2D">
                        <init_from>ID79</init_from>
                    </surface>
                </newparam>
                <newparam sid="ID81">
                    <sampler2D>
                        <source>ID80</source>
                    </sampler2D>
                </newparam>
                <technique sid="COMMON">
                    <lambert>
                        <diffuse>
                            <texture texture="ID81" texcoord="UVSET0" />
                        </diffuse>
                    </lambert>
                </technique>
            </profile_COMMON>
        </effect>
        <effect id="ID99">
            <profile_COMMON>
                <newparam sid="ID101">
                    <surface type="2D">
                        <init_from>ID100</init_from>
                    </surface>
                </newparam>
                <newparam sid="ID102">
                    <sampler2D>
                        <source>ID101</source>
                    </sampler2D>
                </newparam>
                <technique sid="COMMON">
                    <lambert>
                        <diffuse>
                            <texture texture="ID102" texcoord="UVSET0" />
                        </diffuse>
                        <transparent opaque="RGB_ZERO">
                            <color>0.48 0.48 0.48 1</color>
                        </transparent>
                        <transparency>
                            <float>1</float>
                        </transparency>
                    </lambert>
                </technique>
            </profile_COMMON>
        </effect>
    </library_effects>
    <library_images>
        <image id="ID16">
            <init_from>speaker/housing.jpg</init_from>
        </image>
        <image id="ID51">
            <init_from>speaker/speaker.png</init_from>
        </image>
        <image id="ID66">
            <init_from>speaker/plastic_black_textured.jpg</init_from>
        </image>
        <image id="ID79">
            <init_from>speaker/placard.png</init_from>
        </image>
        <image id="ID100">
            <init_from>speaker/plastic_glass.jpg</init_from>
        </image>
    </library_images>
    <scene>
        <instance_visual_scene url="#ID2" />
    </scene>
</COLLADA>
