<?xml version="1.0" encoding="UTF-8" standalone="no" ?>
<COLLADA xmlns="http://www.collada.org/2005/11/COLLADASchema" version="1.4.1">
    <asset>
        <contributor>
            <authoring_tool>SketchUp 17.2.2555</authoring_tool>
        </contributor>
        <created>2026-06-05T17:43:37Z</created>
        <modified>2026-06-05T17:43:37Z</modified>
        <unit meter="0.0254" name="inch" />
        <up_axis>Z_UP</up_axis>
    </asset>
    <library_cameras>
        <camera id="ID1" name="skp_camera_Last_Saved_SketchUp_View">
            <optics>
                <technique_common>
                    <perspective>
                        <yfov>35</yfov>
                        <aspect_ratio>0</aspect_ratio>
                        <znear>0.1</znear>
                        <zfar>2</zfar>
                    </perspective>
                </technique_common>
            </optics>
        </camera>
    </library_cameras>
    <library_visual_scenes>
        <visual_scene id="ID2">
            <node name="SketchUp">
                <instance_geometry url="#ID3">
                    <bind_material>
                        <technique_common>
                            <instance_material symbol="Material2" target="#ID4">
                                <bind_vertex_input semantic="UVSET0" input_semantic="TEXCOORD" input_set="0" />
                            </instance_material>
                        </technique_common>
                    </bind_material>
                </instance_geometry>
                <instance_geometry url="#ID11">
                    <bind_material>
                        <technique_common>
                            <instance_material symbol="Material2" target="#ID12">
                                <bind_vertex_input semantic="UVSET0" input_semantic="TEXCOORD" input_set="0" />
                            </instance_material>
                        </technique_common>
                    </bind_material>
                </instance_geometry>
                <instance_geometry url="#ID24">
                    <bind_material>
                        <technique_common>
                            <instance_material symbol="Material2" target="#ID4">
                                <bind_vertex_input semantic="UVSET0" input_semantic="TEXCOORD" input_set="0" />
                            </instance_material>
                        </technique_common>
                    </bind_material>
                </instance_geometry>
                <instance_geometry url="#ID30">
                    <bind_material>
                        <technique_common>
                            <instance_material symbol="Material2" target="#ID31">
                                <bind_vertex_input semantic="UVSET0" input_semantic="TEXCOORD" input_set="0" />
                            </instance_material>
                        </technique_common>
                    </bind_material>
                </instance_geometry>
                <instance_geometry url="#ID43">
                    <bind_material>
                        <technique_common>
                            <instance_material symbol="Material2" target="#ID44">
                                <bind_vertex_input semantic="UVSET0" input_semantic="TEXCOORD" input_set="0" />
                            </instance_material>
                        </technique_common>
                    </bind_material>
                </instance_geometry>
                <instance_geometry url="#ID51">
                    <bind_material>
                        <technique_common>
                            <instance_material symbol="Material2" target="#ID52">
                                <bind_vertex_input semantic="UVSET0" input_semantic="TEXCOORD" input_set="0" />
                            </instance_material>
                        </technique_common>
                    </bind_material>
                </instance_geometry>
                <node name="skp_camera_Last_Saved_SketchUp_View">
                    <matrix>0.8174325 0.1833313 -0.5460712 -3.613339 -0.5760244 0.2601642 -0.7749261 -8.034652 0 0.9480001 0.31827 4.762989 0 0 0 1</matrix>
                    <instance_camera url="#ID1" />
                </node>
            </node>
        </visual_scene>
    </library_visual_scenes>
    <library_geometries>
        <geometry id="ID3">
            <mesh>
                <source id="ID6">
                    <float_array id="ID9" count="336">5.029947 0 0.01729684 4.988189 -0.1279528 2.515349e-17 4.988189 0 0 5.029947 -0.1279528 0.01729684 5.047244 -0.1279528 0.05905512 5.047244 0 0.05905512 4.988189 -0.1279528 2.515349e-17 5.023328 -0.1488319 0.02391606 4.986469 -0.1488319 0.008648422 5.029947 -0.1279528 0.01729684 0.05905512 0 0 4.988189 -0.1279528 2.515349e-17 0.05905512 -0.1279528 2.255141e-17 4.988189 0 0 0.01729684 0 0.01729684 4.988189 0 0 0.05905512 0 0 5.029947 0 0.01729684 0 0 0.05905512 5.047244 0 0.05905512 0 0 3.326772 5.047244 0 3.326772 0.01729684 0 3.36853 5.029947 0 3.36853 0.05905512 0 3.385827 4.988189 0 3.385827 5.047244 0 0.05905512 5.047244 -0.1279528 3.326772 5.047244 -0.1279528 0.05905512 5.047244 0 3.326772 5.038596 -0.1488319 0.0607754 5.047244 -0.1279528 0.05905512 4.982316 -0.1574803 0.02952756 5.007348 -0.1574803 0.03989626 0.0607754 -0.1488319 0.008648422 0.05905512 -0.1279528 2.255141e-17 0.05905512 0 0 0.01729684 -0.1279528 0.01729684 0.01729684 0 0.01729684 0.05905512 -0.1279528 2.255141e-17 0 0 0.05905512 2.428613e-17 -0.1279528 0.05905512 0 0 3.326772 2.428613e-17 -0.1279528 0.05905512 2.168404e-17 -0.1279528 3.326772 0 0 0.05905512 0.01729684 0 3.36853 2.168404e-17 -0.1279528 3.326772 0.01729684 -0.1279528 3.36853 0 0 3.326772 0.05905512 0 3.385827 0.05905512 -0.1279528 3.385827 4.988189 -0.1279528 3.385827 0.05905512 0 3.385827 0.05905512 -0.1279528 3.385827 4.988189 0 3.385827 5.029947 -0.1279528 3.36853 4.988189 0 3.385827 4.988189 -0.1279528 3.385827 5.029947 0 3.36853 5.047244 0 3.326772 5.047244 -0.1279528 3.326772 5.038596 -0.1488319 3.325051 5.047244 -0.1279528 3.326772 5.017717 -0.1574803 0.06492851 5.007348 -0.1574803 0.03989626 0.06492851 -0.1574803 0.02952756 4.982316 -0.1574803 0.02952756 0.03989626 -0.1574803 0.03989626 5.017717 -0.1574803 0.06492851 0.02952756 -0.1574803 0.06492851 4.870079 -0.1574803 0.1476378 4.890958 -0.1574803 0.1562862 4.899606 -0.1574803 0.1771654 5.017717 -0.1574803 3.320898 4.899606 -0.1574803 3.208661 4.890958 -0.1574803 3.229541 4.870079 -0.1574803 3.238189 0.02952756 -0.1574803 3.320898 0.03989626 -0.1574803 3.345931 5.007348 -0.1574803 3.345931 4.982316 -0.1574803 3.356299 0.06492851 -0.1574803 3.356299 0.1476378 -0.1574803 0.1771654 0.1562862 -0.1574803 0.1562862 0.1771654 -0.1574803 0.1476378 0.1476378 -0.1574803 3.208661 0.1562862 -0.1574803 3.229541 0.1771654 -0.1574803 3.238189 0.06492851 -0.1574803 0.02952756 0.02391606 -0.1488319 0.02391606 0.01729684 -0.1279528 0.01729684 2.428613e-17 -0.1279528 0.05905512 0.008648422 -0.1488319 0.0607754 2.168404e-17 -0.1279528 3.326772 0.008648422 -0.1488319 3.325051 0.01729684 -0.1279528 3.36853 0.02391606 -0.1488319 3.361911 0.05905512 -0.1279528 3.385827 0.0607754 -0.1488319 3.377178 4.988189 -0.1279528 3.385827 4.986469 -0.1488319 3.377178 5.023328 -0.1488319 3.361911 5.029947 -0.1279528 3.36853 5.017717 -0.1574803 3.320898 5.007348 -0.1574803 3.345931 4.982316 -0.1574803 3.356299 0.06492851 -0.1574803 3.356299 0.03989626 -0.1574803 3.345931 0.02952756 -0.1574803 3.320898 0.02952756 -0.1574803 0.06492851 0.03989626 -0.1574803 0.03989626</float_array>
                    <technique_common>
                        <accessor count="112" source="#ID9" stride="3">
                            <param name="X" type="float" />
                            <param name="Y" type="float" />
                            <param name="Z" type="float" />
                        </accessor>
                    </technique_common>
                </source>
                <source id="ID7">
                    <float_array id="ID10" count="336">0.7071068 1.228016e-15 -0.7071068 0.3826834 2.086612e-15 -0.9238795 0.3826834 2.086612e-15 -0.9238795 0.7071068 1.228016e-15 -0.7071068 0.9238795 1.824665e-16 -0.3826834 0.9238795 1.824665e-16 -0.3826834 0.17972 -0.3890551 -0.9035136 0.5168673 -0.6824195 -0.5168673 0.1414176 -0.6888722 -0.7109544 0.6452257 -0.4091058 -0.6452257 2.639495e-19 -1.864161e-16 -1 2.639495e-19 -1.864161e-16 -1 2.639495e-19 -1.864161e-16 -1 2.639495e-19 -1.864161e-16 -1 -0 1 -0 -0 1 -0 -0 1 -0 -0 1 -0 -0 1 -0 -0 1 -0 -0 1 -0 -0 1 -0 -0 1 -0 -0 1 -0 -0 1 -0 -0 1 -0 1 -0 -0 1 -0 -0 1 -0 -0 1 -0 -0 0.7109544 -0.6888722 -0.1414176 0.9035136 -0.3890551 -0.17972 0.07342823 -0.9264651 -0.3691486 0.2527247 -0.9339488 -0.2527247 -0.1414176 -0.6888722 -0.7109544 -0.17972 -0.3890551 -0.9035136 -0.3826834 1.745128e-15 -0.9238795 -0.7071068 1.062684e-15 -0.7071068 -0.7071068 1.062684e-15 -0.7071068 -0.3826834 1.745128e-15 -0.9238795 -0.9238795 2.184555e-16 -0.3826834 -0.9238795 2.184555e-16 -0.3826834 -1 -1.796373e-16 -3.981504e-19 -1 -1.796373e-16 -3.981504e-19 -1 -1.796373e-16 -3.981504e-19 -1 -1.796373e-16 -3.981504e-19 -0.7071068 2.169774e-16 0.7071068 -0.9238795 -8.565532e-17 0.3826834 -0.7071068 2.169774e-16 0.7071068 -0.9238795 -8.565532e-17 0.3826834 -0.3826834 4.865773e-16 0.9238795 -0.3826834 4.865773e-16 0.9238795 -0 -0 1 -0 -0 1 -0 -0 1 -0 -0 1 0.7071068 5.081847e-16 0.7071068 0.3826834 2.750276e-16 0.9238795 0.3826834 2.750276e-16 0.9238795 0.7071068 5.081847e-16 0.7071068 0.9238795 6.639753e-16 0.3826834 0.9238795 6.639753e-16 0.3826834 0.7109544 -0.6888722 0.1414176 0.9035136 -0.3890551 0.17972 0.3691486 -0.9264651 -0.07342823 0 -1 0 0 -1 0 0 -1 0 0 -1 0 0 -1 0 0 -1 0 0 -1 0 0 -1 0 0 -1 0 0 -1 0 0 -1 0 0 -1 0 0 -1 0 0 -1 0 0 -1 0 0 -1 0 0 -1 0 0 -1 0 0 -1 0 0 -1 0 0 -1 0 0 -1 0 0 -1 0 0 -1 0 -0.07342823 -0.9264651 -0.3691486 -0.5168673 -0.6824195 -0.5168673 -0.6452257 -0.4091058 -0.6452257 -0.9035136 -0.3890551 -0.17972 -0.7109544 -0.6888722 -0.1414176 -0.9035136 -0.3890551 0.17972 -0.7109544 -0.6888722 0.1414176 -0.6452257 -0.4091058 0.6452257 -0.5168673 -0.6824195 0.5168673 -0.17972 -0.3890551 0.9035136 -0.1414176 -0.6888722 0.7109544 0.17972 -0.3890551 0.9035136 0.1414176 -0.6888722 0.7109544 0.5168673 -0.6824195 0.5168673 0.6452257 -0.4091058 0.6452257 0.3691486 -0.9264651 0.07342823 0.2527247 -0.9339488 0.2527247 0.07342823 -0.9264651 0.3691486 -0.07342823 -0.9264651 0.3691486 -0.2527247 -0.9339488 0.2527247 -0.3691486 -0.9264651 0.07342823 -0.3691486 -0.9264651 -0.07342823 -0.2527247 -0.9339488 -0.2527247</float_array>
                    <technique_common>
                        <accessor count="112" source="#ID10" stride="3">
                            <param name="X" type="float" />
                            <param name="Y" type="float" />
                            <param name="Z" type="float" />
                        </accessor>
                    </technique_common>
                </source>
                <vertices id="ID8">
                    <input semantic="POSITION" source="#ID6" />
                    <input semantic="NORMAL" source="#ID7" />
                </vertices>
                <triangles count="106" material="Material2">
                    <input offset="0" semantic="VERTEX" source="#ID8" />
                    <p>0 1 2 1 0 3 0 4 3 4 0 5 6 7 8 7 6 9 10 11 12 11 10 13 14 15 16 15 14 17 17 14 18 17 18 19 19 18 20 19 20 21 21 20 22 21 22 23 23 22 24 23 24 25 26 27 28 27 26 29 9 30 7 30 9 31 7 32 8 32 7 33 6 34 35 34 6 8 36 37 38 37 36 39 40 37 41 37 40 38 42 43 44 43 42 45 46 47 48 47 46 49 48 50 46 50 48 51 52 53 54 53 52 55 56 57 58 57 56 59 60 56 61 56 60 59 31 62 30 62 31 63 30 33 7 33 30 64 65 66 67 66 65 68 68 65 69 68 69 70 70 69 71 71 69 72 72 69 73 73 69 74 73 74 75 75 74 76 76 74 77 77 74 78 78 74 79 79 74 80 79 80 81 79 81 82 70 83 78 83 70 84 84 70 85 85 70 71 78 83 86 78 86 87 78 87 88 78 88 77 8 89 34 89 8 32 35 90 91 90 35 34 92 90 93 90 92 91 94 93 95 93 94 92 96 95 97 95 96 94 97 98 96 98 97 99 99 100 98 100 99 101 102 100 101 100 102 103 63 102 62 102 63 103 62 64 30 64 62 104 62 105 104 105 62 102 102 106 105 106 102 101 101 107 106 107 101 99 107 97 108 97 107 99 108 95 109 95 108 97 110 95 93 95 110 109 111 93 90 93 111 110 89 90 34 90 89 111</p>
                </triangles>
            </mesh>
        </geometry>
        <geometry id="ID11">
            <mesh>
                <source id="ID17">
                    <float_array id="ID21" count="48">4.890958 -0.1389764 0.1562862 0.1771654 -0.1389764 0.1476378 4.870079 -0.1389764 0.1476378 0.1562862 -0.1389764 0.1562862 4.899606 -0.1389764 0.1771654 0.1476378 -0.1389764 0.1771654 3.412029 -0.1389764 1.056433 4.899606 -0.1389764 3.208661 3.412029 -0.1389764 2.655547 0.7812893 -0.1389764 2.655547 0.1476378 -0.1389764 3.208661 0.1562862 -0.1389764 3.229541 4.890958 -0.1389764 3.229541 0.1771654 -0.1389764 3.238189 4.870079 -0.1389764 3.238189 0.7812893 -0.1389764 1.056433</float_array>
                    <technique_common>
                        <accessor count="16" source="#ID21" stride="3">
                            <param name="X" type="float" />
                            <param name="Y" type="float" />
                            <param name="Z" type="float" />
                        </accessor>
                    </technique_common>
                </source>
                <source id="ID18">
                    <float_array id="ID22" count="48">0 -1 0 0 -1 0 0 -1 0 0 -1 0 0 -1 0 0 -1 0 0 -1 0 0 -1 0 0 -1 0 0 -1 0 0 -1 0 0 -1 0 0 -1 0 0 -1 0 0 -1 0 0 -1 0</float_array>
                    <technique_common>
                        <accessor count="16" source="#ID22" stride="3">
                            <param name="X" type="float" />
                            <param name="Y" type="float" />
                            <param name="Z" type="float" />
                        </accessor>
                    </technique_common>
                </source>
                <source id="ID20">
                    <float_array id="ID23" count="32">0.9981803 0.002798343 0.006213755 -6.938894e-18 0.9937865 -6.938894e-18 0.001819967 0.002798343 1 0.00955414 9.259216e-10 0.00955414 0.6869559 0.2940559 1 0.9904459 0.6869559 0.8114763 0.1333452 0.8114763 9.59872e-08 0.9904459 0.001820063 0.9972017 0.9981804 0.9972017 0.006213851 1 0.9937866 1 0.1333451 0.2940559</float_array>
                    <technique_common>
                        <accessor count="16" source="#ID23" stride="2">
                            <param name="S" type="float" />
                            <param name="T" type="float" />
                        </accessor>
                    </technique_common>
                </source>
                <vertices id="ID19">
                    <input semantic="POSITION" source="#ID17" />
                    <input semantic="NORMAL" source="#ID18" />
                </vertices>
                <triangles count="16" material="Material2">
                    <input offset="0" semantic="VERTEX" source="#ID19" />
                    <input offset="1" semantic="TEXCOORD" source="#ID20" />
                    <p>0 0 1 1 2 2 1 1 0 0 3 3 3 3 0 0 4 4 3 3 4 4 5 5 5 5 4 4 6 6 6 6 4 4 7 7 6 6 7 7 8 8 8 8 7 7 9 9 9 9 7 7 10 10 10 10 7 7 11 11 11 11 7 7 12 12 11 11 12 12 13 13 13 13 12 12 14 14 5 5 15 15 10 10 15 15 5 5 6 6 10 10 15 15 9 9</p>
                </triangles>
            </mesh>
        </geometry>
        <geometry id="ID24">
            <mesh>
                <source id="ID25">
                    <float_array id="ID28" count="120">0.1476378 -0.1389764 0.1771654 0.1476378 -0.1574803 3.208661 0.1476378 -0.1574803 0.1771654 0.1476378 -0.1389764 3.208661 0.1562862 -0.1389764 0.1562862 0.1476378 -0.1574803 0.1771654 0.1562862 -0.1574803 0.1562862 0.1476378 -0.1389764 0.1771654 0.1476378 -0.1389764 3.208661 0.1562862 -0.1574803 3.229541 0.1476378 -0.1574803 3.208661 0.1562862 -0.1389764 3.229541 0.1771654 -0.1574803 0.1476378 0.1771654 -0.1389764 0.1476378 0.1771654 -0.1389764 3.238189 0.1771654 -0.1574803 3.238189 4.870079 -0.1574803 0.1476378 0.1771654 -0.1389764 0.1476378 0.1771654 -0.1574803 0.1476378 4.870079 -0.1389764 0.1476378 4.870079 -0.1389764 3.238189 0.1771654 -0.1574803 3.238189 0.1771654 -0.1389764 3.238189 4.870079 -0.1574803 3.238189 4.890958 -0.1574803 0.1562862 4.870079 -0.1389764 0.1476378 4.870079 -0.1574803 0.1476378 4.890958 -0.1389764 0.1562862 4.890958 -0.1389764 3.229541 4.870079 -0.1574803 3.238189 4.870079 -0.1389764 3.238189 4.890958 -0.1574803 3.229541 4.899606 -0.1389764 0.1771654 4.899606 -0.1574803 0.1771654 4.899606 -0.1574803 3.208661 4.899606 -0.1389764 3.208661 4.899606 -0.1389764 3.208661 4.899606 -0.1574803 0.1771654 4.899606 -0.1574803 3.208661 4.899606 -0.1389764 0.1771654</float_array>
                    <technique_common>
                        <accessor count="40" source="#ID28" stride="3">
                            <param name="X" type="float" />
                            <param name="Y" type="float" />
                            <param name="Z" type="float" />
                        </accessor>
                    </technique_common>
                </source>
                <source id="ID26">
                    <float_array id="ID29" count="120">1 -0 -1.73959e-16 1 -0 -1.73959e-16 1 -0 -1.73959e-16 1 -0 -1.73959e-16 0.7071068 0 0.7071068 0.9238795 -0 0.3826834 0.7071068 0 0.7071068 0.9238795 -0 0.3826834 0.9238795 -0 -0.3826834 0.7071068 0 -0.7071068 0.9238795 -0 -0.3826834 0.7071068 0 -0.7071068 0.3826834 -0 0.9238795 0.3826834 -0 0.9238795 0.3826834 0 -0.9238795 0.3826834 0 -0.9238795 3.548616e-17 -0 1 3.548616e-17 -0 1 3.548616e-17 -0 1 3.548616e-17 -0 1 9.462975e-17 0 -1 9.462975e-17 0 -1 9.462975e-17 0 -1 9.462975e-17 0 -1 -0.7071068 0 0.7071068 -0.3826834 -0 0.9238795 -0.3826834 -0 0.9238795 -0.7071068 0 0.7071068 -0.7071068 0 -0.7071068 -0.3826834 0 -0.9238795 -0.3826834 0 -0.9238795 -0.7071068 0 -0.7071068 -0.9238795 0 0.3826834 -0.9238795 0 0.3826834 -0.9238795 0 -0.3826834 -0.9238795 0 -0.3826834 -1 0 0 -1 0 0 -1 0 0 -1 0 0</float_array>
                    <technique_common>
                        <accessor count="40" source="#ID29" stride="3">
                            <param name="X" type="float" />
                            <param name="Y" type="float" />
                            <param name="Z" type="float" />
                        </accessor>
                    </technique_common>
                </source>
                <vertices id="ID27">
                    <input semantic="POSITION" source="#ID25" />
                    <input semantic="NORMAL" source="#ID26" />
                </vertices>
                <triangles count="24" material="Material2">
                    <input offset="0" semantic="VERTEX" source="#ID27" />
                    <p>0 1 2 1 0 3 4 5 6 5 4 7 8 9 10 9 8 11 12 4 6 4 12 13 14 9 11 9 14 15 16 17 18 17 16 19 20 21 22 21 20 23 24 25 26 25 24 27 28 29 30 29 28 31 32 24 33 24 32 27 28 34 31 34 28 35 36 37 38 37 36 39</p>
                </triangles>
            </mesh>
        </geometry>
        <geometry id="ID30">
            <mesh>
                <source id="ID36">
                    <float_array id="ID40" count="12">3.412029 -0.0996063 2.655547 0.7812893 -0.0996063 1.056433 3.412029 -0.0996063 1.056433 0.7812893 -0.0996063 2.655547</float_array>
                    <technique_common>
                        <accessor count="4" source="#ID40" stride="3">
                            <param name="X" type="float" />
                            <param name="Y" type="float" />
                            <param name="Z" type="float" />
                        </accessor>
                    </technique_common>
                </source>
                <source id="ID37">
                    <float_array id="ID41" count="12">0 -1 0 0 -1 0 0 -1 0 0 -1 0</float_array>
                    <technique_common>
                        <accessor count="4" source="#ID41" stride="3">
                            <param name="X" type="float" />
                            <param name="Y" type="float" />
                            <param name="Z" type="float" />
                        </accessor>
                    </technique_common>
                </source>
                <source id="ID39">
                    <float_array id="ID42" count="8">1 2 0 1 1 1 0 2</float_array>
                    <technique_common>
                        <accessor count="4" source="#ID42" stride="2">
                            <param name="S" type="float" />
                            <param name="T" type="float" />
                        </accessor>
                    </technique_common>
                </source>
                <vertices id="ID38">
                    <input semantic="POSITION" source="#ID36" />
                    <input semantic="NORMAL" source="#ID37" />
                </vertices>
                <triangles count="2" material="Material2">
                    <input offset="0" semantic="VERTEX" source="#ID38" />
                    <input offset="1" semantic="TEXCOORD" source="#ID39" />
                    <p>0 0 1 1 2 2 1 1 0 0 3 3</p>
                </triangles>
            </mesh>
        </geometry>
        <geometry id="ID43">
            <mesh>
                <source id="ID46">
                    <float_array id="ID49" count="48">0.7812893 -0.0996063 1.056433 0.7812893 -0.1389764 2.655547 0.7812893 -0.1389764 1.056433 0.7812893 -0.0996063 2.655547 3.412029 -0.1389764 1.056433 0.7812893 -0.0996063 1.056433 0.7812893 -0.1389764 1.056433 3.412029 -0.0996063 1.056433 3.412029 -0.0996063 2.655547 0.7812893 -0.1389764 2.655547 0.7812893 -0.0996063 2.655547 3.412029 -0.1389764 2.655547 3.412029 -0.0996063 2.655547 3.412029 -0.1389764 1.056433 3.412029 -0.1389764 2.655547 3.412029 -0.0996063 1.056433</float_array>
                    <technique_common>
                        <accessor count="16" source="#ID49" stride="3">
                            <param name="X" type="float" />
                            <param name="Y" type="float" />
                            <param name="Z" type="float" />
                        </accessor>
                    </technique_common>
                </source>
                <source id="ID47">
                    <float_array id="ID50" count="48">1 0 0 1 0 0 1 0 0 1 0 0 -0 -0 1 -0 -0 1 -0 -0 1 -0 -0 1 -0 -0 -1 -0 -0 -1 -0 -0 -1 -0 -0 -1 -1 -0 0 -1 -0 0 -1 -0 0 -1 -0 0</float_array>
                    <technique_common>
                        <accessor count="16" source="#ID50" stride="3">
                            <param name="X" type="float" />
                            <param name="Y" type="float" />
                            <param name="Z" type="float" />
                        </accessor>
                    </technique_common>
                </source>
                <vertices id="ID48">
                    <input semantic="POSITION" source="#ID46" />
                    <input semantic="NORMAL" source="#ID47" />
                </vertices>
                <triangles count="8" material="Material2">
                    <input offset="0" semantic="VERTEX" source="#ID48" />
                    <p>0 1 2 1 0 3 4 5 6 5 4 7 8 9 10 9 8 11 12 13 14 13 12 15</p>
                </triangles>
            </mesh>
        </geometry>
        <geometry id="ID51">
            <mesh>
                <source id="ID57">
                    <float_array id="ID61" count="24">3.412029 -0.1389764 2.655547 0.7812893 -0.1389764 1.056433 3.412029 -0.1389764 1.056433 0.7812893 -0.1389764 2.655547 0.7812893 -0.1389764 2.655547 3.412029 -0.1389764 2.655547 0.7812893 -0.1389764 1.056433 3.412029 -0.1389764 1.056433</float_array>
                    <technique_common>
                        <accessor count="8" source="#ID61" stride="3">
                            <param name="X" type="float" />
                            <param name="Y" type="float" />
                            <param name="Z" type="float" />
                        </accessor>
                    </technique_common>
                </source>
                <source id="ID58">
                    <float_array id="ID62" count="24">0 -1 0 0 -1 0 0 -1 0 0 -1 0 -0 1 -0 -0 1 -0 -0 1 -0 -0 1 -0</float_array>
                    <technique_common>
                        <accessor count="8" source="#ID62" stride="3">
                            <param name="X" type="float" />
                            <param name="Y" type="float" />
                            <param name="Z" type="float" />
                        </accessor>
                    </technique_common>
                </source>
                <source id="ID60">
                    <float_array id="ID63" count="8">0.0473893 0.0368826 0.01085124 0.01467268 0.0473893 0.01467268 0.01085124 0.0368826</float_array>
                    <technique_common>
                        <accessor count="4" source="#ID63" stride="2">
                            <param name="S" type="float" />
                            <param name="T" type="float" />
                        </accessor>
                    </technique_common>
                </source>
                <vertices id="ID59">
                    <input semantic="POSITION" source="#ID57" />
                    <input semantic="NORMAL" source="#ID58" />
                </vertices>
                <triangles count="4" material="Material2">
                    <input offset="0" semantic="VERTEX" source="#ID59" />
                    <input offset="1" semantic="TEXCOORD" source="#ID60" />
                    <p>0 0 1 1 2 2 1 1 0 0 3 3 4 3 5 0 6 1 7 2 6 1 5 0</p>
                </triangles>
            </mesh>
        </geometry>
    </library_geometries>
    <library_materials>
        <material id="ID4" name="housing">
            <instance_effect url="#ID5" />
        </material>
        <material id="ID12" name="display_face">
            <instance_effect url="#ID13" />
        </material>
        <material id="ID31" name="display_screen">
            <instance_effect url="#ID32" />
        </material>
        <material id="ID44" name="plastic_black">
            <instance_effect url="#ID45" />
        </material>
        <material id="ID52" name="glass">
            <instance_effect url="#ID53" />
        </material>
    </library_materials>
    <library_effects>
        <effect id="ID5">
            <profile_COMMON>
                <technique sid="COMMON">
                    <lambert>
                        <diffuse>
                            <color>0.7529412 0.7529412 0.7529412 1</color>
                        </diffuse>
                    </lambert>
                </technique>
            </profile_COMMON>
        </effect>
        <effect id="ID13">
            <profile_COMMON>
                <newparam sid="ID15">
                    <surface type="2D">
                        <init_from>ID14</init_from>
                    </surface>
                </newparam>
                <newparam sid="ID16">
                    <sampler2D>
                        <source>ID15</source>
                    </sampler2D>
                </newparam>
                <technique sid="COMMON">
                    <lambert>
                        <diffuse>
                            <texture texture="ID16" texcoord="UVSET0" />
                        </diffuse>
                    </lambert>
                </technique>
            </profile_COMMON>
        </effect>
        <effect id="ID32">
            <profile_COMMON>
                <newparam sid="ID34">
                    <surface type="2D">
                        <init_from>ID33</init_from>
                    </surface>
                </newparam>
                <newparam sid="ID35">
                    <sampler2D>
                        <source>ID34</source>
                    </sampler2D>
                </newparam>
                <technique sid="COMMON">
                    <lambert>
                        <diffuse>
                            <texture texture="ID35" texcoord="UVSET0" />
                        </diffuse>
                    </lambert>
                </technique>
            </profile_COMMON>
        </effect>
        <effect id="ID45">
            <profile_COMMON>
                <technique sid="COMMON">
                    <lambert>
                        <diffuse>
                            <color>0.2 0.2 0.2 1</color>
                        </diffuse>
                    </lambert>
                </technique>
            </profile_COMMON>
        </effect>
        <effect id="ID53">
            <profile_COMMON>
                <newparam sid="ID55">
                    <surface type="2D">
                        <init_from>ID54</init_from>
                    </surface>
                </newparam>
                <newparam sid="ID56">
                    <sampler2D>
                        <source>ID55</source>
                    </sampler2D>
                </newparam>
                <technique sid="COMMON">
                    <lambert>
                        <diffuse>
                            <texture texture="ID56" texcoord="UVSET0" />
                        </diffuse>
                        <transparent opaque="RGB_ZERO">
                            <color>0.48 0.48 0.48 1</color>
                        </transparent>
                        <transparency>
                            <float>1</float>
                        </transparency>
                    </lambert>
                </technique>
            </profile_COMMON>
        </effect>
    </library_effects>
    <library_images>
        <image id="ID14">
            <init_from>text_display_logo/display_face.jpg</init_from>
        </image>
        <image id="ID33">
            <init_from>text_display_logo/display_screen.png</init_from>
        </image>
        <image id="ID54">
            <init_from>text_display_logo/glass.jpg</init_from>
        </image>
    </library_images>
    <scene>
        <instance_visual_scene url="#ID2" />
    </scene>
</COLLADA>
